<?xml version="1.0" standalone="no"?>
<!DOCTYPE svg PUBLIC "-//W3C//DTD SVG 1.1//EN" "http://www.w3.org/Graphics/SVG/1.1/DTD/svg11.dtd" >
<svg xmlns="http://www.w3.org/2000/svg" xmlns:xlink="http://www.w3.org/1999/xlink" version="1.1">
<metadata>
Created by FontForge 20170910 at Tue May 20 00:08:40 1997
 By Jimmy Wärting
Copyright (c) 1987 Adobe Systems Incorporated. All rights reserved.Univers is a registered trademark of Linotype Company.
</metadata>
<defs>
<font id="Univers55AA" horiz-adv-x="556" >
  <font-face 
    font-family="Univers"
    font-weight="400"
    font-stretch="normal"
    units-per-em="1000"
    panose-1="0 0 4 0 0 0 0 0 0 0"
    ascent="800"
    descent="-200"
    x-height="502"
    cap-height="722"
    bbox="-165 -234 1000 977"
    underline-thickness="56"
    underline-position="-124"
    unicode-range="U+0020-F002"
  />
<missing-glyph horiz-adv-x="500" 
d="M63 0v800h375v-800h-375zM125 63h250v675h-250v-675z" />
    <glyph glyph-name=".notdef" horiz-adv-x="500" 
d="M63 0v800h375v-800h-375zM125 63h250v675h-250v-675z" />
    <glyph glyph-name=".null" horiz-adv-x="0" 
 />
    <glyph glyph-name="nonmarkingreturn" horiz-adv-x="278" 
 />
    <glyph glyph-name="space" unicode=" " horiz-adv-x="278" 
 />
    <glyph glyph-name="exclam" unicode="!" horiz-adv-x="389" 
d="M140 722h111l-22 -555h-71zM249 0h-106v100h106v-100z" />
    <glyph glyph-name="quotedbl" unicode="&#x22;" horiz-adv-x="400" 
d="M73 708h95v-246h-95v246zM232 708h95v-246h-95v246z" />
    <glyph glyph-name="numbersign" unicode="#" 
d="M206 698h82l-38 -209h119l37 209h79l-37 -209h94v-66h-107l-29 -168h103v-66h-117l-38 -209h-76l37 209h-118l-40 -209h-80l37 209h-100v66h113l29 168h-105v66h117zM239 423l-29 -168h118l29 168h-118z" />
    <glyph glyph-name="dollar" unicode="$" 
d="M252 419v200q-106 -5 -106 -109q0 -35 38 -60q20 -13 68 -31zM300 301v-230q56 2 89 30q36 32 36 90q0 79 -125 110zM253 706v69h48v-68q92 -2 149 -43q63 -45 70 -134h-105q-3 87 -115 91v-217q107 -29 156 -64q74 -52 74 -140q0 -103 -69 -159q-61 -49 -163 -56v-88
h-48v88q-90 0 -149 44q-74 54 -73 161h105q1 -117 117 -119v243q-111 36 -146 62q-63 47 -63 138q0 82 67 138q62 52 145 54z" />
    <glyph glyph-name="percent" unicode="%" horiz-adv-x="889" 
d="M678 731l-441 -769h-66l441 769h66zM667 343q84 0 126 -52q37 -46 37 -127t-37 -127q-42 -52 -126 -52t-126 52q-37 46 -37 127t37 127q42 52 126 52zM667 283q-85 0 -85 -119t85 -119t85 119t-85 119zM201 707q84 0 126 -52q37 -46 37 -127t-37 -127q-42 -52 -126 -52
t-126 52q-37 46 -37 127t37 127q42 52 126 52zM201 647q-85 0 -85 -119t85 -119t85 119t-85 119z" />
    <glyph glyph-name="ampersand" unicode="&#x26;" horiz-adv-x="778" 
d="M483 149l-212 209q-57 -43 -78 -69q-33 -42 -33 -97q0 -58 49 -91q43 -30 106 -30q86 0 168 78zM307 469q99 68 99 112q0 34 -29 53q-25 17 -61 17q-32 0 -59.5 -22t-27.5 -53t78 -107zM636 0l-88 89q-60 -58 -121.5 -81t-147.5 -23q-91 0 -156 55q-68 58 -68 148
q0 76 45 136q32 44 107 97q-83 83 -83 162q0 77 59 118q52 36 133 36q82 0 133 -33q62 -40 62 -121q0 -90 -140 -179l177 -175q49 87 49 204q0 17 -1 35h105q-10 -202 -91 -301l171 -165l-2 -2h-143z" />
    <glyph glyph-name="quotesingle" unicode="'" horiz-adv-x="278" 
d="M92 708h95v-246h-95v246z" />
    <glyph glyph-name="parenleft" unicode="(" horiz-adv-x="333" 
d="M192 722h67q-89 -269 -89 -409t89 -409h-67l-76 206q-41 123 -41 203t41 203z" />
    <glyph glyph-name="parenright" unicode=")" horiz-adv-x="333" 
d="M141 -96h-67q89 269 89 409t-89 409h67l76 -206q41 -123 41 -203t-41 -203z" />
    <glyph glyph-name="asterisk" unicode="*" 
d="M308 545l171 19v-75l-172 19l102 -138l-65 -40l-67 158l-72 -156l-68 37l106 139l-166 -14v73l169 -22l-102 141l66 36l67 -156l69 156l67 -37z" />
    <glyph glyph-name="plus" unicode="+" horiz-adv-x="584" 
d="M257 484h70v-207h207v-70h-207v-207h-70v207h-207v70h207v207z" />
    <glyph glyph-name="comma" unicode="," horiz-adv-x="278" 
d="M49 -125l64 245h116l-112 -245h-68z" />
    <glyph glyph-name="hyphen" unicode="-" horiz-adv-x="333" 
d="M292 232h-251v70h251v-70z" />
    <glyph glyph-name="hyphen" unicode="&#x2010;" horiz-adv-x="333" 
d="M292 232h-251v70h251v-70z" />
    <glyph glyph-name="period" unicode="." horiz-adv-x="278" 
d="M197 0h-116v120h116v-120z" />
    <glyph glyph-name="slash" unicode="/" horiz-adv-x="278" 
d="M236 722h66l-260 -818h-66z" />
    <glyph glyph-name="zero" unicode="0" 
d="M278 707q232 0 232 -361t-232 -361t-232 361t232 361zM278 621q-84 0 -112 -104q-15 -55 -15 -171q0 -114 15 -170q28 -105 112 -105t112 105q15 56 15 170q0 116 -15 171q-28 104 -112 104z" />
    <glyph glyph-name="one" unicode="1" 
d="M390 692v-692h-100v587q-40 -27 -79 -54q-46 -30 -83 -47l-4 101q22 11 79 47q62 38 87 58h100z" />
    <glyph glyph-name="two" unicode="2" 
d="M493 86v-86h-440v91q74 72 147 143q83 84 138 153q48 61 48 127q0 107 -111 107q-51 0 -80.5 -34t-26.5 -84h-105q-1 92 59 148t152 56q99 0 158 -50.5t59 -134.5q0 -58 -18 -99q-14 -31 -55 -84q-95 -121 -241 -251v-2h316z" />
    <glyph glyph-name="three" unicode="3" 
d="M213 313v86q76 -5 124 18q60 30 60 101q0 103 -125 103q-48 0 -81 -28q-36 -30 -37 -77h-105q-1 87 66 141q62 50 150 50q100 0 164 -46q73 -53 73 -149q0 -58 -41.5 -101.5t-99.5 -54.5v-2q68 -6 109.5 -53t41.5 -115q0 -95 -72.5 -148t-185.5 -53q-93 0 -153 49
q-64 53 -63 144h105q-1 -50 35 -78.5t91 -28.5q56 0 95 29q43 31 43 82q0 143 -194 131z" />
    <glyph glyph-name="four" unicode="4" 
d="M159 231h169v308h-6zM418 0h-90v145h-260v86l248 461h102v-461h107v-86h-107v-145z" />
    <glyph glyph-name="five" unicode="5" 
d="M83 692h389v-86h-303l-13 -213q37 35 69 48.5t81 13.5q95 0 153 -70q54 -65 54 -162q0 -106 -70.5 -172t-177.5 -66q-90 0 -145 44q-60 47 -64 135h105q1 -46 39 -71q32 -22 83 -22q63 0 96 48q29 42 29 108q0 58 -27 97q-31 45 -88 45t-87 -18q-34 -20 -50 -71h-91z" />
    <glyph glyph-name="six" unicode="6" 
d="M156 221q0 -63 33 -105q36 -45 99 -45t98 42q32 38 32 102q0 153 -127 153q-60 0 -97.5 -43t-37.5 -104zM288 -15q-137 0 -194 104q-43 79 -43 233q0 160 52 258q66 127 210 127q83 0 139 -47q58 -51 58 -132h-105q1 93 -103 93q-90 0 -124 -92q-21 -56 -22 -160l2 -2
q47 87 153 87q97 0 156 -67q56 -64 56 -162q0 -103 -66 -171.5t-169 -68.5z" />
    <glyph glyph-name="seven" unicode="7" 
d="M35 606v86h457l-254 -692h-97l223 606h-329z" />
    <glyph glyph-name="eight" unicode="8" 
d="M278 324q-58 0 -101 -36.5t-43 -90.5q0 -57 41.5 -100t102.5 -43q59 0 100 37q44 41 44 106q0 61 -43 96q-40 31 -101 31zM412 519q0 53 -38.5 86t-95.5 33q-48 0 -87 -31q-43 -34 -43 -83q0 -53 39 -85q36 -29 91 -29q54 0 92 28q42 30 42 81zM192 364v2
q-64 10 -101.5 54.5t-37.5 109.5q0 78 68 129q65 48 157 48q88 0 153 -42q76 -49 76 -135q0 -64 -39.5 -110t-102.5 -54v-1q152 -32 152 -176q0 -96 -73 -153q-66 -51 -166 -51q-97 0 -163 48q-76 54 -76 149q0 142 153 182z" />
    <glyph glyph-name="nine" unicode="9" 
d="M397 488q0 58 -33 94q-36 39 -99 39q-57 0 -90 -36t-33 -97q0 -144 120 -144q62 0 98.5 40t36.5 104zM263 707q137 0 195 -104q44 -80 44 -233q0 -160 -51 -258q-67 -127 -211 -127q-83 0 -140 49t-57 130h105q-1 -93 103 -93q91 0 124 95q21 59 22 181l-1 2
q-37 -95 -154 -91q-90 3 -145.5 62t-59.5 152q-5 99 59.5 167t166.5 68z" />
    <glyph glyph-name="colon" unicode=":" horiz-adv-x="278" 
d="M197 389h-116v120h116v-120zM197 0h-116v120h116v-120z" />
    <glyph glyph-name="semicolon" unicode=";" horiz-adv-x="278" 
d="M49 -125l64 245h116l-112 -245h-68zM229 387h-116v120h116v-120z" />
    <glyph glyph-name="less" unicode="&#x3c;" horiz-adv-x="584" 
d="M534 484v-80l-395 -162l395 -162v-80l-489 207v70z" />
    <glyph glyph-name="equal" unicode="=" horiz-adv-x="584" 
d="M50 362h484v-70h-484v70zM50 192h484v-70h-484v70z" />
    <glyph glyph-name="greater" unicode="&#x3e;" horiz-adv-x="584" 
d="M539 277v-70l-489 -207v80l391 162l-391 162v80z" />
    <glyph glyph-name="question" unicode="?" horiz-adv-x="500" 
d="M63 625v90q67 22 141 22q96 0 159 -39q74 -47 74 -138q0 -61 -46 -123l-86 -98q-36 -41 -36.5 -42t-8.5 -38v-95h-100v74q0 39 1 45q3 27 20 53q45 45 90 91q61 67 61 123q0 101 -129 101q-80 0 -140 -26zM263 0h-106v100h106v-100z" />
    <glyph glyph-name="at" unicode="@" horiz-adv-x="1015" 
d="M606 377q-3 34 -30 54q-24 17 -59 17q-72 0 -120 -69q-43 -61 -45 -136q-1 -46 28 -84q31 -41 76 -38q69 5 115 100q42 85 35 156zM643 432l21 66h83l-97 -299q-5 -15 -5 -28q0 -43 43 -47q38 0 80 28t62 64q42 74 42 141q0 15 -2 29q-18 108 -103 182q-80 69 -194 88
q-30 5 -61 5q-130 0 -238 -88q-150 -123 -155 -294q-5 -153 107 -254q109 -98 266 -95q79 1 192 34l29 -67q-123 -45 -238 -43q-78 2 -147 24q-141 45 -220 152q-82 109 -76 254q4 94 64 198q57 100 135 157q63 46 145 73q86 29 157 25q86 -5 171 -39q99 -39 157 -104
q88 -98 88 -220q0 -87 -46 -174q-33 -63 -90 -104q-63 -45 -129 -45q-28 0 -54 8q-57 18 -64 70q-38 -38 -67 -53q-37 -21 -83 -18q-68 4 -111 55q-42 48 -45 117q-3 67 33 137q34 66 91 108.5t124 46.5q43 2 83 -24t50 -66h2z" />
    <glyph glyph-name="A" unicode="A" horiz-adv-x="722" 
d="M112 0h-103l304 722h107l292 -722h-109l-78 188h-335zM362 623l-138 -349h269z" />
    <glyph glyph-name="B" unicode="B" horiz-adv-x="667" 
d="M195 636v-218h124q82 0 117 19q45 24 45 90t-45 90q-35 19 -117 19h-124zM353 0h-258v722h258q103 0 163 -41q70 -49 70 -147q0 -56 -34 -98.5t-88 -57.5v-2q67 -10 107 -65q37 -51 37 -122q0 -61 -36 -107t-95 -68q-38 -14 -124 -14zM195 332v-246h167q141 0 141 123
t-141 123h-167z" />
    <glyph glyph-name="C" unicode="C" horiz-adv-x="667" 
d="M630 536h-105q-4 50 -49.5 82.5t-103.5 32.5q-211 0 -211 -290t202 -290q61 0 105.5 30t53.5 85h105q-7 -89 -86 -145t-187 -56q-151 0 -229 112q-69 100 -69 264q0 156 69 257q85 124 251 119q108 -3 175 -54q71 -53 79 -147z" />
    <glyph glyph-name="D" unicode="D" horiz-adv-x="722" 
d="M188 636v-550h146q126 0 182 81t56 194t-56 194t-182 81h-146zM88 0v722h240q127 0 196 -44q153 -98 153 -317t-153 -317q-69 -44 -196 -44h-240z" />
    <glyph glyph-name="E" unicode="E" horiz-adv-x="611" 
d="M536 0h-461v722h453v-86h-353v-225h336v-86h-336v-239h361v-86z" />
    <glyph glyph-name="F" unicode="F" 
d="M179 0h-100v722h428v-86h-328v-227h309v-86h-309v-323z" />
    <glyph glyph-name="G" unicode="G" horiz-adv-x="778" 
d="M685 542h-105q-23 109 -170 109q-123 0 -187 -94q-54 -81 -50 -196q6 -148 60 -213q63 -75 211 -77q70 -1 144 23v204h-164v86h264v-357q-139 -42 -248 -42q-85 0 -141 15q-68 19 -123 68q-108 95 -108 293q0 114 62 222q88 154 292 154q103 0 175 -45q84 -53 88 -150z
" />
    <glyph glyph-name="H" unicode="H" horiz-adv-x="722" 
d="M190 0h-100v722h100v-310h343v310h100v-722h-100v326h-343v-326z" />
    <glyph glyph-name="I" unicode="I" horiz-adv-x="278" 
d="M189 0h-100v722h100v-722z" />
    <glyph glyph-name="J" unicode="J" 
d="M453 722v-522q0 -98 -60.5 -153.5t-156.5 -55.5q-103 0 -159.5 53t-55.5 152h105q8 -119 113 -119q48 0 78 26q35 32 35 93l1 526h100z" />
    <glyph glyph-name="K" unicode="K" horiz-adv-x="667" 
d="M192 0h-100v722h100v-313l301 313h137l-323 -323l359 -399h-141l-333 383v-383z" />
    <glyph glyph-name="L" unicode="L" 
d="M529 0h-436v722h100v-636h336v-86z" />
    <glyph glyph-name="M" unicode="M" horiz-adv-x="944" 
d="M752 0v650h-2l-231 -650h-94l-231 650h-2v-650h-100v722h179l208 -595h2l204 595h167v-722h-100z" />
    <glyph glyph-name="N" unicode="N" horiz-adv-x="778" 
d="M590 722h89v-722h-124l-365 613h-2v-613h-89v722h137l352 -597h2v597z" />
    <glyph glyph-name="O" unicode="O" horiz-adv-x="778" 
d="M59 361q0 167 81 267q87 109 249 109t249 -109q81 -100 81 -267t-81 -267q-87 -109 -249 -109t-249 109q-81 100 -81 267zM164 361q0 -290 225 -290t225 290t-225 290t-225 -290z" />
    <glyph glyph-name="P" unicode="P" horiz-adv-x="611" 
d="M88 0v722h242q250 0 250 -202q0 -105 -78 -158q-67 -44 -178 -44h-136v-318h-100zM188 404h157q130 0 130 116t-130 116h-157v-232z" />
    <glyph glyph-name="Q" unicode="Q" horiz-adv-x="778" 
d="M607 361q0 122 -45 197q-56 93 -173 93t-173 -94q-45 -75 -45 -196q0 -122 45 -197q56 -93 173 -93t173 94q45 75 45 196zM761 76v-76q-64 2 -129 2t-130 -2q-40 -7 -113 -15q-160 -1 -245 111q-78 101 -78 265t78 265q85 111 245 111t246 -111q77 -101 77 -265
q0 -192 -132 -294l2 -2q68 15 113 15q44 0 66 -4z" />
    <glyph glyph-name="R" unicode="R" horiz-adv-x="667" 
d="M184 636v-224h165q136 0 136 112t-136 112h-165zM326 326h-140v-326h-100v722h258q246 0 246 -181q0 -65 -36.5 -112t-99.5 -62v-2q60 -15 83 -52q17 -26 27 -96q13 -89 17 -110q11 -63 28 -107h-107q-10 45 -26 133q-10 87 -11 91q-9 45 -30 69q-30 33 -109 33z" />
    <glyph glyph-name="S" unicode="S" horiz-adv-x="667" 
d="M56 211h105q3 -140 158 -140q182 0 182 125q0 86 -118 111q-153 32 -203 56q-114 54 -114 159q0 109 88 166q75 49 190 49q102 0 168 -45q76 -52 76 -150h-105q-5 109 -144 109q-65 0 -111 -24q-57 -30 -57 -88q0 -54 37 -77q11 -6 84 -30q70 -18 141 -37q82 -23 121 -58
q52 -47 52 -130q0 -114 -92 -172q-78 -50 -201 -50q-121 0 -187 52q-73 58 -70 174z" />
    <glyph glyph-name="T" unicode="T" horiz-adv-x="611" 
d="M256 0v636h-242v86h584v-86h-242v-636h-100z" />
    <glyph glyph-name="U" unicode="U" horiz-adv-x="778" 
d="M680 722v-436q0 -143 -72 -220q-75 -81 -219 -81t-219 81q-72 77 -72 220v436h100v-460q0 -91 52 -141t139 -50t139 50t52 141v460h100z" />
    <glyph glyph-name="V" unicode="V" horiz-adv-x="667" 
d="M550 722h100l-266 -722h-110l-257 722h100l215 -617h2z" />
    <glyph glyph-name="W" unicode="W" horiz-adv-x="1000" 
d="M213 0l-205 722h100l162 -594h2l171 594h124l162 -599h2l161 599h100l-214 -722h-111l-166 617h-2l-178 -617h-108z" />
    <glyph glyph-name="X" unicode="X" horiz-adv-x="722" 
d="M361 310l-220 -310h-121l280 378l-250 344h128l195 -278l195 278h121l-257 -346l270 -376h-126z" />
    <glyph glyph-name="Y" unicode="Y" horiz-adv-x="667" 
d="M114 722l224 -354l216 354h112l-282 -466v-256h-100v256l-282 466h112z" />
    <glyph glyph-name="Z" unicode="Z" horiz-adv-x="611" 
d="M49 722h540v-86l-446 -550h438v-86h-558v86l444 550h-418v86z" />
    <glyph glyph-name="bracketleft" unicode="[" horiz-adv-x="333" 
d="M253 -96h-173v818h173v-66h-87v-686h87v-66z" />
    <glyph glyph-name="backslash" unicode="\" horiz-adv-x="278" 
d="M230 0l-237 722h66l237 -722h-66z" />
    <glyph glyph-name="bracketright" unicode="]" horiz-adv-x="333" 
d="M253 -96h-173v66h87v686h-87v66h173v-818z" />
    <glyph glyph-name="asciicircum" unicode="^" horiz-adv-x="584" 
d="M102 327l154 380h73l154 -380h-70l-121 296l-121 -296h-69z" />
    <glyph glyph-name="underscore" unicode="_" horiz-adv-x="500" 
d="M500 -68v-56h-500v56h500z" />
    <glyph glyph-name="grave" unicode="`" horiz-adv-x="278" 
d="M-8 722h104l82 -144h-65z" />
    <glyph glyph-name="a" unicode="a" 
d="M383 244h-95q-52 0 -89 -21q-46 -26 -46 -76q0 -45 29 -70q26 -23 70 -23q135 0 131 190zM297 310h86q0 76 -15 102q-21 36 -91 36q-38 0 -65 -20q-28 -23 -29 -60h-100q4 77 60 116q49 33 130 33q205 0 205 -171v-240q0 -50 4 -106h-64q-38 0 -16 -1q-10 0 -11 8
q-2 23 -5 68h-2q-44 -90 -156 -90q-72 0 -120 35q-55 39 -55 108q0 97 77 144q63 38 167 38z" />
    <glyph glyph-name="b" unicode="b" horiz-adv-x="611" 
d="M465 251q0 197 -142 197q-74 0 -111 -64q-31 -53 -31 -133q0 -197 142 -197q74 0 111 63q31 53 31 134zM183 75l-4 -75h-98q5 75 5 80v642h95v-288h2q40 83 156 83q110 0 172 -82q54 -73 54 -184q0 -109 -49 -181q-56 -85 -160 -85q-127 0 -173 95h-2z" />
    <glyph glyph-name="c" unicode="c" horiz-adv-x="500" 
d="M463 341h-95q-8 107 -103 107q-126 0 -126 -197t126 -197q99 0 107 113h95q-6 -84 -62 -133t-141 -49q-115 0 -173 76q-52 67 -52 186q0 117 57 190q62 80 176 80q81 0 134 -47.5t57 -128.5z" />
    <glyph glyph-name="d" unicode="d" horiz-adv-x="611" 
d="M154 252q0 -82 31 -136q37 -65 111 -65q142 0 142 201q0 80 -30 134q-38 65 -112 65q-142 0 -142 -199zM437 434v288h95v-633q0 -16 5 -89h-97l-3 80h-2q-46 -95 -173 -95q-104 0 -160 85q-48 72 -48 181q0 111 54 184q61 82 171 82q116 0 156 -83h2z" />
    <glyph glyph-name="e" unicode="e" 
d="M505 233h-354q-6 -73 24 -122q34 -57 102 -57q107 0 122 102h100q-11 -83 -70.5 -127t-152.5 -44q-115 0 -173 76q-52 67 -52 186q0 118 57 191q62 80 176 79q109 -1 167 -67q54 -62 54 -170v-47zM151 299h254q2 67 -29 106q-33 43 -99 43q-58 0 -92 -42.5t-34 -106.5z
" />
    <glyph glyph-name="f" unicode="f" horiz-adv-x="333" 
d="M209 0h-95v436h-98v66h98v96q0 75 52 111q41 28 105 28q11 0 68 -10v-79l-48 3q-43 0 -61 -14q-21 -15 -21 -55v-80h116v-66h-116v-436z" />
    <glyph glyph-name="g" unicode="g" horiz-adv-x="611" 
d="M151 263q0 -73 29 -122q37 -63 112 -63q72 0 109 56q32 49 32 129t-32 129q-37 56 -109 56q-75 0 -112 -63q-29 -49 -29 -122zM433 427l3 75h98q-6 -60 -6 -90v-353q0 -137 -62.5 -198t-201.5 -61q-185 0 -186 162h100q6 -93 117 -93q90 0 119 70q16 40 19 155h-3
q-21 -42 -70 -65q-44 -20 -95 -20q-109 0 -164 72q-50 64 -50 177t60 184q63 75 173 75q90 0 134 -66l7.5 -14t7.5 -10z" />
    <glyph glyph-name="h" unicode="h" horiz-adv-x="611" 
d="M185 0h-95v722h95v-287h2q53 82 163 82q91 0 135 -55q37 -45 37 -122v-340h-95v297q0 72 -23 106q-26 40 -89 41q-30 1 -65.5 -19.5t-48.5 -50.5q-14 -33 -16 -67q0 4 0 -49v-258z" />
    <glyph glyph-name="i" unicode="i" horiz-adv-x="278" 
d="M187 0h-95v502h95v-502zM83 619v103h113v-103h-113z" />
    <glyph glyph-name="j" unicode="j" horiz-adv-x="278" 
d="M191 502v-533q0 -75 -23 -113q-29 -48 -101 -48q-41 0 -61 3v66q12 -1 22 -1q47 0 61 25q7 11 7 43v558h95zM200 619h-113v103h113v-103z" />
    <glyph glyph-name="k" unicode="k" horiz-adv-x="500" 
d="M174 0h-95v722h95v-425l188 205h123l-212 -213l225 -289h-123l-199 271h-2v-271z" />
    <glyph glyph-name="l" unicode="l" horiz-adv-x="278" 
d="M187 0h-95v722h95v-722z" />
    <glyph glyph-name="m" unicode="m" horiz-adv-x="944" 
d="M181 502v-72h2q41 87 143 87q138 0 177 -94q55 94 167 94q85 0 136 -46.5t51 -116.5v-354h-95v297q0 67 -19 99q-28 48 -102 48q-30 0 -60 -16q-39 -21 -51 -62q-10 -35 -10 -108v-258h-95v297q0 72 -21 106q-26 41 -90 41q-89 0 -124 -82q-7 -16 -7 -104v-258h-95v502
h93z" />
    <glyph glyph-name="n" unicode="n" horiz-adv-x="611" 
d="M183 502v-74h2q22 44 69 68q41 21 83 21q61 0 108 -25q82 -42 82 -145v-347h-95v316q0 128 -115 128q-55 0 -92 -37q-40 -40 -40 -134v-273h-95v502h93z" />
    <glyph glyph-name="o" unicode="o" horiz-adv-x="611" 
d="M306 517q120 0 187 -74q63 -71 63 -192t-63 -191q-67 -75 -187 -75t-187 75q-63 70 -63 191t63 192q67 74 187 74zM156 251q0 -197 150 -197t150 197t-150 197t-150 -197z" />
    <glyph glyph-name="p" unicode="p" horiz-adv-x="611" 
d="M465 251q0 197 -142 197q-74 0 -111 -64q-31 -53 -31 -133q0 -197 133 -197q80 0 119 63q32 52 32 134zM86 -192v604q0 15 -5 90h97l3 -80h2q38 95 171 95q100 0 158 -82q53 -74 53 -184q0 -111 -53 -181q-63 -85 -188 -85q-36 0 -73 17q-44 19 -67 55h-3v-249h-95z" />
    <glyph glyph-name="q" unicode="q" horiz-adv-x="611" 
d="M292 54q140 0 140 201q0 81 -32 132q-38 61 -114 61q-74 0 -110 -61q-29 -50 -29 -132q0 -201 145 -201zM430 426l5 76h97q-5 -75 -5 -90v-604h-95v248h-2q-60 -71 -174 -71q-100 0 -158 90q-51 77 -51 181q0 106 51 179q57 82 158 82q119 0 172 -91h2z" />
    <glyph glyph-name="r" unicode="r" horiz-adv-x="389" 
d="M188 249v-249h-95v502h95v-97h2q10 50 53 78q40 26 94 26h17q11 -1 16 -1v-90q-15 6 -41 5q-84 -3 -116 -49q-25 -37 -25 -125z" />
    <glyph glyph-name="s" unicode="s" horiz-adv-x="500" 
d="M53 365q0 73 64 115q56 37 133 37q82 0 136 -34q64 -41 59 -120h-100q5 85 -100 85q-92 0 -92 -80q0 -35 48 -52q37 -10 74 -19q43 -13 85 -26q47 -17 69 -42q29 -31 29 -83q0 -84 -73 -127q-59 -34 -150 -34q-85 0 -136 39q-57 43 -56 125h100q1 -45 29 -70t73 -25
q48 0 78 19q35 23 35 68q0 44 -79 64q-136 35 -147 40q-79 36 -79 120z" />
    <glyph glyph-name="t" unicode="t" horiz-adv-x="333" 
d="M9 505l86 -3v107l95 30v-137l116 3v-71l-116 1v-324q0 -53 62 -53q28 0 50 6v-73q-9 0 -31 -3t-34 -3q-37 0 -64 5q-37 7 -56 33q-17 23 -20 43q-2 10 -2 50v319l-86 -1v71z" />
    <glyph glyph-name="u" unicode="u" horiz-adv-x="611" 
d="M427 244v258h95v-502h-93v74h-2q-54 -89 -172 -89q-77 0 -122 53q-43 50 -43 128v336h95v-297q0 -73 21 -108q26 -43 90 -43q34 0 63 16q35 20 49 56q19 50 19 118z" />
    <glyph glyph-name="v" unicode="v" 
d="M321 0h-95l-210 502h105l160 -398l156 398h104z" />
    <glyph glyph-name="w" unicode="w" horiz-adv-x="833" 
d="M725 502h97l-177 -502h-108l-117 413h-2l-130 -413h-111l-166 502h103l121 -404h2l125 404h123l113 -396h2z" />
    <glyph glyph-name="x" unicode="x" 
d="M538 502l-197 -245l197 -257h-124l-143 201l-142 -201h-110l199 263l-188 239h123l134 -189l140 189h111z" />
    <glyph glyph-name="y" unicode="y" 
d="M541 502l-295 -694h-97l76 194l-209 500h106l157 -396l160 396h102z" />
    <glyph glyph-name="z" unicode="z" horiz-adv-x="444" 
d="M405 66v-66h-365v66l253 370h-249v66h351v-66l-252 -370h262z" />
    <glyph glyph-name="braceleft" unicode="{" horiz-adv-x="334" 
d="M47 277v71q53 5 73 37q15 25 15 84l-1 144q0 47 36 79q33 30 74 30h61v-66h-40q-50 -9 -50 -64v-138q0 -86 -80 -142q80 -48 80 -141v-137q0 -55 50 -64h40v-66h-61q-41 0 -74 30q-36 32 -36 79l1 143q0 59 -15 85q-20 31 -73 36z" />
    <glyph glyph-name="bar" unicode="|" horiz-adv-x="260" 
d="M165 722v-722h-70v722h70z" />
    <glyph glyph-name="braceright" unicode="}" horiz-adv-x="334" 
d="M287 349v-71q-53 -5 -73 -36q-15 -26 -15 -85l1 -144q0 -47 -34.5 -78t-75.5 -31h-61v66h40q50 9 50 64v138q0 86 80 142q-80 48 -80 141v137q0 55 -50 64h-40v66h61q41 0 75.5 -31t34.5 -78l-1 -143q0 -59 15 -84q20 -32 73 -37z" />
    <glyph glyph-name="asciitilde" unicode="~" horiz-adv-x="584" 
d="M130 181h-54q7 147 107 147q30 0 52 -13l131 -79q19 -11 39 -11q37 0 47 32q7 19 4 44h52q4 -49 -20 -91q-28 -47 -74 -53q-42 -5 -89 25l-107 68q-18 14 -35 14q-25 0 -40.5 -25t-12.5 -58z" />
    <glyph glyph-name="exclamdown" unicode="&#xa1;" horiz-adv-x="389" 
d="M249 402h-106v100h106v-100zM251 -213h-111l21 548h71z" />
    <glyph glyph-name="cent" unicode="&#xa2;" 
d="M230 77l104 366q-15 5 -35 5q-126 0 -126 -197q0 -133 57 -174zM387 630h48l-38 -133q95 -43 100 -156h-95q-3 49 -27 76l-102 -360q12 -3 26 -3q99 0 107 113h95q-6 -84 -62 -133t-141 -49q-27 0 -44 4l-38 -134h-49l41 146q-135 48 -135 246q0 117 57 190q62 80 176 80
q23 0 48 -5z" />
    <glyph glyph-name="sterling" unicode="&#xa3;" 
d="M206 416h139v-66h-139v-264h317v-86h-484v87h67v263h-74v66h74v88q0 104 71 158q59 45 148 45q207 0 216 -162h-105q-6 93 -106 93q-89 0 -113 -80q-11 -35 -11 -142z" />
    <glyph glyph-name="currency" unicode="&#xa4;" 
d="M67 497l54 57l58 -59q59 29 101 28q39 -1 94 -28l56 54l59 -61l-58 -55q22 -35 29 -85q2 -47 -33 -106l57 -57l-58 -55l-53 55q-50 -32 -93 -33q-41 -1 -100 25l-54 -51l-55 59l49 51q-33 42 -32 106q1 65 37 95zM376 340q0 47 -36 75q-30 24 -68 24t-66 -24
q-34 -28 -34 -78q0 -49 34 -77q28 -24 66 -24q39 0 68 24q36 29 36 80z" />
    <glyph glyph-name="yen" unicode="&#xa5;" 
d="M228 249h-156v66h120l-187 377h112l165 -324l157 324h112l-187 -377h120v-66h-156v-45h156v-66h-156v-138h-100v138h-156v66h156v45z" />
    <glyph glyph-name="brokenbar" unicode="&#xa6;" horiz-adv-x="260" 
d="M165 722v-240h-70v240h70zM165 240v-240h-70v240h70z" />
    <glyph glyph-name="section" unicode="&#xa7;" 
d="M281 287q11 0 39 23q35 29 35 64q0 38 -37 62q-28 17 -50 17q-14 0 -38 -22q-33 -29 -33 -71q0 -28 28 -50.5t56 -22.5zM121 5v86q72 -37 127 -37q39 0 70 19q36 22 36 60q0 47 -65 71q-61 20 -122 41q-65 32 -65 98q0 95 112 132v2q-97 30 -97 116q0 73 62 111
q52 33 128 33q56 0 112 -17v-78q-66 26 -114 26q-38 0 -61 -17q-27 -20 -27 -57q0 -40 60 -61q112 -40 113 -40q60 -33 60 -101q0 -45 -33 -80q-29 -33 -75 -47v-2q112 -30 112 -132q0 -71 -67 -112q-57 -34 -133 -34q-61 0 -133 20z" />
    <glyph glyph-name="dieresis" unicode="&#xa8;" horiz-adv-x="278" 
d="M277 620h-91v102h91v-102zM89 620h-91v102h91v-102z" />
    <glyph glyph-name="copyright" unicode="&#xa9;" horiz-adv-x="800" 
d="M401 -15q-157 0 -267 110t-110 267q0 155 110 265t267 110q156 0 265.5 -110t109.5 -265q0 -157 -109.5 -267t-265.5 -110zM401 51q128 0 218.5 91t90.5 220q0 128 -90.5 218.5t-218.5 90.5q-129 0 -220 -90.5t-91 -218.5q0 -129 91 -220t220 -91zM590 440h-86
q-7 96 -92 96q-118 0 -118 -177t118 -177q43 0 67.5 26.5t24.5 74.5h86q-3 -75 -53 -119t-126 -44q-104 0 -156 68q-47 60 -47 167q0 106 51 171q57 72 159 72q73 0 120.5 -42.5t51.5 -115.5z" />
    <glyph glyph-name="ordfeminine" unicode="&#xaa;" horiz-adv-x="334" 
d="M349 363v-45h-351v45h351zM243 568h-56q-30 0 -51 -11q-27 -14 -27 -41q0 -20 16 -33t41 -13q79 0 77 98zM193 620h49q0 33 -9 46q-13 19 -53 19q-24 0 -41 -11.5t-13 -25.5h-72q4 89 123 89q132 0 132 -100v-134q0 -13 5 -76h-49q-17 0 -18 4l-3 41h-2q-18 -54 -94 -54
q-46 0 -78 21q-36 24 -36 65q0 58 51 90q43 26 108 26z" />
    <glyph glyph-name="guillemotleft" unicode="&#xab;" 
d="M379 267l94 -195h-77l-112 195l112 195h79zM181 267l94 -195h-77l-112 195l112 195h79z" />
    <glyph glyph-name="logicalnot" unicode="&#xac;" horiz-adv-x="584" 
d="M464 82v200h-414v70h484v-270h-70z" />
    <glyph glyph-name="registered" unicode="&#xae;" horiz-adv-x="800" 
d="M401 -15q-157 0 -267 110t-110 267q0 155 110 265t267 110q156 0 265.5 -110t109.5 -265q0 -157 -109.5 -267t-265.5 -110zM401 51q128 0 218.5 91t90.5 220q0 128 -90.5 218.5t-218.5 90.5q-129 0 -220 -90.5t-91 -218.5q0 -129 91 -220t220 -91zM379 337h-58v-191h-69
v442h143q165 0 165 -122q0 -85 -90 -103v-2q42 -8 58 -30q11 -16 17 -57q8 -56 10 -65q6 -37 16 -63h-88q-6 27 -13.5 79t-8.5 53q-5 27 -18 41q-17 18 -64 18zM321 406h73q80 0 80 63q0 50 -70 50h-83v-113z" />
    <glyph glyph-name="degree" unicode="&#xb0;" horiz-adv-x="400" 
d="M350 557q0 -62 -44 -106t-106 -44t-106 44t-44 106t44 106t106 44t106 -44t44 -106zM294 557q0 38 -28 66t-66 28t-66 -28t-28 -66q0 -39 28 -66.5t66 -27.5t66 27.5t28 66.5z" />
    <glyph glyph-name="plusminus" unicode="&#xb1;" horiz-adv-x="584" 
d="M257 484h70v-140h197v-70h-197v-140h-70v140h-197v70h197v140zM50 0v70h484v-70h-484z" />
    <glyph glyph-name="twosuperior" unicode="&#xb2;" horiz-adv-x="333" 
d="M320 340v-57h-286v55q46 43 92 85q55 52 89 92q31 36 31 76q0 59 -67 59q-33 0 -52 -17.5t-17 -47.5h-69q-1 55 38 88.5t99 33.5q64 0 103 -30.5t39 -80.5q0 -35 -12 -60q-9 -18 -36 -50q-58 -68 -147 -143v-3h195z" />
    <glyph glyph-name="threesuperior" unicode="&#xb3;" horiz-adv-x="333" 
d="M138 461v62q115 -6 115 71q0 56 -76 56q-31 0 -53 -16t-23 -41h-69q-1 52 43 84q40 30 97 30q66 0 108 -28q47 -31 47 -89q0 -34 -27.5 -60.5t-64.5 -32.5v-2q44 -3 71.5 -31.5t27.5 -68.5q0 -57 -47.5 -89t-121.5 -32q-61 0 -101 30.5t-39 85.5h69q-1 -27 22 -43t59 -16
q35 0 60 16.5t25 44.5q0 75 -122 69z" />
    <glyph glyph-name="acute" unicode="&#xb4;" horiz-adv-x="278" 
d="M182 722h104l-121 -144h-65z" />
    <glyph glyph-name="paragraph" unicode="&#xb6;" horiz-adv-x="537" 
d="M521 722v-66h-57v-841h-66v841h-80v-841h-66v436q-196 32 -205 214q-5 96 55 174q64 83 159 83h260z" />
    <glyph glyph-name="cedilla" unicode="&#xb8;" horiz-adv-x="278" 
d="M22 -193l20 37q39 -14 68 -14q52 0 52 41q0 38 -55 38q8 0 -32 -8l-15 17l63 87h43l-46 -60l2 -2q15 5 41 5q29 0 52 -20t23 -48q0 -93 -128 -93q-43 0 -88 20z" />
    <glyph glyph-name="onesuperior" unicode="&#xb9;" horiz-adv-x="333" 
d="M245 707v-415h-68v347q-34 -22 -108 -60v65q36 13 108 63h68z" />
    <glyph glyph-name="ordmasculine" unicode="&#xba;" horiz-adv-x="367" 
d="M199 737q78 0 120 -43.5t42 -115.5q0 -73 -41 -115q-43 -45 -121 -45t-122 45q-41 42 -41 115q0 72 42.5 115.5t120.5 43.5zM111 578q0 -108 88 -108q87 0 87 108q0 107 -87 107q-88 0 -88 -107zM374 363v-45h-351v45h351z" />
    <glyph glyph-name="guillemotright" unicode="&#xbb;" 
d="M177 267l-94 195h77l112 -195l-112 -195h-79zM375 267l-94 195h77l112 -195l-112 -195h-79z" />
    <glyph glyph-name="onequarter" unicode="&#xbc;" horiz-adv-x="834" 
d="M236 -27h-79l428 734h79zM666 0h-67v87h-169v57l161 277h75v-271h61v-63h-61v-87zM504 149h95v165h-3zM302 707v-415h-68v347q-34 -22 -108 -60v65q36 13 108 63h68z" />
    <glyph glyph-name="onehalf" unicode="&#xbd;" horiz-adv-x="834" 
d="M195 -27h-79l428 734h79zM261 707v-415h-68v347q-34 -22 -108 -60v65q36 13 108 63h68zM749 57v-57h-286v55q46 43 92 85q55 52 89 92q31 36 31 76q0 59 -67 59q-33 0 -52 -17.5t-17 -47.5h-69q-1 55 38 88.5t99 33.5q64 0 103 -30.5t39 -80.5q0 -35 -12 -60
q-9 -18 -36 -50q-58 -68 -147 -143v-3h195z" />
    <glyph glyph-name="threequarters" unicode="&#xbe;" horiz-adv-x="834" 
d="M236 -27h-79l428 734h79zM666 0h-67v87h-169v57l161 277h75v-271h61v-63h-61v-87zM504 150h95v164h-3zM138 461v62q115 -6 115 71q0 56 -76 56q-31 0 -53 -16t-23 -41h-69q-1 52 43 84q40 30 97 30q66 0 108 -28q47 -31 47 -89q0 -34 -27.5 -60.5t-64.5 -32.5v-2
q44 -3 71.5 -31.5t27.5 -68.5q0 -57 -47.5 -89t-121.5 -32q-61 0 -101 30.5t-39 85.5h69q-1 -27 22 -43t59 -16q35 0 60 16.5t25 44.5q0 75 -122 69z" />
    <glyph glyph-name="questiondown" unicode="&#xbf;" horiz-adv-x="500" 
d="M437 -122v-90q-67 -22 -141 -22q-96 0 -158 39q-75 47 -75 138q0 61 46 123l86 98q36 41 36.5 42t8.5 38v95h100v-74q0 -38 -1 -44q-3 -28 -20 -54l-90 -90q-61 -68 -61 -124q0 -101 129 -101q80 0 140 26zM343 402h-106v100h106v-100z" />
    <glyph glyph-name="Agrave" unicode="&#xc0;" horiz-adv-x="722" 
d="M112 0h-103l304 722h107l292 -722h-109l-78 188h-335zM362 623l-138 -349h269zM214 942h104l82 -144h-65z" />
    <glyph glyph-name="Aacute" unicode="&#xc1;" horiz-adv-x="722" 
d="M112 0h-103l304 722h107l292 -722h-109l-78 188h-335zM362 623l-138 -349h269zM404 942h104l-121 -144h-65z" />
    <glyph glyph-name="Acircumflex" unicode="&#xc2;" horiz-adv-x="722" 
d="M112 0h-103l304 722h107l292 -722h-109l-78 188h-335zM362 623l-138 -349h269zM425 797l-66 96l-71 -96h-76l105 145h90l104 -145h-86z" />
    <glyph glyph-name="Atilde" unicode="&#xc3;" horiz-adv-x="722" 
d="M112 0h-103l304 722h107l292 -722h-109l-78 188h-335zM362 623l-138 -349h269zM263 813h-42q-1 40 21.5 69t61.5 29q19 0 55.5 -11.5t55.5 -11.5q36 0 41 36h41q5 -39 -21 -70t-65 -31q-18 0 -60 13t-50 13q-26 0 -38 -36z" />
    <glyph glyph-name="Adieresis" unicode="&#xc4;" horiz-adv-x="722" 
d="M112 0h-103l304 722h107l292 -722h-109l-78 188h-335zM362 623l-138 -349h269zM499 840h-91v102h91v-102zM311 840h-91v102h91v-102z" />
    <glyph glyph-name="Aring" unicode="&#xc5;" horiz-adv-x="722" 
d="M112 0h-103l304 722h107l292 -722h-109l-78 188h-335zM362 623l-138 -349h269zM374 779q-38 0 -68.5 29.5t-30.5 67.5q0 40 29.5 70.5t69.5 30.5q41 0 69.5 -30t28.5 -71q0 -39 -29.5 -68t-68.5 -29zM373 937q-24 0 -41 -18.5t-17 -42.5q0 -23 17.5 -40t40.5 -17
q24 0 41.5 16.5t17.5 40.5t-17.5 42.5t-41.5 18.5z" />
    <glyph glyph-name="AE" unicode="&#xc6;" horiz-adv-x="1000" 
d="M2 0l419 722h525v-86h-374l38 -225h319v-86h-304l42 -239h287v-86h-373l-34 188h-320l-115 -188h-110zM274 274h258l-58 361h-2z" />
    <glyph glyph-name="Ccedilla" unicode="&#xc7;" horiz-adv-x="667" 
d="M630 536h-105q-4 50 -49.5 82.5t-103.5 32.5q-211 0 -211 -290t202 -290q61 0 105.5 30t53.5 85h105q-7 -89 -86 -145t-187 -56q-151 0 -229 112q-69 100 -69 264q0 156 69 257q85 124 251 119q108 -3 175 -54q71 -53 79 -147zM217 -193l20 37q39 -14 68 -14q52 0 52 41
q0 38 -55 38q8 0 -32 -8l-15 17l63 87h43l-46 -60l2 -2q15 5 41 5q29 0 52 -20t23 -48q0 -93 -128 -93q-43 0 -88 20z" />
    <glyph glyph-name="Egrave" unicode="&#xc8;" horiz-adv-x="611" 
d="M536 0h-461v722h453v-86h-353v-225h336v-86h-336v-239h361v-86zM159 942h104l82 -144h-65z" />
    <glyph glyph-name="Eacute" unicode="&#xc9;" horiz-adv-x="611" 
d="M536 0h-461v722h453v-86h-353v-225h336v-86h-336v-239h361v-86zM349 942h104l-121 -144h-65z" />
    <glyph glyph-name="Ecircumflex" unicode="&#xca;" horiz-adv-x="611" 
d="M536 0h-461v722h453v-86h-353v-225h336v-86h-336v-239h361v-86zM370 797l-66 96l-71 -96h-76l105 145h90l104 -145h-86z" />
    <glyph glyph-name="Edieresis" unicode="&#xcb;" horiz-adv-x="611" 
d="M536 0h-461v722h453v-86h-353v-225h336v-86h-336v-239h361v-86zM444 840h-91v102h91v-102zM256 840h-91v102h91v-102z" />
    <glyph glyph-name="Igrave" unicode="&#xcc;" horiz-adv-x="278" 
d="M189 0h-100v722h100v-722zM-8 942h104l82 -144h-65z" />
    <glyph glyph-name="Iacute" unicode="&#xcd;" horiz-adv-x="278" 
d="M189 0h-100v722h100v-722zM182 942h104l-121 -144h-65z" />
    <glyph glyph-name="Icircumflex" unicode="&#xce;" horiz-adv-x="278" 
d="M189 0h-100v722h100v-722zM203 797l-66 96l-71 -96h-76l105 145h90l104 -145h-86z" />
    <glyph glyph-name="Idieresis" unicode="&#xcf;" horiz-adv-x="278" 
d="M189 0h-100v722h100v-722zM277 840h-91v102h91v-102zM89 840h-91v102h91v-102z" />
    <glyph glyph-name="Eth" unicode="&#xd0;" horiz-adv-x="722" 
d="M188 636v-202h100v-66h-100v-282h146q126 0 182 81t56 194t-56 194t-182 81h-146zM88 0v368h-100v66h100v288h240q127 0 196 -44q153 -98 153 -317t-153 -317q-69 -44 -196 -44h-240z" />
    <glyph glyph-name="Ntilde" unicode="&#xd1;" horiz-adv-x="778" 
d="M590 722h89v-722h-124l-365 613h-2v-613h-89v722h137l352 -597h2v597zM291 813h-42q-1 40 21.5 69t61.5 29q19 0 55.5 -11.5t55.5 -11.5q36 0 41 36h41q5 -39 -21 -70t-65 -31q-18 0 -60 13t-50 13q-26 0 -38 -36z" />
    <glyph glyph-name="Ograve" unicode="&#xd2;" horiz-adv-x="778" 
d="M59 361q0 167 81 267q87 109 249 109t249 -109q81 -100 81 -267t-81 -267q-87 -109 -249 -109t-249 109q-81 100 -81 267zM164 361q0 -290 225 -290t225 290t-225 290t-225 -290zM242 942h104l82 -144h-65z" />
    <glyph glyph-name="Oacute" unicode="&#xd3;" horiz-adv-x="778" 
d="M59 361q0 167 81 267q87 109 249 109t249 -109q81 -100 81 -267t-81 -267q-87 -109 -249 -109t-249 109q-81 100 -81 267zM164 361q0 -290 225 -290t225 290t-225 290t-225 -290zM432 942h104l-121 -144h-65z" />
    <glyph glyph-name="Ocircumflex" unicode="&#xd4;" horiz-adv-x="778" 
d="M59 361q0 167 81 267q87 109 249 109t249 -109q81 -100 81 -267t-81 -267q-87 -109 -249 -109t-249 109q-81 100 -81 267zM164 361q0 -290 225 -290t225 290t-225 290t-225 -290zM453 797l-66 96l-71 -96h-76l105 145h90l104 -145h-86z" />
    <glyph glyph-name="Otilde" unicode="&#xd5;" horiz-adv-x="778" 
d="M59 361q0 167 81 267q87 109 249 109t249 -109q81 -100 81 -267t-81 -267q-87 -109 -249 -109t-249 109q-81 100 -81 267zM164 361q0 -290 225 -290t225 290t-225 290t-225 -290zM291 813h-42q-1 40 21.5 69t61.5 29q19 0 55.5 -11.5t55.5 -11.5q36 0 41 36h41
q5 -39 -21 -70t-65 -31q-18 0 -60 13t-50 13q-26 0 -38 -36z" />
    <glyph glyph-name="Odieresis" unicode="&#xd6;" horiz-adv-x="778" 
d="M59 361q0 167 81 267q87 109 249 109t249 -109q81 -100 81 -267t-81 -267q-87 -109 -249 -109t-249 109q-81 100 -81 267zM164 361q0 -290 225 -290t225 290t-225 290t-225 -290zM527 840h-91v102h91v-102zM339 840h-91v102h91v-102z" />
    <glyph glyph-name="multiply" unicode="&#xd7;" horiz-adv-x="584" 
d="M50 436l49 50l193 -194l193 194l49 -50l-193 -193l193 -193l-49 -50l-193 194l-193 -194l-49 50l193 193z" />
    <glyph glyph-name="Oslash" unicode="&#xd8;" horiz-adv-x="778" 
d="M519 616q-49 35 -130 35q-225 0 -225 -290q0 -143 53 -214zM255 109q49 -38 134 -38q225 0 225 290q0 147 -56 219zM166 67q-107 100 -107 294q0 167 81 267q87 109 249 109q103 0 178 -46l70 108h62l-90 -140q110 -100 110 -298q0 -167 -81 -267q-87 -109 -249 -109
q-106 0 -182 49l-77 -121h-63z" />
    <glyph glyph-name="Ugrave" unicode="&#xd9;" horiz-adv-x="778" 
d="M680 722v-436q0 -143 -72 -220q-75 -81 -219 -81t-219 81q-72 77 -72 220v436h100v-460q0 -91 52 -141t139 -50t139 50t52 141v460h100zM241 942h104l82 -144h-65z" />
    <glyph glyph-name="Uacute" unicode="&#xda;" horiz-adv-x="778" 
d="M680 722v-436q0 -143 -72 -220q-75 -81 -219 -81t-219 81q-72 77 -72 220v436h100v-460q0 -91 52 -141t139 -50t139 50t52 141v460h100zM431 942h104l-121 -144h-65z" />
    <glyph glyph-name="Ucircumflex" unicode="&#xdb;" horiz-adv-x="778" 
d="M680 722v-436q0 -143 -72 -220q-75 -81 -219 -81t-219 81q-72 77 -72 220v436h100v-460q0 -91 52 -141t139 -50t139 50t52 141v460h100zM452 797l-66 96l-71 -96h-76l105 145h90l104 -145h-86z" />
    <glyph glyph-name="Udieresis" unicode="&#xdc;" horiz-adv-x="778" 
d="M680 722v-436q0 -143 -72 -220q-75 -81 -219 -81t-219 81q-72 77 -72 220v436h100v-460q0 -91 52 -141t139 -50t139 50t52 141v460h100zM526 840h-91v102h91v-102zM338 840h-91v102h91v-102z" />
    <glyph glyph-name="Yacute" unicode="&#xdd;" horiz-adv-x="667" 
d="M114 722l224 -354l216 354h112l-282 -466v-256h-100v256l-282 466h112zM377 942h104l-121 -144h-65z" />
    <glyph glyph-name="Thorn" unicode="&#xde;" horiz-adv-x="611" 
d="M88 0v722h100v-130h122q250 0 250 -202q0 -105 -78 -158q-67 -44 -178 -44h-116v-188h-100zM188 274h139q128 0 128 116t-128 116h-139v-232z" />
    <glyph glyph-name="germandbls" unicode="&#xdf;" horiz-adv-x="667" 
d="M604 208q6 -17 6 -48q0 -78 -61 -128q-57 -47 -137 -47q-78 0 -121 40q-46 42 -45 119h100q-2 -40 20 -65t60 -25q41 0 65 29t24 71q0 49 -53 85q-48 30 -97 60q-53 40 -53 99q0 41 25 63q32 26 63 52q35 33 35 69q0 86 -127 86q-55 0 -88 -28q-36 -30 -36 -86v-554h-95
v499q0 113 37 164q54 74 189 74q89 0 145 -32q70 -40 70 -121q0 -42 -13 -62q-9 -13 -47.5 -41.5t-42.5 -32.5q-20 -21 -20 -48q0 -23 43 -51l86 -56q52 -39 68 -85z" />
    <glyph glyph-name="agrave" unicode="&#xe0;" 
d="M383 244h-95q-52 0 -89 -21q-46 -26 -46 -76q0 -45 29 -70q26 -23 70 -23q135 0 131 190zM297 310h86q0 76 -15 102q-21 36 -91 36q-38 0 -65 -20q-28 -23 -29 -60h-100q4 77 60 116q49 33 130 33q205 0 205 -171v-240q0 -50 4 -106h-64q-38 0 -16 -1q-10 0 -11 8
q-2 23 -5 68h-2q-44 -90 -156 -90q-72 0 -120 35q-55 39 -55 108q0 97 77 144q63 38 167 38zM131 722h104l82 -144h-65z" />
    <glyph glyph-name="aacute" unicode="&#xe1;" 
d="M383 244h-95q-52 0 -89 -21q-46 -26 -46 -76q0 -45 29 -70q26 -23 70 -23q135 0 131 190zM297 310h86q0 76 -15 102q-21 36 -91 36q-38 0 -65 -20q-28 -23 -29 -60h-100q4 77 60 116q49 33 130 33q205 0 205 -171v-240q0 -50 4 -106h-64q-38 0 -16 -1q-10 0 -11 8
q-2 23 -5 68h-2q-44 -90 -156 -90q-72 0 -120 35q-55 39 -55 108q0 97 77 144q63 38 167 38zM321 722h104l-121 -144h-65z" />
    <glyph glyph-name="acircumflex" unicode="&#xe2;" 
d="M383 244h-95q-52 0 -89 -21q-46 -26 -46 -76q0 -45 29 -70q26 -23 70 -23q135 0 131 190zM297 310h86q0 76 -15 102q-21 36 -91 36q-38 0 -65 -20q-28 -23 -29 -60h-100q4 77 60 116q49 33 130 33q205 0 205 -171v-240q0 -50 4 -106h-64q-38 0 -16 -1q-10 0 -11 8
q-2 23 -5 68h-2q-44 -90 -156 -90q-72 0 -120 35q-55 39 -55 108q0 97 77 144q63 38 167 38zM342 577l-66 96l-71 -96h-76l105 145h90l104 -145h-86z" />
    <glyph glyph-name="atilde" unicode="&#xe3;" 
d="M383 244h-95q-52 0 -89 -21q-46 -26 -46 -76q0 -45 29 -70q26 -23 70 -23q135 0 131 190zM297 310h86q0 76 -15 102q-21 36 -91 36q-38 0 -65 -20q-28 -23 -29 -60h-100q4 77 60 116q49 33 130 33q205 0 205 -171v-240q0 -50 4 -106h-64q-38 0 -16 -1q-10 0 -11 8
q-2 23 -5 68h-2q-44 -90 -156 -90q-72 0 -120 35q-55 39 -55 108q0 97 77 144q63 38 167 38zM180 593h-42q-1 40 21.5 69t61.5 29q19 0 55.5 -11.5t55.5 -11.5q36 0 41 36h41q5 -39 -21 -70t-65 -31q-18 0 -60 13t-50 13q-26 0 -38 -36z" />
    <glyph glyph-name="adieresis" unicode="&#xe4;" 
d="M383 244h-95q-52 0 -89 -21q-46 -26 -46 -76q0 -45 29 -70q26 -23 70 -23q135 0 131 190zM297 310h86q0 76 -15 102q-21 36 -91 36q-38 0 -65 -20q-28 -23 -29 -60h-100q4 77 60 116q49 33 130 33q205 0 205 -171v-240q0 -50 4 -106h-64q-38 0 -16 -1q-10 0 -11 8
q-2 23 -5 68h-2q-44 -90 -156 -90q-72 0 -120 35q-55 39 -55 108q0 97 77 144q63 38 167 38zM416 620h-91v102h91v-102zM228 620h-91v102h91v-102z" />
    <glyph glyph-name="aring" unicode="&#xe5;" 
d="M383 244h-95q-52 0 -89 -21q-46 -26 -46 -76q0 -45 29 -70q26 -23 70 -23q135 0 131 190zM297 310h86q0 76 -15 102q-21 36 -91 36q-38 0 -65 -20q-28 -23 -29 -60h-100q4 77 60 116q49 33 130 33q205 0 205 -171v-240q0 -50 4 -106h-64q-38 0 -16 -1q-10 0 -11 8
q-2 23 -5 68h-2q-44 -90 -156 -90q-72 0 -120 35q-55 39 -55 108q0 97 77 144q63 38 167 38zM291 559q-38 0 -68.5 29.5t-30.5 67.5q0 40 29.5 70.5t69.5 30.5q41 0 69.5 -30t28.5 -71q0 -39 -29.5 -68t-68.5 -29zM290 717q-24 0 -41 -18.5t-17 -42.5q0 -23 17.5 -40
t40.5 -17q24 0 41.5 16.5t17.5 40.5t-17.5 42.5t-41.5 18.5z" />
    <glyph glyph-name="ae" unicode="&#xe6;" horiz-adv-x="889" 
d="M495 299h241q2 66 -24 105q-29 44 -88 44q-58 0 -93.5 -43t-35.5 -106zM323 299h77q2 75 -22 110q-27 39 -92 39q-43 0 -70 -17q-34 -21 -33 -63h-100q4 77 61 116q50 33 132 33q149 0 179 -107h2q46 109 167 107q103 -1 159 -67q53 -63 53 -170v-47h-341q-3 -74 27 -122
q36 -57 108 -57q44 0 74 28.5t29 72.5h100q-9 -82 -65.5 -126t-140.5 -44q-124 0 -180 119q-20 -59 -79 -91q-52 -28 -118 -28q-81 0 -136 38q-61 44 -61 121q0 155 270 155zM400 233h-92q-81 0 -121 -27q-34 -23 -34 -60q0 -45 29 -68.5t73 -23.5q79 0 116 55q33 48 29 124
z" />
    <glyph glyph-name="ccedilla" unicode="&#xe7;" horiz-adv-x="500" 
d="M463 341h-95q-8 107 -103 107q-126 0 -126 -197t126 -197q99 0 107 113h95q-6 -84 -62 -133t-141 -49q-115 0 -173 76q-52 67 -52 186q0 117 57 190q62 80 176 80q81 0 134 -47.5t57 -128.5zM133 -193l20 37q39 -14 68 -14q52 0 52 41q0 38 -55 38q8 0 -32 -8l-15 17
l63 87h43l-46 -60l2 -2q15 5 41 5q29 0 52 -20t23 -48q0 -93 -128 -93q-43 0 -88 20z" />
    <glyph glyph-name="egrave" unicode="&#xe8;" 
d="M505 233h-354q-6 -73 24 -122q34 -57 102 -57q107 0 122 102h100q-11 -83 -70.5 -127t-152.5 -44q-115 0 -173 76q-52 67 -52 186q0 118 57 191q62 80 176 79q109 -1 167 -67q54 -62 54 -170v-47zM151 299h254q2 67 -29 106q-33 43 -99 43q-58 0 -92 -42.5t-34 -106.5z
M131 722h104l82 -144h-65z" />
    <glyph glyph-name="eacute" unicode="&#xe9;" 
d="M505 233h-354q-6 -73 24 -122q34 -57 102 -57q107 0 122 102h100q-11 -83 -70.5 -127t-152.5 -44q-115 0 -173 76q-52 67 -52 186q0 118 57 191q62 80 176 79q109 -1 167 -67q54 -62 54 -170v-47zM151 299h254q2 67 -29 106q-33 43 -99 43q-58 0 -92 -42.5t-34 -106.5z
M321 722h104l-121 -144h-65z" />
    <glyph glyph-name="ecircumflex" unicode="&#xea;" 
d="M505 233h-354q-6 -73 24 -122q34 -57 102 -57q107 0 122 102h100q-11 -83 -70.5 -127t-152.5 -44q-115 0 -173 76q-52 67 -52 186q0 118 57 191q62 80 176 79q109 -1 167 -67q54 -62 54 -170v-47zM151 299h254q2 67 -29 106q-33 43 -99 43q-58 0 -92 -42.5t-34 -106.5z
M342 577l-66 96l-71 -96h-76l105 145h90l104 -145h-86z" />
    <glyph glyph-name="edieresis" unicode="&#xeb;" 
d="M505 233h-354q-6 -73 24 -122q34 -57 102 -57q107 0 122 102h100q-11 -83 -70.5 -127t-152.5 -44q-115 0 -173 76q-52 67 -52 186q0 118 57 191q62 80 176 79q109 -1 167 -67q54 -62 54 -170v-47zM151 299h254q2 67 -29 106q-33 43 -99 43q-58 0 -92 -42.5t-34 -106.5z
M416 620h-91v102h91v-102zM228 620h-91v102h91v-102z" />
    <glyph glyph-name="igrave" unicode="&#xec;" horiz-adv-x="278" 
d="M187 0h-95v502h95v-502zM-8 722h104l82 -144h-65z" />
    <glyph glyph-name="iacute" unicode="&#xed;" horiz-adv-x="278" 
d="M187 0h-95v502h95v-502zM182 722h104l-121 -144h-65z" />
    <glyph glyph-name="icircumflex" unicode="&#xee;" horiz-adv-x="278" 
d="M187 0h-95v502h95v-502zM203 577l-66 96l-71 -96h-76l105 145h90l104 -145h-86z" />
    <glyph glyph-name="idieresis" unicode="&#xef;" horiz-adv-x="278" 
d="M187 0h-95v502h95v-502zM277 620h-91v102h91v-102zM89 620h-91v102h91v-102z" />
    <glyph glyph-name="eth" unicode="&#xf0;" horiz-adv-x="611" 
d="M156 251q0 -197 150 -197q151 0 151 197q0 75 -33 124q-40 58 -118 58t-117 -58q-33 -49 -33 -124zM56 251q0 126 79 192q71 60 192 60q15 0 31 -1q-25 54 -87 96l-103 -74l-22 32l89 64q-57 29 -115 35l47 67q77 -17 141 -49l68 49l24 -32l-54 -39q171 -106 206 -335
q5 -33 5 -64q0 -121 -70 -194t-181 -73q-120 0 -187 75q-63 70 -63 191z" />
    <glyph glyph-name="ntilde" unicode="&#xf1;" horiz-adv-x="611" 
d="M183 502v-74h2q22 44 69 68q41 21 83 21q61 0 108 -25q82 -42 82 -145v-347h-95v316q0 128 -115 128q-55 0 -92 -37q-40 -40 -40 -134v-273h-95v502h93zM208 593h-42q-1 40 21.5 69t61.5 29q19 0 55.5 -11.5t55.5 -11.5q36 0 41 36h41q5 -39 -21 -70t-65 -31
q-18 0 -60 13t-50 13q-26 0 -38 -36z" />
    <glyph glyph-name="ograve" unicode="&#xf2;" horiz-adv-x="611" 
d="M306 517q120 0 187 -74q63 -71 63 -192t-63 -191q-67 -75 -187 -75t-187 75q-63 70 -63 191t63 192q67 74 187 74zM156 251q0 -197 150 -197t150 197t-150 197t-150 -197zM159 722h104l82 -144h-65z" />
    <glyph glyph-name="oacute" unicode="&#xf3;" horiz-adv-x="611" 
d="M306 517q120 0 187 -74q63 -71 63 -192t-63 -191q-67 -75 -187 -75t-187 75q-63 70 -63 191t63 192q67 74 187 74zM156 251q0 -197 150 -197t150 197t-150 197t-150 -197zM349 722h104l-121 -144h-65z" />
    <glyph glyph-name="ocircumflex" unicode="&#xf4;" horiz-adv-x="611" 
d="M306 517q120 0 187 -74q63 -71 63 -192t-63 -191q-67 -75 -187 -75t-187 75q-63 70 -63 191t63 192q67 74 187 74zM156 251q0 -197 150 -197t150 197t-150 197t-150 -197zM370 577l-66 96l-71 -96h-76l105 145h90l104 -145h-86z" />
    <glyph glyph-name="otilde" unicode="&#xf5;" horiz-adv-x="611" 
d="M306 517q120 0 187 -74q63 -71 63 -192t-63 -191q-67 -75 -187 -75t-187 75q-63 70 -63 191t63 192q67 74 187 74zM156 251q0 -197 150 -197t150 197t-150 197t-150 -197zM208 593h-42q-1 40 21.5 69t61.5 29q19 0 55.5 -11.5t55.5 -11.5q36 0 41 36h41q5 -39 -21 -70
t-65 -31q-18 0 -60 13t-50 13q-26 0 -38 -36z" />
    <glyph glyph-name="odieresis" unicode="&#xf6;" horiz-adv-x="611" 
d="M306 517q120 0 187 -74q63 -71 63 -192t-63 -191q-67 -75 -187 -75t-187 75q-63 70 -63 191t63 192q67 74 187 74zM156 251q0 -197 150 -197t150 197t-150 197t-150 -197zM444 620h-91v102h91v-102zM256 620h-91v102h91v-102z" />
    <glyph glyph-name="divide" unicode="&#xf7;" horiz-adv-x="584" 
d="M534 277v-70h-484v70h484zM344 0h-104v104h104v-104zM344 380h-104v104h104v-104z" />
    <glyph glyph-name="oslash" unicode="&#xf8;" horiz-adv-x="611" 
d="M382 429q-33 19 -76 19q-150 0 -150 -197q0 -91 36 -141zM229 74q31 -20 77 -20q150 0 150 197q0 93 -36 143zM147 35q-91 70 -91 216q0 121 63 192q67 74 187 74q66 0 115 -23l61 103h59l-77 -128q92 -69 92 -218q0 -121 -63 -191q-67 -75 -187 -75q-67 0 -116 23
l-66 -111h-59z" />
    <glyph glyph-name="ugrave" unicode="&#xf9;" horiz-adv-x="611" 
d="M427 244v258h95v-502h-93v74h-2q-54 -89 -172 -89q-77 0 -122 53q-43 50 -43 128v336h95v-297q0 -73 21 -108q26 -43 90 -43q34 0 63 16q35 20 49 56q19 50 19 118zM159 722h104l82 -144h-65z" />
    <glyph glyph-name="uacute" unicode="&#xfa;" horiz-adv-x="611" 
d="M427 244v258h95v-502h-93v74h-2q-54 -89 -172 -89q-77 0 -122 53q-43 50 -43 128v336h95v-297q0 -73 21 -108q26 -43 90 -43q34 0 63 16q35 20 49 56q19 50 19 118zM349 722h104l-121 -144h-65z" />
    <glyph glyph-name="ucircumflex" unicode="&#xfb;" horiz-adv-x="611" 
d="M427 244v258h95v-502h-93v74h-2q-54 -89 -172 -89q-77 0 -122 53q-43 50 -43 128v336h95v-297q0 -73 21 -108q26 -43 90 -43q34 0 63 16q35 20 49 56q19 50 19 118zM370 577l-66 96l-71 -96h-76l105 145h90l104 -145h-86z" />
    <glyph glyph-name="udieresis" unicode="&#xfc;" horiz-adv-x="611" 
d="M427 244v258h95v-502h-93v74h-2q-54 -89 -172 -89q-77 0 -122 53q-43 50 -43 128v336h95v-297q0 -73 21 -108q26 -43 90 -43q34 0 63 16q35 20 49 56q19 50 19 118zM444 620h-91v102h91v-102zM256 620h-91v102h91v-102z" />
    <glyph glyph-name="yacute" unicode="&#xfd;" 
d="M541 502l-295 -694h-97l76 194l-209 500h106l157 -396l160 396h102zM321 722h104l-121 -144h-65z" />
    <glyph glyph-name="thorn" unicode="&#xfe;" horiz-adv-x="611" 
d="M181 -192h-95v914h95v-300h2q38 95 171 95q100 0 158 -82q53 -74 53 -184q0 -111 -53 -181q-63 -85 -188 -85q-36 0 -73 17q-44 19 -67 55h-3v-249zM465 251q0 197 -142 197q-74 0 -111 -64q-31 -53 -31 -133q0 -197 133 -197q80 0 119 63q32 52 32 134z" />
    <glyph glyph-name="ydieresis" unicode="&#xff;" 
d="M541 502l-295 -694h-97l76 194l-209 500h106l157 -396l160 396h102zM416 620h-91v102h91v-102zM228 620h-91v102h91v-102z" />
    <glyph glyph-name="dotlessi" unicode="&#x131;" horiz-adv-x="278" 
d="M187 0h-95v502h95v-502z" />
    <glyph glyph-name="Lslash" unicode="&#x141;" 
d="M529 0h-436v372l-103 -47v52l103 47v298h100v-252l122 57v-52l-122 -57v-332h336v-86z" />
    <glyph glyph-name="lslash" unicode="&#x142;" horiz-adv-x="278" 
d="M187 0h-95v375l-109 -50v52l109 50v295h95v-251l109 51v-52l-109 -51v-419z" />
    <glyph glyph-name="OE" unicode="&#x152;" horiz-adv-x="1000" 
d="M953 0h-506q-108 0 -155 9q-118 22 -186 129q-62 96 -62 223q0 147 78 239q103 122 325 122h498v-86h-353v-225h336v-86h-336v-239h361v-86zM492 86v550q-54 8 -104 8q-119 0 -182 -82q-57 -75 -57 -201q0 -249 207 -276q29 -4 136 1z" />
    <glyph glyph-name="oe" unicode="&#x153;" horiz-adv-x="944" 
d="M153 251q0 -197 150 -197t150 197t-150 197t-150 -197zM548 299h249q2 66 -24 105q-29 44 -88 44q-64 0 -102 -45q-34 -41 -35 -104zM897 281v-48h-349q7 -179 143 -179q44 0 74 28.5t29 72.5h100q-9 -82 -65.5 -126t-140.5 -44q-60 0 -115.5 28.5t-74.5 70.5
q-24 -44 -79 -71.5t-116 -27.5q-120 0 -187 74q-63 71 -63 192t63 193q67 75 187 73q142 -3 195 -99q19 42 73 70.5t114 28.5q103 0 159 -66q53 -62 53 -170z" />
    <glyph glyph-name="Scaron" unicode="&#x160;" horiz-adv-x="667" 
d="M56 211h105q3 -140 158 -140q182 0 182 125q0 86 -118 111q-153 32 -203 56q-114 54 -114 159q0 109 88 166q75 49 190 49q102 0 168 -45q76 -52 76 -150h-105q-5 109 -144 109q-65 0 -111 -24q-57 -30 -57 -88q0 -54 37 -77q11 -6 84 -30q70 -18 141 -37q82 -23 121 -58
q52 -47 52 -130q0 -114 -92 -172q-78 -50 -201 -50q-121 0 -187 52q-73 58 -70 174zM270 942l66 -96l71 96h76l-105 -145h-90l-104 145h86z" />
    <glyph glyph-name="scaron" unicode="&#x161;" horiz-adv-x="500" 
d="M53 365q0 73 64 115q56 37 133 37q82 0 136 -34q64 -41 59 -120h-100q5 85 -100 85q-92 0 -92 -80q0 -35 48 -52q37 -10 74 -19q43 -13 85 -26q47 -17 69 -42q29 -31 29 -83q0 -84 -73 -127q-59 -34 -150 -34q-85 0 -136 39q-57 43 -56 125h100q1 -45 29 -70t73 -25
q48 0 78 19q35 23 35 68q0 44 -79 64q-136 35 -147 40q-79 36 -79 120zM187 722l66 -96l71 96h76l-105 -145h-90l-104 145h86z" />
    <glyph glyph-name="Ydieresis" unicode="&#x178;" horiz-adv-x="667" 
d="M114 722l224 -354l216 354h112l-282 -466v-256h-100v256l-282 466h112zM472 840h-91v102h91v-102zM284 840h-91v102h91v-102z" />
    <glyph glyph-name="Zcaron" unicode="&#x17d;" horiz-adv-x="611" 
d="M49 722h540v-86l-446 -550h438v-86h-558v86l444 550h-418v86zM243 942l66 -96l71 96h76l-105 -145h-90l-104 145h86z" />
    <glyph glyph-name="zcaron" unicode="&#x17e;" horiz-adv-x="444" 
d="M405 66v-66h-365v66l253 370h-249v66h351v-66l-252 -370h262zM159 722l66 -96l71 96h76l-105 -145h-90l-104 145h86z" />
    <glyph glyph-name="florin" unicode="&#x192;" 
d="M471 701l-12 -66q-36 3 -35 3q-43 -9 -66 -46q-18 -28 -28 -82q-7 -44 -15 -89h105l-14 -66h-103l-61 -326q-18 -94 -28 -120q-26 -68 -85 -91q-26 -10 -95 -10l12 69q56 -2 74 32q14 24 37 144l58 302h-90l12 66h91q12 64 25 128q18 74 50 111q42 47 117 47q26 0 51 -6z
" />
    <glyph glyph-name="circumflex" unicode="&#x2c6;" horiz-adv-x="278" 
d="M203 577l-66 96l-71 -96h-76l105 145h90l104 -145h-86z" />
    <glyph glyph-name="caron" unicode="&#x2c7;" horiz-adv-x="278" 
d="M76 722l66 -96l71 96h76l-105 -145h-90l-104 145h86z" />
    <glyph glyph-name="macron" unicode="&#xaf;" horiz-adv-x="278" 
d="M277 669h-275v53h275v-53z" />
    <glyph glyph-name="macron" unicode="&#x2c9;" horiz-adv-x="278" 
d="M277 669h-275v53h275v-53z" />
    <glyph glyph-name="breve" unicode="&#x2d8;" horiz-adv-x="278" 
d="M2 722h47q-1 -40 23 -66.5t64 -26.5q42 0 66.5 25.5t26.5 67.5h47q2 -72 -33 -113q-37 -44 -108 -44q-68 0 -104 46q-33 42 -29 111z" />
    <glyph glyph-name="dotaccent" unicode="&#x2d9;" horiz-adv-x="278" 
d="M185 620h-91v102h91v-102z" />
    <glyph glyph-name="ring" unicode="&#x2da;" horiz-adv-x="278" 
d="M152 559q-38 0 -68.5 29.5t-30.5 67.5q0 40 29.5 70.5t69.5 30.5q41 0 69.5 -30t28.5 -71q0 -39 -29.5 -68t-68.5 -29zM151 717q-24 0 -41 -18.5t-17 -42.5q0 -23 17.5 -40t40.5 -17q24 0 41.5 16.5t17.5 40.5t-17.5 42.5t-41.5 18.5z" />
    <glyph glyph-name="ogonek" unicode="&#x2db;" horiz-adv-x="278" 
d="M245 -111v-58q-58 -22 -107 -22q-45 0 -77 21q-39 25 -39 72q0 33 46 62q38 25 85 36h59v-2q-104 -36 -104 -87q0 -42 52 -42q28 0 85 20z" />
    <glyph glyph-name="tilde" unicode="&#x2dc;" horiz-adv-x="278" 
d="M41 593h-42q-1 40 21.5 69t61.5 29q19 0 55.5 -11.5t55.5 -11.5q36 0 41 36h41q5 -39 -21 -70t-65 -31q-18 0 -60 13t-50 13q-26 0 -38 -36z" />
    <glyph glyph-name="hungarumlaut" unicode="&#x2dd;" horiz-adv-x="400" 
d="M102 722h104l-121 -144h-65zM276 722h104l-121 -144h-65z" />
    <glyph glyph-name="mu" unicode="&#xb5;" horiz-adv-x="611" 
d="M422 0v74h-2q-54 -89 -172 -89q-39 0 -70 14v-191h-95v694h95v-297q0 -73 21 -108q26 -43 90 -43q34 0 63 16q35 20 49 56q19 50 19 118v258h95v-502h-93z" />
    <glyph glyph-name="mu" unicode="&#x3bc;" horiz-adv-x="611" 
d="M422 0v74h-2q-54 -89 -172 -89q-39 0 -70 14v-191h-95v694h95v-297q0 -73 21 -108q26 -43 90 -43q34 0 63 16q35 20 49 56q19 50 19 118v258h95v-502h-93z" />
    <glyph glyph-name="endash" unicode="&#x2013;" horiz-adv-x="500" 
d="M500 232h-500v70h500v-70z" />
    <glyph glyph-name="emdash" unicode="&#x2014;" horiz-adv-x="1000" 
d="M1000 232h-1000v70h1000v-70z" />
    <glyph glyph-name="quoteleft" unicode="&#x2018;" horiz-adv-x="278" 
d="M229 722l-64 -245h-116l112 245h68z" />
    <glyph glyph-name="quoteright" unicode="&#x2019;" horiz-adv-x="278" 
d="M49 477l64 245h116l-112 -245h-68z" />
    <glyph glyph-name="quotesinglbase" unicode="&#x201a;" horiz-adv-x="278" 
d="M49 -134l64 245h116l-112 -245h-68z" />
    <glyph glyph-name="quotedblleft" unicode="&#x201c;" 
d="M275 722l-64 -245h-116l112 245h68zM461 722l-64 -245h-116l112 245h68z" />
    <glyph glyph-name="quotedblright" unicode="&#x201d;" 
d="M281 477l64 245h116l-112 -245h-68zM95 477l64 245h116l-112 -245h-68z" />
    <glyph glyph-name="quotedblbase" unicode="&#x201e;" 
d="M101 -134l64 245h116l-112 -245h-68zM287 -134l64 245h116l-112 -245h-68z" />
    <glyph glyph-name="dagger" unicode="&#x2020;" 
d="M326 0h-95v483h-159v66h159v173h95v-173h159v-66h-159v-483z" />
    <glyph glyph-name="daggerdbl" unicode="&#x2021;" 
d="M227 244v239h-159v66h159v173h95v-173h159v-66h-159v-239h166v-66h-166v-178h-95v178h-159v66h159z" />
    <glyph glyph-name="bullet" unicode="&#x2022;" horiz-adv-x="350" 
d="M300 345q0 -52 -36.5 -88.5t-88.5 -36.5t-88.5 36.5t-36.5 88.5t36.5 88.5t88.5 36.5t88.5 -36.5t36.5 -88.5z" />
    <glyph glyph-name="ellipsis" unicode="&#x2026;" horiz-adv-x="1000" 
d="M224 0h-116v120h116v-120zM558 0h-116v120h116v-120zM892 0h-116v120h116v-120z" />
    <glyph glyph-name="perthousand" unicode="&#x2030;" horiz-adv-x="1000" 
d="M227 536q0 114 -72 114t-72 -114t72 -114t72 114zM495 327q146 0 146 -171t-146 -171t-146 171t146 171zM567 156q0 114 -72 114t-72 -114t72 -114t72 114zM832 327q146 0 146 -171t-146 -171t-146 171t146 171zM904 156q0 114 -72 114t-72 -114t72 -114t72 114zM155 707
q146 0 146 -171t-146 -171t-146 171t146 171zM47 -36l472 767h63l-472 -767h-63z" />
    <glyph glyph-name="guilsinglleft" unicode="&#x2039;" horiz-adv-x="278" 
d="M144 267l94 -195h-77l-112 195l112 195h79z" />
    <glyph glyph-name="guilsinglright" unicode="&#x203a;" horiz-adv-x="278" 
d="M134 267l-94 195h77l112 -195l-112 -195h-79z" />
    <glyph glyph-name="fraction" unicode="&#x2044;" horiz-adv-x="167" 
d="M-96 -27h-69l428 734h69z" />
    <glyph glyph-name="trademark" unicode="&#x2122;" horiz-adv-x="1000" 
d="M938 722v-421h-66v361h-2l-144 -361h-39l-140 361h-2v-361h-66v421h107l121 -297l125 297h106zM404 722v-60h-135v-361h-70v361h-136v60h341z" />
    <glyph glyph-name="minus" unicode="&#xad;" horiz-adv-x="584" 
d="M50 207v70h484v-70h-484z" />
    <glyph glyph-name="minus" unicode="&#x2212;" horiz-adv-x="584" 
d="M50 207v70h484v-70h-484z" />
    <glyph glyph-name="periodcentered" unicode="&#xb7;" horiz-adv-x="278" 
d="M197 302v-120h-116v120h116z" />
    <glyph glyph-name="periodcentered" unicode="&#x2219;" horiz-adv-x="278" 
d="M197 302v-120h-116v120h116z" />
    <glyph glyph-name="fi" unicode="&#xf001;" horiz-adv-x="611" 
d="M521 0h-95v502h95v-502zM417 619v103h113v-103h-113zM215 0h-95v436h-98v66h98v96q0 75 52 111q41 28 105 28q11 0 68 -10v-79l-48 3q-43 0 -61 -14q-21 -15 -21 -55v-80h116v-66h-116v-436z" />
    <glyph glyph-name="fl" unicode="&#xf002;" horiz-adv-x="611" 
d="M427 0v722h95v-722h-95zM215 0h-95v436h-98v66h98v96q0 75 52 111q41 28 105 28q11 0 68 -10v-79l-48 3q-43 0 -61 -14q-21 -15 -21 -55v-80h116v-66h-116v-436z" />
    <glyph glyph-name="glyph231" horiz-adv-x="280" 
 />
    <glyph glyph-name="nonbreakingspace" unicode="&#xa0;" horiz-adv-x="500" 
 />
  </font>
</defs>
</svg>
