<svg xmlns="http://www.w3.org/2000/svg" xmlns:xlink="http://www.w3.org/1999/xlink" width="1080" zoomAndPan="magnify" viewBox="0 0 810 809.999993" height="1080" preserveAspectRatio="xMidYMid meet" version="1.0"><defs><clipPath id="398e5e3b47"><path d="M 177 53.160156 L 631 53.160156 L 631 228 L 177 228 Z M 177 53.160156 " clip-rule="nonzero"/></clipPath><clipPath id="de8aacbffb"><path d="M 3.683594 192 L 805.050781 192 L 805.050781 715.886719 L 3.683594 715.886719 Z M 3.683594 192 " clip-rule="nonzero"/></clipPath><clipPath id="9f499acc87"><path d="M 18.496094 215.160156 L 788.167969 215.160156 L 788.167969 280 L 18.496094 280 Z M 18.496094 215.160156 " clip-rule="nonzero"/></clipPath><clipPath id="d1db816a9b"><path d="M 18.496094 261.078125 L 80 261.078125 L 80 661.664062 L 18.496094 661.664062 Z M 18.496094 261.078125 " clip-rule="nonzero"/></clipPath><clipPath id="583f0e58e6"><path d="M 725.667969 261.078125 L 787 261.078125 L 787 661.664062 L 725.667969 661.664062 Z M 725.667969 261.078125 " clip-rule="nonzero"/></clipPath><clipPath id="fa9d83ed65"><path d="M 376 65 L 606 65 L 606 247 L 376 247 Z M 376 65 " clip-rule="nonzero"/></clipPath><clipPath id="0e5ce030c6"><path d="M 376.175781 116.304688 L 409.820312 65.722656 L 608.988281 198.203125 L 575.34375 248.785156 Z M 376.175781 116.304688 " clip-rule="nonzero"/></clipPath><clipPath id="65d555b24b"><path d="M 376.175781 116.304688 L 409.789062 65.769531 L 606.027344 196.300781 L 572.410156 246.835938 Z M 376.175781 116.304688 " clip-rule="nonzero"/></clipPath><clipPath id="74d7441eeb"><path d="M 18.496094 628.496094 L 788.167969 628.496094 L 788.167969 694 L 18.496094 694 Z M 18.496094 628.496094 " clip-rule="nonzero"/></clipPath><clipPath id="6776adbd37"><path d="M 105.433594 298.160156 L 696.769531 298.160156 L 696.769531 610 L 105.433594 610 Z M 105.433594 298.160156 " clip-rule="nonzero"/></clipPath><clipPath id="93b6b442dc"><path d="M 198 65 L 428 65 L 428 249 L 198 249 Z M 198 65 " clip-rule="nonzero"/></clipPath><clipPath id="0bb8ee7806"><path d="M 393.625 65.773438 L 427.734375 116.042969 L 229.792969 250.34375 L 195.683594 200.074219 Z M 393.625 65.773438 " clip-rule="nonzero"/></clipPath><clipPath id="70630ffb4d"><path d="M 393.625 65.773438 L 427.703125 115.996094 L 232.671875 248.324219 L 198.59375 198.097656 Z M 393.625 65.773438 " clip-rule="nonzero"/></clipPath></defs><rect x="-81" width="972" fill="#f0f0f0" y="-80.999999" height="971.999992" fill-opacity="1"/><rect x="-81" width="972" fill="#f0f0f0" y="-80.999999" height="971.999992" fill-opacity="1"/><rect x="-81" width="972" fill="#f0f0f0" y="-80.999999" height="971.999992" fill-opacity="1"/><g clip-path="url(#398e5e3b47)"><path fill="#040606" d="M 613.484375 227.375 C 610.03125 227.375 606.578125 226.320312 603.800781 224.402344 L 404.464844 91.605469 L 205.128906 224.402344 C 201.292969 227.183594 196.496094 228.238281 191.800781 227.375 C 187.199219 226.511719 183.074219 223.828125 180.484375 219.894531 C 177.800781 215.964844 176.9375 211.171875 177.898438 206.566406 C 178.953125 201.964844 181.730469 197.9375 185.757812 195.445312 L 394.683594 56.035156 C 400.628906 52.199219 408.203125 52.199219 414.148438 56.035156 L 623.070312 195.445312 C 629.496094 199.664062 632.371094 207.621094 630.167969 215.003906 C 627.863281 222.386719 621.152344 227.375 613.484375 227.375 " fill-opacity="1" fill-rule="nonzero"/></g><g clip-path="url(#de8aacbffb)"><path fill="#040606" d="M 108.289062 610.609375 L 700.542969 610.609375 L 700.542969 296.984375 L 108.289062 296.984375 Z M 717.992188 645.507812 L 90.835938 645.507812 C 86.234375 645.507812 81.730469 643.59375 78.46875 640.332031 C 75.207031 637.070312 73.386719 632.566406 73.484375 627.964844 L 73.484375 279.917969 C 73.484375 270.328125 81.25 262.5625 90.835938 262.5625 L 717.992188 262.5625 C 722.59375 262.5625 727.003906 264.382812 730.265625 267.644531 C 733.527344 270.902344 735.347656 275.3125 735.347656 279.917969 L 735.347656 627.964844 C 735.441406 632.566406 733.621094 637.070312 730.265625 640.332031 C 727.003906 643.59375 722.59375 645.507812 717.992188 645.507812 Z M 38.679688 680.21875 L 770.632812 680.21875 L 770.632812 227.375 L 38.679688 227.375 Z M 787.699219 715.117188 L 21.132812 715.117188 C 11.542969 715.117188 3.777344 707.257812 3.777344 697.667969 L 3.777344 210.019531 C 3.683594 205.320312 5.503906 200.910156 8.761719 197.652344 C 12.023438 194.296875 16.53125 192.472656 21.132812 192.472656 L 787.699219 192.472656 C 792.300781 192.472656 796.710938 194.296875 800.066406 197.652344 C 803.328125 200.910156 805.148438 205.320312 805.148438 210.019531 L 805.148438 697.667969 C 805.148438 707.257812 797.285156 715.117188 787.699219 715.117188 " fill-opacity="1" fill-rule="nonzero"/></g><path fill="#040606" d="M 108.289062 610.609375 L 700.542969 610.609375 L 700.542969 296.984375 L 108.289062 296.984375 Z M 717.992188 645.507812 L 90.835938 645.507812 C 86.234375 645.507812 81.730469 643.59375 78.46875 640.332031 C 75.207031 637.070312 73.386719 632.566406 73.484375 627.964844 L 73.484375 279.917969 C 73.484375 270.328125 81.25 262.5625 90.835938 262.5625 L 717.992188 262.5625 C 722.59375 262.5625 727.003906 264.382812 730.265625 267.644531 C 733.527344 270.902344 735.347656 275.3125 735.347656 279.917969 L 735.347656 627.964844 C 735.441406 632.566406 733.621094 637.070312 730.265625 640.332031 C 727.003906 643.59375 722.59375 645.507812 717.992188 645.507812 " fill-opacity="1" fill-rule="nonzero"/><path fill="#040606" d="M 108.289062 610.609375 L 700.542969 610.609375 L 700.542969 296.984375 L 108.289062 296.984375 Z M 717.992188 645.507812 L 90.835938 645.507812 C 86.234375 645.507812 81.730469 643.59375 78.46875 640.332031 C 75.207031 637.070312 73.386719 632.566406 73.484375 627.964844 L 73.484375 279.917969 C 73.484375 270.328125 81.25 262.5625 90.835938 262.5625 L 717.992188 262.5625 C 722.59375 262.5625 727.003906 264.382812 730.265625 267.644531 C 733.527344 270.902344 735.347656 275.3125 735.347656 279.917969 L 735.347656 627.964844 C 735.441406 632.566406 733.621094 637.070312 730.265625 640.332031 C 727.003906 643.59375 722.59375 645.507812 717.992188 645.507812 " fill-opacity="1" fill-rule="nonzero"/><path fill="#040606" d="M 107.902344 610.609375 L 344.441406 610.609375 L 195.441406 444.925781 L 108.289062 541.671875 Z M 383.945312 645.507812 L 90.835938 645.507812 C 86.234375 645.507812 81.824219 643.59375 78.566406 640.332031 C 75.304688 637.070312 73.484375 632.566406 73.484375 627.964844 L 73.484375 534.960938 C 73.386719 530.546875 75.015625 526.234375 77.894531 522.972656 L 182.402344 406.863281 C 185.855469 403.410156 190.554688 401.398438 195.441406 401.398438 C 200.332031 401.398438 204.933594 403.410156 208.386719 406.863281 L 396.792969 615.976562 C 401.300781 621.058594 402.449219 628.347656 399.667969 634.675781 C 396.984375 640.90625 390.753906 645.03125 383.945312 645.125 L 383.945312 645.507812 " fill-opacity="1" fill-rule="nonzero"/><path fill="#040606" d="M 391.613281 610.609375 L 700.636719 610.609375 L 700.636719 522.878906 L 578.679688 377.140625 L 387.394531 605.910156 Z M 717.992188 645.507812 L 383.945312 645.507812 C 378.957031 645.414062 374.261719 643.304688 371 639.757812 L 351.34375 618.085938 C 345.6875 611.472656 345.6875 601.789062 351.34375 595.171875 L 565.253906 338.117188 C 568.707031 334.375 573.5 332.171875 578.582031 332.171875 C 583.761719 332.171875 588.554688 334.375 592.003906 338.117188 L 731.320312 505.332031 C 734.003906 508.398438 735.347656 512.425781 735.347656 516.453125 L 735.347656 627.964844 C 735.441406 632.566406 733.621094 637.070312 730.363281 640.332031 C 727.101562 643.59375 722.59375 645.507812 717.992188 645.507812 " fill-opacity="1" fill-rule="nonzero"/><path fill="#040606" d="M 369.660156 366.6875 C 362.5625 366.6875 356.234375 371.003906 353.550781 377.425781 C 350.867188 383.945312 352.304688 391.425781 357.289062 396.410156 C 362.277344 401.398438 369.753906 402.835938 376.273438 400.152344 C 382.792969 397.464844 387.011719 391.136719 387.011719 384.140625 C 387.011719 379.441406 385.191406 375.03125 381.929688 371.769531 C 378.671875 368.511719 374.261719 366.6875 369.660156 366.6875 Z M 369.660156 436.394531 C 355.753906 436.488281 342.429688 431.023438 332.550781 421.148438 C 322.773438 411.367188 317.210938 398.042969 317.210938 384.140625 C 317.117188 370.332031 322.675781 357.003906 332.457031 347.128906 C 342.238281 337.347656 355.5625 331.789062 369.464844 331.789062 C 383.371094 331.789062 396.695312 337.253906 406.476562 347.128906 C 416.257812 356.910156 421.816406 370.234375 421.816406 384.140625 C 421.722656 397.945312 416.257812 411.273438 406.476562 421.054688 C 396.695312 430.832031 383.464844 436.394531 369.660156 436.394531 " fill-opacity="1" fill-rule="nonzero"/><g clip-path="url(#9f499acc87)"><path fill="#000000" d="M 18.496094 215.160156 L 789.261719 215.160156 L 789.261719 279.707031 L 18.496094 279.707031 Z M 18.496094 215.160156 " fill-opacity="1" fill-rule="nonzero"/></g><g clip-path="url(#d1db816a9b)"><path fill="#000000" d="M 18.496094 261.078125 L 79.246094 261.078125 L 79.246094 663.546875 L 18.496094 663.546875 Z M 18.496094 261.078125 " fill-opacity="1" fill-rule="nonzero"/></g><g clip-path="url(#583f0e58e6)"><path fill="#000000" d="M 725.667969 261.078125 L 786.417969 261.078125 L 786.417969 663.546875 L 725.667969 663.546875 Z M 725.667969 261.078125 " fill-opacity="1" fill-rule="nonzero"/></g><g clip-path="url(#fa9d83ed65)"><g clip-path="url(#0e5ce030c6)"><g clip-path="url(#65d555b24b)"><path fill="#000000" d="M 376.175781 116.304688 L 409.820312 65.722656 L 605.824219 196.097656 L 572.179688 246.679688 Z M 376.175781 116.304688 " fill-opacity="1" fill-rule="nonzero"/></g></g></g><g clip-path="url(#74d7441eeb)"><path fill="#000000" d="M 18.496094 628.496094 L 789.261719 628.496094 L 789.261719 693.042969 L 18.496094 693.042969 Z M 18.496094 628.496094 " fill-opacity="1" fill-rule="nonzero"/></g><g clip-path="url(#6776adbd37)"><path fill="#f0f0f0" d="M 105.433594 298.160156 L 697.746094 298.160156 L 697.746094 609.503906 L 105.433594 609.503906 Z M 105.433594 298.160156 " fill-opacity="1" fill-rule="nonzero"/></g><g clip-path="url(#93b6b442dc)"><g clip-path="url(#0bb8ee7806)"><g clip-path="url(#70630ffb4d)"><path fill="#000000" d="M 393.625 65.773438 L 427.734375 116.042969 L 232.933594 248.214844 L 198.824219 197.941406 Z M 393.625 65.773438 " fill-opacity="1" fill-rule="nonzero"/></g></g></g></svg>