<svg xmlns="http://www.w3.org/2000/svg" xmlns:xlink="http://www.w3.org/1999/xlink" width="1080" zoomAndPan="magnify" viewBox="0 0 810 809.999993" height="1080" preserveAspectRatio="xMidYMid meet" version="1.0"><rect x="-81" width="972" fill="#ffffff" y="-80.999999" height="971.999992" fill-opacity="1"/><rect x="-81" width="972" fill="#f0f0f0" y="-80.999999" height="971.999992" fill-opacity="1"/><path fill="#000000" d="M 780.835938 254.28125 L 434.152344 139.707031 C 415.253906 133.460938 394.875 133.460938 375.996094 139.707031 L 29.296875 254.28125 C 0.0351562 263.945312 0.0351562 305.5625 29.296875 315.230469 L 89.734375 335.203125 C 76.472656 352.839844 68.320312 374.347656 67.515625 397.90625 C 42.007812 413.203125 40.09375 450.96875 64.34375 468.796875 L 32.613281 622.382812 C 29.851562 635.734375 39.300781 648.410156 52.015625 648.410156 L 121.75 648.410156 C 134.480469 648.410156 143.921875 635.734375 141.167969 622.382812 L 109.4375 468.796875 C 133.292969 451.25 131.925781 414.332031 107.195312 398.578125 C 108.144531 378.492188 117.691406 360.742188 132.914062 349.480469 L 375.984375 429.816406 C 387.242188 433.539062 408.839844 438.175781 434.136719 429.816406 L 780.835938 315.242188 C 810.105469 305.5625 810.105469 263.960938 780.835938 254.28125 " fill-opacity="1" fill-rule="nonzero"/><path fill="#000000" d="M 445.820312 470.71875 C 410.359375 482.429688 380.148438 475.957031 364.300781 470.71875 L 184.054688 411.15625 L 166.4375 562.847656 C 174.324219 675.730469 636 675.558594 643.699219 562.847656 L 626.074219 411.140625 L 445.820312 470.71875 " fill-opacity="1" fill-rule="nonzero"/></svg>