<svg xmlns="http://www.w3.org/2000/svg" xmlns:xlink="http://www.w3.org/1999/xlink" width="1080" zoomAndPan="magnify" viewBox="0 0 810 809.999993" height="1080" preserveAspectRatio="xMidYMid meet" version="1.0"><rect x="-81" width="972" fill="#f0f0f0" y="-80.999999" height="971.999992" fill-opacity="1"/><rect x="-81" width="972" fill="#f0f0f0" y="-80.999999" height="971.999992" fill-opacity="1"/><path fill="#000000" d="M 810 350.519531 L 810 459.480469 C 810 460.542969 809.972656 461.601562 809.921875 462.660156 C 809.871094 463.722656 809.792969 464.777344 809.6875 465.832031 C 809.585938 466.890625 809.453125 467.941406 809.296875 468.992188 C 809.144531 470.039062 808.960938 471.082031 808.753906 472.125 C 808.546875 473.164062 808.316406 474.199219 808.058594 475.226562 C 807.800781 476.257812 807.515625 477.277344 807.210938 478.292969 C 806.902344 479.308594 806.570312 480.3125 806.210938 481.3125 C 805.855469 482.3125 805.472656 483.300781 805.066406 484.28125 C 804.660156 485.261719 804.230469 486.230469 803.777344 487.1875 C 803.324219 488.144531 802.847656 489.09375 802.347656 490.027344 C 801.847656 490.964844 801.324219 491.886719 800.78125 492.796875 C 800.234375 493.707031 799.667969 494.601562 799.078125 495.484375 C 798.488281 496.363281 797.878906 497.230469 797.246094 498.082031 C 796.617188 498.933594 795.964844 499.769531 795.289062 500.589844 C 794.617188 501.410156 793.925781 502.214844 793.214844 503 C 792.5 503.785156 791.769531 504.554688 791.019531 505.304688 C 790.269531 506.050781 789.503906 506.785156 788.71875 507.496094 C 787.929688 508.207031 787.128906 508.902344 786.308594 509.574219 C 785.488281 510.246094 784.652344 510.898438 783.800781 511.53125 C 782.949219 512.160156 782.082031 512.773438 781.199219 513.363281 C 780.320312 513.949219 779.421875 514.519531 778.515625 515.0625 C 777.605469 515.609375 776.683594 516.128906 775.746094 516.628906 C 774.8125 517.128906 773.863281 517.605469 772.90625 518.0625 C 771.945312 518.515625 770.976562 518.945312 769.996094 519.347656 C 769.019531 519.753906 768.027344 520.136719 767.03125 520.496094 C 766.03125 520.851562 765.023438 521.183594 764.011719 521.492188 C 762.996094 521.800781 761.972656 522.082031 760.945312 522.339844 C 759.917969 522.597656 758.882812 522.832031 757.839844 523.035156 C 756.800781 523.242188 755.757812 523.425781 754.707031 523.582031 C 753.660156 523.738281 752.605469 523.867188 751.550781 523.96875 C 750.496094 524.074219 749.4375 524.152344 748.378906 524.203125 C 747.320312 524.257812 746.261719 524.28125 745.199219 524.28125 L 524.28125 524.28125 L 524.28125 745.199219 C 524.28125 746.261719 524.257812 747.320312 524.203125 748.378906 C 524.152344 749.4375 524.074219 750.496094 523.96875 751.550781 C 523.867188 752.605469 523.738281 753.660156 523.582031 754.707031 C 523.425781 755.757812 523.242188 756.800781 523.035156 757.84375 C 522.832031 758.882812 522.597656 759.917969 522.339844 760.945312 C 522.082031 761.972656 521.800781 762.996094 521.492188 764.011719 C 521.183594 765.023438 520.851562 766.03125 520.496094 767.03125 C 520.136719 768.027344 519.753906 769.019531 519.351562 769.996094 C 518.945312 770.976562 518.515625 771.945312 518.0625 772.90625 C 517.605469 773.863281 517.128906 774.8125 516.628906 775.746094 C 516.128906 776.683594 515.609375 777.605469 515.0625 778.515625 C 514.519531 779.421875 513.949219 780.320312 513.363281 781.199219 C 512.773438 782.082031 512.160156 782.949219 511.53125 783.800781 C 510.898438 784.652344 510.246094 785.488281 509.574219 786.308594 C 508.902344 787.128906 508.207031 787.929688 507.496094 788.71875 C 506.785156 789.503906 506.050781 790.269531 505.300781 791.019531 C 504.554688 791.769531 503.785156 792.5 503 793.214844 C 502.214844 793.925781 501.410156 794.617188 500.589844 795.289062 C 499.769531 795.964844 498.933594 796.617188 498.082031 797.246094 C 497.230469 797.878906 496.363281 798.488281 495.484375 799.078125 C 494.601562 799.667969 493.707031 800.234375 492.796875 800.78125 C 491.886719 801.324219 490.964844 801.847656 490.027344 802.347656 C 489.09375 802.847656 488.144531 803.324219 487.1875 803.777344 C 486.230469 804.230469 485.261719 804.660156 484.28125 805.066406 C 483.300781 805.472656 482.3125 805.855469 481.3125 806.210938 C 480.3125 806.570312 479.308594 806.902344 478.292969 807.210938 C 477.277344 807.515625 476.257812 807.800781 475.226562 808.058594 C 474.199219 808.316406 473.164062 808.546875 472.125 808.753906 C 471.082031 808.960938 470.039062 809.144531 468.992188 809.296875 C 467.941406 809.453125 466.890625 809.585938 465.832031 809.6875 C 464.777344 809.792969 463.722656 809.871094 462.660156 809.921875 C 461.601562 809.972656 460.542969 810 459.480469 810 L 350.519531 810 C 349.457031 810 348.398438 809.972656 347.339844 809.921875 C 346.28125 809.871094 345.222656 809.792969 344.167969 809.6875 C 343.113281 809.585938 342.058594 809.453125 341.011719 809.296875 C 339.960938 809.144531 338.917969 808.960938 337.878906 808.753906 C 336.835938 808.546875 335.804688 808.316406 334.773438 808.058594 C 333.746094 807.800781 332.722656 807.515625 331.707031 807.210938 C 330.695312 806.902344 329.6875 806.570312 328.6875 806.210938 C 327.691406 805.855469 326.703125 805.472656 325.722656 805.066406 C 324.742188 804.660156 323.773438 804.230469 322.8125 803.777344 C 321.855469 803.324219 320.90625 802.847656 319.972656 802.347656 C 319.039062 801.847656 318.113281 801.324219 317.207031 800.78125 C 316.296875 800.234375 315.398438 799.667969 314.519531 799.078125 C 313.636719 798.488281 312.769531 797.878906 311.917969 797.246094 C 311.066406 796.617188 310.230469 795.964844 309.410156 795.289062 C 308.589844 794.617188 307.789062 793.925781 307.003906 793.214844 C 306.214844 792.5 305.449219 791.769531 304.699219 791.019531 C 303.949219 790.269531 303.21875 789.503906 302.503906 788.71875 C 301.792969 787.929688 301.101562 787.128906 300.429688 786.308594 C 299.753906 785.488281 299.101562 784.652344 298.472656 783.800781 C 297.839844 782.949219 297.230469 782.082031 296.640625 781.199219 C 296.050781 780.320312 295.484375 779.421875 294.9375 778.515625 C 294.394531 777.605469 293.871094 776.683594 293.371094 775.746094 C 292.871094 774.8125 292.394531 773.863281 291.941406 772.90625 C 291.488281 771.945312 291.058594 770.976562 290.652344 769.996094 C 290.246094 769.019531 289.863281 768.027344 289.507812 767.03125 C 289.148438 766.03125 288.816406 765.023438 288.507812 764.011719 C 288.203125 762.996094 287.917969 761.972656 287.660156 760.945312 C 287.402344 759.917969 287.171875 758.882812 286.964844 757.84375 C 286.757812 756.800781 286.578125 755.757812 286.421875 754.707031 C 286.265625 753.660156 286.136719 752.605469 286.03125 751.550781 C 285.925781 750.496094 285.847656 749.4375 285.796875 748.378906 C 285.746094 747.320312 285.71875 746.261719 285.71875 745.199219 L 285.71875 524.28125 L 64.800781 524.28125 C 63.738281 524.28125 62.679688 524.257812 61.621094 524.203125 C 60.5625 524.152344 59.503906 524.074219 58.449219 523.96875 C 57.394531 523.867188 56.339844 523.738281 55.292969 523.582031 C 54.242188 523.425781 53.199219 523.242188 52.15625 523.039062 C 51.117188 522.832031 50.082031 522.597656 49.054688 522.339844 C 48.027344 522.082031 47.003906 521.800781 45.988281 521.492188 C 44.976562 521.183594 43.96875 520.851562 42.96875 520.496094 C 41.972656 520.136719 40.980469 519.753906 40.003906 519.351562 C 39.023438 518.945312 38.054688 518.515625 37.09375 518.0625 C 36.136719 517.605469 35.1875 517.128906 34.253906 516.628906 C 33.316406 516.128906 32.394531 515.609375 31.484375 515.0625 C 30.578125 514.519531 29.679688 513.949219 28.800781 513.363281 C 27.917969 512.773438 27.050781 512.160156 26.199219 511.53125 C 25.347656 510.898438 24.511719 510.246094 23.691406 509.574219 C 22.871094 508.902344 22.070312 508.207031 21.28125 507.496094 C 20.496094 506.785156 19.730469 506.050781 18.980469 505.304688 C 18.230469 504.554688 17.5 503.785156 16.785156 503 C 16.074219 502.214844 15.382812 501.410156 14.707031 500.589844 C 14.035156 499.769531 13.382812 498.933594 12.753906 498.082031 C 12.121094 497.230469 11.511719 496.363281 10.921875 495.484375 C 10.332031 494.601562 9.765625 493.707031 9.21875 492.796875 C 8.675781 491.886719 8.152344 490.964844 7.652344 490.027344 C 7.152344 489.09375 6.675781 488.144531 6.222656 487.1875 C 5.769531 486.230469 5.339844 485.261719 4.933594 484.28125 C 4.527344 483.300781 4.144531 482.3125 3.789062 481.3125 C 3.429688 480.3125 3.097656 479.308594 2.789062 478.292969 C 2.484375 477.277344 2.199219 476.257812 1.941406 475.226562 C 1.683594 474.199219 1.453125 473.164062 1.246094 472.125 C 1.039062 471.085938 0.855469 470.039062 0.703125 468.992188 C 0.546875 467.941406 0.414062 466.890625 0.3125 465.832031 C 0.207031 464.777344 0.128906 463.722656 0.078125 462.660156 C 0.0273438 461.601562 0 460.542969 0 459.480469 L 0 350.519531 C 0 349.457031 0.0273438 348.398438 0.078125 347.339844 C 0.128906 346.28125 0.207031 345.222656 0.3125 344.167969 C 0.414062 343.113281 0.546875 342.058594 0.703125 341.011719 C 0.855469 339.960938 1.039062 338.917969 1.246094 337.878906 C 1.453125 336.835938 1.683594 335.804688 1.941406 334.773438 C 2.199219 333.746094 2.480469 332.722656 2.789062 331.710938 C 3.097656 330.695312 3.429688 329.6875 3.789062 328.6875 C 4.144531 327.691406 4.527344 326.703125 4.933594 325.722656 C 5.339844 324.742188 5.769531 323.773438 6.222656 322.8125 C 6.675781 321.855469 7.152344 320.90625 7.652344 319.972656 C 8.152344 319.039062 8.675781 318.113281 9.21875 317.207031 C 9.765625 316.296875 10.332031 315.398438 10.921875 314.519531 C 11.511719 313.636719 12.121094 312.769531 12.753906 311.917969 C 13.382812 311.066406 14.035156 310.230469 14.707031 309.410156 C 15.382812 308.589844 16.074219 307.789062 16.785156 307.003906 C 17.5 306.214844 18.230469 305.449219 18.980469 304.699219 C 19.730469 303.949219 20.496094 303.21875 21.28125 302.503906 C 22.070312 301.792969 22.871094 301.101562 23.691406 300.429688 C 24.511719 299.753906 25.347656 299.101562 26.199219 298.472656 C 27.050781 297.839844 27.917969 297.230469 28.800781 296.640625 C 29.679688 296.050781 30.578125 295.484375 31.484375 294.9375 C 32.394531 294.394531 33.316406 293.871094 34.253906 293.371094 C 35.1875 292.871094 36.136719 292.394531 37.09375 291.941406 C 38.054688 291.488281 39.023438 291.058594 40.003906 290.652344 C 40.980469 290.246094 41.972656 289.863281 42.96875 289.507812 C 43.96875 289.148438 44.976562 288.816406 45.988281 288.507812 C 47.003906 288.203125 48.027344 287.917969 49.054688 287.660156 C 50.082031 287.402344 51.117188 287.171875 52.15625 286.964844 C 53.199219 286.757812 54.242188 286.578125 55.292969 286.421875 C 56.339844 286.265625 57.394531 286.136719 58.449219 286.03125 C 59.503906 285.925781 60.5625 285.847656 61.621094 285.796875 C 62.679688 285.746094 63.738281 285.71875 64.800781 285.71875 L 285.71875 285.71875 L 285.71875 64.800781 C 285.71875 63.738281 285.746094 62.679688 285.796875 61.621094 C 285.847656 60.5625 285.925781 59.503906 286.03125 58.449219 C 286.136719 57.394531 286.265625 56.339844 286.421875 55.292969 C 286.578125 54.242188 286.757812 53.199219 286.964844 52.15625 C 287.171875 51.117188 287.402344 50.082031 287.660156 49.054688 C 287.917969 48.027344 288.203125 47.003906 288.507812 45.988281 C 288.816406 44.976562 289.148438 43.96875 289.507812 42.96875 C 289.863281 41.972656 290.246094 40.980469 290.652344 40.003906 C 291.058594 39.023438 291.488281 38.054688 291.941406 37.09375 C 292.394531 36.136719 292.871094 35.1875 293.371094 34.253906 C 293.871094 33.316406 294.394531 32.394531 294.9375 31.484375 C 295.484375 30.578125 296.050781 29.679688 296.640625 28.800781 C 297.230469 27.917969 297.839844 27.050781 298.472656 26.199219 C 299.101562 25.347656 299.753906 24.511719 300.429688 23.691406 C 301.101562 22.871094 301.792969 22.070312 302.503906 21.28125 C 303.21875 20.496094 303.949219 19.730469 304.699219 18.980469 C 305.449219 18.230469 306.214844 17.5 307.003906 16.785156 C 307.789062 16.074219 308.589844 15.382812 309.410156 14.707031 C 310.230469 14.035156 311.066406 13.382812 311.917969 12.753906 C 312.769531 12.121094 313.636719 11.511719 314.519531 10.921875 C 315.398438 10.332031 316.296875 9.765625 317.207031 9.21875 C 318.113281 8.675781 319.039062 8.152344 319.972656 7.652344 C 320.90625 7.152344 321.855469 6.675781 322.8125 6.222656 C 323.773438 5.769531 324.742188 5.339844 325.722656 4.933594 C 326.703125 4.527344 327.691406 4.144531 328.6875 3.789062 C 329.6875 3.429688 330.695312 3.097656 331.707031 2.789062 C 332.722656 2.484375 333.746094 2.199219 334.773438 1.941406 C 335.804688 1.683594 336.835938 1.453125 337.878906 1.246094 C 338.917969 1.039062 339.960938 0.855469 341.011719 0.703125 C 342.058594 0.546875 343.113281 0.414062 344.167969 0.3125 C 345.222656 0.207031 346.28125 0.128906 347.339844 0.078125 C 348.398438 0.0273438 349.457031 0 350.519531 0 L 459.480469 0 C 460.542969 0 461.601562 0.0273438 462.660156 0.078125 C 463.71875 0.128906 464.777344 0.207031 465.832031 0.3125 C 466.886719 0.414062 467.941406 0.546875 468.988281 0.703125 C 470.039062 0.855469 471.082031 1.039062 472.121094 1.246094 C 473.164062 1.453125 474.195312 1.683594 475.226562 1.941406 C 476.253906 2.199219 477.277344 2.484375 478.292969 2.789062 C 479.304688 3.097656 480.3125 3.429688 481.3125 3.789062 C 482.308594 4.144531 483.296875 4.527344 484.277344 4.933594 C 485.257812 5.339844 486.226562 5.769531 487.1875 6.222656 C 488.144531 6.675781 489.09375 7.152344 490.027344 7.652344 C 490.960938 8.152344 491.886719 8.675781 492.792969 9.21875 C 493.703125 9.765625 494.601562 10.332031 495.480469 10.921875 C 496.363281 11.511719 497.230469 12.121094 498.082031 12.753906 C 498.933594 13.382812 499.769531 14.035156 500.589844 14.707031 C 501.410156 15.382812 502.210938 16.074219 502.996094 16.785156 C 503.785156 17.5 504.550781 18.230469 505.300781 18.980469 C 506.050781 19.730469 506.78125 20.496094 507.496094 21.28125 C 508.207031 22.070312 508.898438 22.871094 509.570312 23.691406 C 510.246094 24.511719 510.898438 25.347656 511.527344 26.199219 C 512.160156 27.050781 512.769531 27.917969 513.359375 28.800781 C 513.949219 29.679688 514.515625 30.578125 515.0625 31.484375 C 515.605469 32.394531 516.128906 33.316406 516.628906 34.253906 C 517.128906 35.1875 517.605469 36.136719 518.058594 37.09375 C 518.511719 38.054688 518.941406 39.023438 519.347656 40.003906 C 519.753906 40.980469 520.136719 41.972656 520.492188 42.96875 C 520.851562 43.96875 521.183594 44.976562 521.492188 45.988281 C 521.796875 47.003906 522.082031 48.027344 522.339844 49.054688 C 522.597656 50.082031 522.828125 51.117188 523.035156 52.15625 C 523.242188 53.199219 523.421875 54.242188 523.578125 55.292969 C 523.734375 56.339844 523.863281 57.394531 523.96875 58.449219 C 524.074219 59.503906 524.152344 60.5625 524.203125 61.621094 C 524.253906 62.679688 524.28125 63.738281 524.28125 64.800781 L 524.28125 285.722656 L 745.199219 285.722656 C 746.261719 285.722656 747.320312 285.746094 748.378906 285.800781 C 749.4375 285.851562 750.496094 285.929688 751.550781 286.03125 C 752.605469 286.136719 753.660156 286.265625 754.707031 286.421875 C 755.757812 286.578125 756.800781 286.757812 757.839844 286.964844 C 758.882812 287.171875 759.917969 287.40625 760.945312 287.664062 C 761.972656 287.921875 762.996094 288.203125 764.011719 288.511719 C 765.023438 288.820312 766.03125 289.152344 767.03125 289.507812 C 768.027344 289.867188 769.019531 290.246094 769.996094 290.652344 C 770.976562 291.058594 771.945312 291.488281 772.90625 291.941406 C 773.863281 292.394531 774.8125 292.871094 775.746094 293.371094 C 776.679688 293.871094 777.605469 294.394531 778.511719 294.941406 C 779.421875 295.484375 780.320312 296.050781 781.199219 296.640625 C 782.082031 297.230469 782.949219 297.839844 783.800781 298.472656 C 784.652344 299.105469 785.488281 299.757812 786.308594 300.429688 C 787.128906 301.101562 787.929688 301.792969 788.714844 302.507812 C 789.503906 303.21875 790.269531 303.949219 791.019531 304.699219 C 791.769531 305.449219 792.5 306.21875 793.214844 307.003906 C 793.925781 307.789062 794.617188 308.59375 795.289062 309.410156 C 795.964844 310.230469 796.617188 311.066406 797.246094 311.917969 C 797.878906 312.769531 798.488281 313.636719 799.078125 314.519531 C 799.667969 315.402344 800.234375 316.296875 800.78125 317.207031 C 801.324219 318.117188 801.847656 319.039062 802.347656 319.972656 C 802.847656 320.910156 803.324219 321.855469 803.777344 322.816406 C 804.230469 323.773438 804.660156 324.742188 805.066406 325.722656 C 805.472656 326.703125 805.855469 327.691406 806.210938 328.691406 C 806.570312 329.6875 806.902344 330.695312 807.210938 331.710938 C 807.515625 332.722656 807.800781 333.746094 808.058594 334.773438 C 808.316406 335.804688 808.546875 336.835938 808.753906 337.878906 C 808.960938 338.917969 809.144531 339.960938 809.296875 341.011719 C 809.453125 342.058594 809.582031 343.113281 809.6875 344.167969 C 809.792969 345.222656 809.871094 346.28125 809.921875 347.339844 C 809.972656 348.398438 810 349.457031 810 350.519531 Z M 810 350.519531 " fill-opacity="1" fill-rule="nonzero"/></svg>