<svg xmlns="http://www.w3.org/2000/svg" xmlns:xlink="http://www.w3.org/1999/xlink" width="1080" zoomAndPan="magnify" viewBox="0 0 810 809.999993" height="1080" preserveAspectRatio="xMidYMid meet" version="1.0"><rect x="-81" width="972" fill="#f0f0f0" y="-80.999999" height="971.999992" fill-opacity="1"/><rect x="-81" width="972" fill="#f0f0f0" y="-80.999999" height="971.999992" fill-opacity="1"/><path fill="#000000" d="M 796.875 809.941406 L 13.1875 809.941406 C 6.09375 809.941406 0.34375 804.191406 0.34375 797.09375 L 0.34375 723.886719 C 0.34375 602.085938 99.433594 502.992188 221.234375 502.992188 L 588.828125 502.992188 C 710.628906 502.992188 809.722656 602.085938 809.722656 723.886719 L 809.722656 797.09375 C 809.722656 804.191406 803.972656 809.941406 796.875 809.941406 Z M 405.03125 468.453125 C 275.878906 468.453125 170.804688 363.378906 170.804688 234.226562 C 170.804688 105.074219 275.878906 0 405.03125 0 C 534.183594 0 639.257812 105.074219 639.257812 234.226562 C 639.257812 363.378906 534.183594 468.453125 405.03125 468.453125 Z M 405.03125 468.453125 " fill-opacity="1" fill-rule="nonzero"/></svg>