<?xml version="1.0" standalone="no"?>
<!DOCTYPE svg PUBLIC "-//W3C//DTD SVG 1.1//EN" "http://www.w3.org/Graphics/SVG/1.1/DTD/svg11.dtd" >
<svg xmlns="http://www.w3.org/2000/svg" xmlns:xlink="http://www.w3.org/1999/xlink" version="1.1">
<metadata>
Created by FontForge 20170910 at Wed Jul 22 11:53:26 2009
 By Jimmy Wärting
Copyright (c) 2008 by Jos Buivenga. All rights reserved.
</metadata>
<defs>
<font id="Calluna-Regular" horiz-adv-x="500" >
  <font-face 
    font-family="Calluna"
    font-weight="400"
    font-stretch="normal"
    units-per-em="1000"
    panose-1="0 0 5 0 0 0 0 0 0 0"
    ascent="750"
    descent="-250"
    x-height="454"
    cap-height="671"
    bbox="-157 -251 1135 940"
    underline-thickness="50"
    underline-position="-100"
    stemh="36"
    stemv="82"
    unicode-range="U+0020-FB06"
  />
<missing-glyph horiz-adv-x="690" 
d="M120 147l40 -41l185 186l185 -186l40 41l-185 185l185 186l-39 41l-186 -187l-186 187l-39 -41l185 -186zM45 -53v773h600v-773h-600z" />
    <glyph glyph-name="fi" unicode="fi" horiz-adv-x="562" 
d="M37 -3v29c45 5 62 29 62 65v308h-63v30l63 22v27c0 149 80 250 219 250c52 0 117 -17 117 -59c0 -19 -15 -38 -42 -38c-40 0 -64 51 -122 51c-60 0 -90 -48 -90 -177v-57h149c49 0 103 5 148 28l1 -3s-11 -33 -11 -114v-268c0 -30 -5 -54 -5 -54l85 -9l-4 -25l-220 -6v29
c45 5 62 29 62 65v243c0 43 -1 68 -30 68h-165l-10 -10v-301c0 -30 -5 -54 -5 -54l80 -9l-4 -25z" />
    <glyph glyph-name="fl" unicode="fl" horiz-adv-x="563" 
d="M324 -3v29c45 5 62 29 62 65v508c0 13 0 24 -1 33c-37 8 -63 50 -119 50c-57 0 -85 -48 -85 -177v-55h126l-8 -48h-108l-10 -10v-301c0 -30 -5 -54 -5 -54l80 -9l-4 -25l-215 -6v29c45 5 62 29 62 65v308h-63v30l63 22v27c0 149 78 250 214 250c28 0 60 -4 85 -14
c54 14 77 25 77 25l3 -3s-10 -37 -10 -114v-531c0 -30 -5 -54 -5 -54l85 -9l-4 -25z" />
    <glyph glyph-name="ff" unicode="ff" horiz-adv-x="614" 
d="M324 -3v29c45 5 62 29 62 65v311h-195l-10 -10v-301c0 -30 -5 -54 -5 -54l80 -9l-4 -25l-215 -6v29c45 5 62 29 62 65v308h-63v30l63 22v2c0 149 84 250 229 250c43 0 95 -12 116 -38c35 40 84 63 146 63c48 0 107 -17 107 -59c0 -19 -15 -38 -42 -38
c-36 0 -58 51 -112 51c-51 0 -75 -48 -75 -177v-55h141l-8 -48h-123l-10 -10v-301c0 -30 -5 -54 -5 -54l105 -9l-4 -25zM181 480v-32h205v30c0 46 7 88 21 124c-40 7 -67 55 -126 55c-66 0 -100 -48 -100 -177z" />
    <glyph glyph-name="f_j" unicode="fj" horiz-adv-x="541" 
d="M37 -3v29c45 5 62 29 62 65v308h-63v30l63 22v27c0 149 80 250 219 250c52 0 117 -17 117 -59c0 -19 -15 -38 -42 -38c-40 0 -64 51 -122 51c-60 0 -90 -48 -90 -177v-57h149c49 0 103 6 148 28l1 -3s-11 -29 -11 -110v-335c0 -167 -64 -265 -176 -265l-12 24
c54 8 106 87 106 189v358c0 43 -1 68 -30 68h-165l-10 -10v-301c0 -30 -5 -54 -5 -54l105 -9l-4 -25z" />
    <glyph glyph-name="f_f_i" unicode="ffi" horiz-adv-x="849" 
d="M324 -3v29c45 5 62 29 62 65v311h-195l-10 -10v-301c0 -30 -5 -54 -5 -54l80 -9l-4 -25l-215 -6v29c45 5 62 29 62 65v308h-63v30l63 22v2c0 148 86 249 226 249c44 0 101 -10 122 -39c37 41 91 65 158 65c52 0 116 -16 116 -58c0 -19 -14 -39 -41 -39
c-40 0 -64 51 -122 51c-60 0 -90 -48 -90 -177v-57h149c49 0 103 6 148 28l1 -3s-11 -33 -11 -114v-268c0 -30 -5 -54 -5 -54l85 -9l-4 -25l-220 -6v29c45 5 62 29 62 65v243c0 41 -1 68 -26 68h-169l-10 -10v-301c0 -30 -5 -54 -5 -54l80 -9l-4 -25zM181 480v-32h205v30
c0 46 7 87 22 123c-35 7 -59 55 -127 55c-66 0 -100 -48 -100 -176z" />
    <glyph glyph-name="f_f_l" unicode="ffl" horiz-adv-x="850" 
d="M324 -3v29c45 5 62 29 62 65v311h-195l-10 -10v-301c0 -30 -5 -54 -5 -54l80 -9l-4 -25l-215 -6v29c45 5 62 29 62 65v308h-63v30l63 22v2c0 149 84 250 229 250c44 0 97 -13 118 -40c36 41 88 65 154 65c28 0 60 -4 85 -14c54 14 77 25 77 25l3 -3s-10 -37 -10 -114
v-531c0 -30 -5 -54 -5 -54l85 -9l-4 -25l-220 -6v29c45 5 62 29 62 65v508c0 13 0 24 -1 33c-37 8 -63 50 -119 50c-57 0 -85 -48 -85 -177v-55h126l-8 -48h-108l-10 -10v-301c0 -30 -5 -54 -5 -54l80 -9l-4 -25zM181 480v-32h205v30c0 46 8 88 22 124c-40 6 -68 55 -127 55
c-66 0 -100 -48 -100 -177z" />
    <glyph glyph-name="f_b" unicode="fb" horiz-adv-x="829" 
d="M37 -3v29c45 5 62 29 62 65v308h-63v30l63 22v27c0 149 78 250 214 250c28 0 60 -4 85 -14c54 14 77 25 77 25l3 -3s-10 -37 -10 -114v-160c0 -46 -4 -74 -4 -74c27 33 67 74 142 74c122 0 185 -108 185 -218c0 -126 -83 -256 -258 -256c-54 0 -118 12 -153 12l-3 3
c2 10 9 44 9 100v496c0 13 0 24 -1 33c-37 8 -63 50 -119 50c-57 0 -85 -48 -85 -177v-55h126l-8 -48h-108l-10 -10v-301c0 -30 -5 -54 -5 -54l105 -9l-4 -25zM468 40c0 0 31 -14 73 -14c97 0 163 75 163 189c0 96 -46 189 -136 189c-44 0 -85 -23 -100 -37v-327z" />
    <glyph glyph-name="f_h" unicode="fh" horiz-adv-x="858" 
d="M324 -3v29c45 5 62 29 62 65v508c0 13 0 24 -1 33c-37 8 -63 50 -119 50c-57 0 -85 -48 -85 -177v-55h126l-8 -48h-108l-10 -10v-301c0 -30 -5 -54 -5 -54l80 -9l-4 -25l-215 -6v29c45 5 62 29 62 65v308h-63v30l63 22v27c0 149 78 250 214 250c28 0 60 -4 85 -14
c54 14 77 25 77 25l3 -3s-10 -37 -10 -114v-194c0 -46 -4 -66 -4 -74c36 52 106 108 190 108c69 0 114 -38 114 -135v-236c0 -30 -5 -54 -5 -54l85 -9l-4 -25l-220 -6v29c45 5 62 29 62 65v214c0 76 -29 96 -69 96c-46 0 -107 -28 -149 -68v-242c0 -30 -5 -54 -5 -54l85 -9
l-4 -25z" />
    <glyph glyph-name="f_k" unicode="fk" horiz-adv-x="813" 
d="M324 -3v29c45 5 62 29 62 65v508c0 13 0 24 -1 33c-37 8 -63 50 -119 50c-57 0 -85 -48 -85 -177v-55h126l-8 -48h-108l-10 -10v-301c0 -30 -5 -54 -5 -54l80 -9l-4 -25l-215 -6v29c45 5 62 29 62 65v308h-63v30l63 22v27c0 149 78 250 214 250c28 0 60 -4 85 -14
c54 14 77 25 77 25l3 -3s-10 -37 -10 -114v-355h12l101 85c16 14 38 30 38 48c0 12 -11 19 -33 25v25h183l5 -16s-58 -15 -105 -55l-116 -99v-10s9 -13 16 -20l148 -160c44 -48 53 -56 90 -59l11 -1l-4 -30l-144 -3s-12 37 -41 69l-149 168h-12v-143c0 -30 -5 -54 -5 -54
l80 -9l-4 -25z" />
    <glyph glyph-name="f_f_b" unicode="ffb" horiz-adv-x="1115" 
d="M324 -3v29c45 5 62 29 62 65v311h-195l-10 -10v-301c0 -30 -5 -54 -5 -54l80 -9l-4 -25l-215 -6v29c45 5 62 29 62 65v308h-63v30l63 22v2c0 149 84 250 229 250c44 0 97 -13 118 -40c36 41 88 65 154 65c28 0 60 -4 85 -14c54 14 77 25 77 25l3 -3s-10 -37 -10 -114
v-160c0 -46 -4 -74 -4 -74c27 33 67 74 142 74c122 0 185 -108 185 -218c0 -126 -83 -256 -258 -256c-54 0 -118 12 -153 12l-3 3c2 10 9 44 9 100v496c0 13 0 24 -1 33c-37 8 -63 50 -119 50c-57 0 -85 -48 -85 -177v-55h126l-8 -48h-108l-10 -10v-301c0 -30 -5 -54 -5 -54
l105 -9l-4 -25zM755 40c0 0 31 -14 73 -14c97 0 163 75 163 189c0 96 -46 189 -136 189c-44 0 -85 -23 -100 -37v-327zM181 480v-32h205v30c0 46 8 88 22 124c-40 6 -68 55 -127 55c-66 0 -100 -48 -100 -177z" />
    <glyph glyph-name="f_f_h" unicode="ffh" horiz-adv-x="1145" 
d="M324 -3v29c45 5 62 29 62 65v311h-195l-10 -10v-301c0 -30 -5 -54 -5 -54l80 -9l-4 -25l-215 -6v29c45 5 62 29 62 65v308h-63v30l63 22v2c0 149 84 250 229 250c44 0 97 -13 118 -40c36 41 88 65 154 65c28 0 60 -4 85 -14c54 14 77 25 77 25l3 -3s-10 -37 -10 -114
v-194c0 -46 -4 -66 -4 -74c36 52 106 108 190 108c69 0 114 -38 114 -135v-236c0 -30 -5 -54 -5 -54l85 -9l-4 -25l-220 -6v29c45 5 62 29 62 65v214c0 76 -29 96 -69 96c-46 0 -107 -28 -149 -68v-242c0 -30 -5 -54 -5 -54l85 -9l-4 -25l-220 -6v29c45 5 62 29 62 65v508
c0 13 0 24 -1 33c-37 8 -63 50 -119 50c-57 0 -85 -48 -85 -177v-55h126l-8 -48h-108l-10 -10v-301c0 -30 -5 -54 -5 -54l80 -9l-4 -25zM181 480v-32h205v30c0 46 8 88 22 124c-40 6 -68 55 -127 55c-66 0 -100 -48 -100 -177z" />
    <glyph glyph-name="f_f_k" unicode="ffk" horiz-adv-x="1100" 
d="M324 -3v29c45 5 62 29 62 65v311h-195l-10 -10v-301c0 -30 -5 -54 -5 -54l80 -9l-4 -25l-215 -6v29c45 5 62 29 62 65v308h-63v30l63 22v2c0 149 84 250 229 250c44 0 97 -13 118 -40c36 41 88 65 154 65c28 0 60 -4 85 -14c54 14 77 25 77 25l3 -3s-10 -37 -10 -114
v-355h12l101 85c16 14 38 30 38 48c0 12 -11 19 -33 25v25h183l5 -16s-58 -15 -105 -55l-116 -99v-10s9 -13 16 -20l148 -160c44 -48 53 -56 90 -59l11 -1l-4 -30l-144 -3s-12 37 -41 69l-149 168h-12v-143c0 -30 -5 -54 -5 -54l80 -9l-4 -25l-215 -6v29c45 5 62 29 62 65
v508c0 13 0 24 -1 33c-37 8 -63 50 -119 50c-57 0 -85 -48 -85 -177v-55h126l-8 -48h-108l-10 -10v-301c0 -30 -5 -54 -5 -54l80 -9l-4 -25zM181 480v-32h205v30c0 46 8 88 22 124c-40 6 -68 55 -127 55c-66 0 -100 -48 -100 -177z" />
    <glyph glyph-name="f_f_j" unicode="ffj" horiz-adv-x="828" 
d="M324 -3v29c45 5 62 29 62 65v311h-195l-10 -10v-301c0 -30 -5 -54 -5 -54l80 -9l-4 -25l-215 -6v29c45 5 62 29 62 65v308h-63v30l63 22v2c0 149 84 250 229 250c44 0 98 -13 118 -40c38 41 91 65 159 65c52 0 117 -17 117 -59c0 -19 -15 -38 -42 -38
c-40 0 -64 51 -122 51c-60 0 -90 -48 -90 -177v-57h149c49 0 103 5 148 28l1 -3s-11 -29 -11 -110v-335c0 -167 -64 -265 -176 -265l-12 24c54 8 106 87 106 189v358c0 41 -1 68 -26 68h-169l-10 -10v-301c0 -30 -5 -54 -5 -54l105 -9l-4 -25zM181 480v-32h205v30
c0 46 8 88 23 124c-41 6 -68 55 -128 55c-66 0 -100 -48 -100 -177z" />
    <glyph glyph-name=".notdef" horiz-adv-x="690" 
d="M120 147l40 -41l185 186l185 -186l40 41l-185 185l185 186l-39 41l-186 -187l-186 187l-39 -41l185 -186zM45 -53v773h600v-773h-600z" />
    <glyph glyph-name="space" unicode=" " horiz-adv-x="225" 
 />
    <glyph glyph-name="exclam" unicode="!" horiz-adv-x="276" 
d="M124 176l-44 480c89 24 116 36 116 36l3 -3s-11 -32 -17 -108l-33 -405h-25zM75 48c0 33 27 60 60 60s60 -27 60 -60s-27 -60 -60 -60s-60 27 -60 60z" />
    <glyph glyph-name="dollar" unicode="$" horiz-adv-x="440" 
d="M36 85c0 15 6 28 21 80h31c0 -93 48 -127 102 -135l8 209c-74 37 -154 76 -154 169c0 75 56 140 167 150l4 88h40l-4 -86c56 -1 115 -12 142 -17l-28 -140h-31c6 61 -20 113 -84 120l-8 -202c77 -38 163 -77 163 -175c0 -94 -79 -145 -177 -152l-3 -83h-40l3 83
c-73 3 -152 31 -152 91zM326 113c0 50 -39 80 -88 106l-8 -190c51 5 96 31 96 84zM122 440c0 -47 35 -75 80 -100l8 182c-50 -6 -88 -33 -88 -82z" />
    <glyph glyph-name="ampersand" unicode="&#x26;" horiz-adv-x="658" 
d="M37 154c0 89 75 140 152 191c-38 68 -61 134 -61 183c0 73 46 151 163 151c95 0 143 -58 143 -121c0 -87 -74 -145 -150 -199c46 -76 109 -155 172 -221c52 64 84 148 84 223c0 40 -22 59 -65 64v25h143l5 -15c-16 -30 -21 -54 -35 -98c-22 -70 -53 -157 -106 -226
c63 -65 122 -114 159 -132l-14 -21c-63 10 -131 46 -196 98c-49 -41 -111 -68 -192 -68c-95 0 -202 51 -202 166zM266 36c49 0 94 18 133 47c-74 66 -143 150 -192 231c-49 -36 -84 -75 -84 -127c0 -100 64 -151 143 -151zM213 552c0 -47 21 -103 53 -162
c47 39 82 85 82 148c0 44 -15 105 -72 105c-39 0 -63 -39 -63 -91z" />
    <glyph glyph-name="parenleft" unicode="(" horiz-adv-x="282" 
d="M45 270c0 263 159 416 159 416l34 -12s-118 -165 -118 -404c0 -262 141 -430 141 -430l-32 -15s-184 165 -184 445z" />
    <glyph glyph-name="parenright" unicode=")" horiz-adv-x="282" 
d="M21 -160c0 0 141 168 141 430c0 239 -118 404 -118 404l34 12s159 -153 159 -416c0 -280 -184 -445 -184 -445z" />
    <glyph glyph-name="asterisk" unicode="*" horiz-adv-x="493" 
d="M206 660c-5 19 24 28 40 28s45 -9 40 -28l-30 -117c-3 -13 -10 -21 -10 -21s-7 8 -10 21zM246 280c-16 0 -45 9 -40 28l30 117c3 13 10 21 10 21s7 -8 10 -21l30 -117c5 -19 -24 -28 -40 -28zM74 537c-19 5 -13 35 -5 49s31 35 45 21l86 -85c10 -9 13 -19 13 -19
s-10 -2 -23 2zM378 361l-86 85c-10 9 -13 19 -13 19s10 2 23 -2l116 -32c19 -5 13 -35 5 -49s-31 -35 -45 -21zM114 362c-15 -14 -37 6 -45 20s-14 44 4 49l117 32c13 4 23 2 23 2s-3 -10 -13 -19zM279 503c0 0 3 10 13 19l86 84c15 14 37 -6 45 -20s14 -44 -4 -49l-117 -32
c-13 -4 -23 -2 -23 -2z" />
    <glyph glyph-name="plus" unicode="+" horiz-adv-x="520" 
d="M36 223v55h196v210h59v-210h193v-55h-193v-223h-59v223h-196z" />
    <glyph glyph-name="comma" unicode="," horiz-adv-x="231" 
d="M55 43v35l77 41c30 -31 45 -70 45 -112c0 -84 -45 -132 -101 -178l-25 26c35 30 69 63 69 106c0 31 -21 57 -65 82z" />
    <glyph glyph-name="hyphen" unicode="-" horiz-adv-x="360" 
d="M62 217v66h236v-66h-236z" />
    <glyph glyph-name="period" unicode="." horiz-adv-x="234" 
d="M57 48c0 33 27 60 60 60s60 -27 60 -60s-27 -60 -60 -60s-60 27 -60 60z" />
    <glyph glyph-name="zero" unicode="0" horiz-adv-x="565" 
d="M282 35c89 0 140 101 140 204c0 97 -52 196 -139 196c-89 0 -140 -100 -140 -198c0 -102 52 -202 139 -202zM58 228c0 127 77 254 232 254c144 0 217 -115 217 -234c0 -127 -77 -260 -232 -260c-144 0 -217 121 -217 240z" />
    <glyph glyph-name="one" unicode="1" horiz-adv-x="369" 
d="M58 -5v34c64 0 84 18 84 64v284c0 46 -18 59 -89 59v34h262l-4 -32l-89 -11v-334c0 -30 -5 -53 -5 -53l103 -10l-4 -30z" />
    <glyph glyph-name="two" unicode="2" horiz-adv-x="469" 
d="M59 0l-8 31c76 68 220 186 220 300c0 63 -41 87 -87 87c-39 0 -83 -18 -115 -42l-19 22s62 84 171 84c68 0 141 -40 141 -125c0 -84 -89 -184 -210 -286h145c69 0 86 42 101 85h29l-31 -156h-337z" />
    <glyph glyph-name="three" unicode="3" horiz-adv-x="402" 
d="M28 -158c98 0 232 41 232 182c0 92 -80 116 -148 116c-17 0 -29 -2 -29 -2v47c72 7 156 69 156 152c0 49 -28 88 -83 88c-59 0 -114 -49 -114 -49l-19 22s62 84 164 84c81 0 143 -47 143 -124c0 -79 -89 -148 -152 -174c108 -11 174 -68 174 -145
c0 -166 -172 -233 -297 -233c-7 0 -21 1 -21 1z" />
    <glyph glyph-name="four" unicode="4" horiz-adv-x="511" 
d="M29 34l-7 30l301 404l53 16l2 -3s-8 -38 -8 -109v-279h110l-12 -59h-98v-165c0 -39 -5 -55 -5 -55l-77 -8l-4 3s5 19 5 55v170h-260zM94 93h195v202c0 20 2 46 4 65z" />
    <glyph glyph-name="five" unicode="5" horiz-adv-x="410" 
d="M42 -158c137 0 238 75 238 175c0 152 -233 169 -233 169l15 284h211c39 0 70 6 70 6l-14 -77h-230l-8 -142s275 -32 275 -225c0 -127 -139 -226 -289 -226c-16 0 -29 1 -29 1z" />
    <glyph glyph-name="six" unicode="6" horiz-adv-x="514" 
d="M267 -12c-142 0 -212 136 -212 291c0 194 115 400 357 400l6 -35c-195 -12 -272 -192 -272 -354c0 -139 52 -268 135 -268c70 0 107 86 107 166c0 101 -48 225 -168 180l-7 32c29 17 60 25 93 25c116 0 169 -98 169 -206c0 -111 -71 -231 -208 -231z" />
    <glyph glyph-name="seven" unicode="7" horiz-adv-x="474" 
d="M133 -92c28 43 77 118 171 325l73 161c-19 -2 -45 -4 -65 -4h-152c-67 0 -80 1 -103 -64h-29l29 144h330c39 0 64 4 64 4l5 -27s-34 -46 -49 -81l-211 -475c-25 -56 -32 -85 -62 -85c-26 0 -35 17 -35 33c0 20 9 30 34 69z" />
    <glyph glyph-name="eight" unicode="8" horiz-adv-x="506" 
d="M54 155c0 96 68 150 139 195c-61 51 -115 106 -115 177c0 86 76 152 187 152c100 0 166 -56 166 -139c0 -87 -70 -131 -132 -170c75 -60 154 -122 154 -207c0 -92 -89 -175 -207 -175c-91 0 -192 49 -192 167zM135 167c0 -92 54 -144 116 -144c55 0 120 41 120 113
c0 77 -76 133 -151 193c-50 -38 -85 -87 -85 -162zM160 549c0 -60 52 -108 112 -157c46 34 78 80 78 141c0 73 -44 111 -92 111c-46 0 -98 -35 -98 -95z" />
    <glyph glyph-name="nine" unicode="9" horiz-adv-x="527" 
d="M113 -159c195 12 272 184 272 344c0 136 -52 263 -135 263c-65 0 -102 -86 -102 -166c0 -93 46 -222 163 -175l7 -32c-29 -17 -60 -25 -93 -25c-111 0 -164 96 -164 201c0 111 71 231 203 231c142 0 212 -134 212 -286c0 -192 -115 -390 -357 -390z" />
    <glyph glyph-name="colon" unicode=":" horiz-adv-x="274" 
d="M77 390c0 33 27 60 60 60s60 -27 60 -60s-27 -60 -60 -60s-60 27 -60 60zM77 48c0 33 27 60 60 60s60 -27 60 -60s-27 -60 -60 -60s-60 27 -60 60z" />
    <glyph glyph-name="semicolon" unicode=";" horiz-adv-x="271" 
d="M77 43v35l77 41c30 -31 45 -70 45 -112c0 -84 -45 -132 -101 -178l-25 26c35 30 69 63 69 106c0 31 -21 57 -65 82zM75 390c0 33 27 60 60 60s60 -27 60 -60s-27 -60 -60 -60s-60 27 -60 60z" />
    <glyph glyph-name="equal" unicode="=" horiz-adv-x="520" 
d="M36 318v55h448v-55h-448zM36 128v55h448v-55h-448z" />
    <glyph glyph-name="question" unicode="?" horiz-adv-x="351" 
d="M121 176c-4 18 -5 34 -5 50c0 135 123 192 123 250c0 68 -191 137 -191 137l16 88s267 -93 267 -203c0 -84 -185 -147 -185 -322h-25zM77 48c0 33 27 60 60 60s60 -27 60 -60s-27 -60 -60 -60s-60 27 -60 60z" />
    <glyph glyph-name="at" unicode="@" horiz-adv-x="818" 
d="M290 189c0 -102 40 -137 79 -137c37 0 71 27 98 53v309s-177 -10 -177 -225zM35 184c0 219 181 411 404 411c190 0 335 -138 335 -325c0 -114 -54 -247 -204 -268l-105 -15l-2 4s8 29 8 54v39c-31 -58 -80 -96 -135 -96c-69 0 -133 61 -133 177c0 162 123 289 270 289
c22 0 66 -3 89 -9c0 0 -13 -48 -13 -88v-268c0 -33 11 -47 36 -47c40 0 120 37 120 195c0 177 -99 312 -280 312c-193 0 -319 -155 -319 -351s126 -316 262 -324l-10 -40c-185 8 -323 160 -323 350z" />
    <glyph glyph-name="A" unicode="A" horiz-adv-x="623" 
d="M-13 0v29c42 4 59 25 67 45l237 590l41 9l222 -568c27 -68 45 -73 76 -78l-4 -27h-43c-37 0 -152 -3 -152 -3v34c28 1 53 9 42 39l-61 160h-239l-13 -10l-69 -180l85 -12l-4 -28h-185zM310 500c-8 20 -16 46 -20 61l-111 -289h217z" />
    <glyph glyph-name="B" unicode="B" horiz-adv-x="603" 
d="M54 -3v32c45 5 72 26 72 62v478c0 48 -5 58 -82 73v25h234c168 0 233 -67 233 -146c0 -75 -58 -130 -119 -164c47 -10 168 -46 168 -168c0 -106 -91 -189 -271 -189h-90c-50 0 -145 -3 -145 -3zM209 39h64c153 0 186 67 186 135c0 155 -168 150 -208 150h-27l-10 -10
v-220c0 -30 -5 -55 -5 -55zM214 363h103c50 3 96 75 96 139c0 59 -39 126 -142 126h-47l-10 -10v-255z" />
    <glyph glyph-name="C" unicode="C" horiz-adv-x="679" 
d="M45 326c0 204 151 353 366 353c75 0 164 -18 216 -23l-30 -152h-34c0 104 -88 137 -169 137c-154 0 -256 -124 -256 -286c0 -180 126 -301 289 -301c125 0 201 71 201 71l14 -21s-75 -116 -249 -116c-178 0 -348 122 -348 338z" />
    <glyph glyph-name="D" unicode="D" horiz-adv-x="746" 
d="M54 -3v32c45 5 72 26 72 62v478c0 48 -5 58 -82 73v25h274c194 0 381 -73 381 -309c0 -226 -169 -358 -419 -358h-81c-50 0 -145 -3 -145 -3zM209 39h71c234 0 320 130 320 296c0 177 -99 293 -286 293h-90l-10 -10v-523c0 -30 -5 -56 -5 -56z" />
    <glyph glyph-name="E" unicode="E" horiz-adv-x="585" 
d="M54 -3v32c45 5 72 26 72 62v478c0 48 -5 58 -82 73v25h412c41 0 72 4 72 4l-31 -167h-34c5 103 -28 124 -108 124h-131l-10 -10v-260h185l8 57l37 6v-176h-47v74h-173l-10 -10v-214c0 -30 -5 -56 -5 -56h157c86 0 98 19 148 124h34l-37 -163h-312c-50 0 -145 -3 -145 -3z
" />
    <glyph glyph-name="F" unicode="F" horiz-adv-x="531" 
d="M54 -3v32c45 5 72 29 72 65v475c0 48 -5 58 -82 73v25h402c41 0 72 4 72 4l-31 -167h-34c5 103 -28 124 -108 124h-121l-10 -10v-265h178l8 57l37 6v-176h-47v74h-166l-10 -10v-210c0 -30 -5 -54 -5 -54l110 -9l-4 -28z" />
    <glyph glyph-name="G" unicode="G" horiz-adv-x="712" 
d="M46 320c0 179 115 359 371 359c85 0 191 -19 224 -22l-30 -153h-34c-1 110 -88 137 -167 137c-175 0 -266 -140 -266 -298c0 -181 123 -312 307 -312c32 0 64 4 100 12v145c0 48 -4 60 -92 73v25h213l5 -14s-39 -18 -39 -95v-163c-65 -10 -154 -26 -227 -26
c-200 0 -365 117 -365 332z" />
    <glyph glyph-name="H" unicode="H" horiz-adv-x="801" 
d="M53 -3v32c45 5 72 29 72 65v475c0 48 0 58 -74 73v25h78c90 0 112 4 112 4l5 -4s-33 -38 -33 -121v-186h372l10 10v199c0 48 0 58 -74 73v25h78c90 0 112 3 112 3l5 -4s-33 -37 -33 -120v-452c0 -30 -5 -54 -5 -54l90 -9l-4 -28l-241 -6v32c44 5 72 28 72 62v227h-372
l-10 -10v-214c0 -30 -5 -54 -5 -54l90 -9l-4 -28z" />
    <glyph glyph-name="I" unicode="I" horiz-adv-x="331" 
d="M53 -3v32c44 5 72 28 72 62v478c0 48 0 58 -74 73v25h78c90 0 112 4 112 4l5 -4s-33 -38 -33 -121v-455c0 -29 -5 -51 -5 -51l95 -9l-4 -28z" />
    <glyph glyph-name="J" unicode="J" horiz-adv-x="307" 
d="M116 50v519c0 48 0 58 -74 73v25h78c90 0 112 4 112 4l5 -4s-33 -38 -33 -121v-444c0 -167 -70 -265 -182 -265l-12 24c54 8 106 87 106 189z" />
    <glyph glyph-name="K" unicode="K" horiz-adv-x="643" 
d="M53 -3v32c44 5 72 28 72 62v478c0 48 0 58 -74 73v25h78c90 0 112 4 112 4l5 -4s-33 -38 -33 -121v-176h19s18 11 34 27l195 194c19 19 20 45 -28 51v25h187l5 -14s-54 -12 -129 -87l-189 -188v-10l242 -278c45 -52 53 -54 85 -57l11 -1l-4 -32h-147l-3 3s-10 30 -75 106
l-187 217h-16v-235c0 -29 -5 -51 -5 -51l90 -9l-4 -28z" />
    <glyph glyph-name="L" unicode="L" horiz-adv-x="564" 
d="M56 -3v32c45 5 67 26 67 62v478c0 48 0 58 -74 73v25h78c90 0 112 4 112 4l5 -4s-33 -38 -33 -121v-452c0 -30 -5 -55 -5 -55h167c86 0 102 31 152 144h34l-41 -183h-322c-50 0 -140 -3 -140 -3z" />
    <glyph glyph-name="M" unicode="M" horiz-adv-x="900" 
d="M44 -3v32c45 5 70 25 72 62l19 478c2 48 -4 58 -81 73v25h80c80 0 110 4 110 4l4 -4s13 -52 29 -92l153 -392c7 -17 14 -39 19 -57l194 472c8 21 22 69 22 69h26c88 0 108 4 108 4l5 -4s-35 -41 -32 -126l19 -453c1 -31 -3 -51 -3 -51l88 -6l-4 -28l-239 -6v32
c44 5 73 25 72 59l-22 493l-240 -581l-31 12l-231 568s-2 -20 -3 -39l-18 -450c-1 -28 -7 -54 -7 -54l92 -6l-4 -28z" />
    <glyph glyph-name="N" unicode="N" horiz-adv-x="766" 
d="M55 -3v32c45 5 72 26 72 62v450c0 69 -16 89 -82 101v25h30c49 0 100 4 100 4s12 -23 37 -52l362 -418c13 -16 29 -37 40 -53v416c0 44 -1 67 -82 75v28h190l5 -14s-69 -19 -69 -102v-556h-26l-425 502c-12 14 -26 33 -36 48v-454c0 -30 -5 -54 -5 -54l90 -6l-4 -28z" />
    <glyph glyph-name="O" unicode="O" horiz-adv-x="795" 
d="M144 351c0 -149 94 -323 259 -323c157 0 248 158 248 304c0 150 -94 307 -260 307c-156 0 -247 -141 -247 -288zM45 325c0 180 129 354 363 354c209 0 342 -141 342 -322c0 -191 -146 -369 -367 -369c-205 0 -338 155 -338 337z" />
    <glyph glyph-name="P" unicode="P" horiz-adv-x="562" 
d="M54 -3v32c44 5 72 28 72 62v478c0 48 -5 58 -82 73v25h248c115 0 245 -37 245 -184c0 -161 -151 -214 -259 -203v28c116 3 161 75 161 154c0 120 -94 166 -200 166h-15l-10 -10v-527c0 -29 -5 -51 -5 -51l95 -9l-4 -28z" />
    <glyph glyph-name="Q" unicode="Q" horiz-adv-x="795" 
d="M308 -4c-162 32 -263 170 -263 329c0 180 129 354 363 354c209 0 342 -141 342 -322c0 -157 -99 -306 -260 -354c67 -55 133 -180 255 -180c10 0 24 1 38 4v-26s-51 -29 -108 -29c-115 0 -192 112 -231 157c-57 67 -73 55 -136 67zM144 351c0 -149 94 -323 259 -323
c157 0 248 158 248 304c0 150 -94 307 -260 307c-156 0 -247 -141 -247 -288z" />
    <glyph glyph-name="R" unicode="R" horiz-adv-x="628" 
d="M54 -3v32c44 5 72 28 72 62v478c0 48 -5 58 -82 73v25h232c180 0 248 -74 248 -161c0 -94 -84 -158 -132 -183v-13l144 -211c43 -62 63 -64 89 -66l11 -1l-4 -32h-145l-4 3s-21 50 -62 110l-124 183h-73l-10 -10v-195c0 -29 -5 -51 -5 -51l90 -9l-4 -28zM214 335h84
c60 0 129 48 129 145c0 76 -43 148 -166 148h-37l-10 -10v-283z" />
    <glyph glyph-name="S" unicode="S" horiz-adv-x="506" 
d="M44 91c0 15 4 29 23 89h34c0 -122 77 -154 145 -154c65 0 127 28 127 105c0 174 -313 171 -313 374c0 99 75 174 223 174c71 0 143 -16 165 -19l-31 -156h-34c10 75 -28 137 -112 137c-67 0 -124 -31 -124 -104c0 -175 313 -158 313 -373c0 -120 -103 -176 -223 -176
c-87 0 -193 30 -193 103z" />
    <glyph glyph-name="T" unicode="T" horiz-adv-x="645" 
d="M204 -3v32c45 5 72 29 72 65v534h-99c-69 0 -99 -21 -137 -124h-34l31 169s26 -6 67 -6h468c41 0 72 6 72 6l-31 -169h-34c5 103 -28 124 -106 124h-99l-10 -10v-524c0 -30 -5 -54 -5 -54l100 -9l-4 -28z" />
    <glyph glyph-name="U" unicode="U" horiz-adv-x="735" 
d="M99 235v334c0 48 0 58 -74 73v25h78c90 0 112 4 112 4l5 -4s-33 -38 -33 -121v-303c0 -146 99 -210 199 -210s205 68 205 203v328c0 44 -1 67 -81 75v28h194l5 -14s-69 -19 -69 -102v-312c0 -163 -126 -251 -276 -251c-132 0 -265 64 -265 247z" />
    <glyph glyph-name="V" unicode="V" horiz-adv-x="614" 
d="M285 3l-230 584c-17 43 -59 55 -59 55v25h61c63 0 103 4 103 4l4 -4c-11 -24 -17 -63 -6 -92l147 -395c6 -18 14 -43 19 -62l180 437c19 46 5 72 -48 87v25h153l4 -14s-29 -20 -65 -107l-230 -555z" />
    <glyph glyph-name="W" unicode="W" horiz-adv-x="961" 
d="M660 3l-184 475l-154 -487l-39 12l-230 584c-17 43 -59 55 -59 55v25h61c63 0 103 4 103 4l4 -4c-11 -24 -17 -63 -6 -92l144 -386c7 -19 14 -45 19 -64l132 416l-17 46c-17 43 -59 55 -59 55v25h61c63 0 103 4 103 4l4 -4c-11 -24 -17 -63 -6 -92l141 -388
c6 -18 13 -42 18 -61l136 429c15 47 4 72 -48 87v25h152l4 -14s-35 -18 -65 -107l-176 -555z" />
    <glyph glyph-name="X" unicode="X" horiz-adv-x="623" 
d="M9 0v29c44 4 69 23 82 41l180 257l-183 271c-25 37 -67 44 -67 44v25h62c64 0 99 4 99 4l4 -4s-15 -39 7 -72l136 -204l131 191c18 26 11 52 -39 60v25h170l5 -16s-36 -8 -74 -59l-168 -240l215 -316l51 -8l-4 -28h-45c-45 0 -159 -4 -159 -4v32c41 5 48 14 31 40
l-146 219l-171 -244l92 -12l-4 -31h-205z" />
    <glyph glyph-name="Y" unicode="Y" horiz-adv-x="585" 
d="M177 -3v32c44 5 72 28 72 62v204l-192 303c-24 38 -53 44 -53 44v25h48c63 0 102 4 102 4l4 -4s-19 -38 2 -72l124 -200c10 -16 21 -39 29 -56l149 241c16 26 11 54 -40 62v25h163l4 -14s-39 -13 -69 -61l-183 -295v-206c0 -29 -5 -51 -5 -51l90 -9l-4 -28z" />
    <glyph glyph-name="Z" unicode="Z" horiz-adv-x="610" 
d="M34 -4l-6 36s21 22 55 71l334 476c11 15 26 34 39 49h-220c-82 0 -109 -21 -147 -124h-34l25 163h410c39 0 64 4 64 4l4 -36s-14 -20 -50 -71l-331 -476c-11 -16 -27 -35 -40 -49h252c86 0 102 31 152 144h34l-41 -183h-436c-39 0 -64 -4 -64 -4z" />
    <glyph glyph-name="bracketleft" unicode="[" horiz-adv-x="288" 
d="M85 -155v822h183v-45h-118v-732h118v-45h-183z" />
    <glyph glyph-name="bracketright" unicode="]" horiz-adv-x="288" 
d="M20 -110h118v732h-118v45h183v-822h-183v45z" />
    <glyph glyph-name="grave" unicode="`" 
d="M169 675v27l87 -9l85 -171l-31 -17z" />
    <glyph glyph-name="a" unicode="a" horiz-adv-x="460" 
d="M28 89c0 96 119 146 223 162l34 5c1 21 1 79 -4 107c-7 37 -26 64 -63 64c-68 0 -106 -96 -106 -96h-32l-17 75s73 56 185 56c94 0 119 -38 119 -143v-230c0 -32 4 -47 27 -47c27 0 55 20 55 20l13 -21s-47 -53 -106 -53c-38 0 -68 22 -68 71v24s-53 -95 -156 -95
c-66 0 -104 47 -104 101zM172 45c39 0 87 38 113 60v118l-31 -5c-57 -9 -138 -39 -138 -111c0 -40 26 -62 56 -62z" />
    <glyph glyph-name="b" unicode="b" horiz-adv-x="519" 
d="M158 40c0 0 31 -14 73 -14c97 0 163 75 163 189c0 96 -46 189 -136 189c-44 0 -85 -23 -100 -37v-327zM67 3c0 0 9 44 9 100v496c0 43 -1 68 -30 68h-42v27c115 25 161 45 161 45l3 -3s-10 -37 -10 -114v-160c0 -46 -4 -66 -4 -74c27 33 67 74 142 74
c122 0 185 -108 185 -218c0 -126 -83 -256 -258 -256c-54 0 -118 12 -153 12z" />
    <glyph glyph-name="c" unicode="c" horiz-adv-x="441" 
d="M38 216c0 121 76 246 214 246c61 0 158 -24 158 -76c0 -19 -14 -36 -38 -36c-51 0 -57 78 -127 78c-80 0 -125 -86 -125 -183c0 -96 47 -190 165 -190c75 0 116 41 116 41l11 -21s-46 -87 -162 -87c-140 0 -212 113 -212 228z" />
    <glyph glyph-name="d" unicode="d" horiz-adv-x="539" 
d="M37 205c0 126 85 257 256 257c36 0 71 -6 71 -6v143c0 43 -1 68 -30 68h-42v27c115 25 161 45 161 45l3 -3s-10 -37 -10 -114v-527c0 -57 23 -57 56 -57h28l-3 -27c-109 -11 -160 -19 -160 -19l-3 3s4 28 4 53v21c-27 -40 -68 -81 -143 -81c-123 0 -188 108 -188 217z
M260 46c49 0 88 28 104 44v281c0 46 -40 53 -72 53c-102 0 -168 -73 -168 -189c0 -96 46 -189 136 -189z" />
    <glyph glyph-name="e" unicode="e" horiz-adv-x="460" 
d="M38 216c0 136 90 246 211 246c86 0 171 -56 174 -166c0 0 -26 -10 -46 -13l-249 -36l-10 -12c4 -91 50 -180 162 -180c82 0 130 48 130 48l11 -21s-52 -94 -171 -94c-142 0 -212 111 -212 228zM234 424c-67 0 -105 -66 -114 -141l210 27s-8 114 -96 114z" />
    <glyph glyph-name="f" unicode="f" horiz-adv-x="327" 
d="M37 -3v29c45 5 62 29 62 65v308h-63v30l63 22v27c0 149 74 250 204 250c48 0 107 -17 107 -59c0 -19 -15 -38 -42 -38c-36 0 -58 51 -112 51c-51 0 -75 -48 -75 -177v-55h141l-8 -48h-123l-10 -10v-301c0 -30 -5 -54 -5 -54l105 -9l-4 -25z" />
    <glyph glyph-name="g" unicode="g" horiz-adv-x="483" 
d="M67 73c0 42 58 62 94 81c-67 19 -120 67 -120 147c0 104 88 161 187 161c58 0 82 -20 132 -20h48c32 0 66 13 66 13l-9 -65h-53c-22 0 -35 3 -35 3s41 -35 41 -98c0 -94 -90 -150 -190 -150c-17 0 -33 1 -49 4c-7 -8 -25 -28 -25 -42c0 -27 60 -34 138 -50
c84 -17 174 -45 174 -126c0 -98 -131 -168 -254 -168c-90 0 -188 37 -188 121c0 77 80 107 126 125c-47 12 -83 30 -83 64zM258 -13c-28 6 -57 11 -84 17c-24 -16 -71 -53 -71 -108c0 -62 60 -95 126 -95c73 0 154 40 154 101c0 51 -59 71 -125 85zM231 180
c72 0 100 56 100 115c0 64 -33 132 -105 132c-70 0 -98 -61 -98 -124c0 -62 29 -123 103 -123z" />
    <glyph glyph-name="h" unicode="h" horiz-adv-x="562" 
d="M28 -3v29c45 5 62 29 62 65v508c0 43 -1 68 -30 68h-42v27c115 25 161 45 161 45l3 -3s-10 -37 -10 -114v-194c0 -46 -4 -66 -4 -74c36 52 106 108 190 108c69 0 114 -38 114 -135v-236c0 -30 -5 -54 -5 -54l85 -9l-4 -25l-215 -6v29c41 5 57 29 57 65v214
c0 76 -29 96 -69 96c-46 0 -107 -28 -149 -68v-242c0 -30 -5 -54 -5 -54l80 -9l-4 -25z" />
    <glyph glyph-name="i" unicode="i" horiz-adv-x="277" 
d="M38 -3v29c45 5 62 29 62 65v243c0 43 -1 68 -30 68h-45v27c146 34 167 47 167 47l1 -3s-11 -33 -11 -114v-268c0 -30 -5 -54 -5 -54l85 -9l-4 -25zM132 564c-29 0 -54 25 -54 54s25 54 54 54s54 -25 54 -54s-25 -54 -54 -54z" />
    <glyph glyph-name="j" unicode="j" horiz-adv-x="251" 
d="M92 -24v358c0 43 -1 68 -30 68h-45v27c145 34 167 47 167 47l1 -3s-11 -29 -11 -110v-335c0 -167 -64 -265 -176 -265l-12 24c54 8 106 87 106 189zM124 564c-29 0 -54 25 -54 54s25 54 54 54s54 -25 54 -54s-25 -54 -54 -54z" />
    <glyph glyph-name="k" unicode="k" horiz-adv-x="517" 
d="M28 -3v29c45 5 62 29 62 65v508c0 43 -1 68 -30 68h-42v27c115 25 161 45 161 45l3 -3s-10 -37 -10 -114v-355h12l101 85c16 14 38 30 38 48c0 12 -11 19 -33 25v25h183l5 -16s-58 -15 -105 -55l-116 -99v-10s9 -13 16 -20l148 -160c44 -48 53 -56 90 -59l11 -1l-4 -30
l-144 -3s-13 36 -41 69l-149 168h-12v-143c0 -30 -5 -54 -5 -54l80 -9l-4 -25z" />
    <glyph glyph-name="l" unicode="l" horiz-adv-x="267" 
d="M28 -3v29c45 5 62 29 62 65v508c0 43 -1 68 -30 68h-42v27c115 25 161 45 161 45l3 -3s-10 -37 -10 -114v-531c0 -30 -5 -54 -5 -54l85 -9l-4 -25z" />
    <glyph glyph-name="m" unicode="m" horiz-adv-x="844" 
d="M37 -3v29c45 5 62 29 62 65v243c0 43 -1 68 -30 68h-43v27c98 20 160 47 160 47l3 -3s-9 -32 -12 -121c36 52 100 110 181 110c64 0 105 -36 105 -115c38 60 104 115 183 115c65 0 107 -35 107 -135v-236c0 -30 -5 -54 -5 -54l85 -9l-4 -25l-215 -6v29c45 5 57 29 57 65
v214c0 76 -21 96 -58 96c-45 0 -147 -41 -147 -99v-211c0 -30 -5 -54 -5 -54l80 -9l-4 -25l-210 -6v29c45 5 57 29 57 65v214c0 76 -21 96 -59 96c-45 0 -101 -27 -144 -70v-240c0 -30 -5 -54 -5 -54l80 -9l-4 -25z" />
    <glyph glyph-name="n" unicode="n" horiz-adv-x="572" 
d="M38 -3v29c45 5 62 29 62 65v243c0 43 -1 68 -30 68h-45v27c98 20 160 47 160 47l3 -3s-9 -33 -10 -122c36 54 106 111 190 111c69 0 114 -38 114 -135v-236c0 -30 -5 -53 -5 -53l85 -10l-4 -25l-215 -6v29c45 5 57 29 57 65v214c0 76 -29 96 -69 96
c-46 0 -107 -27 -149 -70v-240c0 -30 -5 -53 -5 -53l80 -10l-4 -25z" />
    <glyph glyph-name="o" unicode="o" horiz-adv-x="532" 
d="M38 215c0 117 65 247 235 247c146 0 221 -96 221 -219c0 -124 -77 -255 -237 -255c-141 0 -219 99 -219 227zM130 238c0 -100 41 -216 141 -216c85 0 131 86 131 193c0 99 -40 213 -141 213c-92 0 -131 -94 -131 -190z" />
    <glyph glyph-name="p" unicode="p" horiz-adv-x="534" 
d="M38 -245v29c45 25 52 48 52 94v456c0 43 -1 68 -30 68h-40v27c98 20 157 47 157 47l3 -3s-6 -25 -10 -89c27 34 65 78 144 78c122 0 182 -108 182 -218c0 -127 -81 -256 -257 -256c-27 0 -48 3 -67 6v-115c0 -30 -5 -57 -5 -57h105l-4 -24s-158 -19 -230 -43zM244 26
c104 0 165 75 165 189c0 96 -42 189 -131 189c-39 0 -75 -18 -106 -42v-282c0 -47 39 -54 72 -54z" />
    <glyph glyph-name="q" unicode="q" horiz-adv-x="519" 
d="M37 205c0 129 92 257 263 257c50 0 106 -11 151 -12l3 -3s-9 -37 -9 -100v-472c0 -29 -5 -56 -5 -56h75l-4 -24c-126 -16 -210 -42 -210 -42v29c45 25 62 50 62 96v110c0 46 4 66 4 74c-25 -33 -68 -74 -142 -74c-120 0 -188 108 -188 217zM124 233
c0 -95 49 -187 137 -187c44 0 85 23 102 37v327s-32 14 -73 14c-92 0 -166 -75 -166 -191z" />
    <glyph glyph-name="r" unicode="r" horiz-adv-x="375" 
d="M38 -3v29c45 5 62 29 62 65v243c0 43 -1 68 -30 68h-45v27c98 20 162 47 162 47l3 -3s-9 -33 -12 -127c30 56 83 116 135 116c24 0 54 -12 54 -46c0 -30 -21 -49 -47 -49c-23 0 -26 17 -49 17c-34 0 -67 -33 -89 -58v-235c0 -30 -5 -54 -5 -54l95 -9l-4 -25z" />
    <glyph glyph-name="s" unicode="s" horiz-adv-x="386" 
d="M39 56c0 20 13 76 13 76h30c6 -85 65 -110 113 -110c49 0 83 26 83 68c0 107 -229 100 -229 245c0 74 57 127 163 127c60 0 125 -18 125 -18l-20 -103h-31c0 82 -69 87 -90 87c-54 0 -75 -33 -75 -64c0 -106 228 -87 228 -245c0 -83 -65 -131 -160 -131
c-46 0 -150 11 -150 68z" />
    <glyph glyph-name="t" unicode="t" horiz-adv-x="347" 
d="M87 119v215c0 29 3 65 3 65h-66v30s44 9 68 31l37 109l45 -1l3 -3s-9 -29 -9 -100v-15h156l-7 -48h-138l-10 -10v-254c0 -58 17 -90 70 -90c45 0 90 21 90 21l13 -19s-57 -62 -144 -62c-71 0 -111 40 -111 131z" />
    <glyph glyph-name="u" unicode="u" horiz-adv-x="559" 
d="M86 122v212c0 43 -1 68 -30 68h-35v28c97 17 152 37 152 37l4 -3s-9 -28 -9 -105v-214c0 -76 27 -96 68 -96c46 0 102 27 145 71v214c0 43 -1 68 -30 68h-33v28c96 17 150 37 150 37l4 -3s-9 -28 -9 -105v-264c0 -57 23 -57 56 -57h28l-3 -27c-109 -11 -164 -20 -164 -20
l-4 3s9 29 9 54v52c-36 -53 -102 -112 -186 -112c-70 0 -113 38 -113 134z" />
    <glyph glyph-name="v" unicode="v" horiz-adv-x="457" 
d="M200 0l-143 367c-20 51 -55 58 -55 58v25h46c63 0 100 4 100 4l4 -4c-12 -27 -12 -62 -1 -92l76 -211c6 -18 13 -43 18 -62l118 267c19 44 -12 64 -50 73v25h135l5 -16s-15 -6 -36 -52l-175 -395z" />
    <glyph glyph-name="w" unicode="w" horiz-adv-x="730" 
d="M200 0l-143 367c-20 51 -55 58 -55 58v25h46c63 0 98 4 98 4l4 -4s-19 -43 -1 -92l78 -211l16 -54l93 221c5 13 10 30 6 46l-2 7c-19 51 -55 58 -55 58v25h46c63 0 98 4 98 4l4 -4s-19 -43 -1 -92l77 -207c6 -17 12 -39 17 -57l109 259c17 40 -12 63 -50 72v25h134l5 -16
s-17 -8 -36 -53l-168 -394l-37 13l-115 294l-131 -307z" />
    <glyph glyph-name="x" unicode="x" horiz-adv-x="489" 
d="M283 -3v31c44 0 48 12 31 37l-85 123l-119 -151l76 -9l-4 -25l-166 -6v29c39 4 58 27 69 40l123 154l-107 152c-34 49 -75 53 -75 53v25h48c67 0 103 4 103 4l4 -4s-12 -34 14 -72l67 -99l78 99c16 22 7 40 -41 47v25h157l5 -16s-34 -6 -69 -50l-109 -137l152 -216l45 -4
l-4 -24z" />
    <glyph glyph-name="y" unicode="y" horiz-adv-x="461" 
d="M71 -154c53 0 88 34 106 75l32 75c-5 14 -13 37 -24 65l-128 306c-21 50 -56 58 -56 58v25h47c63 0 102 4 102 4l4 -4c-12 -24 -12 -65 -1 -92l81 -203c6 -17 14 -42 19 -60l113 258c17 40 -18 62 -55 72v25h139l5 -16s-18 -10 -36 -53l-173 -393
c-27 -60 -84 -225 -180 -225c-29 0 -44 20 -44 42c0 20 13 41 49 41z" />
    <glyph glyph-name="z" unicode="z" horiz-adv-x="439" 
d="M40 -4l-8 26s11 10 36 48l194 299c9 14 24 33 36 48h-133c-61 0 -88 -57 -96 -85h-29l18 118h263c43 0 68 4 68 4l8 -26s-4 -2 -34 -48l-189 -296c-10 -16 -25 -35 -37 -50h122c97 0 119 100 119 100h29l-27 -134h-272c-43 0 -68 -4 -68 -4z" />
    <glyph glyph-name="braceleft" unicode="{" horiz-adv-x="348" 
d="M134 -66c0 101 7 308 -127 311v35c134 3 127 200 127 301c0 113 87 160 204 160l5 -36c-123 -9 -137 -53 -137 -177c0 -184 -59 -244 -111 -264v-2c52 -20 111 -91 111 -275c0 -124 14 -167 137 -177l-5 -36c-117 0 -204 40 -204 160z" />
    <glyph glyph-name="bar" unicode="|" horiz-adv-x="233" 
d="M84 -225v974h65v-974h-65z" />
    <glyph glyph-name="braceright" unicode="}" horiz-adv-x="348" 
d="M142 -13c0 184 59 255 111 275v2c-52 20 -111 80 -111 264c0 124 -14 168 -137 177l5 36c117 0 204 -47 204 -160c0 -101 -7 -298 127 -301v-35c-134 -3 -127 -210 -127 -311c0 -120 -87 -160 -204 -160l-5 36c123 10 137 53 137 177z" />
    <glyph glyph-name="cent" unicode="&#xa2;" horiz-adv-x="432" 
d="M38 274c0 102 63 205 188 213l5 90h40l-5 -90c56 -6 131 -31 131 -73c0 -23 -14 -38 -39 -38c-39 0 -54 52 -94 71l-15 -307c10 -1 20 -2 31 -2c41 0 80 13 116 44l11 -21s-47 -89 -162 -92l-4 -91h-40l4 93c-113 16 -167 108 -167 203zM120 307c0 -63 28 -127 89 -155
l16 301c-67 -6 -105 -75 -105 -146z" />
    <glyph glyph-name="sterling" unicode="&#xa3;" horiz-adv-x="509" 
d="M54 244v40h67l11 88c14 113 63 193 184 193c51 0 117 -15 117 -56c0 -23 -16 -41 -41 -41c-41 0 -54 55 -107 55c-49 0 -64 -32 -74 -154l-9 -85h185l-5 -40h-184v-4c-8 -99 -37 -162 -37 -162s79 -35 157 -35c57 0 117 19 131 84l7 32h31c-9 -88 -37 -184 -158 -184
c-22 0 -48 4 -77 11l-84 21c-14 3 -28 7 -44 7c-20 0 -42 -3 -71 -14l-12 29s52 24 60 90l15 125h-62z" />
    <glyph glyph-name="yen" unicode="&#xa5;" horiz-adv-x="511" 
d="M71 270v40h119l-117 185c-18 29 -44 33 -44 33v25h40c49 0 92 3 92 3l3 -3s-13 -29 2 -54l81 -133c9 -16 20 -38 28 -55l105 169c13 21 11 42 -32 48v25h128l4 -16s-21 -3 -45 -41l-119 -186h131v-40h-150v-68h150v-40h-150v-71c0 -30 -5 -54 -5 -54l85 -9l-4 -25
l-220 -6v29c45 5 62 29 62 65v71h-144v40h144v68h-144z" />
    <glyph glyph-name="dieresis" unicode="&#xa8;" 
d="M159 564c-29 0 -54 25 -54 54s25 54 54 54s54 -25 54 -54s-25 -54 -54 -54zM340 564c-29 0 -54 25 -54 54s25 54 54 54s54 -25 54 -54s-25 -54 -54 -54z" />
    <glyph glyph-name="plusminus" unicode="&#xb1;" horiz-adv-x="520" 
d="M36 318v55h196v185h59v-185h193v-55h-193v-198h-59v198h-196zM36 0v55h448v-55h-448z" />
    <glyph glyph-name="acute" unicode="&#xb4;" 
d="M190 505l-31 17l85 171l87 9v-27z" />
    <glyph glyph-name="cedilla" unicode="&#xb8;" 
d="M217 -81c0 29 39 81 39 81h31s-12 -31 -12 -45c0 -35 84 -27 84 -94c0 -49 -47 -98 -111 -98c-56 0 -91 36 -91 36l15 32s34 -25 70 -25c31 0 52 15 52 36c0 34 -77 37 -77 77z" />
    <glyph glyph-name="Adieresis" unicode="&#xc4;" horiz-adv-x="623" 
d="M-13 0v29c42 4 59 25 67 45l237 590l41 9l222 -568c27 -68 45 -73 76 -78l-4 -27h-43c-37 0 -152 -3 -152 -3v34c28 1 53 9 42 39l-61 160h-239l-13 -10l-69 -180l85 -12l-4 -28h-185zM310 500c-8 20 -16 46 -20 61l-111 -289h217zM142 793c0 29 25 54 54 54
s54 -25 54 -54s-25 -54 -54 -54s-54 25 -54 54zM373 793c0 29 25 54 54 54s54 -25 54 -54s-25 -54 -54 -54s-54 25 -54 54z" />
    <glyph glyph-name="Aring" unicode="&#xc5;" horiz-adv-x="623" 
d="M-13 0v29c42 4 59 25 67 45l237 590l41 9l222 -568c27 -68 45 -73 76 -78l-4 -27h-43c-37 0 -152 -3 -152 -3v34c28 1 53 9 42 39l-61 160h-239l-13 -10l-69 -180l85 -12l-4 -28h-185zM310 500c-8 20 -16 46 -20 61l-111 -289h217zM312 711c-64 0 -94 40 -94 81
c0 39 30 79 94 79s94 -40 94 -79c0 -41 -30 -81 -94 -81zM312 745c31 0 48 23 48 46s-15 46 -48 46c-34 0 -47 -23 -47 -46s15 -46 47 -46z" />
    <glyph glyph-name="Ccedilla" unicode="&#xc7;" horiz-adv-x="679" 
d="M314 -81c0 22 21 56 32 72c-160 19 -301 138 -301 335c0 204 151 353 366 353c75 0 164 -18 216 -23l-30 -152h-34c0 104 -88 137 -169 137c-154 0 -256 -124 -256 -286c0 -180 126 -301 289 -301c125 0 201 71 201 71l14 -21s-75 -116 -249 -116h-14
c-3 -10 -7 -24 -7 -33c0 -35 84 -27 84 -94c0 -49 -47 -98 -111 -98c-56 0 -91 36 -91 36l15 32s34 -25 70 -25c31 0 52 15 52 36c0 34 -77 37 -77 77z" />
    <glyph glyph-name="Eacute" unicode="&#xc9;" horiz-adv-x="585" 
d="M54 -3v32c45 5 72 26 72 62v478c0 48 -5 58 -82 73v25h412c41 0 72 4 72 4l-31 -167h-34c5 103 -28 124 -108 124h-131l-10 -10v-260h185l8 57l37 6v-176h-47v74h-173l-10 -10v-214c0 -30 -5 -56 -5 -56h157c86 0 98 19 148 124h34l-37 -163h-312c-50 0 -145 -3 -145 -3z
M221 756l177 105h5l33 -52v-25l-202 -61z" />
    <glyph glyph-name="Edieresis" unicode="&#xcb;" horiz-adv-x="585" 
d="M54 -3v32c45 5 72 26 72 62v478c0 48 -5 58 -82 73v25h412c41 0 72 4 72 4l-31 -167h-34c5 103 -28 124 -108 124h-131l-10 -10v-260h185l8 57l37 6v-176h-47v74h-173l-10 -10v-214c0 -30 -5 -56 -5 -56h157c86 0 98 19 148 124h34l-37 -163h-312c-50 0 -145 -3 -145 -3z
M137 793c0 29 25 54 54 54s54 -25 54 -54s-25 -54 -54 -54s-54 25 -54 54zM368 793c0 29 25 54 54 54s54 -25 54 -54s-25 -54 -54 -54s-54 25 -54 54z" />
    <glyph glyph-name="Igrave" unicode="&#xcc;" horiz-adv-x="331" 
d="M53 -3v32c44 5 72 28 72 62v478c0 48 0 58 -74 73v25h78c90 0 112 4 112 4l5 -4s-33 -38 -33 -121v-455c0 -29 -5 -51 -5 -51l95 -9l-4 -28zM33 784v25l33 52h5l177 -105l-13 -33z" />
    <glyph glyph-name="Iacute" unicode="&#xcd;" horiz-adv-x="331" 
d="M53 -3v32c44 5 72 28 72 62v478c0 48 0 58 -74 73v25h78c90 0 112 4 112 4l5 -4s-33 -38 -33 -121v-455c0 -29 -5 -51 -5 -51l95 -9l-4 -28zM76 756l177 105h5l33 -52v-25l-202 -61z" />
    <glyph glyph-name="Icircumflex" unicode="&#xce;" horiz-adv-x="331" 
d="M53 -3v32c44 5 72 28 72 62v478c0 48 0 58 -74 73v25h78c90 0 112 4 112 4l5 -4s-33 -38 -33 -121v-455c0 -29 -5 -51 -5 -51l95 -9l-4 -28zM5 741l131 130h53l130 -130l-27 -23l-128 81h-4l-128 -81z" />
    <glyph glyph-name="Idieresis" unicode="&#xcf;" horiz-adv-x="331" 
d="M17 793c0 29 25 54 54 54s54 -25 54 -54s-25 -54 -54 -54s-54 25 -54 54zM198 793c0 29 25 54 54 54s54 -25 54 -54s-25 -54 -54 -54s-54 25 -54 54zM53 -3v32c44 5 72 28 72 62v478c0 48 0 58 -74 73v25h78c90 0 112 4 112 4l5 -4s-33 -38 -33 -121v-455
c0 -29 -5 -51 -5 -51l95 -9l-4 -28z" />
    <glyph glyph-name="Ntilde" unicode="&#xd1;" horiz-adv-x="766" 
d="M55 -3v32c45 5 72 26 72 62v450c0 69 -16 89 -82 101v25h30c49 0 100 4 100 4s12 -23 37 -52l362 -418c13 -16 29 -37 40 -53v416c0 44 -1 67 -82 75v28h190l5 -14s-69 -19 -69 -102v-556h-26l-425 502c-12 14 -26 33 -36 48v-454c0 -30 -5 -54 -5 -54l90 -6l-4 -28z
M251 733l-34 7s8 113 98 113c61 0 121 -59 167 -59c45 0 55 59 55 59l35 -3s-6 -117 -107 -117c-69 0 -112 59 -158 59c-42 0 -56 -59 -56 -59z" />
    <glyph glyph-name="Oacute" unicode="&#xd3;" horiz-adv-x="795" 
d="M144 351c0 -149 94 -323 259 -323c157 0 248 158 248 304c0 150 -94 307 -260 307c-156 0 -247 -141 -247 -288zM45 325c0 180 129 354 363 354c209 0 342 -141 342 -322c0 -191 -146 -369 -367 -369c-205 0 -338 155 -338 337zM309 756l177 105h5l33 -52v-25l-202 -61z
" />
    <glyph glyph-name="Ocircumflex" unicode="&#xd4;" horiz-adv-x="795" 
d="M144 351c0 -149 94 -323 259 -323c157 0 248 158 248 304c0 150 -94 307 -260 307c-156 0 -247 -141 -247 -288zM45 325c0 180 129 354 363 354c209 0 342 -141 342 -322c0 -191 -146 -369 -367 -369c-205 0 -338 155 -338 337zM238 741l131 130h53l130 -130l-27 -23
l-128 81h-4l-128 -81z" />
    <glyph glyph-name="Odieresis" unicode="&#xd6;" horiz-adv-x="795" 
d="M144 351c0 -149 94 -323 259 -323c157 0 248 158 248 304c0 150 -94 307 -260 307c-156 0 -247 -141 -247 -288zM45 325c0 180 129 354 363 354c209 0 342 -141 342 -322c0 -191 -146 -369 -367 -369c-205 0 -338 155 -338 337zM225 793c0 29 25 54 54 54s54 -25 54 -54
s-25 -54 -54 -54s-54 25 -54 54zM456 793c0 29 25 54 54 54s54 -25 54 -54s-25 -54 -54 -54s-54 25 -54 54z" />
    <glyph glyph-name="Udieresis" unicode="&#xdc;" horiz-adv-x="735" 
d="M99 235v334c0 48 0 58 -74 73v25h78c90 0 112 4 112 4l5 -4s-33 -38 -33 -121v-303c0 -146 99 -210 199 -210s205 68 205 203v328c0 44 -1 67 -81 75v28h194l5 -14s-69 -19 -69 -102v-312c0 -163 -126 -251 -276 -251c-132 0 -265 64 -265 247zM209 793c0 29 25 54 54 54
s54 -25 54 -54s-25 -54 -54 -54s-54 25 -54 54zM440 793c0 29 25 54 54 54s54 -25 54 -54s-25 -54 -54 -54s-54 25 -54 54z" />
    <glyph glyph-name="Yacute" unicode="&#xdd;" horiz-adv-x="585" 
d="M177 -3v32c44 5 72 28 72 62v204l-192 303c-24 38 -53 44 -53 44v25h48c63 0 102 4 102 4l4 -4s-19 -38 2 -72l124 -200c10 -16 21 -39 29 -56l149 241c16 26 11 54 -40 62v25h163l4 -14s-39 -13 -69 -61l-183 -295v-206c0 -29 -5 -51 -5 -51l90 -9l-4 -28zM212 756
l177 105h5l33 -52v-25l-202 -61z" />
    <glyph glyph-name="agrave" unicode="&#xe0;" horiz-adv-x="460" 
d="M28 89c0 96 119 146 223 162l34 5c1 21 1 79 -4 107c-7 37 -26 64 -63 64c-68 0 -106 -96 -106 -96h-32l-17 75s73 56 185 56c94 0 119 -38 119 -143v-230c0 -32 4 -47 27 -47c27 0 55 20 55 20l13 -21s-47 -53 -106 -53c-38 0 -68 22 -68 71v24s-53 -95 -156 -95
c-66 0 -104 47 -104 101zM172 45c39 0 87 38 113 60v118l-31 -5c-57 -9 -138 -39 -138 -111c0 -40 26 -62 56 -62zM88 675v27l87 -9l85 -171l-31 -17z" />
    <glyph glyph-name="aacute" unicode="&#xe1;" horiz-adv-x="460" 
d="M28 89c0 96 119 146 223 162l34 5c1 21 1 79 -4 107c-7 37 -26 64 -63 64c-68 0 -106 -96 -106 -96h-32l-17 75s73 56 185 56c94 0 119 -38 119 -143v-230c0 -32 4 -47 27 -47c27 0 55 20 55 20l13 -21s-47 -53 -106 -53c-38 0 -68 22 -68 71v24s-53 -95 -156 -95
c-66 0 -104 47 -104 101zM172 45c39 0 87 38 113 60v118l-31 -5c-57 -9 -138 -39 -138 -111c0 -40 26 -62 56 -62zM211 505l-31 17l85 171l87 9v-27z" />
    <glyph glyph-name="acircumflex" unicode="&#xe2;" horiz-adv-x="460" 
d="M28 89c0 96 119 146 223 162l34 5c1 21 1 79 -4 107c-7 37 -26 64 -63 64c-68 0 -106 -96 -106 -96h-32l-17 75s73 56 185 56c94 0 119 -38 119 -143v-230c0 -32 4 -47 27 -47c27 0 55 20 55 20l13 -21s-47 -53 -106 -53c-38 0 -68 22 -68 71v24s-53 -95 -156 -95
c-66 0 -104 47 -104 101zM172 45c39 0 87 38 113 60v118l-31 -5c-57 -9 -138 -39 -138 -111c0 -40 26 -62 56 -62zM85 522l116 176h39l115 -176l-30 -19l-105 116l-105 -116z" />
    <glyph glyph-name="atilde" unicode="&#xe3;" horiz-adv-x="460" 
d="M28 89c0 96 119 146 223 162l34 5c1 21 1 79 -4 107c-7 37 -26 64 -63 64c-68 0 -106 -96 -106 -96h-32l-17 75s73 56 185 56c94 0 119 -38 119 -143v-230c0 -32 4 -47 27 -47c27 0 55 20 55 20l13 -21s-47 -53 -106 -53c-38 0 -68 22 -68 71v24s-53 -95 -156 -95
c-66 0 -104 47 -104 101zM172 45c39 0 87 38 113 60v118l-31 -5c-57 -9 -138 -39 -138 -111c0 -40 26 -62 56 -62zM75 562c0 0 -8 122 85 122c68 0 81 -73 126 -73c42 0 42 67 42 67h37s7 -126 -87 -126c-68 0 -80 73 -125 73c-41 0 -41 -63 -41 -63h-37z" />
    <glyph glyph-name="adieresis" unicode="&#xe4;" horiz-adv-x="460" 
d="M28 89c0 96 119 146 223 162l34 5c1 21 1 79 -4 107c-7 37 -26 64 -63 64c-68 0 -106 -96 -106 -96h-32l-17 75s73 56 185 56c94 0 119 -38 119 -143v-230c0 -32 4 -47 27 -47c27 0 55 20 55 20l13 -21s-47 -53 -106 -53c-38 0 -68 22 -68 71v24s-53 -95 -156 -95
c-66 0 -104 47 -104 101zM172 45c39 0 87 38 113 60v118l-31 -5c-57 -9 -138 -39 -138 -111c0 -40 26 -62 56 -62zM129 564c-29 0 -54 25 -54 54s25 54 54 54s54 -25 54 -54s-25 -54 -54 -54zM310 564c-29 0 -54 25 -54 54s25 54 54 54s54 -25 54 -54s-25 -54 -54 -54z" />
    <glyph glyph-name="aring" unicode="&#xe5;" horiz-adv-x="460" 
d="M28 89c0 96 119 146 223 162l34 5c1 21 1 79 -4 107c-7 37 -26 64 -63 64c-68 0 -106 -96 -106 -96h-32l-17 75s73 56 185 56c94 0 119 -38 119 -143v-230c0 -32 4 -47 27 -47c27 0 55 20 55 20l13 -21s-47 -53 -106 -53c-38 0 -68 22 -68 71v24s-53 -95 -156 -95
c-66 0 -104 47 -104 101zM220 536c-64 0 -94 43 -94 84s30 81 94 81s94 -40 94 -81s-30 -84 -94 -84zM172 45c39 0 87 38 113 60v118l-31 -5c-57 -9 -138 -39 -138 -111c0 -40 26 -62 56 -62zM220 570c31 0 48 24 48 49c0 24 -15 48 -48 48c-34 0 -47 -24 -47 -48
c0 -25 15 -49 47 -49z" />
    <glyph glyph-name="ae" unicode="&#xe6;" horiz-adv-x="709" 
d="M26 91c0 93 113 150 266 174v25c0 75 -9 137 -67 137c-71 0 -107 -96 -107 -96h-32l-17 75s73 56 184 56c67 0 95 -21 108 -67c32 40 77 67 138 67c88 0 167 -56 170 -163c0 0 -29 -9 -46 -12l-254 -45c1 -94 47 -187 162 -187c82 0 130 48 130 48l11 -21
s-57 -94 -180 -94c-85 0 -151 44 -177 130c-24 -70 -87 -130 -169 -130c-77 0 -120 46 -120 103zM171 45c45 0 120 41 120 148v36c-69 -12 -177 -37 -177 -122c0 -37 21 -62 57 -62zM484 424c-66 0 -106 -68 -114 -145l206 36s-7 109 -92 109z" />
    <glyph glyph-name="ccedilla" unicode="&#xe7;" horiz-adv-x="441" 
d="M178 -82c0 23 23 58 33 74c-114 18 -173 120 -173 224c0 121 76 246 214 246c61 0 158 -24 158 -76c0 -19 -14 -36 -38 -36c-51 0 -57 78 -127 78c-80 0 -125 -86 -125 -183c0 -96 47 -190 165 -190c75 0 116 41 116 41l11 -21s-46 -87 -162 -87h-6c-4 -10 -8 -25 -8 -34
c0 -35 84 -27 84 -94c0 -49 -47 -98 -111 -98c-56 0 -91 36 -91 36l15 32s34 -25 70 -25c31 0 52 15 52 36c0 34 -77 37 -77 77z" />
    <glyph glyph-name="egrave" unicode="&#xe8;" horiz-adv-x="460" 
d="M38 216c0 136 90 246 211 246c86 0 171 -56 174 -166c0 0 -26 -10 -46 -13l-249 -36l-10 -12c4 -91 50 -180 162 -180c82 0 130 48 130 48l11 -21s-52 -94 -171 -94c-142 0 -212 111 -212 228zM234 424c-67 0 -105 -66 -114 -141l210 27s-8 114 -96 114zM107 675v27
l87 -9l85 -171l-31 -17z" />
    <glyph glyph-name="eacute" unicode="&#xe9;" horiz-adv-x="460" 
d="M38 216c0 136 90 246 211 246c86 0 171 -56 174 -166c0 0 -26 -10 -46 -13l-249 -36l-10 -12c4 -91 50 -180 162 -180c82 0 130 48 130 48l11 -21s-52 -94 -171 -94c-142 0 -212 111 -212 228zM234 424c-67 0 -105 -66 -114 -141l210 27s-8 114 -96 114zM230 505l-31 17
l85 171l87 9v-27z" />
    <glyph glyph-name="ecircumflex" unicode="&#xea;" horiz-adv-x="460" 
d="M38 216c0 136 90 246 211 246c86 0 171 -56 174 -166c0 0 -26 -10 -46 -13l-249 -36l-10 -12c4 -91 50 -180 162 -180c82 0 130 48 130 48l11 -21s-52 -94 -171 -94c-142 0 -212 111 -212 228zM234 424c-67 0 -105 -66 -114 -141l210 27s-8 114 -96 114zM104 522l116 176
h39l115 -176l-30 -19l-105 116l-105 -116z" />
    <glyph glyph-name="edieresis" unicode="&#xeb;" horiz-adv-x="460" 
d="M38 216c0 136 90 246 211 246c86 0 171 -56 174 -166c0 0 -26 -10 -46 -13l-249 -36l-10 -12c4 -91 50 -180 162 -180c82 0 130 48 130 48l11 -21s-52 -94 -171 -94c-142 0 -212 111 -212 228zM234 424c-67 0 -105 -66 -114 -141l210 27s-8 114 -96 114zM148 564
c-29 0 -54 25 -54 54s25 54 54 54s54 -25 54 -54s-25 -54 -54 -54zM329 564c-29 0 -54 25 -54 54s25 54 54 54s54 -25 54 -54s-25 -54 -54 -54z" />
    <glyph glyph-name="igrave" unicode="&#xec;" horiz-adv-x="277" 
d="M38 -3v29c45 5 62 29 62 65v243c0 43 -1 68 -30 68h-45v27c146 34 167 47 167 47l1 -3s-11 -33 -11 -114v-268c0 -30 -5 -54 -5 -54l85 -9l-4 -25zM0 675v27l87 -9l85 -171l-31 -17z" />
    <glyph glyph-name="iacute" unicode="&#xed;" horiz-adv-x="277" 
d="M38 -3v29c45 5 62 29 62 65v243c0 43 -1 68 -30 68h-45v27c146 34 167 47 167 47l1 -3s-11 -33 -11 -114v-268c0 -30 -5 -54 -5 -54l85 -9l-4 -25zM123 505l-31 17l85 171l87 9v-27z" />
    <glyph glyph-name="icircumflex" unicode="&#xee;" horiz-adv-x="277" 
d="M38 -3v29c45 5 62 29 62 65v243c0 43 -1 68 -30 68h-45v27c146 34 167 47 167 47l1 -3s-11 -33 -11 -114v-268c0 -30 -5 -54 -5 -54l85 -9l-4 -25zM-3 522l116 176h39l115 -176l-30 -19l-105 116l-105 -116z" />
    <glyph glyph-name="idieresis" unicode="&#xef;" horiz-adv-x="277" 
d="M-8 618c0 29 25 54 54 54s54 -25 54 -54s-25 -54 -54 -54s-54 25 -54 54zM163 618c0 29 25 54 54 54s54 -25 54 -54s-25 -54 -54 -54s-54 25 -54 54zM38 -3v29c45 5 62 29 62 65v243c0 43 -1 68 -30 68h-45v27c146 34 167 47 167 47l1 -3s-11 -33 -11 -114v-268
c0 -30 -5 -54 -5 -54l85 -9l-4 -25z" />
    <glyph glyph-name="ntilde" unicode="&#xf1;" horiz-adv-x="572" 
d="M38 -3v29c45 5 62 29 62 65v243c0 43 -1 68 -30 68h-45v27c98 20 160 47 160 47l3 -3s-9 -33 -10 -122c36 54 106 111 190 111c69 0 114 -38 114 -135v-236c0 -30 -5 -53 -5 -53l85 -10l-4 -25l-215 -6v29c45 5 57 29 57 65v214c0 76 -29 96 -69 96
c-46 0 -107 -27 -149 -70v-240c0 -30 -5 -53 -5 -53l80 -10l-4 -25zM146 562c0 0 -8 122 85 122c68 0 81 -73 126 -73c42 0 42 67 42 67h37s7 -126 -87 -126c-68 0 -80 73 -125 73c-41 0 -41 -63 -41 -63h-37z" />
    <glyph glyph-name="ograve" unicode="&#xf2;" horiz-adv-x="532" 
d="M38 215c0 117 65 247 235 247c146 0 221 -96 221 -219c0 -124 -77 -255 -237 -255c-141 0 -219 99 -219 227zM130 238c0 -100 41 -216 141 -216c85 0 131 86 131 193c0 99 -40 213 -141 213c-92 0 -131 -94 -131 -190zM132 675v27l87 -9l85 -171l-31 -17z" />
    <glyph glyph-name="oacute" unicode="&#xf3;" horiz-adv-x="532" 
d="M38 215c0 117 65 247 235 247c146 0 221 -96 221 -219c0 -124 -77 -255 -237 -255c-141 0 -219 99 -219 227zM130 238c0 -100 41 -216 141 -216c85 0 131 86 131 193c0 99 -40 213 -141 213c-92 0 -131 -94 -131 -190zM255 505l-31 17l85 171l87 9v-27z" />
    <glyph glyph-name="ocircumflex" unicode="&#xf4;" horiz-adv-x="532" 
d="M38 215c0 117 65 247 235 247c146 0 221 -96 221 -219c0 -124 -77 -255 -237 -255c-141 0 -219 99 -219 227zM130 238c0 -100 41 -216 141 -216c85 0 131 86 131 193c0 99 -40 213 -141 213c-92 0 -131 -94 -131 -190zM129 522l116 176h39l115 -176l-30 -19l-105 116
l-105 -116z" />
    <glyph glyph-name="otilde" unicode="&#xf5;" horiz-adv-x="532" 
d="M38 215c0 117 65 247 235 247c146 0 221 -96 221 -219c0 -124 -77 -255 -237 -255c-141 0 -219 99 -219 227zM130 238c0 -100 41 -216 141 -216c85 0 131 86 131 193c0 99 -40 213 -141 213c-92 0 -131 -94 -131 -190zM119 562c0 0 -8 122 85 122c68 0 81 -73 126 -73
c42 0 42 67 42 67h37s7 -126 -87 -126c-68 0 -80 73 -125 73c-41 0 -41 -63 -41 -63h-37z" />
    <glyph glyph-name="odieresis" unicode="&#xf6;" horiz-adv-x="532" 
d="M38 215c0 117 65 247 235 247c146 0 221 -96 221 -219c0 -124 -77 -255 -237 -255c-141 0 -219 99 -219 227zM130 238c0 -100 41 -216 141 -216c85 0 131 86 131 193c0 99 -40 213 -141 213c-92 0 -131 -94 -131 -190zM173 564c-29 0 -54 25 -54 54s25 54 54 54
s54 -25 54 -54s-25 -54 -54 -54zM354 564c-29 0 -54 25 -54 54s25 54 54 54s54 -25 54 -54s-25 -54 -54 -54z" />
    <glyph glyph-name="ugrave" unicode="&#xf9;" horiz-adv-x="559" 
d="M86 122v212c0 43 -1 68 -30 68h-35v28c97 17 152 37 152 37l4 -3s-9 -28 -9 -105v-214c0 -76 27 -96 68 -96c46 0 102 27 145 71v214c0 43 -1 68 -30 68h-33v28c96 17 150 37 150 37l4 -3s-9 -28 -9 -105v-264c0 -57 23 -57 56 -57h28l-3 -27c-109 -11 -164 -20 -164 -20
l-4 3s9 29 9 54v52c-36 -53 -102 -112 -186 -112c-70 0 -113 38 -113 134zM142 675v27l87 -9l85 -171l-31 -17z" />
    <glyph glyph-name="uacute" unicode="&#xfa;" horiz-adv-x="559" 
d="M86 122v212c0 43 -1 68 -30 68h-35v28c97 17 152 37 152 37l4 -3s-9 -28 -9 -105v-214c0 -76 27 -96 68 -96c46 0 102 27 145 71v214c0 43 -1 68 -30 68h-33v28c96 17 150 37 150 37l4 -3s-9 -28 -9 -105v-264c0 -57 23 -57 56 -57h28l-3 -27c-109 -11 -164 -20 -164 -20
l-4 3s9 29 9 54v52c-36 -53 -102 -112 -186 -112c-70 0 -113 38 -113 134zM265 505l-31 17l85 171l87 9v-27z" />
    <glyph glyph-name="ucircumflex" unicode="&#xfb;" horiz-adv-x="559" 
d="M86 122v212c0 43 -1 68 -30 68h-35v28c97 17 152 37 152 37l4 -3s-9 -28 -9 -105v-214c0 -76 27 -96 68 -96c46 0 102 27 145 71v214c0 43 -1 68 -30 68h-33v28c96 17 150 37 150 37l4 -3s-9 -28 -9 -105v-264c0 -57 23 -57 56 -57h28l-3 -27c-109 -11 -164 -20 -164 -20
l-4 3s9 29 9 54v52c-36 -53 -102 -112 -186 -112c-70 0 -113 38 -113 134zM139 522l116 176h39l115 -176l-30 -19l-105 116l-105 -116z" />
    <glyph glyph-name="udieresis" unicode="&#xfc;" horiz-adv-x="559" 
d="M86 122v212c0 43 -1 68 -30 68h-35v28c97 17 152 37 152 37l4 -3s-9 -28 -9 -105v-214c0 -76 27 -96 68 -96c46 0 102 27 145 71v214c0 43 -1 68 -30 68h-33v28c96 17 150 37 150 37l4 -3s-9 -28 -9 -105v-264c0 -57 23 -57 56 -57h28l-3 -27c-109 -11 -164 -20 -164 -20
l-4 3s9 29 9 54v52c-36 -53 -102 -112 -186 -112c-70 0 -113 38 -113 134zM183 564c-29 0 -54 25 -54 54s25 54 54 54s54 -25 54 -54s-25 -54 -54 -54zM364 564c-29 0 -54 25 -54 54s25 54 54 54s54 -25 54 -54s-25 -54 -54 -54z" />
    <glyph glyph-name="yacute" unicode="&#xfd;" horiz-adv-x="461" 
d="M71 -154c53 0 88 34 106 75l32 75c-5 14 -13 37 -24 65l-128 306c-21 50 -56 58 -56 58v25h47c63 0 102 4 102 4l4 -4c-12 -24 -12 -65 -1 -92l81 -203c6 -17 14 -42 19 -60l113 258c17 40 -18 62 -55 72v25h139l5 -16s-18 -10 -36 -53l-173 -393
c-27 -60 -84 -225 -180 -225c-29 0 -44 20 -44 42c0 20 13 41 49 41zM232 505l-31 17l85 171l87 9v-27z" />
    <glyph glyph-name="ydieresis" unicode="&#xff;" horiz-adv-x="461" 
d="M71 -154c53 0 88 34 106 75l32 75c-5 14 -13 37 -24 65l-128 306c-21 50 -56 58 -56 58v25h47c63 0 102 4 102 4l4 -4c-12 -24 -12 -65 -1 -92l81 -203c6 -17 14 -42 19 -60l113 258c17 40 -18 62 -55 72v25h139l5 -16s-18 -10 -36 -53l-173 -393
c-27 -60 -84 -225 -180 -225c-29 0 -44 20 -44 42c0 20 13 41 49 41zM331 564c-29 0 -54 25 -54 54s25 54 54 54s54 -25 54 -54s-25 -54 -54 -54zM150 564c-29 0 -54 25 -54 54s25 54 54 54s54 -25 54 -54s-25 -54 -54 -54z" />
    <glyph glyph-name="dotlessi" unicode="&#x131;" horiz-adv-x="277" 
d="M38 -3v29c45 5 62 29 62 65v243c0 43 -1 68 -30 68h-45v27c146 34 167 47 167 47l1 -3s-11 -33 -11 -114v-268c0 -30 -5 -54 -5 -54l85 -9l-4 -25z" />
    <glyph glyph-name="Scaron" unicode="&#x160;" horiz-adv-x="506" 
d="M44 91c0 15 4 29 23 89h34c0 -122 77 -154 145 -154c65 0 127 28 127 105c0 174 -313 171 -313 374c0 99 75 174 223 174c71 0 143 -16 165 -19l-31 -156h-34c10 75 -28 137 -112 137c-67 0 -124 -31 -124 -104c0 -175 313 -158 313 -373c0 -120 -103 -176 -223 -176
c-87 0 -193 30 -193 103zM106 848l27 23l128 -81h4l128 81l27 -23l-130 -130h-53z" />
    <glyph glyph-name="scaron" unicode="&#x161;" horiz-adv-x="386" 
d="M39 56c0 20 13 76 13 76h30c6 -85 65 -110 113 -110c49 0 83 26 83 68c0 107 -229 100 -229 245c0 74 57 127 163 127c60 0 125 -18 125 -18l-20 -103h-31c0 82 -69 87 -90 87c-54 0 -75 -33 -75 -64c0 -106 228 -87 228 -245c0 -83 -65 -131 -160 -131
c-46 0 -150 11 -150 68zM180 523l-116 166l30 19l105 -108l105 108l30 -19l-115 -166h-39z" />
    <glyph glyph-name="Ydieresis" unicode="&#x178;" horiz-adv-x="585" 
d="M177 -3v32c44 5 72 28 72 62v204l-192 303c-24 38 -53 44 -53 44v25h48c63 0 102 4 102 4l4 -4s-19 -38 2 -72l124 -200c10 -16 21 -39 29 -56l149 241c16 26 11 54 -40 62v25h163l4 -14s-39 -13 -69 -61l-183 -295v-206c0 -29 -5 -51 -5 -51l90 -9l-4 -28zM359 793
c0 29 25 54 54 54s54 -25 54 -54s-25 -54 -54 -54s-54 25 -54 54zM128 793c0 29 25 54 54 54s54 -25 54 -54s-25 -54 -54 -54s-54 25 -54 54z" />
    <glyph glyph-name="Zcaron" unicode="&#x17d;" horiz-adv-x="610" 
d="M34 -4l-6 36s21 22 55 71l334 476c11 15 26 34 39 49h-220c-82 0 -109 -21 -147 -124h-34l25 163h410c39 0 64 4 64 4l4 -36s-14 -20 -50 -71l-331 -476c-11 -16 -27 -35 -40 -49h252c86 0 102 31 152 144h34l-41 -183h-436c-39 0 -64 -4 -64 -4zM162 848l27 23l128 -81
h4l128 81l27 -23l-130 -130h-53z" />
    <glyph glyph-name="zcaron" unicode="&#x17e;" horiz-adv-x="439" 
d="M40 -4l-8 26s11 10 36 48l194 299c9 14 24 33 36 48h-133c-61 0 -88 -57 -96 -85h-29l18 118h263c43 0 68 4 68 4l8 -26s-4 -2 -34 -48l-189 -296c-10 -16 -25 -35 -37 -50h122c97 0 119 100 119 100h29l-27 -134h-272c-43 0 -68 -4 -68 -4zM216 523l-116 166l30 19
l105 -108l105 108l30 -19l-115 -166h-39z" />
    <glyph glyph-name="florin" unicode="&#x192;" horiz-adv-x="455" 
d="M47 303v40h136c34 241 92 336 213 336c41 0 82 -9 82 -45c0 -24 -20 -38 -41 -38c-47 0 -69 31 -102 31c-28 0 -41 -16 -71 -284h154l-14 -40h-144c-2 -13 -3 -25 -4 -38c-37 -346 -95 -464 -228 -464c-41 0 -82 9 -82 45c0 24 20 38 41 38c47 0 69 -31 102 -31
c30 0 44 21 85 412l4 38h-131z" />
    <glyph glyph-name="circumflex" unicode="&#x2c6;" 
d="M115 522l116 176h39l115 -176l-30 -19l-105 116l-105 -116z" />
    <glyph glyph-name="caron" unicode="&#x2c7;" 
d="M231 523l-116 166l30 19l105 -108l105 108l30 -19l-115 -166h-39z" />
    <glyph glyph-name="ring" unicode="&#x2da;" 
d="M250 536c-64 0 -94 43 -94 84s30 81 94 81s94 -40 94 -81s-30 -84 -94 -84zM250 570c31 0 48 24 48 49c0 24 -15 48 -48 48c-34 0 -47 -24 -47 -48c0 -25 15 -49 47 -49z" />
    <glyph glyph-name="tilde" unicode="&#x2dc;" 
d="M105 562c0 0 -8 122 85 122c68 0 81 -73 126 -73c42 0 42 67 42 67h37s7 -126 -87 -126c-68 0 -80 73 -125 73c-41 0 -41 -63 -41 -63h-37z" />
    <glyph glyph-name="Euro" unicode="&#x20ac;" horiz-adv-x="529" 
d="M33 198v40h51c-1 8 -1 16 -1 24c0 14 1 29 2 44h-52v40h59c28 117 113 219 249 219c78 0 159 -33 159 -33l-32 -107h-30c0 63 -26 102 -108 102c-89 0 -139 -84 -152 -181h267l-12 -40h-258v-11c0 -19 1 -39 4 -57h235l-12 -40h-215c22 -86 75 -155 160 -155
c90 0 134 33 134 33l14 -22s-60 -66 -168 -66c-140 0 -217 96 -238 210h-56z" />
    <glyph glyph-name="minus" unicode="&#x2212;" horiz-adv-x="520" 
d="M36 223v55h448v-55h-448z" />
    <glyph glyph-name="st" unicode="&#xfb06;" horiz-adv-x="733" 
d="M473 119v215c0 29 3 65 3 65h-66v30c76 18 100 60 100 110c0 73 -53 103 -108 103c-71 0 -141 -59 -141 -132c0 -18 4 -38 12 -57c39 -10 72 -29 72 -57c0 -20 -15 -36 -37 -36c-48 0 -44 68 -115 68c-49 0 -72 -33 -72 -66c0 -102 228 -86 228 -243
c0 -83 -65 -131 -160 -131c-46 0 -150 11 -150 68c0 20 13 76 13 76h30c6 -85 65 -110 113 -110c49 0 83 26 83 68c0 107 -229 100 -229 245c0 74 61 127 155 127c7 0 14 -1 22 -1c-5 13 -7 27 -7 45c0 95 87 173 189 173s151 -71 151 -158c0 -24 -4 -71 -4 -71h155l-7 -48
h-138l-10 -10v-254c0 -58 16 -90 71 -90c43 0 89 21 89 21l13 -19s-57 -62 -144 -62c-71 0 -111 40 -111 131z" />
    <glyph glyph-name="ampersand.001" unicode="&#xe37b;" horiz-adv-x="558" 
d="M37 147c0 91 78 147 157 201c-42 75 -67 142 -67 189c0 71 58 142 162 142c91 0 145 -50 145 -124c0 -87 -73 -143 -147 -195c128 -220 388 -499 531 -499c21 0 36 6 50 14l10 -23c-29 -27 -63 -40 -101 -40c-162 0 -428 277 -564 503c-51 -39 -89 -86 -89 -144
c0 -76 61 -133 132 -133c39 0 77 17 77 17l11 -23s-57 -44 -132 -44c-87 0 -175 62 -175 159zM212 559c0 -41 21 -99 56 -164c45 39 79 87 79 143c0 42 -20 105 -70 105c-39 0 -65 -33 -65 -84z" />
    <glyph glyph-name="ct" unicode="&#xe087;" horiz-adv-x="788" 
d="M38 216c0 121 76 246 214 246c8 0 18 -1 27 -2c-4 14 -7 28 -7 46c0 95 85 173 189 173s153 -71 153 -158c0 -24 -4 -71 -4 -71h155l-7 -48h-138l-10 -10v-254c0 -58 17 -90 70 -90c45 0 90 21 90 21l13 -19s-57 -62 -144 -62c-71 0 -111 40 -111 131v215c0 29 3 65 3 65
h-66v30c74 18 100 59 100 109c0 74 -56 104 -110 104c-72 0 -141 -59 -141 -134c0 -16 3 -36 9 -55c46 -11 87 -33 87 -67c0 -19 -14 -36 -38 -36c-51 0 -57 78 -127 78c-80 0 -125 -86 -125 -183c0 -96 47 -190 165 -190c75 0 116 41 116 41l11 -21s-46 -87 -162 -87
c-140 0 -212 113 -212 228z" />
    <glyph glyph-name="dollar.uc" unicode="&#xe02c;" horiz-adv-x="520" 
d="M60 105c0 11 3 22 23 90h34c0 -76 37 -139 118 -152l8 253c-85 47 -180 95 -180 191s71 170 193 176l4 103h45l-4 -103c72 -2 112 -14 145 -18l-29 -146h-34c0 75 -39 107 -83 119l-9 -246c84 -44 173 -91 173 -186c0 -119 -86 -174 -186 -182l-3 -103h-45l3 102
c-88 4 -173 34 -173 102zM150 515c0 -53 43 -88 97 -119l8 228h-6c-56 0 -99 -50 -99 -109zM377 153c0 51 -39 86 -89 117l-8 -229c51 6 97 43 97 112z" />
    <glyph glyph-name="cent.uc" unicode="&#xe028;" horiz-adv-x="520" 
d="M234 0l5 116c-118 19 -173 116 -173 216c0 106 65 214 193 226l5 109h45l-5 -108c60 -5 145 -31 145 -78c0 -24 -15 -40 -41 -40c-44 0 -60 61 -106 78l-15 -329c12 -2 24 -3 37 -3c44 0 86 14 124 47l12 -23s-51 -97 -176 -98l-5 -113h-45zM154 367
c0 -75 28 -137 89 -164l14 319c-66 -11 -103 -82 -103 -155z" />
    <glyph glyph-name="sterling.uc" unicode="&#xe03f;" horiz-adv-x="520" 
d="M38 283v45h80c0 3 1 7 1 11c9 175 35 340 216 340c41 0 116 -8 116 -53c0 -22 -18 -39 -40 -39c-37 0 -71 50 -121 50c-80 0 -73 -135 -83 -298c0 -4 -1 -8 -1 -11h180l-5 -45h-178c-16 -167 -48 -204 -48 -204s103 -31 174 -31c54 0 116 18 129 79l7 32h36
c-9 -86 -38 -184 -161 -184c-74 0 -175 39 -224 39c-18 0 -41 -3 -69 -14l-12 29s17 9 28 21c30 32 42 60 53 233h-78z" />
    <glyph glyph-name="yen.uc" unicode="&#xe06a;" horiz-adv-x="520" 
d="M80 302v45h124l-142 255c-19 33 -49 40 -49 40v25h45c54 0 98 4 98 4l4 -4s-15 -28 2 -61l89 -175c8 -17 18 -41 25 -59l115 214c16 30 -1 51 -36 56v25h143l4 -14s-30 -15 -50 -50l-145 -256h146v-45h-150v-63h150v-45h-150v-100c0 -30 -5 -54 -5 -54l90 -9l-4 -28
l-241 -6v32c45 5 72 29 72 65v100h-135v45h135v63h-135z" />
    <glyph glyph-name="florin.uc" unicode="&#xe039;" horiz-adv-x="520" 
d="M80 343v45h136c34 241 90 336 213 336c41 0 82 -9 82 -45c0 -24 -20 -38 -41 -38c-47 0 -69 31 -102 31c-28 0 -36 -16 -64 -284h147l-14 -45h-138l-3 -33c-37 -346 -93 -464 -235 -464c-41 0 -82 9 -82 45c0 24 20 38 41 38c47 0 69 -31 102 -31c35 0 44 21 85 412
c1 11 2 22 4 33h-131z" />
    <glyph glyph-name="Euro.uc" unicode="&#xe012;" horiz-adv-x="520" 
d="M24 366v45h58c25 145 114 268 263 268c58 0 103 -18 163 -35l-43 -136h-31c7 66 -16 128 -98 128c-108 0 -152 -108 -164 -225h262l-14 -45h-251v-23c0 -17 0 -34 1 -50h227l-14 -45h-208c18 -118 75 -205 187 -205c70 0 127 33 127 33l14 -22s-59 -66 -171 -66
c-150 0 -232 119 -253 260h-55v45h51c-1 9 -1 19 -1 29c0 14 1 29 2 44h-52z" />
    <glyph glyph-name="parenleft.uc" unicode="&#xe491;" horiz-adv-x="284" 
d="M46 348c0 263 159 416 159 416l34 -12s-118 -165 -118 -404c0 -262 141 -430 141 -430l-32 -15s-184 165 -184 445z" />
    <glyph glyph-name="parenright.uc" unicode="&#xe492;" horiz-adv-x="283" 
d="M22 -82c0 0 141 168 141 430c0 239 -118 404 -118 404l34 12s159 -153 159 -416c0 -280 -184 -445 -184 -445z" />
    <glyph glyph-name="braceleft.uc" unicode="&#xe459;" horiz-adv-x="350" 
d="M133 10c0 101 7 308 -127 311v35c134 3 127 200 127 301c0 113 87 160 204 160l5 -36c-123 -9 -137 -53 -137 -177c0 -184 -59 -244 -111 -264v-2c52 -20 111 -91 111 -275c0 -124 14 -167 137 -177l-5 -36c-117 0 -204 40 -204 160z" />
    <glyph glyph-name="bar.uc" unicode="&#xe463;" horiz-adv-x="237" 
d="M86 -154v974h65v-974h-65z" />
    <glyph glyph-name="braceright.uc" unicode="&#xe496;" horiz-adv-x="350" 
d="M145 63c0 184 59 255 111 275v2c-52 20 -111 80 -111 264c0 124 -14 168 -137 177l5 36c117 0 204 -47 204 -160c0 -101 -7 -298 127 -301v-35c-134 -3 -127 -210 -127 -311c0 -120 -87 -160 -204 -160l-5 36c123 10 137 53 137 177z" />
    <glyph glyph-name="hyphen.uc" unicode="&#xe482;" horiz-adv-x="350" 
d="M57 299v66h236v-66h-236z" />
    <glyph glyph-name="bracketleft.uc" unicode="&#xe493;" horiz-adv-x="290" 
d="M87 -78v822h183v-45h-118v-732h118v-45h-183z" />
    <glyph glyph-name="bracketright.uc" unicode="&#xe494;" horiz-adv-x="290" 
d="M20 -33h118v732h-118v45h183v-822h-183v45z" />
    <glyph glyph-name="slash.uc" unicode="&#xe461;" horiz-adv-x="331" 
d="M-33 -97l333 863h64l-332 -863h-65z" />
    <glyph glyph-name="backslash.uc" unicode="&#xe462;" horiz-adv-x="331" 
d="M299 -97l-332 863h64l333 -863h-65z" />
    <glyph glyph-name="endash.uc" unicode="&#xe484;" horiz-adv-x="530" 
d="M60 306v55h410v-55h-410z" />
    <glyph glyph-name="emdash.uc" unicode="&#xe486;" horiz-adv-x="920" 
d="M60 306v55h800v-55h-800z" />
    <glyph glyph-name="guillemotleft.uc" unicode="&#xe451;" horiz-adv-x="515" 
d="M244 122c-176 181 -191 193 -213 209v4c21 15 27 18 213 209l29 -10c-120 -189 -131 -201 -131 -201s11 -14 131 -201zM226 331v4c21 15 27 18 213 209l29 -10c-120 -189 -131 -201 -131 -201s11 -14 131 -201l-29 -10c-176 181 -191 193 -213 209z" />
    <glyph glyph-name="guillemotright.uc" unicode="&#xe452;" horiz-adv-x="515" 
d="M242 132c120 187 131 201 131 201s-11 12 -131 201l29 10c186 -191 192 -194 213 -209v-4c-22 -16 -37 -28 -213 -209zM47 132c120 187 131 201 131 201s-11 12 -131 201l29 10c186 -191 192 -194 213 -209v-4c-22 -16 -37 -28 -213 -209z" />
    <glyph glyph-name="guilsinglleft.uc" unicode="&#xe453;" horiz-adv-x="324" 
d="M248 122c-180 181 -195 193 -218 209v4c21 15 28 18 218 209l29 -10c-120 -189 -131 -201 -131 -201s11 -14 131 -201z" />
    <glyph glyph-name="guilsinglright.uc" unicode="&#xe454;" horiz-adv-x="324" 
d="M47 132c120 187 131 201 131 201s-11 12 -131 201l29 10c190 -191 197 -194 218 -209v-4c-23 -16 -38 -28 -218 -209z" />
    <glyph glyph-name="exclamdown.uc" unicode="&#xe441;" horiz-adv-x="290" 
d="M159 491l44 -480c-89 -24 -116 -36 -116 -36l-3 3s11 32 17 108l33 405h25zM208 619c0 -33 -27 -60 -60 -60s-60 27 -60 60s27 60 60 60s60 -27 60 -60z" />
    <glyph glyph-name="questiondown.uc" unicode="&#xe444;" horiz-adv-x="367" 
d="M245 491c4 -18 5 -34 5 -50c0 -135 -123 -192 -123 -250c0 -68 191 -137 191 -137l-16 -88s-267 93 -267 203c0 84 185 147 185 322h25zM289 619c0 -33 -27 -60 -60 -60s-60 27 -60 60s27 60 60 60s60 -27 60 -60z" />
    <glyph glyph-name="at.uc" unicode="&#xe531;" horiz-adv-x="795" 
d="M369 160c48 0 98 53 98 53v309s-177 -10 -177 -225c0 -102 40 -137 79 -137zM35 292c0 219 181 411 404 411c190 0 335 -138 335 -325c0 -114 -54 -247 -204 -268l-105 -15l-2 4s8 29 8 54v39c-31 -58 -80 -96 -135 -96c-69 0 -133 61 -133 177c0 162 123 289 270 289
c22 0 66 -3 89 -9c0 0 -13 -48 -13 -88v-268c0 -33 11 -47 36 -47c40 0 120 37 120 195c0 177 -99 312 -280 312c-193 0 -319 -155 -319 -351s126 -316 262 -324l-10 -40c-185 8 -323 160 -323 350z" />
    <glyph glyph-name="zero.tnum" unicode="&#xe53f;" horiz-adv-x="520" 
d="M259 28c105 0 122 165 122 307c0 141 -16 304 -121 304c-106 0 -123 -162 -123 -303c0 -142 18 -308 122 -308zM252 -12c-153 0 -213 164 -213 332c0 177 68 359 228 359c154 0 212 -161 212 -327c0 -179 -68 -364 -227 -364z" />
    <glyph glyph-name="one.tnum" unicode="&#xe541;" horiz-adv-x="520" 
d="M106 -3v37l56 3c67 4 71 33 71 62v436c0 63 -5 66 -34 59l-105 -27l-6 42c170 51 243 80 243 80l3 -3s-13 -40 -13 -117v-470c0 -30 -5 -54 -5 -54l130 -9l-4 -33z" />
    <glyph glyph-name="two.tnum" unicode="&#xe542;" horiz-adv-x="520" 
d="M38 33c107 103 291 280 291 457c0 79 -52 115 -114 115c-52 0 -111 -24 -152 -64l-23 25s85 113 209 113c83 0 173 -39 173 -165c0 -141 -188 -339 -279 -436h188c78 0 91 30 109 91h34l-26 -169h-399z" />
    <glyph glyph-name="three.tnum" unicode="&#xe543;" horiz-adv-x="520" 
d="M44 64c0 21 16 38 35 38c52 0 59 -78 143 -78c77 0 130 81 130 151c0 83 -58 145 -169 145c-17 0 -29 -2 -29 -2v52c97 5 160 80 160 152c0 57 -41 88 -94 88c-60 0 -121 -44 -121 -44l-22 25s70 88 172 88c80 0 158 -40 158 -133c0 -80 -87 -155 -148 -180
c110 -9 191 -77 191 -171c0 -113 -114 -207 -234 -207c-62 0 -172 25 -172 76z" />
    <glyph glyph-name="four.tnum" unicode="&#xe544;" horiz-adv-x="520" 
d="M23 190l-11 49l311 424l60 16l3 -3s-5 -32 -5 -109v-316h108l-14 -61h-94v-96c0 -30 -5 -54 -5 -54l90 -9l-4 -28l-241 -6v32c45 5 72 29 72 65v96h-270zM293 251v242c0 20 2 46 4 65l-223 -307h219z" />
    <glyph glyph-name="five.tnum" unicode="&#xe545;" horiz-adv-x="520" 
d="M81 64c0 21 16 38 35 38c40 0 54 -78 117 -78c58 0 123 64 123 148c0 160 -253 186 -253 186l16 309h224c39 0 70 6 70 6l-14 -80h-241l-8 -158s294 -39 294 -237c0 -107 -93 -210 -226 -210c-54 0 -137 25 -137 76z" />
    <glyph glyph-name="six.tnum" unicode="&#xe546;" horiz-adv-x="520" 
d="M268 -12c-146 0 -218 138 -218 281c0 190 121 410 363 410l6 -40c-199 -12 -275 -201 -271 -359c0 -127 51 -252 134 -252c73 0 111 90 111 170c0 94 -58 218 -170 168l-7 37s34 22 91 22c119 0 181 -100 181 -196c0 -111 -76 -241 -220 -241z" />
    <glyph glyph-name="seven.tnum" unicode="&#xe547;" horiz-adv-x="520" 
d="M340 430l67 157c-19 -2 -45 -4 -65 -4h-159c-67 0 -83 -1 -103 -61h-34l29 145h354c32 0 57 4 57 4l3 -29s-34 -48 -47 -79l-208 -490c-24 -56 -31 -85 -61 -85c-22 0 -35 16 -35 32c0 21 11 31 36 70c28 43 77 131 166 340z" />
    <glyph glyph-name="eight.tnum" unicode="&#xe548;" horiz-adv-x="520" 
d="M56 155c0 96 69 149 141 194c-63 50 -117 105 -117 177c0 87 78 153 192 153c103 0 171 -56 171 -139c0 -81 -66 -128 -132 -169c76 -59 154 -122 154 -206c0 -96 -90 -177 -212 -177c-93 0 -197 49 -197 167zM142 168c0 -77 39 -140 114 -140c69 0 121 50 121 115
c0 70 -76 124 -151 182c-48 -36 -84 -90 -84 -157zM168 545c0 -56 52 -103 113 -151c44 33 76 80 76 137c0 61 -28 108 -93 108s-96 -46 -96 -94z" />
    <glyph glyph-name="nine.tnum" unicode="&#xe549;" horiz-adv-x="520" 
d="M98 28c199 12 271 201 271 359c0 127 -51 252 -134 252c-70 0 -106 -90 -106 -170c0 -93 55 -213 165 -163l7 -37s-41 -22 -91 -22c-116 0 -176 97 -176 191c0 111 74 241 215 241c146 0 218 -138 218 -281c0 -190 -121 -410 -363 -410z" />
    <glyph glyph-name="ellipsis" unicode="&#x2026;" horiz-adv-x="774" 
d="M57 48c0 33 27 60 60 60s60 -27 60 -60s-27 -60 -60 -60s-60 27 -60 60zM327 48c0 33 27 60 60 60s60 -27 60 -60s-27 -60 -60 -60s-60 27 -60 60zM597 48c0 33 27 60 60 60s60 -27 60 -60s-27 -60 -60 -60s-60 27 -60 60z" />
    <glyph glyph-name="germandbls" unicode="&#xdf;" horiz-adv-x="555" 
d="M37 -3v29c45 5 62 29 62 62v311h-63v30l63 22v23c0 112 59 244 215 244c88 0 147 -45 147 -114c0 -84 -111 -138 -111 -211c0 -97 184 -124 184 -265c0 -95 -83 -140 -164 -140c-49 0 -133 17 -133 73c0 24 14 56 14 56h30c10 -66 43 -95 90 -95c39 0 90 20 90 73
c0 100 -176 131 -176 258c0 94 98 133 98 222c0 64 -41 101 -96 101c-75 0 -106 -70 -106 -185v-438c0 -30 4 -48 4 -48l-3 -3z" />
    <glyph glyph-name="slash" unicode="/" horiz-adv-x="352" 
d="M-26 -196l333 863h64l-332 -863h-65z" />
    <glyph glyph-name="Acircumflex" unicode="&#xc2;" horiz-adv-x="623" 
d="M-13 0v29c42 4 59 25 67 45l237 590l41 9l222 -568c27 -68 45 -73 76 -78l-4 -27h-43c-37 0 -152 -3 -152 -3v34c28 1 53 9 42 39l-61 160h-239l-13 -10l-69 -180l85 -12l-4 -28h-185zM310 500c-8 20 -16 46 -20 61l-111 -289h217zM155 741l131 130h53l130 -130l-27 -23
l-128 81h-4l-128 -81z" />
    <glyph glyph-name="Ecircumflex" unicode="&#xca;" horiz-adv-x="585" 
d="M54 -3v32c45 5 72 26 72 62v478c0 48 -5 58 -82 73v25h412c41 0 72 4 72 4l-31 -167h-34c5 103 -28 124 -108 124h-131l-10 -10v-260h185l8 57l37 6v-176h-47v74h-173l-10 -10v-214c0 -30 -5 -56 -5 -56h157c86 0 98 19 148 124h34l-37 -163h-312c-50 0 -145 -3 -145 -3z
M150 741l131 130h53l130 -130l-27 -23l-128 81h-4l-128 -81z" />
    <glyph glyph-name="Aacute" unicode="&#xc1;" horiz-adv-x="623" 
d="M-13 0v29c42 4 59 25 67 45l237 590l41 9l222 -568c27 -68 45 -73 76 -78l-4 -27h-43c-37 0 -152 -3 -152 -3v34c28 1 53 9 42 39l-61 160h-239l-13 -10l-69 -180l85 -12l-4 -28h-185zM310 500c-8 20 -16 46 -20 61l-111 -289h217zM226 756l177 105h5l33 -52v-25
l-202 -61z" />
    <glyph glyph-name="Egrave" unicode="&#xc8;" horiz-adv-x="585" 
d="M54 -3v32c45 5 72 26 72 62v478c0 48 -5 58 -82 73v25h412c41 0 72 4 72 4l-31 -167h-34c5 103 -28 124 -108 124h-131l-10 -10v-260h185l8 57l37 6v-176h-47v74h-173l-10 -10v-214c0 -30 -5 -56 -5 -56h157c86 0 98 19 148 124h34l-37 -163h-312c-50 0 -145 -3 -145 -3z
M178 784v25l33 52h5l177 -105l-13 -33z" />
    <glyph glyph-name="Ograve" unicode="&#xd2;" horiz-adv-x="795" 
d="M144 351c0 -149 94 -323 259 -323c157 0 248 158 248 304c0 150 -94 307 -260 307c-156 0 -247 -141 -247 -288zM45 325c0 180 129 354 363 354c209 0 342 -141 342 -322c0 -191 -146 -369 -367 -369c-205 0 -338 155 -338 337zM266 784v25l33 52h5l177 -105l-13 -33z
" />
    <glyph glyph-name="Uacute" unicode="&#xda;" horiz-adv-x="735" 
d="M99 235v334c0 48 0 58 -74 73v25h78c90 0 112 4 112 4l5 -4s-33 -38 -33 -121v-303c0 -146 99 -210 199 -210s205 68 205 203v328c0 44 -1 67 -81 75v28h194l5 -14s-69 -19 -69 -102v-312c0 -163 -126 -251 -276 -251c-132 0 -265 64 -265 247zM293 756l177 105h5l33 -52
v-25l-202 -61z" />
    <glyph glyph-name="Ucircumflex" unicode="&#xdb;" horiz-adv-x="735" 
d="M99 235v334c0 48 0 58 -74 73v25h78c90 0 112 4 112 4l5 -4s-33 -38 -33 -121v-303c0 -146 99 -210 199 -210s205 68 205 203v328c0 44 -1 67 -81 75v28h194l5 -14s-69 -19 -69 -102v-312c0 -163 -126 -251 -276 -251c-132 0 -265 64 -265 247zM222 741l131 130h53
l130 -130l-27 -23l-128 81h-4l-128 -81z" />
    <glyph glyph-name="Ugrave" unicode="&#xd9;" horiz-adv-x="735" 
d="M99 235v334c0 48 0 58 -74 73v25h78c90 0 112 4 112 4l5 -4s-33 -38 -33 -121v-303c0 -146 99 -210 199 -210s205 68 205 203v328c0 44 -1 67 -81 75v28h194l5 -14s-69 -19 -69 -102v-312c0 -163 -126 -251 -276 -251c-132 0 -265 64 -265 247zM250 784v25l33 52h5
l177 -105l-13 -33z" />
    <glyph glyph-name="Agrave" unicode="&#xc0;" horiz-adv-x="623" 
d="M-13 0v29c42 4 59 25 67 45l237 590l41 9l222 -568c27 -68 45 -73 76 -78l-4 -27h-43c-37 0 -152 -3 -152 -3v34c28 1 53 9 42 39l-61 160h-239l-13 -10l-69 -180l85 -12l-4 -28h-185zM310 500c-8 20 -16 46 -20 61l-111 -289h217zM183 784v25l33 52h5l177 -105l-13 -33z
" />
    <glyph glyph-name="Atilde" unicode="&#xc3;" horiz-adv-x="623" 
d="M-13 0v29c42 4 59 25 67 45l237 590l41 9l222 -568c27 -68 45 -73 76 -78l-4 -27h-43c-37 0 -152 -3 -152 -3v34c28 1 53 9 42 39l-61 160h-239l-13 -10l-69 -180l85 -12l-4 -28h-185zM310 500c-8 20 -16 46 -20 61l-111 -289h217zM169 733l-34 7s8 113 98 113
c61 0 121 -59 167 -59c45 0 55 59 55 59l35 -3s-6 -117 -107 -117c-69 0 -112 59 -158 59c-42 0 -56 -59 -56 -59z" />
    <glyph glyph-name="Otilde" unicode="&#xd5;" horiz-adv-x="795" 
d="M144 351c0 -149 94 -323 259 -323c157 0 248 158 248 304c0 150 -94 307 -260 307c-156 0 -247 -141 -247 -288zM45 325c0 180 129 354 363 354c209 0 342 -141 342 -322c0 -191 -146 -369 -367 -369c-205 0 -338 155 -338 337zM252 733l-34 7s8 113 98 113
c61 0 121 -59 167 -59c45 0 55 59 55 59l35 -3s-6 -117 -107 -117c-69 0 -112 59 -158 59c-42 0 -56 -59 -56 -59z" />
    <glyph glyph-name="questiondown" unicode="&#xbf;" horiz-adv-x="327" 
d="M221 274c4 -18 5 -34 5 -50c0 -135 -123 -192 -123 -250c0 -68 191 -137 191 -137l-16 -88s-267 93 -267 203c0 84 185 147 185 322h25zM265 402c0 -33 -27 -60 -60 -60s-60 27 -60 60s27 60 60 60s60 -27 60 -60z" />
    <glyph glyph-name="exclamdown" unicode="&#xa1;" horiz-adv-x="273" 
d="M150 274l44 -480c-89 -24 -116 -36 -116 -36l-3 3s11 32 17 108l33 405h25zM199 402c0 -33 -27 -60 -60 -60s-60 27 -60 60s27 60 60 60s60 -27 60 -60z" />
    <glyph glyph-name="percent" unicode="%" horiz-adv-x="717" 
d="M32 507c0 83 68 150 151 150s151 -67 151 -150s-68 -150 -151 -150s-151 67 -151 150zM86 507c0 -55 43 -103 97 -103s97 48 97 103s-43 103 -97 103s-97 -48 -97 -103zM100 0l467 672l39 -27l-449 -645h-57zM386 137c0 83 68 150 151 150s151 -67 151 -150
s-68 -150 -151 -150s-151 67 -151 150zM440 137c0 -55 43 -103 97 -103s97 48 97 103s-43 103 -97 103s-97 -48 -97 -103z" />
    <glyph glyph-name="multiply" unicode="&#xd7;" horiz-adv-x="520" 
d="M35 436l39 41l186 -187l186 187l39 -41l-185 -186l185 -185l-40 -41l-185 186l-185 -186l-40 41l185 185z" />
    <glyph glyph-name="backslash" unicode="\" horiz-adv-x="352" 
d="M313 -196l-332 863h64l333 -863h-65z" />
    <glyph glyph-name="less" unicode="&#x3c;" horiz-adv-x="520" 
d="M28 226v46l426 229l15 -58l-369 -194l369 -204l-15 -57z" />
    <glyph glyph-name="greater" unicode="&#x3e;" horiz-adv-x="520" 
d="M50 45l369 204l-369 194l15 58l426 -229v-46l-426 -238z" />
    <glyph glyph-name="lessequal" unicode="&#x2264;" horiz-adv-x="520" 
d="M32 321v46l426 204l15 -57l-360 -170l360 -180l-15 -56zM32 0v55h448v-55h-448z" />
    <glyph glyph-name="greaterequal" unicode="&#x2265;" horiz-adv-x="520" 
d="M61 108l-15 56l360 180l-360 170l15 57l426 -204v-46zM39 0v55h448v-55h-448z" />
    <glyph glyph-name="quotesingle" unicode="'" horiz-adv-x="186" 
d="M62 431v236h79v-37l-37 -199h-42z" />
    <glyph glyph-name="quotedbl" unicode="&#x22;" horiz-adv-x="342" 
d="M62 431v236h81v-37l-43 -199h-38zM218 431v236h81v-37l-43 -199h-38z" />
    <glyph glyph-name="dagger" unicode="&#x2020;" horiz-adv-x="520" 
d="M77 371c-33 0 -46 25 -46 45s13 46 46 46c27 0 93 -22 162 -27c-2 77 -25 156 -25 186c0 33 26 46 46 46s45 -13 45 -46c0 -30 -23 -109 -24 -186c69 5 135 27 162 27c33 0 46 -26 46 -46s-13 -45 -46 -45c-27 0 -93 20 -162 26v-296c2 -80 24 -164 24 -194
c0 -33 -25 -46 -45 -46s-46 13 -46 46c0 31 25 114 25 194v296c-69 -6 -135 -26 -162 -26z" />
    <glyph glyph-name="daggerdbl" unicode="&#x2021;" horiz-adv-x="520" 
d="M77 371c-33 0 -46 25 -46 45s13 46 46 46c27 0 93 -22 162 -27c-3 80 -25 156 -25 186c0 33 26 46 46 46s45 -13 45 -46c0 -30 -23 -109 -24 -186c69 5 135 27 162 27c33 0 46 -26 46 -46s-13 -45 -46 -45c-27 0 -93 20 -162 26v-261c69 5 135 27 162 27
c33 0 46 -26 46 -46s-13 -45 -46 -45c-27 0 -93 20 -162 26c2 -85 24 -161 24 -191c0 -33 -25 -46 -45 -46s-46 13 -46 46c0 30 22 106 25 191c-69 -6 -135 -26 -162 -26c-33 0 -46 25 -46 45s13 46 46 46c27 0 93 -22 162 -27v261c-69 -6 -135 -26 -162 -26z" />
    <glyph glyph-name="perthousand" unicode="&#x2030;" horiz-adv-x="1075" 
d="M35 507c0 83 68 150 151 150s151 -67 151 -150s-68 -150 -151 -150s-151 67 -151 150zM89 507c0 -55 43 -103 97 -103s97 48 97 103s-43 103 -97 103s-97 -48 -97 -103zM103 0l467 672l39 -27l-449 -645h-57zM389 137c0 83 68 150 151 150s151 -67 151 -150
s-68 -150 -151 -150s-151 67 -151 150zM443 137c0 -55 43 -103 97 -103s97 48 97 103s-43 103 -97 103s-97 -48 -97 -103zM746 137c0 83 68 150 151 150s151 -67 151 -150s-68 -150 -151 -150s-151 67 -151 150zM800 137c0 -55 43 -103 97 -103s97 48 97 103
s-43 103 -97 103s-97 -48 -97 -103z" />
    <glyph glyph-name="registered" unicode="&#xae;" horiz-adv-x="418" 
d="M209 358c-95 0 -173 78 -173 173s78 173 173 173s173 -78 173 -173s-78 -173 -173 -173zM209 387c75 0 139 66 139 144s-64 143 -139 143c-77 0 -139 -65 -139 -143s62 -144 139 -144zM129 446v15c11 1 18 7 18 15v111c0 12 -2 14 -21 19v12h74c54 0 72 -19 72 -42
c0 -19 -19 -35 -33 -44c0 0 5 -9 14 -23l22 -32c11 -15 19 -15 26 -16l-1 -14l-53 -1s-5 13 -16 30l-27 40h-17v-40c0 -7 -2 -12 -2 -12l25 -3l-1 -13zM187 601v-68h22c5 1 21 10 21 35c0 19 -10 33 -34 33h-9z" />
    <glyph glyph-name="copyright" unicode="&#xa9;" horiz-adv-x="760" 
d="M35 333c0 190 155 345 345 345s345 -155 345 -345s-155 -345 -345 -345s-345 155 -345 345zM81 333c0 -168 131 -304 299 -304s299 136 299 304s-131 304 -299 304s-299 -136 -299 -304zM182 329c0 101 68 213 214 213c51 0 99 -21 126 -27l-17 -106h-31
c0 84 -49 98 -93 98c-73 0 -122 -70 -122 -154c0 -106 65 -170 150 -170c67 0 118 49 118 49l11 -29c-30 -43 -100 -70 -148 -70c-109 0 -208 74 -208 196z" />
    <glyph glyph-name="paragraph" unicode="&#xb6;" horiz-adv-x="643" 
d="M177 -196c0 32 25 43 43 43c16 0 32 -8 46 -8c52 0 59 69 59 176v144h-14c-201 0 -291 124 -291 253c0 127 95 255 286 255h216c37 0 59 0 79 4l-9 -56h-74v-615h-57v615h-75v-530c0 -112 -4 -141 -10 -165c-20 -82 -71 -157 -152 -157c-34 0 -47 24 -47 41z" />
    <glyph glyph-name="section" unicode="&#xa7;" horiz-adv-x="468" 
d="M33 -146c0 0 40 -38 126 -38c121 0 153 109 133 222l-52 286c-12 65 -38 202 51 236l5 -5c-15 -44 -14 -99 -4 -154l63 -355c25 -139 -27 -283 -176 -283c-101 0 -162 64 -162 64zM151 41l-63 355c-25 139 27 283 176 283c101 0 162 -64 162 -64l-16 -27s-40 38 -126 38
c-121 0 -153 -109 -133 -222l52 -286c12 -65 38 -202 -51 -236l-5 5c15 44 14 99 4 154z" />
    <glyph glyph-name="bullet" unicode="&#x2022;" horiz-adv-x="378" 
d="M189 118c-78 0 -138 60 -138 138s60 138 138 138s138 -60 138 -138s-60 -138 -138 -138z" />
    <glyph glyph-name="oe" unicode="&#x153;" horiz-adv-x="832" 
d="M38 215c0 117 65 247 235 247c87 0 147 -37 179 -96c38 59 99 96 169 96c86 0 171 -56 174 -166c0 0 -26 -10 -46 -13l-248 -37l-11 -12c4 -91 50 -179 162 -179c82 0 130 48 130 48l11 -21s-56 -94 -179 -94c-79 0 -134 39 -167 97c-39 -57 -102 -97 -190 -97
c-141 0 -219 99 -219 227zM130 238c0 -100 41 -216 141 -216c85 0 131 86 131 193c0 99 -40 213 -141 213c-92 0 -131 -94 -131 -190zM606 424c-67 0 -105 -66 -114 -141l210 27s-8 114 -96 114z" />
    <glyph glyph-name="OE" unicode="&#x152;" horiz-adv-x="992" 
d="M45 323c0 180 134 356 366 356c59 0 108 -12 159 -12h293c41 0 72 4 72 4l-31 -167h-34c5 103 -28 124 -108 124h-131l-10 -10v-260h185l8 57l37 6v-176h-47v74h-173l-10 -10v-214c0 -30 -5 -56 -5 -56h157c86 0 98 19 148 124h34l-37 -163h-352c-71 0 -106 -12 -168 -12
c-218 0 -353 155 -353 335zM144 353c0 -151 90 -325 282 -325c28 0 107 4 107 63v488c0 57 -79 60 -110 60c-195 0 -279 -141 -279 -286z" />
    <glyph glyph-name="AE" unicode="&#xc6;" horiz-adv-x="880" 
d="M-19 0v29c42 4 56 26 67 45l284 511c15 28 9 43 -48 57v25h467c41 0 72 4 72 4l-31 -167h-34c5 103 -28 124 -108 124h-131l-10 -10v-270h185l8 67l37 6v-176h-47v64h-173l-10 -10v-204c0 -30 -5 -56 -5 -56h157c86 0 98 19 148 124h34l-37 -163h-312
c-50 0 -145 -3 -145 -3v32c45 5 72 26 72 62v218h-181l-15 -10l-143 -259l85 -12l-4 -28h-182zM381 580l-129 -232h169v274c-15 -6 -27 -18 -40 -42z" />
    <glyph glyph-name="underscore" unicode="_" horiz-adv-x="524" 
d="M12 -37h500v-49h-500v49z" />
    <glyph glyph-name="endash" unicode="&#x2013;" horiz-adv-x="536" 
d="M63 226v55h410v-55h-410z" />
    <glyph glyph-name="emdash" unicode="&#x2014;" horiz-adv-x="926" 
d="M63 226v55h800v-55h-800z" />
    <glyph glyph-name="divide" unicode="&#xf7;" horiz-adv-x="520" 
d="M36 223v55h448v-55h-448zM200 59c0 33 27 60 60 60s60 -27 60 -60s-27 -60 -60 -60s-60 27 -60 60zM260 382c-33 0 -60 27 -60 60s27 60 60 60s60 -27 60 -60s-27 -60 -60 -60z" />
    <glyph glyph-name="guilsinglleft" unicode="&#x2039;" horiz-adv-x="329" 
d="M37 249v4c21 15 28 18 218 209l29 -10c-120 -189 -131 -201 -131 -201s11 -14 131 -201l-29 -10c-180 181 -195 193 -218 209z" />
    <glyph glyph-name="guilsinglright" unicode="&#x203a;" horiz-adv-x="329" 
d="M45 50c120 187 131 201 131 201s-11 12 -131 201l29 10c190 -191 197 -194 218 -209v-4c-23 -16 -38 -28 -218 -209z" />
    <glyph glyph-name="guillemotleft" unicode="&#xab;" horiz-adv-x="519" 
d="M37 249v4c21 15 27 18 213 209l29 -10c-120 -189 -131 -201 -131 -201s11 -14 131 -201l-29 -10c-176 181 -191 193 -213 209zM232 249v4c21 15 27 18 213 209l29 -10c-120 -189 -131 -201 -131 -201s11 -14 131 -201l-29 -10c-176 181 -191 193 -213 209z" />
    <glyph glyph-name="guillemotright" unicode="&#xbb;" horiz-adv-x="519" 
d="M240 50c120 187 131 201 131 201s-11 12 -131 201l29 10c186 -191 192 -194 213 -209v-4c-22 -16 -37 -28 -213 -209zM45 50c120 187 131 201 131 201s-11 12 -131 201l29 10c186 -191 192 -194 213 -209v-4c-22 -16 -37 -28 -213 -209z" />
    <glyph glyph-name="trademark" unicode="&#x2122;" horiz-adv-x="713" 
d="M102 397v20c18 1 28 12 28 26v199h-25c-25 0 -38 -10 -56 -50h-22l13 77s16 -2 34 -2h183c16 0 34 2 34 2l-12 -77h-21c0 40 -14 50 -44 50h-29v-199c0 -12 -2 -22 -2 -22l40 -4l-1 -18zM305 397v20c17 1 28 11 29 25l8 178c1 19 -2 23 -33 30v17h35c41 0 76 2 76 2l1 -2
s6 -18 13 -37l43 -124l6 -23l59 156l10 28h12c52 0 73 2 73 2l2 -2s-13 -17 -12 -51l8 -176c0 -11 -1 -20 -1 -20l36 -3l-3 -18l-115 -2v20c18 1 28 10 28 23l-7 197l-90 -239l-25 4l-85 230l-8 -190c0 -12 -2 -22 -2 -22l37 -3l-2 -18z" />
    <glyph glyph-name="periodcentered" unicode="&#xb7;" horiz-adv-x="252" 
d="M126 194c-33 0 -60 27 -60 60s27 60 60 60s60 -27 60 -60s-27 -60 -60 -60z" />
    <glyph glyph-name="oslash" unicode="&#xf8;" horiz-adv-x="532" 
d="M50 -30l55 73c-44 41 -67 102 -67 172c0 117 65 247 235 247c48 0 89 -11 121 -30l36 48h52l-54 -72c44 -40 66 -99 66 -165c0 -124 -77 -255 -237 -255c-47 0 -86 11 -119 30l-35 -48h-53zM130 238c0 -44 7 -90 24 -128l201 270c-22 29 -53 48 -94 48
c-92 0 -131 -94 -131 -190zM402 215c0 42 -8 87 -24 125l-201 -270c22 -30 53 -48 94 -48c85 0 131 86 131 193z" />
    <glyph glyph-name="quoteright" unicode="&#x2019;" horiz-adv-x="201" 
d="M44 656v35l77 41c31 -29 46 -64 46 -101c0 -53 -33 -110 -99 -154l-22 24c42 33 65 62 65 87s-22 46 -67 68z" />
    <glyph glyph-name="quoteleft" unicode="&#x2018;" horiz-adv-x="202" 
d="M43 577c0 53 33 110 99 154l22 -24c-42 -33 -65 -62 -65 -87s22 -46 67 -68v-35l-77 -41c-31 29 -46 64 -46 101z" />
    <glyph glyph-name="quotedblright" unicode="&#x201d;" horiz-adv-x="363" 
d="M44 656v35l77 41c31 -29 46 -64 46 -101c0 -53 -33 -110 -99 -154l-22 24c42 33 65 62 65 87s-22 46 -67 68zM206 656v35l77 41c31 -29 46 -64 46 -101c0 -53 -33 -110 -99 -154l-22 24c42 33 65 62 65 87s-22 46 -67 68z" />
    <glyph glyph-name="quotedblleft" unicode="&#x201c;" horiz-adv-x="364" 
d="M205 577c0 53 33 110 99 154l22 -24c-42 -33 -65 -62 -65 -87s22 -46 67 -68v-35l-77 -41c-31 29 -46 64 -46 101zM43 577c0 53 33 110 99 154l22 -24c-42 -33 -65 -62 -65 -87s22 -46 67 -68v-35l-77 -41c-31 29 -46 64 -46 101z" />
    <glyph glyph-name="quotesinglbase" unicode="&#x201a;" horiz-adv-x="233" 
d="M55 43v35l77 41c31 -29 46 -64 46 -101c0 -53 -33 -110 -99 -154l-22 24c42 33 65 62 65 87s-22 46 -67 68z" />
    <glyph glyph-name="quotedblbase" unicode="&#x201e;" horiz-adv-x="393" 
d="M55 43v35l77 41c31 -29 46 -64 46 -101c0 -53 -33 -110 -99 -154l-22 24c42 33 65 62 65 87s-22 46 -67 68zM215 43v35l77 41c31 -29 46 -64 46 -101c0 -53 -33 -110 -99 -154l-22 24c42 33 65 62 65 87s-22 46 -67 68z" />
    <glyph glyph-name="mu" unicode="&#xb5;" horiz-adv-x="540" 
d="M73 -57v393c0 63 -7 105 -7 105l92 21l4 -3s-7 -28 -7 -105v-209c0 -76 28 -96 63 -96c50 0 102 28 145 71v216c0 63 -7 105 -7 105l92 21l4 -3s-7 -28 -7 -105v-259c0 -40 2 -57 36 -57h38l3 -24s-59 -26 -91 -26c-37 0 -64 14 -64 60v52c-36 -54 -95 -112 -171 -112
c-29 0 -57 9 -80 32c5 -86 39 -165 39 -207c0 -30 -19 -50 -41 -50c-37 0 -45 29 -45 72c0 31 4 67 4 108z" />
    <glyph glyph-name="numbersign" unicode="#" horiz-adv-x="633" 
d="M320 -89l45 219h-162l-44 -219h-49l45 219h-126l8 45h127l31 152h-128l8 45h129l43 206h48l-43 -206h162l43 206h48l-43 -206h139l-8 -45h-140l-31 -152h141l-8 -45h-142l-44 -219h-49zM243 327l-31 -152h162l31 152h-162z" />
    <glyph glyph-name="Oslash" unicode="&#xd8;" horiz-adv-x="795" 
d="M45 325c0 180 129 354 363 354c72 0 134 -17 186 -46l49 64h56l-68 -89c76 -58 119 -148 119 -251c0 -191 -146 -369 -367 -369c-71 0 -134 18 -185 50l-52 -68h-57l72 95c-74 63 -116 157 -116 260zM651 332c0 75 -24 153 -69 211l-339 -447c41 -41 95 -68 160 -68
c157 0 248 158 248 304zM144 351c0 -75 24 -156 68 -219l339 444c-42 38 -95 63 -160 63c-156 0 -247 -141 -247 -288z" />
    <glyph glyph-name="Thorn" unicode="&#xde;" horiz-adv-x="561" 
d="M277 157v28c116 3 161 69 161 139c0 108 -94 151 -200 151h-15l-10 -10v-374c0 -29 -5 -51 -5 -51l95 -9l-4 -28l-246 -6v32c44 5 72 28 72 62v478c0 48 0 58 -74 73v25h78c90 0 112 4 112 4l5 -4s-33 -38 -33 -121v-32h78c115 0 245 -44 245 -169
c0 -149 -151 -199 -259 -188z" />
    <glyph glyph-name="thorn" unicode="&#xfe;" horiz-adv-x="520" 
d="M158 80c0 -47 39 -54 72 -54c104 0 165 75 165 189c0 96 -42 189 -131 189c-39 0 -75 -18 -106 -42v-282zM76 -122v721c0 43 -1 68 -30 68h-42v27c115 25 161 45 161 45l3 -3s-10 -37 -10 -114v-149c0 -40 -2 -89 -2 -89c27 34 65 78 144 78c122 0 182 -108 182 -218
c0 -127 -81 -256 -257 -256c-27 0 -48 3 -67 6v-115c0 -30 -5 -57 -5 -57h105l-4 -24s-158 -19 -230 -43v29c45 25 52 48 52 94z" />
    <glyph glyph-name="lslash" unicode="&#x142;" horiz-adv-x="290" 
d="M16 232v50l87 64v253c0 43 -1 68 -30 68h-42v27c115 25 161 45 161 45l3 -3s-10 -37 -10 -114v-221l89 66v-50l-89 -67v-259c0 -30 -5 -54 -5 -54l85 -9l-4 -25l-220 -6v29c45 5 62 29 62 65v204z" />
    <glyph glyph-name="Lslash" unicode="&#x141;" horiz-adv-x="564" 
d="M33 236v51l90 61v221c0 48 0 58 -74 73v25h78c90 0 112 4 112 4l5 -4s-33 -38 -33 -121v-142l157 108v-51l-157 -108v-259c0 -30 -5 -55 -5 -55h167c86 0 102 31 152 144h34l-41 -183h-322c-50 0 -140 -3 -140 -3v32c45 5 67 26 67 62v206z" />
    <glyph glyph-name="notequal" unicode="&#x2260;" horiz-adv-x="520" 
d="M35 318v55h269l73 122l40 -25l-58 -97h124v-55h-156l-80 -135h236v-55h-269l-72 -122l-40 25l57 97h-124v55h157l80 135h-237z" />
    <glyph glyph-name="Eth" unicode="&#xd0;" horiz-adv-x="746" 
d="M35 318v42h91v209c0 48 -5 58 -82 73v25h274c194 0 381 -73 381 -309c0 -226 -169 -358 -419 -358h-81c-50 0 -145 -3 -145 -3v32c45 5 72 26 72 62v227h-91zM209 39h71c234 0 320 130 320 296c0 177 -99 293 -286 293h-90l-10 -10v-258h166v-42h-166v-223
c0 -30 -5 -56 -5 -56z" />
    <glyph glyph-name="eth" unicode="&#xf0;" horiz-adv-x="526" 
d="M132 513l-20 35l126 76c-42 38 -93 70 -155 90l10 26c75 -15 141 -44 197 -84l133 81l19 -35l-119 -73c97 -89 154 -217 154 -347c0 -167 -85 -294 -233 -294c-137 0 -207 106 -207 220c0 125 83 254 228 254c40 0 71 -9 91 -17c-20 54 -49 105 -89 150zM124 227
c0 -92 41 -205 128 -205c74 0 138 82 138 235c0 70 -18 169 -114 169c-92 0 -152 -85 -152 -199z" />
    <glyph glyph-name="degree" unicode="&#xb0;" horiz-adv-x="322" 
d="M161 485c40 0 72 32 72 74s-32 74 -72 74s-72 -32 -72 -74s32 -74 72 -74zM161 439c-68 0 -122 54 -122 120s54 120 122 120s122 -54 122 -120s-54 -120 -122 -120z" />
    <glyph glyph-name="onehalf" unicode="&#xbd;" horiz-adv-x="862" 
d="M41 266v28l42 2c34 2 36 19 36 35v261c0 33 -8 30 -21 27l-63 -14l-4 30c115 31 167 48 167 48l3 -4s-8 -21 -8 -68v-280c0 -15 -2 -30 -2 -30l79 -5l-3 -26zM556 0l-8 26c43 39 106 93 145 155c25 39 37 75 37 108c0 45 -32 65 -66 65c-36 0 -68 -14 -91 -34l-19 21
s52 70 134 70c56 0 117 -31 117 -100c0 -86 -99 -178 -176 -255h115c40 0 48 18 59 54h28l-17 -110h-258zM251 0h-57l393 682l47 -16z" />
    <glyph glyph-name="onequarter" unicode="&#xbc;" horiz-adv-x="804" 
d="M467 114l-6 35l193 252l57 11s-4 -27 -4 -70v-186h68l-11 -42h-57v-54c0 -15 -2 -30 -2 -30l54 -5l-2 -23l-168 -4v24c28 3 45 18 45 38v54h-167zM507 156h127v161zM43 266v28l42 2c34 2 36 19 36 35v261c0 33 -8 30 -21 27l-63 -14l-4 30c115 31 167 48 167 48l3 -4
s-8 -21 -8 -68v-280c0 -15 -2 -30 -2 -30l79 -5l-3 -26zM252 0h-57l393 682l47 -16z" />
    <glyph glyph-name="onesuperior" unicode="&#xb9;" horiz-adv-x="268" 
d="M31 374v28l42 2c34 2 36 19 36 35v261c0 33 -8 30 -21 27l-63 -14l-4 30c115 31 167 48 167 48l3 -4s-8 -21 -8 -68v-280c0 -15 -2 -30 -2 -30l79 -5l-3 -26z" />
    <glyph glyph-name="threequarters" unicode="&#xbe;" horiz-adv-x="797" 
d="M458 114l-6 35l193 252l57 11s-4 -27 -4 -70v-186h68l-11 -42h-57v-54c0 -15 -2 -30 -2 -30l54 -5l-2 -23l-168 -4v24c28 3 45 18 45 38v54h-167zM139 261c-43 0 -108 15 -108 48c0 17 13 24 29 24c40 0 44 -47 89 -47c37 0 71 50 71 94c0 46 -35 80 -95 80
c-12 0 -26 -2 -26 -2v35c55 4 98 44 98 88c0 36 -25 47 -49 47c-26 0 -55 -9 -77 -24l-19 21s44 54 121 54c46 0 101 -24 101 -83c0 -42 -57 -84 -96 -105c71 -10 123 -52 123 -104c0 -74 -83 -126 -162 -126zM243 0h-57l393 682l47 -16zM498 156h127v161z" />
    <glyph glyph-name="threesuperior" unicode="&#xb3;" horiz-adv-x="320" 
d="M128 369c-43 0 -108 15 -108 48c0 17 13 24 29 24c40 0 44 -47 89 -47c37 0 71 50 71 94c0 46 -35 80 -95 80c-12 0 -26 -2 -26 -2v35c55 4 98 44 98 88c0 36 -25 47 -49 47c-26 0 -55 -9 -77 -24l-19 21s44 54 121 54c46 0 101 -24 101 -83c0 -42 -57 -84 -96 -105
c71 -10 123 -52 123 -104c0 -74 -83 -126 -162 -126z" />
    <glyph glyph-name="twosuperior" unicode="&#xb2;" horiz-adv-x="331" 
d="M29 376l-8 26c43 39 106 93 145 155c25 39 37 75 37 108c0 45 -32 65 -66 65c-36 0 -68 -14 -91 -34l-19 21s52 70 134 70c56 0 117 -31 117 -100c0 -86 -99 -178 -176 -255h115c40 0 48 18 59 54h28l-17 -110h-258z" />
    <glyph glyph-name="brokenbar" unicode="&#xa6;" horiz-adv-x="252" 
d="M90 328v358h72v-358h-72zM90 173h72v-358h-72v358z" />
    <glyph glyph-name="infinity" unicode="&#x221e;" horiz-adv-x="792" 
d="M209 91c-90 0 -161 71 -161 159s71 159 161 159c79 0 150 -73 187 -120c37 47 107 120 187 120c90 0 161 -71 161 -159s-71 -159 -161 -159c-80 0 -150 72 -187 119c-37 -47 -108 -119 -187 -119zM209 141c70 0 157 109 157 109s-87 109 -157 109
c-57 0 -102 -47 -102 -109s45 -109 102 -109zM426 250c0 0 87 -109 157 -109c57 0 102 47 102 109s-45 109 -102 109c-70 0 -157 -109 -157 -109z" />
    <glyph glyph-name="partialdiff" unicode="&#x2202;" horiz-adv-x="493" 
d="M26 201c0 109 69 220 203 220c74 0 114 -34 132 -56v9c0 265 -124 328 -181 328c-39 0 -72 -28 -94 -28c-13 0 -32 11 -32 33c0 34 47 41 82 41c183 0 315 -191 315 -386c0 -120 -49 -374 -239 -374c-123 0 -186 108 -186 213zM207 24c92 0 146 150 153 314
c-15 11 -50 33 -93 33c-94 0 -156 -115 -156 -209c0 -70 35 -138 96 -138z" />
    <glyph glyph-name="summation" unicode="&#x2211;" horiz-adv-x="606" 
d="M24 -63l280 345l-274 362v23h467l26 -157l-33 -6c-46 90 -62 124 -153 124h-184l235 -314l-265 -326h249c86 0 118 15 163 105h34l-47 -183h-353c-50 0 -145 -3 -145 -3v30z" />
    <glyph glyph-name="product" unicode="&#x220f;" horiz-adv-x="728" 
d="M30 628v39h668v-39h-80l-10 -10v-615c0 -30 -5 -54 -5 -54l90 -9l-4 -28l-241 -6v32c44 5 72 28 72 62v628h-302l-10 -10v-615c0 -30 -5 -54 -5 -54l90 -9l-4 -28l-241 -6v32c45 5 72 29 72 65v625h-90z" />
    <glyph glyph-name="pi" unicode="&#x3c0;" horiz-adv-x="580" 
d="M37 360c29 57 77 90 148 90h355v-68h-91l-10 -10v-277c0 -40 2 -57 36 -57h38l3 -24s-59 -26 -91 -26c-41 0 -68 14 -68 60v334h-121l-10 -10v-29c0 -125 -33 -355 -131 -355c-24 0 -42 14 -42 37c0 56 84 45 106 115c20 65 28 113 28 213v29c-60 -1 -91 -10 -126 -39z
" />
    <glyph glyph-name="integral" unicode="&#x222b;" horiz-adv-x="496" 
d="M81 -157c36 0 54 -20 80 -20c35 0 50 5 50 210c0 67 -2 157 -2 271c0 323 45 445 197 445c32 0 61 -10 61 -42c0 -27 -25 -39 -47 -39c-38 0 -56 20 -83 20c-29 0 -43 -2 -43 -174c0 -56 3 -135 3 -236c0 -386 -37 -515 -205 -515c-32 0 -60 10 -60 42c0 26 25 38 49 38z
" />
    <glyph glyph-name="ordfeminine" unicode="&#xaa;" horiz-adv-x="388" 
d="M123 347c-51 0 -79 33 -79 72c0 68 83 107 174 117v29c0 24 1 87 -39 87c-42 0 -71 -70 -71 -70h-28l-12 57s52 40 132 40c69 0 87 -26 87 -101v-159c0 -21 2 -31 13 -31c15 0 39 18 39 18l13 -19s-36 -40 -78 -40c-29 0 -53 16 -53 59c0 0 -40 -59 -98 -59zM148 390
c31 0 70 40 70 40v79c-51 -6 -101 -32 -101 -77c0 -27 13 -42 31 -42z" />
    <glyph glyph-name="ordmasculine" unicode="&#xba;" horiz-adv-x="411" 
d="M199 347c-102 0 -157 70 -157 159c0 82 46 173 168 173c105 0 160 -67 160 -153c0 -87 -56 -179 -171 -179zM209 376c55 0 84 60 84 130c0 68 -25 145 -91 145c-60 0 -85 -64 -85 -128c0 -69 27 -147 92 -147z" />
    <glyph glyph-name="Omega" unicode="&#x3a9;" horiz-adv-x="777" 
d="M71 0l-37 158h34c40 -75 67 -80 153 -80h22c-56 54 -164 151 -164 291c0 183 137 310 311 310c176 0 309 -122 309 -307c0 -140 -115 -239 -164 -294h21c86 0 113 5 153 80h34l-37 -158h-245l-5 18c46 67 144 193 144 353c0 158 -80 268 -211 268
c-132 0 -211 -104 -211 -271c0 -161 114 -296 146 -349l-8 -19h-245z" />
    <glyph glyph-name="asciicircum" unicode="^" horiz-adv-x="550" 
d="M36 250l214 429h50l214 -429h-66l-174 350l-174 -350h-64z" />
    <glyph glyph-name="asciitilde" unicode="~" horiz-adv-x="589" 
d="M66 175c0 110 52 155 127 155c115 0 122 -104 199 -104c60 0 71 63 71 100h59c0 -110 -52 -155 -127 -155c-115 0 -122 104 -199 104c-60 0 -71 -63 -71 -100h-59z" />
    <glyph glyph-name="logicalnot" unicode="&#xac;" horiz-adv-x="520" 
d="M24 334v55h448v-278h-59v223h-389z" />
    <glyph glyph-name="radical" unicode="&#x221a;" horiz-adv-x="607" 
d="M18 395v55h174l115 -319l218 618h59l-277 -785h-2l-155 431h-132z" />
    <glyph glyph-name="approxequal" unicode="&#x2248;" horiz-adv-x="520" 
d="M48 287l-33 44c33 33 87 69 146 69c94 0 127 -70 198 -70c43 0 86 27 113 56l33 -44c-32 -33 -86 -69 -146 -69c-94 0 -127 70 -198 70c-43 0 -85 -28 -113 -56zM48 113l-33 44c33 33 87 69 146 69c94 0 127 -70 198 -70c43 0 86 28 113 56l33 -44
c-32 -33 -86 -69 -146 -69c-94 0 -127 70 -198 70c-43 0 -85 -28 -113 -56z" />
    <glyph glyph-name="Delta" unicode="&#x2206;" horiz-adv-x="619" 
d="M29 0v34l270 633h33l254 -633v-34h-557zM101 55h390l-191 492z" />
    <glyph glyph-name="lozenge" unicode="&#x25ca;" horiz-adv-x="503" 
d="M247 -38l-217 401l217 390h10l216 -390l-216 -401h-10zM252 59l159 305l-159 293l-160 -293z" />
    <glyph glyph-name="f.alt" horiz-adv-x="327" 
d="M37 -3v29c45 5 62 29 62 65v308h-63v30l63 22v29c0 139 71 242 187 242c49 0 85 -18 85 -50c0 -20 -15 -40 -41 -40c-37 0 -55 38 -90 38c-41 0 -59 -54 -59 -163v-57h141l-8 -48h-123l-10 -10v-301c0 -30 -5 -54 -5 -54l105 -9l-4 -25z" />
    <glyph glyph-name="f.alt3" horiz-adv-x="327" 
d="M37 -3v29c45 5 62 29 62 65v308h-63v30l63 22v20c0 120 46 246 151 246c31 0 66 -10 66 -45c0 -27 -23 -40 -40 -40c-31 0 -44 32 -64 32c-29 0 -31 -68 -31 -151v-63h141l-8 -48h-123l-10 -10v-301c0 -30 -5 -54 -5 -54l105 -9l-4 -25z" />
    <glyph glyph-name="ff.alt" horiz-adv-x="614" 
d="M324 -3v29c45 5 62 29 62 65v311h-195l-10 -10v-301c0 -30 -5 -54 -5 -54l80 -9l-4 -25l-215 -6v29c45 5 62 29 62 65v308h-63v30l63 22v2c0 149 84 250 229 250c43 0 96 -12 117 -39c32 36 75 58 128 58c49 0 85 -18 85 -50c0 -20 -15 -40 -41 -40c-37 0 -55 38 -90 38
c-41 0 -59 -54 -59 -163v-57h145l-7 -48h-128l-10 -10v-301c0 -30 -5 -54 -5 -54l105 -9l-4 -25zM181 480v-32h205v32c0 45 7 86 21 122c-40 7 -67 55 -126 55c-66 0 -100 -48 -100 -177z" />
    <glyph glyph-name="ff.alt3" horiz-adv-x="614" 
d="M324 -3v29c45 5 62 29 62 65v311h-195l-10 -10v-301c0 -30 -5 -54 -5 -54l80 -9l-4 -25l-215 -6v29c45 5 62 29 62 65v308h-63v30l63 22v2c0 149 84 250 229 250c41 0 90 -11 113 -34c24 29 55 48 96 48c31 0 66 -10 66 -45c0 -27 -23 -40 -40 -40c-31 0 -44 32 -64 32
c-29 0 -31 -68 -31 -151v-63h141l-8 -48h-123l-10 -10v-301c0 -30 -5 -54 -5 -54l105 -9l-4 -25zM181 480v-32h205v23c0 45 6 91 20 131c-39 8 -67 55 -125 55c-66 0 -100 -48 -100 -177z" />
    <glyph glyph-name="O_O" horiz-adv-x="1144" 
d="M45 322c0 174 126 357 365 357c67 0 126 -15 174 -41c50 26 109 41 178 41c212 0 337 -146 337 -322c0 -190 -144 -369 -362 -369c-67 0 -126 16 -176 45c-50 -29 -110 -45 -176 -45c-202 0 -340 153 -340 334zM747 357c0 -106 -45 -208 -121 -278c40 -30 87 -48 142 -48
c151 0 235 143 235 284c0 145 -91 321 -269 321c-41 0 -76 -10 -107 -25c77 -59 120 -152 120 -254zM397 322c0 99 41 202 121 271c-37 27 -83 43 -136 43c-157 0 -241 -136 -241 -272c0 -152 105 -333 275 -333c40 0 76 10 107 28c-79 61 -126 157 -126 263zM493 364
c0 -86 34 -182 94 -248c42 53 64 126 64 198c0 84 -31 179 -91 243c-44 -51 -67 -122 -67 -193z" />
    <glyph glyph-name="i_p" horiz-adv-x="810" 
d="M37 -3v29c45 5 62 29 62 65v243c0 43 -1 68 -30 68h-45v27c146 34 167 47 167 47l1 -3s-11 -33 -11 -114v-268c0 -30 -5 -54 -5 -54l85 -9l-4 -25zM366 -122v456c0 43 -1 68 -30 68h-40v26c87 22 117 65 117 123c0 75 -51 120 -124 120c-105 0 -97 -89 -151 -89
c-25 0 -44 18 -44 44c0 59 92 84 168 84c108 0 199 -52 199 -185c0 -47 -12 -91 -15 -141c27 34 65 78 144 78c122 0 182 -108 182 -218c0 -127 -81 -256 -257 -256c-27 0 -48 3 -67 6v-115c0 -30 -5 -57 -5 -57h105l-4 -24s-158 -19 -230 -43v29c45 25 52 48 52 94zM448 80
c0 -47 39 -54 71 -54c106 0 166 75 166 189c0 96 -42 189 -131 189c-39 0 -75 -18 -106 -42v-282z" />
    <glyph glyph-name="i_t" horiz-adv-x="623" 
d="M37 -3v29c45 5 62 29 62 65v243c0 43 -1 68 -30 68h-45v27c146 34 167 47 167 47l1 -3s-11 -33 -11 -114v-268c0 -30 -5 -54 -5 -54l85 -9l-4 -25zM363 119v215c0 29 3 65 3 65h-66v30c71 19 102 52 102 124c0 71 -51 118 -112 118c-108 0 -96 -89 -153 -89
c-23 0 -43 19 -43 42c0 61 92 86 164 86c104 0 192 -52 192 -186c0 -31 -6 -74 -6 -74h156l-7 -48h-138l-10 -10v-254c0 -58 17 -90 70 -90c45 0 90 21 90 21l13 -19s-57 -62 -144 -62c-71 0 -111 40 -111 131z" />
    <glyph glyph-name="c_k" horiz-adv-x="958" 
d="M38 216c0 121 76 246 214 246c9 0 19 -1 29 -2c-2 8 -8 32 -8 63c0 157 170 175 207 180c74 10 140 36 140 36l3 -3s-10 -37 -10 -114v-355h12l101 85c16 14 38 30 38 48c0 12 -11 19 -33 25v25h183l5 -16s-58 -15 -105 -55l-116 -99v-10s9 -13 16 -20l148 -160
c44 -48 53 -56 90 -59l11 -1l-4 -30l-144 -3s-12 37 -41 69l-149 168h-12v-143c0 -30 -5 -54 -5 -54l80 -9l-4 -25l-215 -6v29c45 5 62 29 62 65v519c0 37 -10 52 -55 52c-101 1 -161 -61 -161 -139c0 -32 10 -59 16 -73c42 -12 79 -32 79 -64c0 -19 -14 -36 -38 -36
c-51 0 -57 78 -127 78c-80 0 -125 -86 -125 -183c0 -96 47 -190 165 -190c75 0 116 41 116 41l11 -21s-46 -87 -162 -87c-140 0 -212 113 -212 228z" />
    <glyph glyph-name="g_i" horiz-adv-x="760" 
d="M67 73c0 42 58 62 94 81c-68 18 -120 67 -120 148c0 103 88 160 189 160c37 0 69 -8 96 -22c-9 28 -15 56 -15 83c0 107 102 172 209 172c52 0 99 -15 99 -56c0 -27 -20 -46 -44 -46c-36 0 -50 41 -116 41c-76 0 -106 -53 -106 -106c0 -89 65 -154 65 -229
c0 -100 -90 -154 -189 -154c-17 0 -34 1 -50 4c-7 -8 -25 -28 -25 -42c0 -27 60 -34 138 -50c84 -17 174 -45 174 -126c0 -98 -131 -168 -254 -168c-90 0 -188 37 -188 121c0 77 80 107 126 125c-47 12 -83 30 -83 64zM523 -3v29c45 5 62 29 62 65v243c0 43 -1 68 -30 68
h-45v27c146 33 167 47 167 47l1 -3s-11 -33 -11 -114v-268c0 -30 -5 -54 -5 -54l85 -9l-4 -25zM258 -13c-28 6 -57 11 -84 17c-24 -16 -71 -53 -71 -108c0 -62 60 -95 126 -95c73 0 154 40 154 101c0 51 -59 71 -125 85zM231 180c72 0 100 56 100 115c0 64 -33 132 -105 132
c-70 0 -98 -61 -98 -124c0 -62 29 -123 103 -123z" />
    <glyph glyph-name="s_p" horiz-adv-x="920" 
d="M476 -122v456c0 43 -1 68 -30 68h-40v27c87 21 115 63 115 115c0 71 -53 98 -113 98c-75 0 -146 -61 -146 -136c0 -18 3 -35 11 -53c37 -10 72 -28 72 -55c0 -23 -14 -38 -39 -38c-41 0 -49 68 -108 68c-56 0 -77 -33 -77 -64c0 -106 228 -87 228 -245
c0 -83 -65 -131 -160 -131c-46 0 -150 11 -150 68c0 20 13 76 13 76h30c6 -85 65 -110 113 -110c49 0 83 26 83 68c0 107 -229 100 -229 245c0 74 57 127 163 127c4 0 9 0 15 -1c-5 14 -7 28 -7 42c0 97 89 176 191 176c110 0 160 -64 160 -155c0 -45 -12 -90 -15 -140
c27 34 65 78 144 78c122 0 182 -108 182 -218c0 -127 -81 -256 -257 -256c-27 0 -48 3 -67 6v-115c0 -30 -5 -57 -5 -57h105l-4 -24s-158 -19 -230 -43v29c45 25 52 48 52 94zM558 80c0 -47 39 -54 72 -54c104 0 165 75 165 189c0 96 -42 189 -131 189
c-39 0 -75 -18 -106 -42v-282z" />
    <glyph glyph-name="q_u" horiz-adv-x="1078" 
d="M301 -247v29c45 25 62 50 62 96v110c0 46 4 66 4 74c-25 -33 -68 -74 -142 -74c-120 0 -188 108 -188 217c0 129 92 257 263 257c50 0 106 -11 151 -12l3 -3s-9 -37 -9 -100v-466c0 -29 -5 -56 -5 -56s48 -12 106 -12c56 0 113 14 113 64c0 16 -8 28 -8 43s11 34 37 34
c19 0 40 -12 40 -52c0 -45 -33 -78 -71 -99c-47 -26 -98 -27 -162 -27c-66 0 -131 -2 -194 -23zM124 233c0 -95 49 -187 137 -187c44 0 85 23 102 37v327s-32 14 -73 14c-92 0 -166 -75 -166 -191zM605 122v212c0 43 -1 68 -30 68h-35v28c97 17 152 37 152 37l4 -3
s-9 -28 -9 -105v-214c0 -76 27 -96 68 -96c46 0 102 27 145 71v214c0 43 -1 68 -30 68h-33v28c96 17 150 37 150 37l4 -3s-9 -28 -9 -105v-264c0 -57 23 -57 56 -57h28l-3 -27c-109 -11 -164 -20 -164 -20l-4 3s9 29 9 54v52c-36 -53 -102 -112 -186 -112
c-70 0 -113 38 -113 134z" />
    <glyph glyph-name="i.trk" horiz-adv-x="277" 
d="M38 -3v29c45 5 62 29 62 65v243c0 43 -1 68 -30 68h-45v27c146 34 167 47 167 47l1 -3s-11 -33 -11 -114v-268c0 -30 -5 -54 -5 -54l85 -9l-4 -25zM132 564c-29 0 -54 25 -54 54s25 54 54 54s54 -25 54 -54s-25 -54 -54 -54z" />
    <glyph glyph-name="zerosuperior" unicode="&#x2070;" horiz-adv-x="369" 
d="M185 397c57 0 66 98 66 182s-9 180 -66 180c-58 0 -68 -96 -68 -179c0 -85 10 -183 68 -183zM179 369c-103 0 -142 99 -142 201c0 107 44 217 152 217c105 0 143 -97 143 -198c0 -108 -45 -220 -153 -220z" />
    <glyph glyph-name="foursuperior" unicode="&#x2074;" horiz-adv-x="343" 
d="M16 490l-6 35l193 252l57 11s-4 -27 -4 -70v-186h68l-11 -42h-57v-54c0 -15 -2 -30 -2 -30l54 -5l-2 -23l-168 -4v24c28 3 45 18 45 38v54h-167zM56 532h127v161z" />
    <glyph glyph-name="fivesuperior" unicode="&#x2075;" horiz-adv-x="299" 
d="M124 369c-33 0 -93 13 -93 47c0 17 14 25 29 25c32 0 40 -47 73 -47c31 0 69 42 69 86c0 98 -157 105 -157 105l10 195h146c25 0 53 6 53 6l-10 -59h-158l-4 -81c36 -3 190 -26 190 -143c0 -68 -64 -134 -148 -134z" />
    <glyph glyph-name="sixsuperior" unicode="&#x2076;" horiz-adv-x="348" 
d="M32 539c0 115 80 248 243 248l4 -28c-122 -7 -166 -119 -166 -213c0 -75 29 -149 73 -149c37 0 58 53 58 100c0 49 -22 115 -80 104l-3 29s19 5 40 5c82 0 123 -61 123 -120c0 -67 -50 -146 -147 -146s-145 84 -145 170z" />
    <glyph glyph-name="sevensuperior" unicode="&#x2077;" horiz-adv-x="309" 
d="M100 369c-17 0 -24 11 -24 22s6 24 21 43c17 24 61 89 108 201l30 73h-135c-35 0 -43 -1 -56 -37h-28l19 109h227c19 0 43 5 43 5l1 -23s-21 -29 -29 -47l-110 -248c-19 -42 -37 -98 -67 -98z" />
    <glyph glyph-name="eightsuperior" unicode="&#x2078;" horiz-adv-x="336" 
d="M159 369c-53 0 -124 28 -124 95c0 62 39 90 82 118c-37 30 -69 65 -69 115c0 53 49 90 128 90c66 0 112 -33 112 -82c0 -52 -39 -77 -77 -102c46 -34 91 -71 91 -124c0 -66 -56 -110 -143 -110zM164 397c35 0 65 23 65 64s-45 71 -89 104c-25 -21 -41 -50 -41 -88
c0 -54 29 -80 65 -80zM120 708c0 -34 31 -61 67 -88c22 19 36 46 36 82c0 38 -23 57 -53 57c-28 0 -50 -16 -50 -51z" />
    <glyph glyph-name="ninesuperior" unicode="&#x2079;" horiz-adv-x="346" 
d="M71 369l-4 28c122 7 166 119 166 213c0 75 -29 149 -73 149c-34 0 -55 -53 -55 -100s19 -113 77 -104l3 -29s-19 -5 -40 -5c-79 0 -120 61 -120 120c0 67 50 146 144 146c97 0 145 -84 145 -170c0 -115 -80 -248 -243 -248z" />
    <glyph glyph-name="zeroinferior" unicode="&#x2080;" horiz-adv-x="367" 
d="M184 -92c57 0 66 98 66 182s-9 180 -66 180c-58 0 -68 -96 -68 -179c0 -85 10 -183 68 -183zM178 -120c-103 0 -142 99 -142 201c0 107 44 217 152 217c105 0 143 -97 143 -198c0 -108 -45 -220 -153 -220z" />
    <glyph glyph-name="oneinferior" unicode="&#x2081;" horiz-adv-x="267" 
d="M31 -115v28l42 2c34 2 36 19 36 35v261c0 33 -8 30 -21 27l-63 -14l-4 30c115 31 167 48 167 48l3 -4s-8 -21 -8 -68v-280c0 -15 -2 -30 -2 -30l79 -5l-3 -26z" />
    <glyph glyph-name="twoinferior" unicode="&#x2082;" horiz-adv-x="331" 
d="M29 -113l-8 26c43 39 106 93 145 155c25 39 37 75 37 108c0 45 -32 65 -66 65c-36 0 -68 -14 -91 -34l-19 21s52 70 134 70c56 0 117 -31 117 -100c0 -86 -99 -178 -176 -255h115c40 0 48 18 59 54h28l-17 -110h-258z" />
    <glyph glyph-name="threeinferior" unicode="&#x2083;" horiz-adv-x="318" 
d="M127 -120c-43 0 -108 15 -108 48c0 17 13 24 29 24c40 0 44 -47 89 -47c37 0 71 50 71 94c0 46 -35 80 -95 80c-12 0 -26 -2 -26 -2v35c55 4 98 44 98 88c0 36 -25 47 -49 47c-26 0 -55 -9 -77 -24l-19 21s44 54 121 54c46 0 101 -24 101 -83c0 -42 -57 -84 -96 -105
c71 -10 123 -52 123 -104c0 -74 -83 -126 -162 -126z" />
    <glyph glyph-name="fourinferior" unicode="&#x2084;" horiz-adv-x="343" 
d="M16 1l-6 35l193 252l57 11s-4 -27 -4 -70v-186h68l-11 -42h-57v-54c0 -15 -2 -30 -2 -30l54 -5l-2 -23l-168 -4v24c28 3 45 18 45 38v54h-167zM56 43h127v161z" />
    <glyph glyph-name="fiveinferior" unicode="&#x2085;" horiz-adv-x="299" 
d="M124 -120c-33 0 -93 13 -93 47c0 17 14 25 29 25c32 0 40 -47 73 -47c31 0 69 42 69 86c0 98 -157 105 -157 105l10 195h146c25 0 53 6 53 6l-10 -59h-158l-4 -81c36 -3 190 -26 190 -143c0 -68 -64 -134 -148 -134z" />
    <glyph glyph-name="sixinferior" unicode="&#x2086;" horiz-adv-x="347" 
d="M31 50c0 115 80 248 243 248l4 -28c-122 -7 -166 -119 -166 -213c0 -75 29 -149 73 -149c37 0 58 53 58 100c0 49 -22 115 -80 104l-3 29s19 5 40 5c82 0 123 -61 123 -120c0 -67 -50 -146 -147 -146s-145 84 -145 170z" />
    <glyph glyph-name="seveninferior" unicode="&#x2087;" horiz-adv-x="310" 
d="M101 -120c-17 0 -24 11 -24 22s6 24 21 43c17 24 61 89 108 201l30 73h-135c-35 0 -43 -1 -56 -37h-28l19 109h227c19 0 43 5 43 5l1 -23s-21 -29 -29 -47l-110 -248c-19 -42 -37 -98 -67 -98z" />
    <glyph glyph-name="eightinferior" unicode="&#x2088;" horiz-adv-x="335" 
d="M158 -120c-53 0 -124 28 -124 95c0 62 39 90 82 118c-37 30 -69 65 -69 115c0 53 49 90 128 90c66 0 112 -33 112 -82c0 -52 -39 -77 -77 -102c46 -34 91 -71 91 -124c0 -66 -56 -110 -143 -110zM163 -92c35 0 65 23 65 64s-45 71 -89 104c-25 -21 -41 -50 -41 -88
c0 -54 29 -80 65 -80zM119 219c0 -34 31 -61 67 -88c22 19 36 46 36 82c0 38 -23 57 -53 57c-28 0 -50 -16 -50 -51z" />
    <glyph glyph-name="nineinferior" unicode="&#x2089;" horiz-adv-x="344" 
d="M70 -120l-4 28c122 7 166 119 166 213c0 75 -29 149 -73 149c-34 0 -55 -53 -55 -100s19 -113 77 -104l3 -29s-19 -5 -40 -5c-79 0 -120 61 -120 120c0 67 50 146 144 146c97 0 145 -84 145 -170c0 -115 -80 -248 -243 -248z" />
    <glyph glyph-name="macron" unicode="&#xaf;" 
d="M136 589v59h228v-59h-228z" />
    <glyph glyph-name="breve" unicode="&#x2d8;" 
d="M250 541c-76 0 -130 49 -130 118c0 12 1 24 5 37h35v-9c0 -23 7 -84 90 -84c82 0 90 61 90 84v9h35c3 -13 5 -25 5 -37c0 -69 -54 -118 -130 -118z" />
    <glyph glyph-name="dotaccent" unicode="&#x2d9;" 
d="M250 564c-29 0 -54 25 -54 54s25 54 54 54s54 -25 54 -54s-25 -54 -54 -54z" />
    <glyph glyph-name="hungarumlaut" unicode="&#x2dd;" 
d="M128 505l-31 17l78 171l78 9v-27zM270 505l-31 17l78 171l78 9v-27z" />
    <glyph glyph-name="ogonek" unicode="&#x2db;" 
d="M165 -153c0 60 60 104 130 169l56 11l5 -5c-25 -17 -110 -89 -110 -155c0 -48 35 -64 67 -64c10 0 22 2 22 2l7 -25c-30 -11 -57 -17 -80 -17c-60 0 -97 37 -97 84z" />
    <glyph glyph-name="a.smcp" unicode="&#xf761;" 
d="M3 0v26c35 4 48 23 55 41l172 412l40 9l158 -394c23 -61 38 -65 64 -69l-4 -25h-39c-31 0 -132 -3 -132 -3v31c22 0 43 8 33 35l-36 91h-168l-13 -9l-44 -109l71 -11l-4 -25h-153zM249 322c-7 18 -15 42 -20 61l-77 -191h147z" />
    <glyph glyph-name="b.smcp" unicode="&#xf762;" horiz-adv-x="494" 
d="M48 -3v29c38 4 60 26 60 59v321c0 33 -11 41 -65 54v22h188c133 0 184 -48 184 -106c0 -65 -64 -106 -95 -120c41 -8 131 -37 131 -120c0 -75 -71 -136 -212 -136h-64c-45 0 -127 -3 -127 -3zM193 266h67c28 2 65 37 65 94c0 44 -24 86 -95 86h-27l-10 -10v-170zM189 36
h47c91 0 122 42 122 89c0 68 -77 105 -141 105h-14l-10 -10v-139c0 -23 -4 -45 -4 -45z" />
    <glyph glyph-name="c.smcp" unicode="&#xf763;" horiz-adv-x="542" 
d="M44 233c0 151 120 261 275 261c65 0 133 -19 173 -22l-23 -113h-32c-1 75 -58 99 -123 99c-125 0 -183 -91 -183 -193c0 -124 84 -213 208 -213c94 0 151 51 151 51l12 -20s-65 -95 -199 -95c-127 0 -259 85 -259 245z" />
    <glyph glyph-name="d.smcp" unicode="&#xf764;" horiz-adv-x="594" 
d="M48 -3v29c38 4 60 26 60 59v321c0 33 -11 41 -65 54v22h220c149 0 287 -63 287 -223c0 -163 -136 -259 -312 -259h-63c-45 0 -127 -3 -127 -3zM189 36h49c149 0 216 76 216 204c0 122 -67 206 -192 206h-60l-9 -8v-361c0 -22 -4 -41 -4 -41z" />
    <glyph glyph-name="e.smcp" unicode="&#xf765;" horiz-adv-x="478" 
d="M48 -3v29c38 4 60 26 60 59v321c0 33 -11 41 -65 54v22h323c31 0 57 3 57 3l-24 -126h-32c3 75 -21 87 -81 87h-83l-10 -9v-174h126l6 41l35 6v-137h-43v54h-114l-10 -10v-140c0 -22 -4 -41 -4 -41h106c64 0 73 11 111 86h32l-28 -122h-235c-45 0 -127 -3 -127 -3z" />
    <glyph glyph-name="f.smcp" unicode="&#xf766;" horiz-adv-x="442" 
d="M47 -3v29c37 4 60 26 60 58v324c0 35 -4 42 -59 53v21h317c30 0 56 3 56 3l-23 -126h-32c4 75 -21 87 -81 87h-82l-9 -8v-178h124l6 41l35 6v-136h-43v54h-113l-9 -9v-132c0 -27 -5 -48 -5 -48l94 -7l-3 -26z" />
    <glyph glyph-name="g.smcp" unicode="&#xf767;" horiz-adv-x="567" 
d="M44 231c0 130 89 263 287 263c64 0 139 -13 172 -16l-22 -116h-28c-1 79 -68 96 -126 96c-125 0 -188 -97 -188 -210c0 -129 83 -222 211 -222c20 0 44 2 67 7v86c0 43 -4 54 -78 66v22h187l4 -13s-30 -16 -30 -85v-103c-50 -5 -117 -18 -177 -18
c-152 0 -279 84 -279 243z" />
    <glyph glyph-name="h.smcp" unicode="&#xf768;" horiz-adv-x="642" 
d="M48 -3v29c38 4 60 26 60 59v308c0 44 0 53 -61 67v22h70c77 0 96 4 96 4l4 -4s-24 -34 -24 -111v-105h253l10 9v118c0 44 0 53 -66 67v22h75c77 0 96 4 96 4l4 -4s-24 -34 -24 -111v-286c0 -27 -4 -48 -4 -48l76 -9l-4 -25l-218 -6v29c41 4 65 26 65 59v142h-253l-10 -10
v-132c0 -27 -4 -48 -4 -48l76 -9l-4 -25z" />
    <glyph glyph-name="i.smcp" unicode="&#xf769;" horiz-adv-x="294" 
d="M48 -3v29c38 4 60 26 60 59v308c0 44 0 53 -61 67v22h70c77 0 96 4 96 4l4 -4s-24 -34 -24 -111v-286c0 -27 -4 -48 -4 -48l76 -9l-4 -25z" />
    <glyph glyph-name="j.smcp" unicode="&#xf76a;" horiz-adv-x="274" 
d="M100 43v350c0 44 0 53 -61 67v22h70c77 0 96 4 96 4l4 -4s-24 -34 -24 -111v-280c0 -134 -59 -216 -156 -216l-9 23c41 6 80 66 80 145z" />
    <glyph glyph-name="k.smcp" unicode="&#xf76b;" horiz-adv-x="537" 
d="M48 -3v29c38 4 60 26 60 59v308c0 44 0 53 -61 67v22h70c77 0 96 4 96 4l4 -4s-24 -34 -24 -111v-101h17s15 10 28 23l118 116c18 17 19 44 -24 49v24h169l5 -14s-47 -10 -120 -82l-104 -102v-12l175 -204c33 -36 38 -35 67 -38l-3 -30h-130l-2 3s-6 23 -52 76l-128 150
h-16v-144c0 -27 -4 -48 -4 -48l76 -9l-4 -25z" />
    <glyph glyph-name="l.smcp" unicode="&#xf76c;" horiz-adv-x="458" 
d="M47 -3v29c38 4 60 26 60 59v308c0 44 0 53 -61 67v22h70c77 0 96 4 96 4l4 -4s-24 -34 -24 -111v-294c0 -22 -4 -41 -4 -41h110c62 0 77 27 115 101h32l-31 -137h-240c-45 0 -127 -3 -127 -3z" />
    <glyph glyph-name="m.smcp" unicode="&#xf76d;" horiz-adv-x="717" 
d="M41 -3v29c37 4 58 22 60 56l12 314c2 36 1 51 -63 64v22h63c69 0 107 3 107 3l3 -3s7 -29 22 -67l91 -237c6 -18 14 -42 19 -60l133 315c6 15 18 49 18 49h29c63 0 90 3 90 3l4 -3s-26 -30 -24 -91l13 -312c1 -28 -3 -46 -3 -46l75 -5l-4 -26l-213 -5v29
c37 4 61 22 60 53l-14 326l-173 -405l-28 8l-163 411c-1 -10 -2 -21 -2 -28l-12 -309c-1 -26 -6 -49 -6 -49l78 -5l-4 -26z" />
    <glyph glyph-name="n.smcp" unicode="&#xf76e;" horiz-adv-x="622" 
d="M49 -3v29c37 4 60 23 60 56v287c0 62 -14 80 -67 91v22h28c37 0 88 3 88 3s9 -18 29 -38l259 -272c13 -14 28 -33 40 -48v260c0 41 -1 62 -69 69v26h161l4 -12s-57 -19 -57 -95v-379h-28l-309 333c-13 13 -29 33 -40 48v-295c0 -27 -4 -49 -4 -49l76 -5l-4 -26z" />
    <glyph glyph-name="o.smcp" unicode="&#xf76f;" horiz-adv-x="626" 
d="M44 234c0 128 96 260 279 260c169 0 259 -113 259 -236c0 -133 -104 -270 -280 -270c-166 0 -258 120 -258 246zM139 254c0 -116 65 -228 180 -228c109 0 168 108 168 213c0 106 -61 217 -179 217c-110 0 -169 -99 -169 -202z" />
    <glyph glyph-name="p.smcp" unicode="&#xf770;" horiz-adv-x="463" 
d="M48 -3v29c38 4 60 26 60 59v308c0 44 0 53 -61 67v22h196c90 0 193 -29 193 -129c0 -103 -104 -162 -195 -153v26c75 4 105 48 105 104c0 77 -59 116 -130 116h-13l-10 -9v-352c0 -27 -4 -48 -4 -48l76 -9l-4 -25z" />
    <glyph glyph-name="q.smcp" unicode="&#xf771;" horiz-adv-x="626" 
d="M44 233c0 130 96 261 279 261c169 0 259 -113 259 -236c0 -110 -71 -222 -195 -258c42 -31 106 -123 195 -123c9 0 18 1 27 2v-24s-40 -26 -90 -26c-88 0 -149 84 -181 118c-43 46 -64 38 -111 51c-119 32 -183 130 -183 235zM139 252c0 -112 65 -226 179 -226
c110 0 169 108 169 212c0 108 -61 218 -179 218c-110 0 -169 -98 -169 -204z" />
    <glyph glyph-name="r.smcp" unicode="&#xf772;" horiz-adv-x="516" 
d="M48 -3v29c38 4 60 26 60 59v308c0 44 0 53 -61 67v22h188c141 0 193 -56 193 -116c0 -63 -57 -105 -94 -127v-13l109 -154c28 -40 46 -40 70 -42l-4 -30h-129l-3 3s-11 32 -44 79l-88 125h-42l-10 -10v-112c0 -27 -4 -48 -4 -48l76 -9l-4 -25zM193 243h58
c40 0 87 33 87 101c0 56 -32 102 -114 102h-21l-10 -10v-193z" />
    <glyph glyph-name="s.smcp" unicode="&#xf773;" horiz-adv-x="416" 
d="M47 61c0 9 3 19 20 77h32c0 -92 56 -114 107 -114c44 0 86 18 86 66c0 117 -236 119 -236 271c0 75 59 133 174 133c52 0 113 -12 129 -14l-24 -118h-32c6 77 -38 96 -83 96c-49 0 -84 -23 -84 -67c0 -117 235 -110 235 -269c0 -89 -76 -134 -172 -134
c-68 0 -152 21 -152 73z" />
    <glyph glyph-name="t.smcp" unicode="&#xf774;" horiz-adv-x="517" 
d="M153 -3v29c37 4 60 26 60 58v362h-64c-49 0 -72 -14 -101 -88h-32l23 128s20 -4 50 -4h362c31 0 54 4 54 4l-23 -128h-31c2 74 -23 88 -80 88h-61l-10 -10v-352c0 -27 -5 -48 -5 -48l85 -8l-3 -26z" />
    <glyph glyph-name="u.smcp" unicode="&#xf775;" horiz-adv-x="588" 
d="M89 169v224c0 44 0 53 -61 67v22h70c77 0 96 4 96 4l4 -4s-24 -34 -24 -111v-196c0 -104 72 -148 143 -148s143 48 143 143v220c0 39 -1 60 -68 67v25h164l4 -12s-57 -17 -57 -92v-206c0 -124 -93 -184 -207 -184c-101 0 -207 46 -207 181z" />
    <glyph glyph-name="v.smcp" unicode="&#xf776;" horiz-adv-x="491" 
d="M225 3l-172 418c-14 34 -47 39 -47 39v22h48c46 0 96 3 96 3l3 -3s-17 -37 -5 -67l97 -244c7 -18 15 -43 20 -62l117 272c18 42 3 66 -37 78v23h132l3 -13s-26 -19 -59 -96l-164 -382z" />
    <glyph glyph-name="w.smcp" unicode="&#xf777;" horiz-adv-x="756" 
d="M253 -9l-30 12l-172 418c-14 34 -47 39 -47 39v22h48c46 0 95 3 95 3l3 -3s-17 -37 -5 -67l94 -237l20 -62l99 265l-16 40c-14 34 -47 39 -47 39v22h48c46 0 95 3 95 3l3 -3s-16 -37 -5 -67l89 -234c6 -18 13 -43 18 -63l99 263c15 43 3 66 -37 78v23h132l3 -13
s-31 -17 -59 -96l-144 -382l-28 12l-130 324z" />
    <glyph glyph-name="x.smcp" unicode="&#xf778;" horiz-adv-x="516" 
d="M316 -4v29c30 4 37 15 23 36l-92 135l-119 -159l77 -9l-4 -28h-180v26c40 4 66 21 77 36l126 168l-141 200c-17 24 -50 30 -50 30v22h46c46 0 97 3 97 3l3 -3s-12 -27 5 -52l92 -135l83 111c17 23 9 47 -29 54v22h142l4 -14s-27 -8 -57 -46l-120 -161l161 -229l41 -7
l-4 -25h-41c-40 0 -140 -4 -140 -4z" />
    <glyph glyph-name="y.smcp" unicode="&#xf779;" horiz-adv-x="459" 
d="M128 -3v29c38 4 60 26 60 59v128l-140 216c-19 28 -40 32 -40 32v21h40c59 0 94 3 94 3l3 -3s-15 -28 1 -53l76 -119c10 -15 21 -37 29 -54l96 147c15 24 9 50 -31 57v22h139l3 -12s-28 -11 -57 -54l-128 -197v-134c0 -27 -4 -48 -4 -48l76 -9l-4 -25z" />
    <glyph glyph-name="z.smcp" unicode="&#xf77a;" horiz-adv-x="485" 
d="M38 -3l-4 27s15 12 41 51l217 323c9 14 25 33 37 48h-131c-57 0 -84 -12 -113 -87h-32l20 123h308c30 0 48 3 48 3l3 -26s-14 -16 -37 -51l-215 -324c-10 -15 -25 -34 -37 -48h155c60 0 78 20 116 100h32l-31 -136h-329c-29 0 -48 -3 -48 -3z" />
    <glyph glyph-name="ae.smcp" unicode="&#xf7e6;" horiz-adv-x="708" 
d="M-1 0v26c35 4 51 25 60 41l205 351c11 19 -4 30 -43 41v23h375c31 0 57 3 57 3l-24 -126h-32c3 75 -21 87 -81 87h-83l-10 -9v-179h126l6 46l35 6v-137h-43v49h-114l-10 -10v-135c0 -22 -4 -41 -4 -41h106c64 0 73 11 111 86h32l-28 -122h-235c-45 0 -127 -3 -127 -3v29
c38 4 60 26 60 59v137h-128l-16 -10l-102 -176l71 -11l-4 -25h-160zM309 412l-89 -154h118v188c-8 -5 -18 -14 -29 -34z" />
    <glyph glyph-name="oe.smcp" unicode="&#xf6fa;" horiz-adv-x="777" 
d="M44 234c0 128 96 260 279 260c47 0 73 -12 117 -12h225c31 0 57 3 57 3l-24 -126h-32c3 75 -21 87 -81 87h-83l-10 -9v-174h126l6 41l35 6v-137h-43v54h-114l-10 -10v-140c0 -22 -4 -41 -4 -41h106c64 0 73 11 111 86h32l-28 -122h-255c-76 -1 -105 -12 -152 -12
c-166 0 -258 120 -258 246zM139 254c0 -116 65 -228 180 -228c39 0 88 10 88 57v327c0 33 -44 46 -90 46c-120 0 -178 -99 -178 -202z" />
    <glyph glyph-name="exclam.smcp" unicode="&#xf721;" horiz-adv-x="252" 
d="M109 161l-44 316c89 15 116 23 116 23l3 -2s-11 -20 -17 -68l-33 -269h-25zM63 45c0 31 26 57 57 57s57 -26 57 -57s-26 -57 -57 -57s-57 26 -57 57z" />
    <glyph glyph-name="ampersand.smcp" unicode="&#xf726;" horiz-adv-x="546" 
d="M37 109c0 66 55 98 116 135c-28 48 -44 93 -44 128c0 52 32 122 129 122c78 0 122 -40 122 -93c0 -62 -61 -107 -117 -142c35 -51 81 -104 126 -150c39 47 60 106 60 146c0 31 -13 45 -48 49v23h120l5 -11c-13 -22 -14 -29 -28 -72c-16 -47 -41 -109 -83 -161
c51 -49 100 -86 130 -101l-11 -16c-55 3 -114 29 -169 68c-36 -28 -82 -46 -137 -46c-81 0 -171 37 -171 121zM227 35c32 0 60 9 85 24c-56 45 -106 103 -143 159c-36 -26 -52 -50 -52 -86c0 -62 44 -97 110 -97zM183 402c0 -32 16 -73 43 -116c34 27 55 59 55 104
c0 31 -11 68 -51 68c-30 0 -47 -26 -47 -56z" />
    <glyph glyph-name="parenleft.smcp" unicode="&#xf618;" horiz-adv-x="284" 
d="M48 260c0 236 157 371 157 371l34 -12s-118 -147 -118 -359c0 -250 141 -410 141 -410l-32 -15s-182 157 -182 425z" />
    <glyph glyph-name="parenright.smcp" unicode="&#xf619;" horiz-adv-x="283" 
d="M22 -150c0 0 141 160 141 410c0 212 -118 359 -118 359l34 12s157 -135 157 -371c0 -268 -182 -425 -182 -425z" />
    <glyph glyph-name="slash.smcp" unicode="&#xe467;" horiz-adv-x="342" 
d="M-16 -160l302 782h64l-301 -782h-65z" />
    <glyph glyph-name="question.smcp" unicode="&#xf73f;" horiz-adv-x="301" 
d="M106 161c0 0 -3 23 -3 32c0 86 72 115 72 162c0 40 -131 79 -131 79l19 81s211 -53 211 -148c0 -61 -143 -93 -143 -206h-25zM66 45c0 31 26 57 57 57s57 -26 57 -57s-26 -57 -57 -57s-57 26 -57 57z" />
    <glyph glyph-name="bracketleft.smcp" unicode="&#xf60e;" horiz-adv-x="288" 
d="M86 -155v782h183v-45h-118v-692h118v-45h-183z" />
    <glyph glyph-name="backslash.smcp" unicode="&#xe468;" horiz-adv-x="343" 
d="M294 -160l-302 782h64l303 -782h-65z" />
    <glyph glyph-name="bracketright.smcp" unicode="&#xf60f;" horiz-adv-x="288" 
d="M19 -110h118v692h-118v45h183v-782h-183v45z" />
    <glyph glyph-name="braceleft.smcp" unicode="&#xf60c;" horiz-adv-x="344" 
d="M132 4c0 69 7 223 -127 226v35c134 3 127 141 127 203c0 113 87 160 204 160l5 -36c-123 -9 -137 -53 -137 -177c0 -117 -57 -150 -111 -166v-2c54 -19 111 -57 111 -190c0 -123 14 -167 137 -177l-5 -36c-117 0 -204 40 -204 160z" />
    <glyph glyph-name="bar.smcp" unicode="&#xe469;" horiz-adv-x="237" 
d="M86 -150v783h65v-783h-65z" />
    <glyph glyph-name="braceright.smcp" unicode="&#xf60d;" horiz-adv-x="344" 
d="M3 -120c123 10 137 54 137 177c0 133 57 171 111 190v2c-54 16 -111 49 -111 166c0 124 -14 168 -137 177l5 36c117 0 204 -47 204 -160c0 -62 -7 -200 127 -203v-35c-134 -3 -127 -157 -127 -226c0 -120 -87 -160 -204 -160z" />
    <glyph glyph-name="ordfeminine.smcp" unicode="&#xe351;" horiz-adv-x="455" 
d="M48 296v23c26 3 35 16 40 29l125 299l35 8l115 -287c18 -44 27 -47 46 -50l-3 -22h-30c-23 0 -103 -2 -103 -2v27c15 0 31 5 24 22l-23 59h-117l-12 -9l-26 -66l50 -8l-3 -23h-118zM196 519l-35 -86h101l-32 86c-8 20 -15 52 -15 52h-2s-9 -32 -17 -52z" />
    <glyph glyph-name="ordmasculine.smcp" unicode="&#xe352;" horiz-adv-x="477" 
d="M231 289c-122 0 -189 88 -189 180c0 93 70 190 204 190c125 0 190 -83 190 -173c0 -97 -76 -197 -205 -197zM243 320c77 0 119 78 119 153s-44 154 -127 154c-77 0 -119 -70 -119 -144c0 -82 46 -163 127 -163z" />
    <glyph glyph-name="questiondown.smcp" unicode="&#xf7bf;" horiz-adv-x="298" 
d="M194 322c0 0 3 -23 3 -32c0 -86 -72 -115 -72 -162c0 -40 131 -79 131 -79l-19 -81s-211 53 -211 148c0 61 143 93 143 206h25zM234 438c0 -31 -26 -57 -57 -57s-57 26 -57 57s26 57 57 57s57 -26 57 -57z" />
    <glyph glyph-name="exclamdown.smcp" unicode="&#xf7a1;" horiz-adv-x="254" 
d="M141 321l44 -316c-89 -15 -116 -23 -116 -23l-3 2s11 20 17 68l33 269h25zM187 437c0 -31 -26 -57 -57 -57s-57 26 -57 57s26 57 57 57s57 -26 57 -57z" />
    <glyph glyph-name="eth.smcp" unicode="&#xf7f0;" horiz-adv-x="594" 
d="M35 225v40h73v141c0 33 -11 41 -65 54v22h220c149 0 287 -63 287 -223c0 -163 -136 -259 -312 -259h-63c-45 0 -127 -3 -127 -3v29c38 4 60 26 60 59v140h-73zM189 36h49c149 0 216 76 216 204c0 122 -67 206 -192 206h-60l-9 -8v-173h112v-40h-112v-148
c0 -22 -4 -41 -4 -41z" />
    <glyph glyph-name="thorn.smcp" unicode="&#xf7fe;" horiz-adv-x="464" 
d="M48 -3v29c38 4 60 26 60 59v308c0 44 0 53 -61 67v22h70c77 0 96 4 96 4l4 -4s-24 -35 -24 -111h50c90 0 193 -26 193 -116c0 -97 -104 -152 -195 -143v26c71 4 100 44 100 94c0 70 -57 103 -125 103h-13l-10 -9v-241c0 -27 -4 -48 -4 -48l76 -9l-4 -25z" />
    <glyph glyph-name="lslash.smcp" unicode="&#xf6f9;" horiz-adv-x="469" 
d="M51 158v49l65 44v142c0 44 0 53 -61 67v22h70c77 0 96 4 96 4l4 -4s-24 -34 -24 -111v-67l114 79v-49l-114 -78v-179c0 -22 -4 -41 -4 -41h110c62 0 77 27 115 101h32l-31 -137h-240c-45 0 -127 -3 -127 -3v29c38 4 60 26 60 59v117z" />
    <glyph glyph-name="oslash.smcp" unicode="&#xf7f8;" horiz-adv-x="626" 
d="M44 234c0 128 96 260 279 260c51 0 95 -10 131 -28l35 46h54l-52 -69c60 -45 91 -113 91 -185c0 -133 -104 -270 -280 -270c-50 0 -93 11 -129 29l-35 -47h-55l53 71c-60 47 -92 118 -92 193zM139 254c0 -56 15 -110 43 -152l234 313c-28 25 -64 41 -108 41
c-110 0 -169 -99 -169 -202zM487 239c0 51 -14 102 -42 143l-234 -314c28 -26 64 -42 108 -42c109 0 168 108 168 213z" />
    <glyph glyph-name="zero.numr" unicode="&#xf661;" horiz-adv-x="398" 
d="M199 284c57 0 66 98 66 182s-9 180 -66 180c-58 0 -68 -96 -68 -179c0 -85 10 -183 68 -183zM193 256c-103 0 -142 99 -142 201c0 107 44 217 152 217c105 0 143 -97 143 -198c0 -108 -45 -220 -153 -220z" />
    <glyph glyph-name="one.numr" unicode="&#xf662;" horiz-adv-x="300" 
d="M48 261v28l42 2c34 2 36 19 36 35v261c0 33 -8 30 -21 27l-63 -14l-4 30c115 31 167 48 167 48l3 -4s-8 -21 -8 -68v-280c0 -15 -2 -30 -2 -30l79 -5l-3 -26z" />
    <glyph glyph-name="two.numr" unicode="&#xf663;" horiz-adv-x="362" 
d="M45 263l-8 26c43 39 106 93 145 155c25 39 37 75 37 108c0 45 -32 65 -66 65c-36 0 -68 -14 -91 -34l-19 21s52 70 134 70c56 0 117 -31 117 -100c0 -86 -99 -178 -176 -255h115c40 0 48 18 59 54h28l-17 -110h-258z" />
    <glyph glyph-name="three.numr" unicode="&#xf664;" horiz-adv-x="349" 
d="M142 256c-43 0 -108 15 -108 48c0 17 13 24 29 24c40 0 44 -47 89 -47c37 0 71 50 71 94c0 46 -35 80 -95 80c-12 0 -26 -2 -26 -2v35c55 4 98 44 98 88c0 36 -25 47 -49 47c-26 0 -55 -9 -77 -24l-19 21s44 54 121 54c46 0 101 -24 101 -83c0 -42 -57 -84 -96 -105
c71 -10 123 -52 123 -104c0 -74 -83 -126 -162 -126z" />
    <glyph glyph-name="four.numr" unicode="&#xf665;" horiz-adv-x="373" 
d="M31 377l-6 35l193 252l57 11s-4 -27 -4 -70v-186h68l-11 -42h-57v-54c0 -15 -2 -30 -2 -30l54 -5l-2 -23l-168 -4v24c28 3 45 18 45 38v54h-167zM71 419h127v161z" />
    <glyph glyph-name="five.numr" unicode="&#xf666;" horiz-adv-x="331" 
d="M140 256c-33 0 -93 13 -93 47c0 17 14 25 29 25c32 0 40 -47 73 -47c31 0 69 42 69 86c0 98 -157 105 -157 105l10 195h146c25 0 53 6 53 6l-10 -59h-158l-4 -81c36 -3 190 -26 190 -143c0 -68 -64 -134 -148 -134z" />
    <glyph glyph-name="six.numr" unicode="&#xf667;" horiz-adv-x="378" 
d="M47 426c0 115 80 248 243 248l4 -28c-122 -7 -166 -119 -166 -213c0 -75 29 -149 73 -149c37 0 58 53 58 100c0 49 -22 115 -80 104l-3 29s19 5 40 5c82 0 123 -61 123 -120c0 -67 -50 -146 -147 -146s-145 84 -145 170z" />
    <glyph glyph-name="seven.numr" unicode="&#xf668;" horiz-adv-x="341" 
d="M116 256c-17 0 -24 11 -24 22s6 24 21 43c17 24 61 89 108 201l30 73h-135c-35 0 -43 -1 -56 -37h-28l19 109h227c19 0 43 5 43 5l1 -23s-21 -29 -29 -47l-110 -248c-19 -42 -37 -98 -67 -98z" />
    <glyph glyph-name="eight.numr" unicode="&#xf669;" horiz-adv-x="366" 
d="M174 256c-53 0 -124 28 -124 95c0 62 39 90 82 118c-37 30 -69 65 -69 115c0 53 49 90 128 90c66 0 112 -33 112 -82c0 -52 -39 -77 -77 -102c46 -34 91 -71 91 -124c0 -66 -56 -110 -143 -110zM179 284c35 0 65 23 65 64s-45 71 -89 104c-25 -21 -41 -50 -41 -88
c0 -54 29 -80 65 -80zM135 595c0 -34 31 -61 67 -88c22 19 36 46 36 82c0 38 -23 57 -53 57c-28 0 -50 -16 -50 -51z" />
    <glyph glyph-name="nine.numr" unicode="&#xf66a;" horiz-adv-x="375" 
d="M86 256l-4 28c122 7 166 119 166 213c0 75 -29 149 -73 149c-34 0 -55 -53 -55 -100s19 -113 77 -104l3 -29s-19 -5 -40 -5c-79 0 -120 61 -120 120c0 67 50 146 144 146c97 0 145 -84 145 -170c0 -115 -80 -248 -243 -248z" />
    <glyph glyph-name="zero.dnom" unicode="&#xf655;" horiz-adv-x="399" 
d="M200 21c57 0 66 98 66 182s-9 180 -66 180c-58 0 -68 -96 -68 -179c0 -85 10 -183 68 -183zM194 -7c-103 0 -142 99 -142 201c0 107 44 217 152 217c105 0 143 -97 143 -198c0 -108 -45 -220 -153 -220z" />
    <glyph glyph-name="one.dnom" unicode="&#xf656;" horiz-adv-x="298" 
d="M46 -2v28l42 2c34 2 36 19 36 35v261c0 33 -8 30 -21 27l-63 -14l-4 30c115 31 167 48 167 48l3 -4s-8 -21 -8 -68v-280c0 -15 -2 -30 -2 -30l79 -5l-3 -26z" />
    <glyph glyph-name="two.dnom" unicode="&#xf657;" horiz-adv-x="361" 
d="M44 0l-8 26c43 39 106 93 145 155c25 39 37 75 37 108c0 45 -32 65 -66 65c-36 0 -68 -14 -91 -34l-19 21s52 70 134 70c56 0 117 -31 117 -100c0 -86 -99 -178 -176 -255h115c40 0 48 18 59 54h28l-17 -110h-258z" />
    <glyph glyph-name="three.dnom" unicode="&#xf658;" horiz-adv-x="351" 
d="M143 -7c-43 0 -108 15 -108 48c0 17 13 24 29 24c40 0 44 -47 89 -47c37 0 71 50 71 94c0 46 -35 80 -95 80c-12 0 -26 -2 -26 -2v35c55 4 98 44 98 88c0 36 -25 47 -49 47c-26 0 -55 -9 -77 -24l-19 21s44 54 121 54c46 0 101 -24 101 -83c0 -42 -57 -84 -96 -105
c71 -10 123 -52 123 -104c0 -74 -83 -126 -162 -126z" />
    <glyph glyph-name="four.dnom" unicode="&#xf659;" horiz-adv-x="374" 
d="M31 114l-6 35l193 252l57 11s-4 -27 -4 -70v-186h68l-11 -42h-57v-54c0 -15 -2 -30 -2 -30l54 -5l-2 -23l-168 -4v24c28 3 45 18 45 38v54h-167zM71 156h127v161z" />
    <glyph glyph-name="five.dnom" unicode="&#xf65a;" horiz-adv-x="330" 
d="M139 -7c-33 0 -93 13 -93 47c0 17 14 25 29 25c32 0 40 -47 73 -47c31 0 69 42 69 86c0 98 -157 105 -157 105l10 195h146c25 0 53 6 53 6l-10 -59h-158l-4 -81c36 -3 190 -26 190 -143c0 -68 -64 -134 -148 -134z" />
    <glyph glyph-name="six.dnom" unicode="&#xf65b;" horiz-adv-x="378" 
d="M47 163c0 115 80 248 243 248l4 -28c-122 -7 -166 -119 -166 -213c0 -75 29 -149 73 -149c37 0 58 53 58 100c0 49 -22 115 -80 104l-3 29s19 5 40 5c82 0 123 -61 123 -120c0 -67 -50 -146 -147 -146s-145 84 -145 170z" />
    <glyph glyph-name="seven.dnom" unicode="&#xf65c;" horiz-adv-x="339" 
d="M115 -7c-17 0 -24 11 -24 22s6 24 21 43c17 24 61 89 108 201l30 73h-135c-35 0 -43 -1 -56 -37h-28l19 109h227c19 0 43 5 43 5l1 -23s-21 -29 -29 -47l-110 -248c-19 -42 -37 -98 -67 -98z" />
    <glyph glyph-name="eight.dnom" unicode="&#xf65d;" horiz-adv-x="366" 
d="M174 -7c-53 0 -124 28 -124 95c0 62 39 90 82 118c-37 30 -69 65 -69 115c0 53 49 90 128 90c66 0 112 -33 112 -82c0 -52 -39 -77 -77 -102c46 -34 91 -71 91 -124c0 -66 -56 -110 -143 -110zM179 21c35 0 65 23 65 64s-45 71 -89 104c-25 -21 -41 -50 -41 -88
c0 -54 29 -80 65 -80zM135 332c0 -34 31 -61 67 -88c22 19 36 46 36 82c0 38 -23 57 -53 57c-28 0 -50 -16 -50 -51z" />
    <glyph glyph-name="nine.dnom" unicode="&#xf65e;" horiz-adv-x="376" 
d="M86 -7l-4 28c122 7 166 119 166 213c0 75 -29 149 -73 149c-34 0 -55 -53 -55 -100s19 -113 77 -104l3 -29s-19 -5 -40 -5c-79 0 -120 61 -120 120c0 67 50 146 144 146c97 0 145 -84 145 -170c0 -115 -80 -248 -243 -248z" />
    <glyph glyph-name="zero.pnum" unicode="&#xe534;" horiz-adv-x="563" 
d="M281 28c105 0 122 165 122 307c0 141 -16 304 -121 304c-106 0 -123 -162 -123 -303c0 -142 18 -308 122 -308zM274 -12c-153 0 -213 164 -213 332c0 177 68 359 228 359c154 0 212 -161 212 -327c0 -179 -68 -364 -227 -364z" />
    <glyph glyph-name="one.pnum" unicode="&#xe536;" horiz-adv-x="396" 
d="M44 -3v37l56 3c67 4 71 33 71 62v436c0 63 -5 66 -34 59l-105 -27l-6 42c170 51 243 80 243 80l3 -3s-13 -40 -13 -117v-470c0 -30 -5 -54 -5 -54l130 -9l-4 -33z" />
    <glyph glyph-name="two.pnum" unicode="&#xe537;" horiz-adv-x="504" 
d="M30 33c107 103 291 280 291 457c0 79 -52 115 -114 115c-52 0 -111 -24 -152 -64l-23 25s85 113 209 113c83 0 173 -39 173 -165c0 -141 -188 -339 -279 -436h188c78 0 91 30 109 91h34l-26 -169h-399z" />
    <glyph glyph-name="three.pnum" unicode="&#xe538;" horiz-adv-x="480" 
d="M24 64c0 21 16 38 35 38c52 0 59 -78 143 -78c77 0 130 81 130 151c0 83 -58 145 -169 145c-17 0 -29 -2 -29 -2v52c97 5 160 80 160 152c0 57 -41 88 -94 88c-60 0 -121 -44 -121 -44l-22 25s70 88 172 88c80 0 158 -40 158 -133c0 -80 -87 -155 -148 -180
c110 -9 191 -77 191 -171c0 -113 -114 -207 -234 -207c-62 0 -172 25 -172 76z" />
    <glyph glyph-name="four.pnum" unicode="&#xe529;" horiz-adv-x="519" 
d="M23 190l-11 49l311 424l60 16l3 -3s-5 -32 -5 -109v-316h108l-14 -61h-94v-96c0 -30 -5 -54 -5 -54l90 -9l-4 -28l-241 -6v32c45 5 72 29 72 65v96h-270zM293 251v242c0 20 2 46 4 65l-223 -307h219z" />
    <glyph glyph-name="five.pnum" unicode="&#xe53a;" horiz-adv-x="442" 
d="M42 64c0 21 16 38 35 38c40 0 54 -78 117 -78c58 0 123 64 123 148c0 160 -253 186 -253 186l16 309h224c39 0 70 6 70 6l-14 -80h-241l-8 -158s294 -39 294 -237c0 -107 -93 -210 -226 -210c-54 0 -137 25 -137 76z" />
    <glyph glyph-name="six.pnum" unicode="&#xe53b;" horiz-adv-x="528" 
d="M272 -12c-146 0 -218 138 -218 281c0 190 121 410 363 410l6 -40c-199 -12 -275 -201 -271 -359c0 -127 51 -252 134 -252c73 0 111 90 111 170c0 94 -58 218 -170 168l-7 37s34 22 91 22c119 0 181 -100 181 -196c0 -111 -76 -241 -220 -241z" />
    <glyph glyph-name="seven.pnum" unicode="&#xe53c;" horiz-adv-x="461" 
d="M311 430l67 157c-19 -2 -45 -4 -65 -4h-159c-67 0 -83 -1 -103 -61h-34l29 145h354c32 0 57 4 57 4l3 -29s-34 -48 -47 -79l-208 -490c-24 -56 -31 -85 -61 -85c-22 0 -35 16 -35 32c0 21 11 31 36 70c28 43 77 131 166 340z" />
    <glyph glyph-name="eight.pnum" unicode="&#xe53d;" horiz-adv-x="516" 
d="M54 155c0 96 69 149 141 194c-63 50 -117 105 -117 177c0 87 78 153 192 153c103 0 171 -56 171 -139c0 -81 -66 -128 -132 -169c76 -59 154 -122 154 -206c0 -96 -90 -177 -212 -177c-93 0 -197 49 -197 167zM140 168c0 -77 39 -140 114 -140c69 0 121 50 121 115
c0 70 -76 124 -151 182c-48 -36 -84 -90 -84 -157zM166 545c0 -56 52 -103 113 -151c44 33 76 80 76 137c0 61 -28 108 -93 108s-96 -46 -96 -94z" />
    <glyph glyph-name="nine.pnum" unicode="&#xe53e;" horiz-adv-x="522" 
d="M99 28c199 12 271 201 271 359c0 127 -51 252 -134 252c-70 0 -106 -90 -106 -170c0 -93 55 -213 165 -163l7 -37s-41 -22 -91 -22c-116 0 -176 97 -176 191c0 111 74 241 215 241c146 0 218 -138 218 -281c0 -190 -121 -410 -363 -410z" />
    <glyph glyph-name="zero.onum_tab" unicode="&#xe555;" horiz-adv-x="520" 
d="M259 35c89 0 140 101 140 204c0 97 -52 196 -139 196c-89 0 -140 -100 -140 -198c0 -102 52 -202 139 -202zM35 228c0 127 77 254 232 254c144 0 217 -115 217 -234c0 -127 -77 -260 -232 -260c-144 0 -217 121 -217 240z" />
    <glyph glyph-name="one.onum_tab" unicode="&#xe557;" horiz-adv-x="520" 
d="M133 -5v34c64 0 84 18 84 64v284c0 46 -18 59 -89 59v34h262l-4 -32l-89 -11v-334c0 -30 -5 -53 -5 -53l103 -10l-4 -30z" />
    <glyph glyph-name="two.onum_tab" unicode="&#xe558;" horiz-adv-x="520" 
d="M84 0l-8 31c76 68 220 186 220 300c0 63 -41 87 -87 87c-39 0 -83 -18 -115 -42l-19 22s62 84 171 84c68 0 141 -40 141 -125c0 -84 -89 -184 -210 -286h145c69 0 86 42 101 85h29l-31 -156h-337z" />
    <glyph glyph-name="three.onum_tab" unicode="&#xe559;" horiz-adv-x="520" 
d="M87 -158c98 0 232 41 232 182c0 92 -80 116 -148 116c-17 0 -29 -2 -29 -2v47c72 7 156 69 156 152c0 49 -28 88 -83 88c-59 0 -114 -49 -114 -49l-19 22s62 84 164 84c81 0 143 -47 143 -124c0 -79 -89 -148 -152 -174c108 -11 174 -68 174 -145
c0 -166 -172 -233 -297 -233c-7 0 -21 1 -21 1z" />
    <glyph glyph-name="four.onum_tab" unicode="&#xe55a;" horiz-adv-x="520" 
d="M33 34l-7 30l301 404l53 16l2 -3s-8 -38 -8 -109v-279h110l-12 -59h-98v-165c0 -39 -5 -55 -5 -55l-77 -8l-4 3s5 19 5 55v170h-260zM98 93h195v202c0 20 2 46 4 65z" />
    <glyph glyph-name="five.onum_tab" unicode="&#xe55b;" horiz-adv-x="520" 
d="M97 -158c137 0 238 75 238 175c0 152 -233 169 -233 169l15 284h211c39 0 70 6 70 6l-14 -77h-230l-8 -142s275 -32 275 -225c0 -127 -139 -226 -289 -226c-16 0 -29 1 -29 1z" />
    <glyph glyph-name="six.onum_tab" unicode="&#xe55c;" horiz-adv-x="520" 
d="M270 -12c-142 0 -212 136 -212 291c0 194 115 400 357 400l6 -35c-195 -12 -272 -192 -272 -354c0 -139 52 -268 135 -268c70 0 107 86 107 166c0 101 -48 225 -168 180l-7 32c29 17 60 25 93 25c116 0 169 -98 169 -206c0 -111 -71 -231 -208 -231z" />
    <glyph glyph-name="seven.onum_tab" unicode="&#xe55d;" horiz-adv-x="520" 
d="M156 -92c28 43 77 118 171 325l73 161c-19 -2 -45 -4 -65 -4h-152c-67 0 -80 1 -103 -64h-29l29 144h330c39 0 64 4 64 4l5 -27s-34 -46 -49 -81l-211 -475c-25 -56 -32 -85 -62 -85c-26 0 -35 17 -35 33c0 20 9 30 34 69z" />
    <glyph glyph-name="eight.onum_tab" unicode="&#xe55e;" horiz-adv-x="520" 
d="M61 155c0 96 68 150 139 195c-61 51 -115 106 -115 177c0 86 76 152 187 152c100 0 166 -56 166 -139c0 -87 -70 -131 -132 -170c75 -60 154 -122 154 -207c0 -92 -89 -175 -207 -175c-91 0 -192 49 -192 167zM142 167c0 -92 54 -144 116 -144c55 0 120 41 120 113
c0 77 -76 133 -151 193c-50 -38 -85 -87 -85 -162zM167 549c0 -60 52 -108 112 -157c46 34 78 80 78 141c0 73 -44 111 -92 111c-46 0 -98 -35 -98 -95z" />
    <glyph glyph-name="nine.onum_tab" unicode="&#xe55f;" horiz-adv-x="520" 
d="M109 -159c195 12 272 184 272 344c0 136 -52 263 -135 263c-65 0 -102 -86 -102 -166c0 -93 46 -222 163 -175l7 -32c-29 -17 -60 -25 -93 -25c-111 0 -164 96 -164 201c0 111 71 231 203 231c142 0 212 -134 212 -286c0 -192 -115 -390 -357 -390z" />
    <glyph glyph-name="thinspace" unicode="&#x2009;" horiz-adv-x="15" 
 />
    <glyph glyph-name="commaaccent" unicode="&#xf6c3;" 
d="M204 -66l11 23h75s24 -34 24 -72c0 -57 -58 -105 -105 -128l-20 29c38 22 57 42 57 67c0 22 -18 52 -42 81z" />
    <glyph glyph-name="fraction" unicode="&#x2044;" horiz-adv-x="126" 
d="M-100 0h-57l393 682l47 -16z" />
    <glyph glyph-name="apple" horiz-adv-x="1130" 
d="M168 -5v152l-126 72v278l126 71v151l265 142l134 -71l132 71l265 -142v-151l124 -71v-278l-124 -72v-152l-265 -141l-132 71l-134 -71zM208 30l238 -126l121 66l118 -66l238 126v139l114 64v249l-114 66v136l-238 126l-118 -64l-121 64l-238 -126v-136l-114 -66v-249
l114 -64v-139zM242 64v121l-99 60v225l99 58v123l215 114l110 -59l107 59l214 -114v-123l100 -58v-225l-100 -60v-121l-214 -114l-107 58l-110 -58zM333 142c0 -35 38 -43 83 -43c122 0 165 69 196 237h141l14 53h-146c17 114 12 167 42 167c21 0 56 -30 91 -30
c25 0 43 13 43 37c0 34 -40 43 -80 43c-133 0 -169 -103 -188 -217h-138v-53h129c-23 -145 -21 -187 -53 -187c-22 0 -54 30 -92 30c-25 0 -42 -14 -42 -37z" />
    <glyph glyph-name="c_b" horiz-adv-x="959" 
d="M38 216c0 121 76 246 214 246c9 0 19 -1 29 -2c-3 8 -8 31 -8 64c0 155 159 174 193 179c65 9 140 36 140 36l3 -3s-10 -37 -10 -114v-160c0 -46 -4 -66 -4 -74c27 33 67 74 142 74c122 0 185 -108 185 -218c0 -126 -83 -256 -258 -256c-54 0 -118 12 -153 12l-3 3
s9 44 9 100v506c0 41 -12 53 -56 53c-91 0 -146 -61 -146 -138c0 -33 10 -60 16 -74c42 -12 79 -32 79 -64c0 -19 -14 -36 -38 -36c-51 0 -57 78 -127 78c-80 0 -125 -86 -125 -183c0 -96 47 -190 165 -190c75 0 116 41 116 41l11 -21s-46 -87 -162 -87
c-140 0 -212 113 -212 228zM599 40c0 0 31 -14 73 -14c97 0 163 75 163 189c0 96 -46 189 -136 189c-44 0 -85 -23 -100 -37v-327z" />
    <glyph glyph-name="c_h" horiz-adv-x="1003" 
d="M38 216c0 121 76 246 214 246c9 0 19 -1 30 -2c-2 8 -9 32 -9 61c0 127 114 175 207 182c49 4 140 36 140 36l3 -3s-10 -37 -10 -114v-194c0 -46 -4 -66 -4 -74c36 52 106 108 190 108c69 0 114 -38 114 -135v-236c0 -30 -5 -54 -5 -54l85 -9l-4 -25l-215 -6v29
c41 5 57 29 57 65v214c0 76 -29 96 -69 96c-46 0 -107 -28 -149 -68v-242c0 -30 -5 -54 -5 -54l80 -9l-4 -25l-215 -6v29c45 5 62 29 62 65v508c0 48 -8 63 -53 63c-104 0 -163 -59 -163 -142c0 -29 10 -56 17 -70c42 -12 78 -33 78 -64c0 -19 -14 -36 -38 -36
c-51 0 -57 78 -127 78c-80 0 -125 -86 -125 -183c0 -96 47 -190 165 -190c75 0 116 41 116 41l11 -21s-46 -87 -162 -87c-140 0 -212 113 -212 228z" />
    <glyph glyph-name="c_p" horiz-adv-x="975" 
d="M38 216c0 121 76 246 214 246c8 0 18 -1 27 -2c-4 14 -7 29 -7 43c0 97 85 176 187 176c113 0 165 -64 165 -155c0 -45 -12 -90 -15 -140c27 34 65 78 144 78c122 0 182 -108 182 -218c0 -127 -81 -256 -257 -256c-27 0 -48 3 -67 6v-115c0 -30 -5 -57 -5 -57h105l-4 -24
s-158 -19 -230 -43v29c45 25 52 48 52 94v456c0 43 -1 68 -30 68h-40v27c86 18 115 63 115 115c0 71 -55 98 -118 98c-71 0 -142 -59 -142 -131c0 -20 4 -40 12 -59c44 -11 84 -33 84 -66c0 -19 -14 -36 -38 -36c-51 0 -57 78 -127 78c-80 0 -125 -86 -125 -183
c0 -96 47 -190 165 -190c75 0 116 41 116 41l11 -21s-46 -87 -162 -87c-140 0 -212 113 -212 228zM611 80c0 -47 39 -54 72 -54c104 0 165 75 165 189c0 96 -42 189 -131 189c-39 0 -75 -18 -106 -42v-282z" />
    <glyph glyph-name="s_b" horiz-adv-x="905" 
d="M39 56c0 20 13 76 13 76h30c6 -85 65 -110 113 -110c49 0 83 26 83 68c0 107 -229 100 -229 245c0 74 61 127 155 127c7 0 15 -1 23 -1c-2 8 -8 31 -8 63c0 156 159 174 192 179c70 10 140 36 140 36l3 -3s-10 -37 -10 -114v-160c0 -46 -4 -66 -4 -74c27 33 67 74 142 74
c122 0 185 -108 185 -218c0 -126 -83 -256 -258 -256c-54 0 -118 12 -153 12l-3 3s9 44 9 100v496c0 49 -8 63 -55 63c-87 0 -146 -59 -146 -138c0 -32 9 -58 16 -72c37 -10 68 -29 68 -56c0 -20 -15 -36 -37 -36c-48 0 -44 68 -115 68c-49 0 -72 -33 -72 -66
c0 -102 228 -86 228 -243c0 -83 -65 -131 -160 -131c-46 0 -150 11 -150 68zM544 40c0 0 31 -14 73 -14c97 0 163 75 163 189c0 96 -46 189 -136 189c-44 0 -85 -23 -100 -37v-327z" />
    <glyph glyph-name="s_h" horiz-adv-x="948" 
d="M39 56c0 20 13 76 13 76h30c6 -85 65 -110 113 -110c49 0 83 26 83 68c0 107 -229 100 -229 245c0 74 57 127 163 127c4 0 10 0 15 -1c-2 9 -8 32 -8 62c0 157 167 175 206 180c68 9 140 36 140 36l3 -3s-10 -37 -10 -114v-194c0 -46 -4 -66 -4 -74
c36 52 106 108 190 108c69 0 114 -38 114 -135v-236c0 -30 -5 -54 -5 -54l85 -9l-4 -25l-215 -6v29c41 5 57 29 57 65v214c0 76 -29 96 -69 96c-46 0 -107 -28 -149 -68v-242c0 -30 -5 -54 -5 -54l80 -9l-4 -25l-215 -6v29c45 5 62 29 62 65v508c0 50 -8 63 -57 63
c-91 0 -158 -59 -158 -139c0 -31 9 -57 16 -71c35 -10 68 -28 68 -54c0 -23 -14 -38 -39 -38c-41 0 -49 68 -108 68c-56 0 -77 -33 -77 -64c0 -106 228 -87 228 -245c0 -83 -65 -131 -160 -131c-46 0 -150 11 -150 68z" />
    <glyph glyph-name="s_k" horiz-adv-x="903" 
d="M39 56c0 20 13 76 13 76h30c6 -85 65 -110 113 -110c49 0 83 26 83 68c0 107 -229 100 -229 245c0 74 57 127 163 127c4 0 10 0 15 -1c-2 9 -8 32 -8 62c0 157 167 175 206 180c74 10 140 36 140 36l3 -3s-10 -37 -10 -114v-355h12l101 85c16 14 38 30 38 48
c0 12 -11 19 -33 25v25h183l5 -16s-58 -15 -105 -55l-116 -99v-10s9 -13 16 -20l148 -160c44 -48 53 -56 90 -59l11 -1l-4 -30l-144 -3s-12 37 -41 69l-149 168h-12v-143c0 -30 -5 -54 -5 -54l80 -9l-4 -25l-215 -6v29c45 5 62 29 62 65v518c0 41 -12 53 -57 53
c-91 0 -158 -59 -158 -139c0 -31 9 -57 16 -71c35 -10 68 -28 68 -54c0 -23 -14 -38 -39 -38c-41 0 -49 68 -108 68c-56 0 -77 -33 -77 -64c0 -106 228 -87 228 -245c0 -83 -65 -131 -160 -131c-46 0 -150 11 -150 68z" />
    <glyph glyph-name="a.sups" unicode="&#xe361;" horiz-adv-x="337" 
d="M101 289c-51 0 -79 33 -79 72c0 68 83 107 174 117v29c0 24 1 87 -39 87c-42 0 -71 -70 -71 -70h-28l-12 57s52 40 132 40c69 0 87 -26 87 -101v-159c0 -21 2 -31 13 -31c15 0 39 18 39 18l13 -19s-36 -40 -78 -40c-29 0 -53 16 -53 59c0 0 -40 -59 -98 -59zM126 332
c31 0 70 40 70 40v79c-51 -6 -101 -32 -101 -77c0 -27 13 -42 31 -42z" />
    <glyph glyph-name="b.sups" unicode="&#xe362;" horiz-adv-x="376" 
d="M52 296l-3 3s6 45 6 72v314c0 33 -1 41 -24 41h-25v22c79 16 122 34 122 34l3 -3s-7 -31 -7 -78v-119c1 2 34 39 93 39c83 0 131 -76 131 -152c0 -87 -61 -180 -184 -180c-22 0 -73 7 -112 7zM124 327c0 0 21 -8 46 -8c62 0 105 53 105 130c0 65 -30 129 -88 129
c-33 0 -63 -20 -63 -20v-231z" />
    <glyph glyph-name="c.sups" unicode="&#xe363;" horiz-adv-x="325" 
d="M174 289c-95 0 -146 80 -146 161c0 85 53 171 156 171c40 0 113 -15 113 -53c0 -16 -12 -28 -30 -28c-38 0 -48 53 -93 53c-48 0 -78 -60 -78 -123c0 -66 32 -131 105 -131c54 0 86 34 86 34l11 -21s-40 -63 -124 -63z" />
    <glyph glyph-name="d.sups" unicode="&#xe364;" horiz-adv-x="395" 
d="M158 289c-81 0 -130 76 -130 154c0 86 60 178 184 178c19 0 43 -2 43 -2v66c0 33 -1 41 -24 41h-25v22c79 16 122 34 122 34l3 -3s-7 -31 -7 -78v-336c0 -37 14 -37 33 -37h26l-2 -22c-77 -8 -123 -16 -123 -16l-3 3s3 20 3 50c-2 -2 -32 -54 -100 -54zM188 333
c40 0 67 33 67 33v191c0 30 -25 35 -45 35c-63 0 -109 -50 -109 -130c0 -66 32 -129 87 -129z" />
    <glyph glyph-name="e.sups" unicode="&#xe365;" horiz-adv-x="333" 
d="M174 289c-98 0 -145 78 -145 160c0 95 65 172 151 172c62 0 123 -39 125 -117c0 0 -21 -9 -35 -11l-167 -24l-7 -9c3 -63 33 -121 106 -121c54 0 93 40 93 40l11 -21s-42 -69 -132 -69zM98 501l133 17s-9 74 -61 74c-41 0 -65 -43 -72 -91z" />
    <glyph glyph-name="f.sups" unicode="&#xe366;" horiz-adv-x="245" 
d="M30 295v23c30 4 42 20 42 45v211h-43v23l43 17v7c0 92 55 156 145 156c38 0 81 -12 81 -43c0 -16 -11 -30 -30 -30c-30 0 -49 36 -83 36c-31 0 -44 -29 -44 -101v-25h97l-5 -38h-85l-7 -7v-206c0 -18 -3 -36 -3 -36l72 -7l-3 -21z" />
    <glyph glyph-name="g.sups" unicode="&#xe367;" horiz-adv-x="356" 
d="M153 133c-66 0 -136 27 -136 85c0 53 60 78 84 86c-32 9 -55 22 -55 46s27 35 66 54c-47 14 -83 49 -83 104c0 73 62 113 136 113c42 0 62 -13 91 -13h32c22 0 54 11 54 11l-8 -51h-57s24 -25 24 -64c0 -66 -65 -107 -138 -107c-11 0 -21 1 -31 2c-6 -6 -13 -17 -13 -24
c0 -39 216 -20 216 -123c0 -70 -95 -119 -182 -119zM265 228c0 46 -78 55 -140 70c-19 -15 -42 -40 -42 -72c0 -42 39 -64 81 -64c48 0 101 28 101 66zM166 426c46 0 64 38 64 78c0 43 -22 90 -68 90c-44 0 -62 -42 -62 -84s19 -84 66 -84z" />
    <glyph glyph-name="h.sups" unicode="&#xe368;" horiz-adv-x="411" 
d="M24 295v23c31 4 43 20 43 45v322c0 33 -1 41 -24 41h-25v22c79 16 122 34 122 34l3 -3s-7 -31 -7 -78v-140s51 60 124 60c51 0 84 -26 84 -95v-163c0 -21 -3 -36 -3 -36l58 -7l-2 -21l-161 -4v23c27 4 39 20 39 45v147c0 52 -17 66 -41 66c-35 0 -73 -18 -98 -41v-172
c0 -21 -3 -36 -3 -36l54 -7l-2 -21z" />
    <glyph glyph-name="i.sups" unicode="&#xe369;" horiz-adv-x="214" 
d="M30 295v23c32 4 44 20 44 45v168c0 29 -1 45 -20 45h-32v22c103 25 125 36 125 36l3 -3s-7 -7 -7 -83v-185c0 -21 -3 -36 -3 -36l59 -7l-3 -21zM103 698c-24 0 -44 19 -44 44c0 22 20 41 44 41c22 0 42 -19 42 -41c0 -25 -20 -44 -42 -44z" />
    <glyph glyph-name="j.sups" unicode="&#xe36a;" horiz-adv-x="193" 
d="M2 133l-9 20c38 5 75 60 75 129v252c0 29 -1 45 -20 45h-32v22c103 25 125 36 125 36l3 -3s-6 -7 -7 -83v-232c0 -117 -48 -186 -135 -186zM98 698c-24 0 -44 19 -44 44c0 22 20 41 44 41c22 0 42 -19 42 -41c0 -25 -20 -44 -42 -44z" />
    <glyph glyph-name="k.sups" unicode="&#xe36b;" horiz-adv-x="379" 
d="M24 295v23c30 4 42 20 42 45v322c0 33 -1 41 -24 41h-25v22c79 16 122 34 122 34l3 -3s-7 -31 -7 -78v-209h13l70 61c20 18 23 31 -7 40v21h135l5 -14s-44 -12 -77 -40l-70 -62v-8l104 -127c32 -38 40 -41 67 -41l-2 -25l-104 -2s-12 25 -31 49l-92 115h-11v-96
c0 -21 -3 -36 -3 -36l55 -7l-3 -21z" />
    <glyph glyph-name="l.sups" unicode="&#xe36c;" horiz-adv-x="207" 
d="M24 295v23c31 4 43 20 43 45v322c0 33 -1 41 -24 41h-25v22c79 16 122 34 122 34l3 -3s-7 -31 -7 -78v-338c0 -21 -3 -36 -3 -36l59 -7l-2 -21z" />
    <glyph glyph-name="m.sups" unicode="&#xe36d;" horiz-adv-x="606" 
d="M30 295v23c31 4 43 20 43 45v168c0 29 -1 45 -20 45h-32v22c73 17 122 36 122 36l3 -3s-6 -7 -7 -73c0 0 54 63 120 63c44 0 72 -20 77 -65c28 38 73 65 120 65c49 0 83 -24 83 -95v-163c0 -21 -3 -36 -3 -36l58 -7l-2 -21l-161 -4v23c31 4 39 20 39 45v147
c0 52 -15 66 -42 66c-29 0 -88 -26 -88 -63v-150c0 -18 -3 -36 -3 -36l55 -7l-3 -21l-158 -4v23c32 4 40 20 40 45v147c0 52 -13 66 -35 66c-29 0 -66 -16 -94 -41v-172c0 -21 -3 -36 -3 -36l55 -7l-3 -21z" />
    <glyph glyph-name="n.sups" unicode="&#x207f;" horiz-adv-x="417" 
d="M30 295v23c31 4 43 20 43 45v168c0 29 -1 45 -20 45h-32v22c73 17 122 36 122 36l3 -3s-6 -7 -7 -73c0 0 50 63 126 63c52 0 85 -26 85 -95v-163c0 -21 -3 -35 -3 -35l58 -8l-3 -21l-160 -4v23c31 4 39 20 39 45v147c0 52 -17 66 -42 66c-30 0 -70 -16 -97 -41v-172
c0 -21 -3 -35 -3 -35l55 -8l-3 -21z" />
    <glyph glyph-name="o.sups" unicode="&#xe36e;" horiz-adv-x="385" 
d="M186 289c-102 0 -157 70 -157 159c0 82 46 173 168 173c105 0 160 -67 160 -153c0 -87 -56 -179 -171 -179zM196 318c55 0 84 60 84 130c0 68 -25 145 -91 145c-60 0 -85 -64 -85 -128c0 -69 27 -147 92 -147z" />
    <glyph glyph-name="p.sups" unicode="&#xe36f;" horiz-adv-x="389" 
d="M32 134v26c30 17 35 32 35 65v305c0 29 -1 46 -15 46h-33v22c74 18 120 36 120 36l3 -3s-6 -24 -6 -60c8 13 43 50 93 50c88 0 132 -75 132 -152c0 -89 -59 -180 -185 -180c-17 0 -40 3 -40 3v-67c0 -21 -3 -38 -3 -38h72l-2 -23s-108 -9 -171 -30zM180 318
c69 0 108 53 108 130c0 66 -26 129 -84 129c-38 0 -68 -33 -68 -33v-189c0 -31 24 -37 44 -37z" />
    <glyph glyph-name="q.sups" unicode="&#xe370;" horiz-adv-x="377" 
d="M211 134v24c31 18 43 34 43 67v102s-36 -38 -91 -38c-87 0 -135 76 -135 152c0 91 65 180 188 180c38 0 74 -7 109 -7l3 -3s-6 -28 -6 -71v-318c0 -20 -3 -37 -3 -37h52l-2 -22c-93 -10 -158 -29 -158 -29zM189 332c34 0 65 20 65 20v231s-24 8 -45 8
c-60 0 -108 -51 -108 -130c0 -65 31 -129 88 -129z" />
    <glyph glyph-name="r.sups" unicode="&#xe371;" horiz-adv-x="273" 
d="M30 295v23c32 4 44 20 44 45v168c0 29 -1 45 -20 45h-32v22c75 17 122 36 122 36l3 -3s-6 -7 -7 -73c21 31 58 63 92 63c21 0 37 -13 37 -35c0 -20 -15 -34 -36 -34c-19 0 -22 12 -36 12c-22 0 -54 -29 -54 -29v-172c0 -18 -3 -37 -3 -37l66 -5l-3 -22z" />
    <glyph glyph-name="s.sups" unicode="&#xe372;" horiz-adv-x="286" 
d="M141 289c-34 0 -111 8 -111 47c0 15 11 57 11 57h28c8 -59 46 -77 76 -77s52 20 52 44c0 70 -160 69 -160 171c0 53 42 90 120 90c44 0 92 -12 92 -12l-14 -75h-28c-4 57 -48 61 -62 61c-32 0 -45 -23 -45 -43c0 -68 157 -58 157 -169c0 -61 -47 -94 -116 -94z" />
    <glyph glyph-name="t.sups" unicode="&#xe373;" horiz-adv-x="270" 
d="M146 289c-53 0 -83 29 -83 93v149c0 20 2 43 2 43h-46v24s29 7 45 18l28 80h44l3 -3s-7 -23 -7 -72v-7h109l-5 -38h-97l-7 -7v-174c0 -39 11 -60 43 -60c31 0 66 16 66 16l10 -17s-41 -45 -105 -45z" />
    <glyph glyph-name="u.sups" unicode="&#xe374;" horiz-adv-x="408" 
d="M147 289c-52 0 -84 27 -84 95v147c0 29 -1 45 -20 45h-24v22c63 12 117 29 117 29l3 -3s-7 -12 -7 -76v-149c0 -51 17 -65 40 -65c44 0 85 35 96 45v152c0 29 -1 45 -20 45h-24v22c63 12 117 29 117 29l3 -3s-7 -12 -7 -76v-183c0 -37 14 -37 33 -37h25l-2 -22
c-76 -8 -126 -16 -126 -16l-4 3s8 23 8 40v23c-28 -35 -72 -67 -124 -67z" />
    <glyph glyph-name="v.sups" unicode="&#xe375;" horiz-adv-x="326" 
d="M138 298l-100 255c-14 35 -37 40 -37 40v21h37c47 0 75 3 75 3l4 -4s-13 -28 0 -64l62 -174l75 169c12 28 -8 42 -35 49v21h103l3 -13s-10 -4 -25 -38l-122 -277z" />
    <glyph glyph-name="w.sups" unicode="&#xe376;" horiz-adv-x="512" 
d="M137 298l-99 255c-14 36 -38 40 -38 40v21h38c46 0 73 3 73 3l4 -4s-12 -31 1 -64l61 -164l56 133c6 15 6 29 1 41c-6 15 -19 27 -36 34v21h38c41 0 71 3 71 3l4 -4s-13 -31 0 -64l61 -165l68 161c12 28 -8 41 -34 48v21h102l3 -13s-10 -4 -25 -38l-118 -277l-36 12
l-73 190l-86 -202z" />
    <glyph glyph-name="x.sups" unicode="&#xe377;" horiz-adv-x="352" 
d="M197 295v26c15 0 36 2 22 22l-55 79l-74 -95l52 -7l-3 -21l-127 -4v23c28 3 41 19 48 28l84 105l-73 105c-23 34 -52 36 -52 36v22h38c50 0 78 4 78 4l4 -4s-10 -25 8 -51l41 -62l49 62c15 20 -11 27 -29 30v21h121l4 -14s-26 -4 -50 -35l-74 -94l103 -148l33 -4l-2 -20z
" />
    <glyph glyph-name="y.sups" unicode="&#xe378;" horiz-adv-x="324" 
d="M50 133c-21 0 -32 14 -32 30c0 15 10 31 38 31c34 0 54 24 66 52l23 51l-107 256c-14 34 -38 40 -38 40v21h38c47 0 74 3 74 3l5 -5s-11 -34 0 -63l64 -167l72 163c11 26 -14 41 -38 48v21h106l4 -13s-14 -7 -27 -38l-127 -291c-22 -50 -58 -139 -121 -139z" />
    <glyph glyph-name="z.sups" unicode="&#xe379;" horiz-adv-x="321" 
d="M30 292l-6 21s8 8 25 35l153 236h-80c-48 0 -65 -57 -65 -57h-28l12 87h189c28 0 54 4 54 4l5 -22s-11 -13 -26 -37l-150 -232h74c62 0 80 66 80 66h29l-19 -97h-195c-29 0 -52 -4 -52 -4z" />
    <glyph glyph-name="egrave.sups" unicode="&#xe37a;" horiz-adv-x="333" 
d="M174 289c-98 0 -145 78 -145 160c0 95 65 172 151 172c62 0 123 -39 125 -117c0 0 -21 -9 -35 -11l-167 -24l-7 -9c3 -63 33 -121 106 -121c54 0 93 40 93 40l11 -21s-42 -69 -132 -69zM98 501l133 17s-9 74 -61 74c-41 0 -65 -43 -72 -91zM89 710v20l27 42h4l141 -84
l-10 -27z" />
    <glyph glyph-name="uni1E9E" unicode="&#x1e9e;" horiz-adv-x="684" 
d="M32 -3v32c39 5 62 29 62 65v249c0 232 112 336 282 336c76 0 173 -12 207 -12l10 -26s-25 -28 -55 -70l-113 -161c102 -27 219 -93 219 -214c0 -99 -78 -208 -208 -208c-61 0 -151 23 -151 74c0 22 15 39 41 39c50 0 36 -77 112 -77s128 73 128 142
c0 106 -130 164 -222 179l-4 31s29 29 58 70l91 130c10 15 18 28 18 28c-22 15 -65 37 -134 37c-128 0 -191 -94 -191 -281v-266c0 -30 -5 -54 -5 -54l61 -9l-4 -28z" />
    <glyph glyph-name="dieresis.case" 
d="M80 643c0 29 25 54 54 54s54 -25 54 -54s-25 -54 -54 -54s-54 25 -54 54zM311 643c0 29 25 54 54 54s54 -25 54 -54s-25 -54 -54 -54s-54 25 -54 54z" />
    <glyph glyph-name="acute.case" 
d="M113 606l177 105h5l33 -52v-25l-202 -61z" />
    <glyph glyph-name="grave.case" 
d="M184 634v25l33 52h5l177 -105l-13 -33z" />
    <glyph glyph-name="circumflex.case" 
d="M93 591l131 130h53l130 -130l-27 -23l-128 81h-4l-128 -81z" />
    <glyph glyph-name="caron.case" 
d="M93 698l27 23l128 -81h4l128 81l27 -23l-130 -130h-53z" />
    <glyph glyph-name="tilde.case" 
d="M107 583l-34 7s8 113 98 113c61 0 121 -59 167 -59c45 0 55 59 55 59l35 -3s-6 -117 -107 -117c-69 0 -112 59 -158 59c-42 0 -56 -59 -56 -59z" />
    <glyph glyph-name="ring.case" 
d="M250 561c-64 0 -94 40 -94 81c0 39 30 79 94 79s94 -40 94 -79c0 -41 -30 -81 -94 -81zM250 595c31 0 48 23 48 46s-15 46 -48 46c-34 0 -47 -23 -47 -46s15 -46 47 -46z" />
    <glyph glyph-name="breve.case" 
d="M250 570c-83 0 -141 44 -141 111c0 12 2 24 6 37h35c-8 -66 52 -86 100 -86c46 0 104 17 99 86h36c4 -13 5 -25 5 -37c0 -67 -58 -111 -140 -111z" />
    <glyph glyph-name="hungarumlaut.case" 
d="M116 568l-30 19l62 128l97 9v-27zM283 568l-30 19l72 128l97 9v-27z" />
    <glyph glyph-name="macron.case" 
d="M121 615v59h258v-59h-258z" />
    <glyph glyph-name="dotaccent.case" 
d="M250 590c-29 0 -54 25 -54 54s25 54 54 54s54 -25 54 -54s-25 -54 -54 -54z" />
    <glyph glyph-name="dieresis.smcp" 
d="M89 624c0 29 25 54 54 54s54 -25 54 -54s-25 -54 -54 -54s-54 25 -54 54zM304 624c0 29 25 54 54 54s54 -25 54 -54s-25 -54 -54 -54s-54 25 -54 54z" />
    <glyph glyph-name="acute.smcp" 
d="M116 554l-13 33l177 105h5l33 -52v-25z" />
    <glyph glyph-name="grave.smcp" 
d="M194 615v25l33 52h5l177 -105l-13 -33z" />
    <glyph glyph-name="circumflex.smcp" 
d="M127 552l-22 28l124 116h43l124 -116l-22 -28l-122 70h-4z" />
    <glyph glyph-name="caron.smcp" 
d="M229 553l-124 116l22 28l121 -70h4l122 70l22 -28l-124 -116h-43z" />
    <glyph glyph-name="tilde.smcp" 
d="M118 564l-35 7s8 113 93 113c57 0 113 -59 157 -59c42 0 49 59 49 59l36 -3s-6 -117 -102 -117c-65 0 -102 59 -148 59c-39 0 -50 -59 -50 -59z" />
    <glyph glyph-name="ring.smcp" 
d="M250 544c-64 0 -94 40 -94 81c0 39 30 79 94 79s94 -40 94 -79c0 -41 -30 -81 -94 -81zM250 578c31 0 48 23 48 46s-15 46 -48 46c-34 0 -47 -23 -47 -46s15 -46 47 -46z" />
    <glyph glyph-name="hungarumlaut.smcp" 
d="M116 546l-30 19l62 128l97 9v-27zM283 546l-30 19l72 128l97 9v-27z" />
    <glyph glyph-name="breve.smcp" 
d="M250 554c-76 0 -130 44 -130 106c0 14 5 34 5 34h35c0 -59 44 -79 90 -79c45 0 90 20 90 79h35s5 -20 5 -34c0 -62 -54 -106 -130 -106z" />
    <glyph glyph-name="macron.smcp" 
d="M136 595v59h228v-59h-228z" />
    <glyph glyph-name="dotaccent.smcp" 
d="M196 624c0 29 25 54 54 54s54 -25 54 -54s-25 -54 -54 -54s-54 25 -54 54z" />
    <glyph glyph-name="caron.salt" 
d="M178 508l25 188l82 10v-21l-72 -177h-35z" />
    <glyph glyph-name="Abreve" unicode="&#x102;" horiz-adv-x="623" 
d="M-13 0v29c42 4 59 25 67 45l237 590l41 9l222 -568c27 -68 45 -73 76 -78l-4 -27h-43c-37 0 -152 -3 -152 -3v34c28 1 53 9 42 39l-61 160h-239l-13 -10l-69 -180l85 -12l-4 -28h-185zM310 500c-8 20 -16 46 -20 61l-111 -289h217zM312 720c-83 0 -141 44 -141 111
c0 12 2 24 6 37h35c-8 -66 52 -86 100 -86c46 0 104 17 99 86h36c4 -13 5 -25 5 -37c0 -67 -58 -111 -140 -111z" />
    <glyph glyph-name="Amacron" unicode="&#x100;" horiz-adv-x="623" 
d="M-13 0v29c42 4 59 25 67 45l237 590l41 9l222 -568c27 -68 45 -73 76 -78l-4 -27h-43c-37 0 -152 -3 -152 -3v34c28 1 53 9 42 39l-61 160h-239l-13 -10l-69 -180l85 -12l-4 -28h-185zM310 500c-8 20 -16 46 -20 61l-111 -289h217zM183 765v59h258v-59h-258z" />
    <glyph glyph-name="Aogonek" unicode="&#x104;" horiz-adv-x="623" 
d="M-13 0v29c42 4 59 25 67 45l237 590l41 9l222 -568c27 -68 45 -73 76 -78l-4 -27h-22c-35 0 -104 -78 -104 -135c0 -44 35 -62 68 -62c10 0 21 2 21 2l7 -25c-30 -11 -57 -17 -80 -17c-60 0 -97 37 -97 84c0 55 50 96 112 153c-46 -1 -100 -3 -100 -3v34c28 1 53 9 42 39
l-61 160h-239l-13 -10l-69 -180l85 -12l-4 -28h-185zM310 500c-8 20 -16 46 -20 61l-111 -289h217z" />
    <glyph glyph-name="Aringacute" unicode="&#x1fa;" horiz-adv-x="623" 
d="M-13 0v29c42 4 59 25 67 45l227 566c-43 11 -63 44 -63 78c0 39 30 79 94 79s94 -40 94 -79c0 -34 -20 -66 -62 -77l210 -536c27 -68 45 -73 76 -78l-4 -27h-43c-37 0 -152 -3 -152 -3v34c28 1 53 9 42 39l-61 160h-239l-13 -10l-69 -180l85 -12l-4 -28h-185zM310 500
c-8 20 -16 46 -20 61l-111 -289h217zM204 835l177 105h5l33 -52v-25l-202 -61zM312 671c31 0 48 23 48 46s-15 46 -48 46c-34 0 -47 -23 -47 -46s15 -46 47 -46z" />
    <glyph glyph-name="abreve" unicode="&#x103;" horiz-adv-x="460" 
d="M28 89c0 96 119 146 223 162l34 5c1 21 1 79 -4 107c-7 37 -26 64 -63 64c-68 0 -106 -96 -106 -96h-32l-17 75s73 56 185 56c94 0 119 -38 119 -143v-230c0 -32 4 -47 27 -47c27 0 55 20 55 20l13 -21s-47 -53 -106 -53c-38 0 -68 22 -68 71v24s-53 -95 -156 -95
c-66 0 -104 47 -104 101zM172 45c39 0 87 38 113 60v118l-31 -5c-57 -9 -138 -39 -138 -111c0 -40 26 -62 56 -62zM220 541c-76 0 -130 49 -130 118c0 12 1 24 5 37h35v-9c0 -23 7 -84 90 -84c82 0 90 61 90 84v9h35c3 -13 5 -25 5 -37c0 -69 -54 -118 -130 -118z" />
    <glyph glyph-name="amacron" unicode="&#x101;" horiz-adv-x="460" 
d="M28 89c0 96 119 146 223 162l34 5c1 21 1 79 -4 107c-7 37 -26 64 -63 64c-68 0 -106 -96 -106 -96h-32l-17 75s73 56 185 56c94 0 119 -38 119 -143v-230c0 -32 4 -47 27 -47c27 0 55 20 55 20l13 -21s-47 -53 -106 -53c-38 0 -68 22 -68 71v24s-53 -95 -156 -95
c-66 0 -104 47 -104 101zM172 45c39 0 87 38 113 60v118l-31 -5c-57 -9 -138 -39 -138 -111c0 -40 26 -62 56 -62zM106 589v59h228v-59h-228z" />
    <glyph glyph-name="aogonek" unicode="&#x105;" horiz-adv-x="460" 
d="M28 89c0 96 119 146 223 162l34 5c1 21 1 79 -4 107c-7 37 -26 64 -63 64c-68 0 -106 -96 -106 -96h-32l-17 75s73 56 185 56c94 0 119 -38 119 -143v-230c0 -32 4 -47 27 -47c27 0 55 20 55 20l13 -21s-8 -8 -18 -17l2 -2c-25 -17 -110 -89 -110 -155
c0 -45 31 -62 62 -64c8 0 22 2 22 2v-1c3 1 5 1 5 1l7 -25c-29 -10 -56 -16 -78 -17h-7c-60 0 -97 37 -97 84c0 51 43 91 99 141c-35 3 -61 25 -61 71v24s-53 -95 -156 -95c-66 0 -104 47 -104 101zM172 45c39 0 87 38 113 60v118l-31 -5c-57 -9 -138 -39 -138 -111
c0 -40 26 -62 56 -62z" />
    <glyph glyph-name="aringacute" unicode="&#x1fb;" horiz-adv-x="460" 
d="M28 89c0 96 119 146 223 162l34 5c1 21 1 79 -4 107c-7 37 -26 64 -63 64c-68 0 -106 -96 -106 -96h-32l-17 75s46 35 120 50c-33 14 -49 45 -49 75c0 41 30 81 94 81s94 -40 94 -81c0 -27 -13 -55 -41 -71c67 -9 86 -50 86 -141v-230c0 -32 4 -47 27 -47
c27 0 55 20 55 20l13 -21s-47 -53 -106 -53c-38 0 -68 22 -68 71v24s-53 -95 -156 -95c-66 0 -104 47 -104 101zM172 45c39 0 87 38 113 60v118l-31 -5c-57 -9 -138 -39 -138 -111c0 -40 26 -62 56 -62zM134 621l-13 33l177 105h5l33 -52v-25zM228 481c31 0 48 24 48 49
c0 24 -15 48 -48 48c-34 0 -47 -24 -47 -48c0 -25 15 -49 47 -49z" />
    <glyph glyph-name="AEacute" unicode="&#x1fc;" horiz-adv-x="880" 
d="M-19 0v29c42 4 56 26 67 45l284 511c15 28 9 43 -48 57v25h467c41 0 72 4 72 4l-31 -167h-34c5 103 -28 124 -108 124h-131l-10 -10v-270h185l8 67l37 6v-176h-47v64h-173l-10 -10v-204c0 -30 -5 -56 -5 -56h157c86 0 98 19 148 124h34l-37 -163h-312
c-50 0 -145 -3 -145 -3v32c45 5 72 26 72 62v218h-181l-15 -10l-143 -259l85 -12l-4 -28h-182zM381 580l-129 -232h169v274c-15 -6 -27 -18 -40 -42zM485 756l177 105h5l33 -52v-25l-202 -61z" />
    <glyph glyph-name="aeacute" unicode="&#x1fd;" horiz-adv-x="709" 
d="M26 91c0 93 113 150 266 174v25c0 75 -9 137 -67 137c-71 0 -107 -96 -107 -96h-32l-17 75s73 56 184 56c67 0 95 -21 108 -67c32 40 77 67 138 67c88 0 167 -56 170 -163c0 0 -29 -9 -46 -12l-254 -45c1 -94 47 -187 162 -187c82 0 130 48 130 48l11 -21
s-57 -94 -180 -94c-85 0 -151 44 -177 130c-24 -70 -87 -130 -169 -130c-77 0 -120 46 -120 103zM171 45c45 0 120 41 120 148v36c-69 -12 -177 -37 -177 -122c0 -37 21 -62 57 -62zM484 424c-66 0 -106 -68 -114 -145l206 36s-7 109 -92 109zM363 505l-31 17l85 171l87 9
v-27z" />
    <glyph glyph-name="Cacute" unicode="&#x106;" horiz-adv-x="679" 
d="M45 326c0 204 151 353 366 353c75 0 164 -18 216 -23l-30 -152h-34c0 104 -88 137 -169 137c-154 0 -256 -124 -256 -286c0 -180 126 -301 289 -301c125 0 201 71 201 71l14 -21s-75 -116 -249 -116c-178 0 -348 122 -348 338zM289 756l177 105h5l33 -52v-25l-202 -61z
" />
    <glyph glyph-name="Ccaron" unicode="&#x10c;" horiz-adv-x="679" 
d="M45 326c0 204 151 353 366 353c75 0 164 -18 216 -23l-30 -152h-34c0 104 -88 137 -169 137c-154 0 -256 -124 -256 -286c0 -180 126 -301 289 -301c125 0 201 71 201 71l14 -21s-75 -116 -249 -116c-178 0 -348 122 -348 338zM218 848l27 23l128 -81h4l128 81l27 -23
l-130 -130h-53z" />
    <glyph glyph-name="Ccircumflex" unicode="&#x108;" horiz-adv-x="679" 
d="M45 326c0 204 151 353 366 353c75 0 164 -18 216 -23l-30 -152h-34c0 104 -88 137 -169 137c-154 0 -256 -124 -256 -286c0 -180 126 -301 289 -301c125 0 201 71 201 71l14 -21s-75 -116 -249 -116c-178 0 -348 122 -348 338zM218 741l131 130h53l130 -130l-27 -23
l-128 81h-4l-128 -81z" />
    <glyph glyph-name="Cdotaccent" unicode="&#x10a;" horiz-adv-x="679" 
d="M45 326c0 204 151 353 366 353c75 0 164 -18 216 -23l-30 -152h-34c0 104 -88 137 -169 137c-154 0 -256 -124 -256 -286c0 -180 126 -301 289 -301c125 0 201 71 201 71l14 -21s-75 -116 -249 -116c-178 0 -348 122 -348 338zM375 740c-29 0 -54 25 -54 54s25 54 54 54
s54 -25 54 -54s-25 -54 -54 -54z" />
    <glyph glyph-name="cacute" unicode="&#x107;" horiz-adv-x="441" 
d="M38 216c0 121 76 246 214 246c61 0 158 -24 158 -76c0 -19 -14 -36 -38 -36c-51 0 -57 78 -127 78c-80 0 -125 -86 -125 -183c0 -96 47 -190 165 -190c75 0 116 41 116 41l11 -21s-46 -87 -162 -87c-140 0 -212 113 -212 228zM232 505l-31 17l85 171l87 9v-27z" />
    <glyph glyph-name="ccaron" unicode="&#x10d;" horiz-adv-x="441" 
d="M38 216c0 121 76 246 214 246c61 0 158 -24 158 -76c0 -19 -14 -36 -38 -36c-51 0 -57 78 -127 78c-80 0 -125 -86 -125 -183c0 -96 47 -190 165 -190c75 0 116 41 116 41l11 -21s-46 -87 -162 -87c-140 0 -212 113 -212 228zM222 523l-116 166l30 19l105 -108l105 108
l30 -19l-115 -166h-39z" />
    <glyph glyph-name="ccircumflex" unicode="&#x109;" horiz-adv-x="441" 
d="M38 216c0 121 76 246 214 246c61 0 158 -24 158 -76c0 -19 -14 -36 -38 -36c-51 0 -57 78 -127 78c-80 0 -125 -86 -125 -183c0 -96 47 -190 165 -190c75 0 116 41 116 41l11 -21s-46 -87 -162 -87c-140 0 -212 113 -212 228zM106 522l116 176h39l115 -176l-30 -19
l-105 116l-105 -116z" />
    <glyph glyph-name="cdotaccent" unicode="&#x10b;" horiz-adv-x="441" 
d="M38 216c0 121 76 246 214 246c61 0 158 -24 158 -76c0 -19 -14 -36 -38 -36c-51 0 -57 78 -127 78c-80 0 -125 -86 -125 -183c0 -96 47 -190 165 -190c75 0 116 41 116 41l11 -21s-46 -87 -162 -87c-140 0 -212 113 -212 228zM241 564c-29 0 -54 25 -54 54s25 54 54 54
s54 -25 54 -54s-25 -54 -54 -54z" />
    <glyph glyph-name="Dcaron" unicode="&#x10e;" horiz-adv-x="746" 
d="M54 -3v32c45 5 72 26 72 62v478c0 48 -5 58 -82 73v25h274c194 0 381 -73 381 -309c0 -226 -169 -358 -419 -358h-81c-50 0 -145 -3 -145 -3zM209 39h71c234 0 320 130 320 296c0 177 -99 293 -286 293h-90l-10 -10v-523c0 -30 -5 -56 -5 -56zM199 848l27 23l128 -81h4
l128 81l27 -23l-130 -130h-53z" />
    <glyph glyph-name="Dcroat" unicode="&#x110;" horiz-adv-x="746" 
d="M35 318v42h91v209c0 48 -5 58 -82 73v25h274c194 0 381 -73 381 -309c0 -226 -169 -358 -419 -358h-81c-50 0 -145 -3 -145 -3v32c45 5 72 26 72 62v227h-91zM209 39h71c234 0 320 130 320 296c0 177 -99 293 -286 293h-90l-10 -10v-258h166v-42h-166v-223
c0 -30 -5 -56 -5 -56z" />
    <glyph glyph-name="dcaron" unicode="&#x10f;" horiz-adv-x="539" 
d="M37 205c0 126 85 257 256 257c36 0 71 -6 71 -6v143c0 43 -1 68 -30 68h-42v27c115 25 161 45 161 45l3 -3s-10 -37 -10 -114v-527c0 -57 23 -57 56 -57h28l-3 -27c-109 -11 -160 -19 -160 -19l-3 3s4 28 4 53v21c-27 -40 -68 -81 -143 -81c-123 0 -188 108 -188 217z
M260 46c49 0 88 28 104 44v281c0 46 -40 53 -72 53c-102 0 -168 -73 -168 -189c0 -96 46 -189 136 -189zM505 549l25 188l82 10v-21l-72 -177h-35z" />
    <glyph glyph-name="dcroat" unicode="&#x111;" horiz-adv-x="539" 
d="M226 527v42h138v30c0 43 -1 68 -30 68h-42v27c115 25 161 45 161 45l3 -3s-10 -37 -10 -114v-53h75v-42h-75v-432c0 -57 23 -57 56 -57h28l-3 -27c-109 -11 -160 -19 -160 -19l-3 3s4 28 4 53v21c-27 -40 -68 -81 -143 -81c-123 0 -188 108 -188 217
c0 126 85 257 256 257c36 0 71 -6 71 -6v71h-138zM260 46c49 0 88 28 104 44v281c0 46 -40 53 -72 53c-102 0 -168 -73 -168 -189c0 -96 46 -189 136 -189z" />
    <glyph glyph-name="Ebreve" unicode="&#x114;" horiz-adv-x="585" 
d="M54 -3v32c45 5 72 26 72 62v478c0 48 -5 58 -82 73v25h412c41 0 72 4 72 4l-31 -167h-34c5 103 -28 124 -108 124h-131l-10 -10v-260h185l8 57l37 6v-176h-47v74h-173l-10 -10v-214c0 -30 -5 -56 -5 -56h157c86 0 98 19 148 124h34l-37 -163h-312c-50 0 -145 -3 -145 -3z
M307 720c-83 0 -141 44 -141 111c0 12 2 24 6 37h35c-8 -66 52 -86 100 -86c46 0 104 17 99 86h36c4 -13 5 -25 5 -37c0 -67 -58 -111 -140 -111z" />
    <glyph glyph-name="Ecaron" unicode="&#x11a;" horiz-adv-x="585" 
d="M54 -3v32c45 5 72 26 72 62v478c0 48 -5 58 -82 73v25h412c41 0 72 4 72 4l-31 -167h-34c5 103 -28 124 -108 124h-131l-10 -10v-260h185l8 57l37 6v-176h-47v74h-173l-10 -10v-214c0 -30 -5 -56 -5 -56h157c86 0 98 19 148 124h34l-37 -163h-312c-50 0 -145 -3 -145 -3z
M150 848l27 23l128 -81h4l128 81l27 -23l-130 -130h-53z" />
    <glyph glyph-name="Edotaccent" unicode="&#x116;" horiz-adv-x="585" 
d="M54 -3v32c45 5 72 26 72 62v478c0 48 -5 58 -82 73v25h412c41 0 72 4 72 4l-31 -167h-34c5 103 -28 124 -108 124h-131l-10 -10v-260h185l8 57l37 6v-176h-47v74h-173l-10 -10v-214c0 -30 -5 -56 -5 -56h157c86 0 98 19 148 124h34l-37 -163h-312c-50 0 -145 -3 -145 -3z
M307 740c-29 0 -54 25 -54 54s25 54 54 54s54 -25 54 -54s-25 -54 -54 -54z" />
    <glyph glyph-name="Emacron" unicode="&#x112;" horiz-adv-x="585" 
d="M54 -3v32c45 5 72 26 72 62v478c0 48 -5 58 -82 73v25h412c41 0 72 4 72 4l-31 -167h-34c5 103 -28 124 -108 124h-131l-10 -10v-260h185l8 57l37 6v-176h-47v74h-173l-10 -10v-214c0 -30 -5 -56 -5 -56h157c86 0 98 19 148 124h34l-37 -163h-312c-50 0 -145 -3 -145 -3z
M178 765v59h258v-59h-258z" />
    <glyph glyph-name="Eogonek" unicode="&#x118;" horiz-adv-x="585" 
d="M54 -3v32c45 5 72 26 72 62v478c0 48 -5 58 -82 73v25h412c41 0 72 4 72 4l-31 -167h-34c5 103 -28 124 -108 124h-131l-10 -10v-260h185l8 57l37 6v-176h-47v74h-173l-10 -10v-214c0 -30 -5 -56 -5 -56h157c86 0 98 19 148 124h34l-37 -163h-4
c-35 -3 -101 -79 -101 -135c0 -44 35 -62 68 -62c10 0 21 2 21 2l7 -25c-30 -11 -57 -17 -80 -17c-60 0 -97 37 -97 84c0 55 50 97 113 153h-239c-50 0 -145 -3 -145 -3z" />
    <glyph glyph-name="ebreve" unicode="&#x115;" horiz-adv-x="460" 
d="M38 216c0 136 90 246 211 246c86 0 171 -56 174 -166c0 0 -26 -10 -46 -13l-249 -36l-10 -12c4 -91 50 -180 162 -180c82 0 130 48 130 48l11 -21s-52 -94 -171 -94c-142 0 -212 111 -212 228zM234 424c-67 0 -105 -66 -114 -141l210 27s-8 114 -96 114zM239 541
c-76 0 -130 49 -130 118c0 12 1 24 5 37h35v-9c0 -23 7 -84 90 -84c82 0 90 61 90 84v9h35c3 -13 5 -25 5 -37c0 -69 -54 -118 -130 -118z" />
    <glyph glyph-name="ecaron" unicode="&#x11b;" horiz-adv-x="460" 
d="M38 216c0 136 90 246 211 246c86 0 171 -56 174 -166c0 0 -26 -10 -46 -13l-249 -36l-10 -12c4 -91 50 -180 162 -180c82 0 130 48 130 48l11 -21s-52 -94 -171 -94c-142 0 -212 111 -212 228zM234 424c-67 0 -105 -66 -114 -141l210 27s-8 114 -96 114zM220 523
l-116 166l30 19l105 -108l105 108l30 -19l-115 -166h-39z" />
    <glyph glyph-name="edotaccent" unicode="&#x117;" horiz-adv-x="460" 
d="M38 216c0 136 90 246 211 246c86 0 171 -56 174 -166c0 0 -26 -10 -46 -13l-249 -36l-10 -12c4 -91 50 -180 162 -180c82 0 130 48 130 48l11 -21s-52 -94 -171 -94c-142 0 -212 111 -212 228zM234 424c-67 0 -105 -66 -114 -141l210 27s-8 114 -96 114zM239 564
c-29 0 -54 25 -54 54s25 54 54 54s54 -25 54 -54s-25 -54 -54 -54z" />
    <glyph glyph-name="emacron" unicode="&#x113;" horiz-adv-x="460" 
d="M38 216c0 136 90 246 211 246c86 0 171 -56 174 -166c0 0 -26 -10 -46 -13l-249 -36l-10 -12c4 -91 50 -180 162 -180c82 0 130 48 130 48l11 -21s-52 -94 -171 -94c-142 0 -212 111 -212 228zM234 424c-67 0 -105 -66 -114 -141l210 27s-8 114 -96 114zM125 589v59h228
v-59h-228z" />
    <glyph glyph-name="eogonek" unicode="&#x119;" horiz-adv-x="460" 
d="M38 216c0 136 90 246 211 246c86 0 171 -56 174 -166c0 0 -26 -10 -46 -13l-249 -36l-10 -12c4 -91 50 -180 162 -180c82 0 130 48 130 48l11 -21s-22 -37 -65 -65c-30 -22 -103 -89 -103 -150c0 -48 35 -64 67 -64c8 0 22 2 22 2l7 -25c-30 -11 -57 -17 -80 -17
c-60 0 -97 37 -97 84c0 52 44 91 101 142c-8 -1 -15 -1 -23 -1c-142 0 -212 111 -212 228zM234 424c-67 0 -105 -66 -114 -141l210 27s-8 114 -96 114z" />
    <glyph glyph-name="Gbreve" unicode="&#x11e;" horiz-adv-x="712" 
d="M46 320c0 179 115 359 371 359c85 0 191 -19 224 -22l-30 -153h-34c-1 110 -88 137 -167 137c-175 0 -266 -140 -266 -298c0 -181 123 -312 307 -312c32 0 64 4 100 12v145c0 48 -4 60 -92 73v25h213l5 -14s-39 -18 -39 -95v-163c-65 -10 -154 -26 -227 -26
c-200 0 -365 117 -365 332zM391 720c-83 0 -141 44 -141 111c0 12 2 24 6 37h35c-8 -66 52 -86 100 -86c46 0 104 17 99 86h36c4 -13 5 -25 5 -37c0 -67 -58 -111 -140 -111z" />
    <glyph glyph-name="Gcircumflex" unicode="&#x11c;" horiz-adv-x="712" 
d="M46 320c0 179 115 359 371 359c85 0 191 -19 224 -22l-30 -153h-34c-1 110 -88 137 -167 137c-175 0 -266 -140 -266 -298c0 -181 123 -312 307 -312c32 0 64 4 100 12v145c0 48 -4 60 -92 73v25h213l5 -14s-39 -18 -39 -95v-163c-65 -10 -154 -26 -227 -26
c-200 0 -365 117 -365 332zM234 741l131 130h53l130 -130l-27 -23l-128 81h-4l-128 -81z" />
    <glyph glyph-name="Gcommaaccent" unicode="&#x122;" horiz-adv-x="712" 
d="M46 320c0 179 115 359 371 359c85 0 191 -19 224 -22l-30 -153h-34c-1 110 -88 137 -167 137c-175 0 -266 -140 -266 -298c0 -181 123 -312 307 -312c32 0 64 4 100 12v145c0 48 -4 60 -92 73v25h213l5 -14s-39 -18 -39 -95v-163c-65 -10 -154 -26 -227 -26
c-200 0 -365 117 -365 332zM345 -66l11 23h75s24 -34 24 -72c0 -57 -58 -105 -105 -128l-20 29c38 22 57 42 57 67c0 22 -18 52 -42 81z" />
    <glyph glyph-name="Gdotaccent" unicode="&#x120;" horiz-adv-x="712" 
d="M46 320c0 179 115 359 371 359c85 0 191 -19 224 -22l-30 -153h-34c-1 110 -88 137 -167 137c-175 0 -266 -140 -266 -298c0 -181 123 -312 307 -312c32 0 64 4 100 12v145c0 48 -4 60 -92 73v25h213l5 -14s-39 -18 -39 -95v-163c-65 -10 -154 -26 -227 -26
c-200 0 -365 117 -365 332zM391 740c-29 0 -54 25 -54 54s25 54 54 54s54 -25 54 -54s-25 -54 -54 -54z" />
    <glyph glyph-name="gbreve" unicode="&#x11f;" horiz-adv-x="483" 
d="M67 73c0 42 58 62 94 81c-67 19 -120 67 -120 147c0 104 88 161 187 161c58 0 82 -20 132 -20h48c32 0 66 13 66 13l-9 -65h-53c-22 0 -35 3 -35 3s41 -35 41 -98c0 -94 -90 -150 -190 -150c-17 0 -33 1 -49 4c-7 -8 -25 -28 -25 -42c0 -27 60 -34 138 -50
c84 -17 174 -45 174 -126c0 -98 -131 -168 -254 -168c-90 0 -188 37 -188 121c0 77 80 107 126 125c-47 12 -83 30 -83 64zM258 -13c-28 6 -57 11 -84 17c-24 -16 -71 -53 -71 -108c0 -62 60 -95 126 -95c73 0 154 40 154 101c0 51 -59 71 -125 85zM231 180
c72 0 100 56 100 115c0 64 -33 132 -105 132c-70 0 -98 -61 -98 -124c0 -62 29 -123 103 -123zM228 541c-76 0 -130 49 -130 118c0 12 1 24 5 37h35v-9c0 -23 7 -84 90 -84c82 0 90 61 90 84v9h35c3 -13 5 -25 5 -37c0 -69 -54 -118 -130 -118z" />
    <glyph glyph-name="gcircumflex" unicode="&#x11d;" horiz-adv-x="483" 
d="M67 73c0 42 58 62 94 81c-67 19 -120 67 -120 147c0 104 88 161 187 161c58 0 82 -20 132 -20h48c32 0 66 13 66 13l-9 -65h-53c-22 0 -35 3 -35 3s41 -35 41 -98c0 -94 -90 -150 -190 -150c-17 0 -33 1 -49 4c-7 -8 -25 -28 -25 -42c0 -27 60 -34 138 -50
c84 -17 174 -45 174 -126c0 -98 -131 -168 -254 -168c-90 0 -188 37 -188 121c0 77 80 107 126 125c-47 12 -83 30 -83 64zM258 -13c-28 6 -57 11 -84 17c-24 -16 -71 -53 -71 -108c0 -62 60 -95 126 -95c73 0 154 40 154 101c0 51 -59 71 -125 85zM231 180
c72 0 100 56 100 115c0 64 -33 132 -105 132c-70 0 -98 -61 -98 -124c0 -62 29 -123 103 -123zM93 522l116 176h39l115 -176l-30 -19l-105 116l-105 -116z" />
    <glyph glyph-name="gcommaaccent" unicode="&#x123;" horiz-adv-x="483" 
d="M67 73c0 42 58 62 94 81c-67 19 -120 67 -120 147c0 104 88 161 187 161c58 0 82 -20 132 -20h48c32 0 66 13 66 13l-9 -65h-53c-22 0 -35 3 -35 3s41 -35 41 -98c0 -94 -90 -150 -190 -150c-17 0 -33 1 -49 4c-7 -8 -25 -28 -25 -42c0 -27 60 -34 138 -50
c84 -17 174 -45 174 -126c0 -98 -131 -168 -254 -168c-90 0 -188 37 -188 121c0 77 80 107 126 125c-47 12 -83 30 -83 64zM258 -13c-28 6 -57 11 -84 17c-24 -16 -71 -53 -71 -108c0 -62 60 -95 126 -95c73 0 154 40 154 101c0 51 -59 71 -125 85zM231 180
c72 0 100 56 100 115c0 64 -33 132 -105 132c-70 0 -98 -61 -98 -124c0 -62 29 -123 103 -123zM276 534l-11 -23h-75s-24 34 -24 72c0 57 58 105 105 128l20 -29c-38 -22 -57 -42 -57 -67c0 -22 18 -52 42 -81z" />
    <glyph glyph-name="gdotaccent" unicode="&#x121;" horiz-adv-x="483" 
d="M67 73c0 42 58 62 94 81c-67 19 -120 67 -120 147c0 104 88 161 187 161c58 0 82 -20 132 -20h48c32 0 66 13 66 13l-9 -65h-53c-22 0 -35 3 -35 3s41 -35 41 -98c0 -94 -90 -150 -190 -150c-17 0 -33 1 -49 4c-7 -8 -25 -28 -25 -42c0 -27 60 -34 138 -50
c84 -17 174 -45 174 -126c0 -98 -131 -168 -254 -168c-90 0 -188 37 -188 121c0 77 80 107 126 125c-47 12 -83 30 -83 64zM258 -13c-28 6 -57 11 -84 17c-24 -16 -71 -53 -71 -108c0 -62 60 -95 126 -95c73 0 154 40 154 101c0 51 -59 71 -125 85zM231 180
c72 0 100 56 100 115c0 64 -33 132 -105 132c-70 0 -98 -61 -98 -124c0 -62 29 -123 103 -123zM228 564c-29 0 -54 25 -54 54s25 54 54 54s54 -25 54 -54s-25 -54 -54 -54z" />
    <glyph glyph-name="Hcircumflex" unicode="&#x124;" horiz-adv-x="801" 
d="M53 -3v32c45 5 72 29 72 65v475c0 48 0 58 -74 73v25h78c90 0 112 4 112 4l5 -4s-33 -38 -33 -121v-186h372l10 10v199c0 48 0 58 -74 73v25h78c90 0 112 3 112 3l5 -4s-33 -37 -33 -120v-452c0 -30 -5 -54 -5 -54l90 -9l-4 -28l-241 -6v32c44 5 72 28 72 62v227h-372
l-10 -10v-214c0 -30 -5 -54 -5 -54l90 -9l-4 -28zM247 741l131 130h53l130 -130l-27 -23l-128 81h-4l-128 -81z" />
    <glyph glyph-name="Hbar" unicode="&#x126;" horiz-adv-x="801" 
d="M43 476v40h82v53c0 48 0 58 -74 73v25h78c90 0 112 4 112 4l5 -4s-33 -38 -33 -121v-30h382v53c0 48 0 58 -74 73v25h78c90 0 112 3 112 3l5 -4s-33 -37 -33 -120v-30h84v-40h-84v-382c0 -30 -5 -54 -5 -54l90 -9l-4 -28l-241 -6v32c44 5 72 28 72 62v227h-372l-10 -10
v-214c0 -30 -5 -54 -5 -54l90 -9l-4 -28l-241 -6v32c45 5 72 29 72 65v382h-82zM585 360l10 10v106h-382v-116h372z" />
    <glyph glyph-name="hcircumflex" unicode="&#x125;" horiz-adv-x="562" 
d="M28 -3v29c45 5 62 29 62 65v508c0 43 -1 68 -30 68h-42v27c115 25 161 45 161 45l3 -3s-10 -37 -10 -114v-194c0 -46 -4 -66 -4 -74c36 52 106 108 190 108c69 0 114 -38 114 -135v-236c0 -30 -5 -54 -5 -54l85 -9l-4 -25l-215 -6v29c41 5 57 29 57 65v214
c0 76 -29 96 -69 96c-46 0 -107 -28 -149 -68v-242c0 -30 -5 -54 -5 -54l80 -9l-4 -25zM8 759l-22 28l124 116h43l124 -116l-22 -28l-122 70h-4z" />
    <glyph glyph-name="hbar" unicode="&#x127;" horiz-adv-x="562" 
d="M25 527v42h65v30c0 43 -1 68 -30 68h-42v27c115 25 161 45 161 45l3 -3s-10 -37 -10 -114v-53h148v-42h-148v-99c0 -46 -4 -66 -4 -74c36 52 106 108 190 108c69 0 114 -38 114 -135v-236c0 -30 -5 -54 -5 -54l85 -9l-4 -25l-215 -6v29c41 5 57 29 57 65v214
c0 76 -29 96 -69 96c-46 0 -107 -28 -149 -68v-242c0 -30 -5 -54 -5 -54l80 -9l-4 -25l-215 -6v29c45 5 62 29 62 65v436h-65z" />
    <glyph glyph-name="Ibreve" unicode="&#x12c;" horiz-adv-x="331" 
d="M53 -3v32c44 5 72 28 72 62v478c0 48 0 58 -74 73v25h78c90 0 112 4 112 4l5 -4s-33 -38 -33 -121v-455c0 -29 -5 -51 -5 -51l95 -9l-4 -28zM162 720c-83 0 -141 44 -141 111c0 12 2 24 6 37h35c-8 -66 52 -86 100 -86c46 0 104 17 99 86h36c4 -13 5 -25 5 -37
c0 -67 -58 -111 -140 -111z" />
    <glyph glyph-name="Idotaccent" unicode="&#x130;" horiz-adv-x="331" 
d="M53 -3v32c44 5 72 28 72 62v478c0 48 0 58 -74 73v25h78c90 0 112 4 112 4l5 -4s-33 -38 -33 -121v-455c0 -29 -5 -51 -5 -51l95 -9l-4 -28zM162 740c-29 0 -54 25 -54 54s25 54 54 54s54 -25 54 -54s-25 -54 -54 -54z" />
    <glyph glyph-name="Imacron" unicode="&#x12a;" horiz-adv-x="331" 
d="M53 -3v32c44 5 72 28 72 62v478c0 48 0 58 -74 73v25h78c90 0 112 4 112 4l5 -4s-33 -38 -33 -121v-455c0 -29 -5 -51 -5 -51l95 -9l-4 -28zM33 765v59h258v-59h-258z" />
    <glyph glyph-name="Iogonek" unicode="&#x12e;" horiz-adv-x="331" 
d="M53 -3v32c44 5 72 28 72 62v478c0 48 0 58 -74 73v25h78c90 0 112 4 112 4l5 -4s-33 -38 -33 -121v-455c0 -29 -5 -51 -5 -51l95 -9l-4 -28l-48 -1c-35 -2 -104 -80 -104 -137c0 -44 35 -62 68 -62c10 0 21 2 21 2l7 -25c-30 -11 -57 -17 -80 -17c-60 0 -97 37 -97 84
c0 55 50 97 113 153z" />
    <glyph glyph-name="Itilde" unicode="&#x128;" horiz-adv-x="331" 
d="M53 -3v32c44 5 72 28 72 62v478c0 48 0 58 -74 73v25h78c90 0 112 4 112 4l5 -4s-33 -38 -33 -121v-455c0 -29 -5 -51 -5 -51l95 -9l-4 -28zM19 733l-34 7s8 113 98 113c61 0 121 -59 167 -59c45 0 55 59 55 59l35 -3s-6 -117 -107 -117c-69 0 -112 59 -158 59
c-42 0 -56 -59 -56 -59z" />
    <glyph glyph-name="ibreve" unicode="&#x12d;" horiz-adv-x="277" 
d="M38 -3v29c45 5 62 29 62 65v243c0 43 -1 68 -30 68h-45v27c146 34 167 47 167 47l1 -3s-11 -33 -11 -114v-268c0 -30 -5 -54 -5 -54l85 -9l-4 -25zM132 541c-76 0 -130 49 -130 118c0 12 1 24 5 37h35v-9c0 -23 7 -84 90 -84c82 0 90 61 90 84v9h35c3 -13 5 -25 5 -37
c0 -69 -54 -118 -130 -118z" />
    <glyph glyph-name="imacron" unicode="&#x12b;" horiz-adv-x="277" 
d="M38 -3v29c45 5 62 29 62 65v243c0 43 -1 68 -30 68h-45v27c146 34 167 47 167 47l1 -3s-11 -33 -11 -114v-268c0 -30 -5 -54 -5 -54l85 -9l-4 -25zM18 589v59h228v-59h-228z" />
    <glyph glyph-name="iogonek" unicode="&#x12f;" horiz-adv-x="277" 
d="M38 -3v29c45 5 62 29 62 65v243c0 43 -1 68 -30 68h-45v27c146 34 167 47 167 47l1 -3s-11 -33 -11 -114v-268c0 -30 -5 -54 -5 -54l85 -9l-4 -25l-40 -1c-35 -2 -104 -80 -104 -137c0 -44 35 -62 68 -62c10 0 21 2 21 2l7 -25c-30 -11 -57 -17 -80 -17
c-60 0 -97 37 -97 84c0 55 50 97 113 153zM132 564c-29 0 -54 25 -54 54s25 54 54 54s54 -25 54 -54s-25 -54 -54 -54z" />
    <glyph glyph-name="itilde" unicode="&#x129;" horiz-adv-x="277" 
d="M38 -3v29c45 5 62 29 62 65v243c0 43 -1 68 -30 68h-45v27c146 34 167 47 167 47l1 -3s-11 -33 -11 -114v-268c0 -30 -5 -54 -5 -54l85 -9l-4 -25zM-13 562c0 0 -8 122 85 122c68 0 81 -73 126 -73c42 0 42 67 42 67h37s7 -126 -87 -126c-68 0 -80 73 -125 73
c-41 0 -41 -63 -41 -63h-37z" />
    <glyph glyph-name="IJ" unicode="&#x132;" horiz-adv-x="634" 
d="M53 -3v32c44 5 72 28 72 62v478c0 48 0 58 -74 73v25h78c90 0 112 4 112 4l5 -4s-33 -38 -33 -121v-455c0 -29 -5 -51 -5 -51l95 -9l-4 -28zM443 50v519c0 48 0 58 -74 73v25h78c90 0 112 4 112 4l5 -4s-33 -38 -33 -121v-444c0 -167 -70 -265 -182 -265l-12 24
c54 8 106 87 106 189z" />
    <glyph glyph-name="ij" unicode="&#x133;" horiz-adv-x="527" 
d="M38 -3v29c45 5 62 29 62 65v243c0 43 -1 68 -30 68h-45v27c146 34 167 47 167 47l1 -3s-11 -33 -11 -114v-268c0 -30 -5 -54 -5 -54l85 -9l-4 -25zM132 564c-29 0 -54 25 -54 54s25 54 54 54s54 -25 54 -54s-25 -54 -54 -54zM369 -24v358c0 43 -1 68 -30 68h-45v27
c145 34 167 47 167 47l1 -3s-11 -29 -11 -110v-335c0 -167 -64 -265 -176 -265l-12 24c54 8 106 87 106 189zM401 564c-29 0 -54 25 -54 54s25 54 54 54s54 -25 54 -54s-25 -54 -54 -54z" />
    <glyph glyph-name="Jcircumflex" unicode="&#x134;" horiz-adv-x="307" 
d="M116 50v519c0 48 0 58 -74 73v25h78c90 0 112 4 112 4l5 -4s-33 -38 -33 -121v-444c0 -167 -70 -265 -182 -265l-12 24c54 8 106 87 106 189zM3 741l131 130h53l130 -130l-27 -23l-128 81h-4l-128 -81z" />
    <glyph glyph-name="jcircumflex" unicode="&#x135;" horiz-adv-x="251" 
d="M92 -24v358c0 43 -1 68 -30 68h-45v27c145 34 167 47 167 47l1 -3s-11 -29 -11 -110v-335c0 -167 -64 -265 -176 -265l-12 24c54 8 106 87 106 189zM-10 522l116 176h39l115 -176l-30 -19l-105 116l-105 -116z" />
    <glyph glyph-name="Kcommaaccent" unicode="&#x136;" horiz-adv-x="643" 
d="M53 -3v32c44 5 72 28 72 62v478c0 48 0 58 -74 73v25h78c90 0 112 4 112 4l5 -4s-33 -38 -33 -121v-176h19s18 11 34 27l195 194c19 19 20 45 -28 51v25h187l5 -14s-54 -12 -129 -87l-189 -188v-10l242 -278c45 -52 53 -54 85 -57l11 -1l-4 -32h-147l-3 3s-10 30 -75 106
l-187 217h-16v-235c0 -29 -5 -51 -5 -51l90 -9l-4 -28zM302 -66l11 23h75s24 -34 24 -72c0 -57 -58 -105 -105 -128l-20 29c38 22 57 42 57 67c0 22 -18 52 -42 81z" />
    <glyph glyph-name="kcommaaccent" unicode="&#x137;" horiz-adv-x="517" 
d="M28 -3v29c45 5 62 29 62 65v508c0 43 -1 68 -30 68h-42v27c115 25 161 45 161 45l3 -3s-10 -37 -10 -114v-355h12l101 85c16 14 38 30 38 48c0 12 -11 19 -33 25v25h183l5 -16s-58 -15 -105 -55l-116 -99v-10s9 -13 16 -20l148 -160c44 -48 53 -56 90 -59l11 -1l-4 -30
l-144 -3s-13 36 -41 69l-149 168h-12v-143c0 -30 -5 -54 -5 -54l80 -9l-4 -25zM218 -66l11 23h75s24 -34 24 -72c0 -57 -58 -105 -105 -128l-20 29c38 22 57 42 57 67c0 22 -18 52 -42 81z" />
    <glyph glyph-name="kgreenlandic" unicode="&#x138;" horiz-adv-x="520" 
d="M38 -3v29c45 5 62 29 62 65v243c0 43 -1 68 -30 68h-45v27c146 34 167 47 167 47l1 -3s-11 -33 -11 -114v-112h12l124 105c16 14 38 30 38 48c0 12 -11 19 -33 25v25h173l5 -16s-50 -17 -95 -55l-139 -119v-10s9 -13 16 -20l130 -140c44 -48 53 -56 90 -59l11 -1l-4 -30
l-144 -3s-12 37 -41 69l-131 148h-12v-123c0 -30 -5 -54 -5 -54l75 -9l-4 -25z" />
    <glyph glyph-name="Lacute" unicode="&#x139;" horiz-adv-x="564" 
d="M56 -3v32c45 5 67 26 67 62v478c0 48 0 58 -74 73v25h78c90 0 112 4 112 4l5 -4s-33 -38 -33 -121v-452c0 -30 -5 -55 -5 -55h167c86 0 102 31 152 144h34l-41 -183h-322c-50 0 -140 -3 -140 -3zM81 756l177 105h5l33 -52v-25l-202 -61z" />
    <glyph glyph-name="Lcommaaccent" unicode="&#x13b;" horiz-adv-x="564" 
d="M56 -3v32c45 5 67 26 67 62v478c0 48 0 58 -74 73v25h78c90 0 112 4 112 4l5 -4s-33 -38 -33 -121v-452c0 -30 -5 -55 -5 -55h167c86 0 102 31 152 144h34l-41 -183h-322c-50 0 -140 -3 -140 -3zM261 -66l11 23h75s24 -34 24 -72c0 -57 -58 -105 -105 -128l-20 29
c38 22 57 42 57 67c0 22 -18 52 -42 81z" />
    <glyph glyph-name="Ldot" unicode="&#x13f;" horiz-adv-x="564" 
d="M56 -3v32c45 5 67 26 67 62v478c0 48 0 58 -74 73v25h78c90 0 112 4 112 4l5 -4s-33 -38 -33 -121v-452c0 -30 -5 -55 -5 -55h167c86 0 102 31 152 144h34l-41 -183h-322c-50 0 -140 -3 -140 -3zM446 296c-33 0 -60 27 -60 60s27 60 60 60s60 -27 60 -60s-27 -60 -60 -60
z" />
    <glyph glyph-name="Lcaron" unicode="&#x13d;" horiz-adv-x="564" 
d="M56 -3v32c45 5 67 26 67 62v478c0 48 0 58 -74 73v25h78c90 0 112 4 112 4l5 -4s-33 -38 -33 -121v-452c0 -30 -5 -55 -5 -55h167c86 0 102 31 152 144h34l-41 -183h-322c-50 0 -140 -3 -140 -3zM301 550l25 188l82 10v-21l-72 -177h-35z" />
    <glyph glyph-name="lacute" unicode="&#x13a;" horiz-adv-x="267" 
d="M38 761l-13 33l177 105h5l33 -52v-25zM28 -3v29c45 5 62 29 62 65v508c0 43 -1 68 -30 68h-42v27c115 25 161 45 161 45l3 -3s-10 -37 -10 -114v-531c0 -30 -5 -54 -5 -54l85 -9l-4 -25z" />
    <glyph glyph-name="lcommaaccent" unicode="&#x13c;" horiz-adv-x="267" 
d="M28 -3v29c45 5 62 29 62 65v508c0 43 -1 68 -30 68h-42v27c115 25 161 45 161 45l3 -3s-10 -37 -10 -114v-531c0 -30 -5 -54 -5 -54l85 -9l-4 -25zM85 -66l11 23h75s24 -34 24 -72c0 -57 -58 -105 -105 -128l-20 29c38 22 57 42 57 67c0 22 -18 52 -42 81z" />
    <glyph glyph-name="ldot" unicode="&#x140;" horiz-adv-x="369" 
d="M28 -3v29c45 5 62 29 62 65v508c0 43 -1 68 -30 68h-42v27c115 25 161 45 161 45l3 -3s-10 -37 -10 -114v-531c0 -30 -5 -54 -5 -54l85 -9l-4 -25zM314 296c-33 0 -60 27 -60 60s27 60 60 60s60 -27 60 -60s-27 -60 -60 -60z" />
    <glyph glyph-name="lcaron" unicode="&#x13e;" horiz-adv-x="267" 
d="M28 -3v29c45 5 62 29 62 65v508c0 43 -1 68 -30 68h-42v27c115 25 161 45 161 45l3 -3s-10 -37 -10 -114v-531c0 -30 -5 -54 -5 -54l85 -9l-4 -25zM232 550l25 188l82 10v-21l-72 -177h-35z" />
    <glyph glyph-name="Nacute" unicode="&#x143;" horiz-adv-x="766" 
d="M55 -3v32c45 5 72 26 72 62v450c0 69 -16 89 -82 101v25h30c49 0 100 4 100 4s12 -23 37 -52l362 -418c13 -16 29 -37 40 -53v416c0 44 -1 67 -82 75v28h190l5 -14s-69 -19 -69 -102v-556h-26l-425 502c-12 14 -26 33 -36 48v-454c0 -30 -5 -54 -5 -54l90 -6l-4 -28z
M308 756l177 105h5l33 -52v-25l-202 -61z" />
    <glyph glyph-name="Ncaron" unicode="&#x147;" horiz-adv-x="766" 
d="M55 -3v32c45 5 72 26 72 62v450c0 69 -16 89 -82 101v25h30c49 0 100 4 100 4s12 -23 37 -52l362 -418c13 -16 29 -37 40 -53v416c0 44 -1 67 -82 75v28h190l5 -14s-69 -19 -69 -102v-556h-26l-425 502c-12 14 -26 33 -36 48v-454c0 -30 -5 -54 -5 -54l90 -6l-4 -28z
M237 848l27 23l128 -81h4l128 81l27 -23l-130 -130h-53z" />
    <glyph glyph-name="Ncommaaccent" unicode="&#x145;" horiz-adv-x="766" 
d="M55 -3v32c45 5 72 26 72 62v450c0 69 -16 89 -82 101v25h30c49 0 100 4 100 4s12 -23 37 -52l362 -418c13 -16 29 -37 40 -53v416c0 44 -1 67 -82 75v28h190l5 -14s-69 -19 -69 -102v-556h-26l-425 502c-12 14 -26 33 -36 48v-454c0 -30 -5 -54 -5 -54l90 -6l-4 -28z
M348 -66l11 23h75s24 -34 24 -72c0 -57 -58 -105 -105 -128l-20 29c38 22 57 42 57 67c0 22 -18 52 -42 81z" />
    <glyph glyph-name="nacute" unicode="&#x144;" horiz-adv-x="572" 
d="M38 -3v29c45 5 62 29 62 65v243c0 43 -1 68 -30 68h-45v27c98 20 160 47 160 47l3 -3s-9 -33 -10 -122c36 54 106 111 190 111c69 0 114 -38 114 -135v-236c0 -30 -5 -53 -5 -53l85 -10l-4 -25l-215 -6v29c45 5 57 29 57 65v214c0 76 -29 96 -69 96
c-46 0 -107 -27 -149 -70v-240c0 -30 -5 -53 -5 -53l80 -10l-4 -25zM282 505l-31 17l85 171l87 9v-27z" />
    <glyph glyph-name="ncaron" unicode="&#x148;" horiz-adv-x="572" 
d="M38 -3v29c45 5 62 29 62 65v243c0 43 -1 68 -30 68h-45v27c98 20 160 47 160 47l3 -3s-9 -33 -10 -122c36 54 106 111 190 111c69 0 114 -38 114 -135v-236c0 -30 -5 -53 -5 -53l85 -10l-4 -25l-215 -6v29c45 5 57 29 57 65v214c0 76 -29 96 -69 96
c-46 0 -107 -27 -149 -70v-240c0 -30 -5 -53 -5 -53l80 -10l-4 -25zM272 523l-116 166l30 19l105 -108l105 108l30 -19l-115 -166h-39z" />
    <glyph glyph-name="ncommaaccent" unicode="&#x146;" horiz-adv-x="572" 
d="M38 -3v29c45 5 62 29 62 65v243c0 43 -1 68 -30 68h-45v27c98 20 160 47 160 47l3 -3s-9 -33 -10 -122c36 54 106 111 190 111c69 0 114 -38 114 -135v-236c0 -30 -5 -53 -5 -53l85 -10l-4 -25l-215 -6v29c45 5 57 29 57 65v214c0 76 -29 96 -69 96
c-46 0 -107 -27 -149 -70v-240c0 -30 -5 -53 -5 -53l80 -10l-4 -25zM245 -66l11 23h75s24 -34 24 -72c0 -57 -58 -105 -105 -128l-20 29c38 22 57 42 57 67c0 22 -18 52 -42 81z" />
    <glyph glyph-name="Eng" unicode="&#x14a;" horiz-adv-x="766" 
d="M658 551v-503c0 -80 -19 -224 -101 -224c-30 0 -45 20 -45 42c0 27 23 37 33 41c18 8 67 20 67 95v16l-405 479c-12 14 -26 33 -36 48v-454c0 -30 -5 -54 -5 -54l90 -6l-4 -28l-197 -6v32c45 5 72 26 72 62v450c0 69 -16 89 -82 101v25h30c49 0 100 4 100 4
s12 -23 37 -52l362 -418c13 -16 29 -37 40 -53v416c0 44 -1 67 -82 75v28h190l5 -14s-69 -19 -69 -102z" />
    <glyph glyph-name="eng" unicode="&#x14b;" horiz-adv-x="552" 
d="M38 -3v29c45 5 62 29 62 65v243c0 43 -1 68 -30 68h-45v27c146 33 160 47 160 47l3 -3s-9 -33 -10 -122c36 54 106 111 190 111c69 0 114 -38 114 -135v-289c0 -242 -176 -275 -176 -275l-12 24s106 41 106 189v329c0 76 -29 96 -69 96c-46 0 -107 -27 -149 -70v-240
c0 -30 -5 -53 -5 -53l80 -10l-4 -25z" />
    <glyph glyph-name="napostrophe" unicode="&#x149;" horiz-adv-x="572" 
d="M38 -3v29c45 5 62 29 62 65v243c0 43 -1 68 -30 68h-45v27c98 20 160 47 160 47l3 -3s-9 -33 -10 -122c36 54 106 111 190 111c69 0 114 -38 114 -135v-236c0 -30 -5 -53 -5 -53l85 -10l-4 -25l-215 -6v29c45 5 57 29 57 65v214c0 76 -29 96 -69 96
c-46 0 -107 -27 -149 -70v-240c0 -30 -5 -53 -5 -53l80 -10l-4 -25zM53 714l11 23h75s24 -34 24 -72c0 -57 -58 -105 -105 -128l-20 29c38 22 57 42 57 67c0 22 -18 52 -42 81z" />
    <glyph glyph-name="Obreve" unicode="&#x14e;" horiz-adv-x="795" 
d="M144 351c0 -149 94 -323 259 -323c157 0 248 158 248 304c0 150 -94 307 -260 307c-156 0 -247 -141 -247 -288zM45 325c0 180 129 354 363 354c209 0 342 -141 342 -322c0 -191 -146 -369 -367 -369c-205 0 -338 155 -338 337zM395 720c-83 0 -141 44 -141 111
c0 12 2 24 6 37h35c-8 -66 52 -86 100 -86c46 0 104 17 99 86h36c4 -13 5 -25 5 -37c0 -67 -58 -111 -140 -111z" />
    <glyph glyph-name="Ohungarumlaut" unicode="&#x150;" horiz-adv-x="795" 
d="M144 351c0 -149 94 -323 259 -323c157 0 248 158 248 304c0 150 -94 307 -260 307c-156 0 -247 -141 -247 -288zM45 325c0 180 129 354 363 354c209 0 342 -141 342 -322c0 -191 -146 -369 -367 -369c-205 0 -338 155 -338 337zM304 718l-30 19l62 128l97 9v-27zM471 718
l-30 19l72 128l97 9v-27z" />
    <glyph glyph-name="Omacron" unicode="&#x14c;" horiz-adv-x="795" 
d="M144 351c0 -149 94 -323 259 -323c157 0 248 158 248 304c0 150 -94 307 -260 307c-156 0 -247 -141 -247 -288zM45 325c0 180 129 354 363 354c209 0 342 -141 342 -322c0 -191 -146 -369 -367 -369c-205 0 -338 155 -338 337zM266 765v59h258v-59h-258z" />
    <glyph glyph-name="obreve" unicode="&#x14f;" horiz-adv-x="532" 
d="M38 215c0 117 65 247 235 247c146 0 221 -96 221 -219c0 -124 -77 -255 -237 -255c-141 0 -219 99 -219 227zM130 238c0 -100 41 -216 141 -216c85 0 131 86 131 193c0 99 -40 213 -141 213c-92 0 -131 -94 -131 -190zM264 541c-76 0 -130 49 -130 118c0 12 1 24 5 37h35
v-9c0 -23 7 -84 90 -84c82 0 90 61 90 84v9h35c3 -13 5 -25 5 -37c0 -69 -54 -118 -130 -118z" />
    <glyph glyph-name="ohungarumlaut" unicode="&#x151;" horiz-adv-x="532" 
d="M38 215c0 117 65 247 235 247c146 0 221 -96 221 -219c0 -124 -77 -255 -237 -255c-141 0 -219 99 -219 227zM130 238c0 -100 41 -216 141 -216c85 0 131 86 131 193c0 99 -40 213 -141 213c-92 0 -131 -94 -131 -190zM194 505l-31 17l78 171l78 9v-27zM336 505l-31 17
l78 171l78 9v-27z" />
    <glyph glyph-name="omacron" unicode="&#x14d;" horiz-adv-x="532" 
d="M38 215c0 117 65 247 235 247c146 0 221 -96 221 -219c0 -124 -77 -255 -237 -255c-141 0 -219 99 -219 227zM130 238c0 -100 41 -216 141 -216c85 0 131 86 131 193c0 99 -40 213 -141 213c-92 0 -131 -94 -131 -190zM150 589v59h228v-59h-228z" />
    <glyph glyph-name="Oslashacute" unicode="&#x1fe;" horiz-adv-x="795" 
d="M45 325c0 180 129 354 363 354c72 0 134 -17 186 -46l49 64h56l-68 -89c76 -58 119 -148 119 -251c0 -191 -146 -369 -367 -369c-71 0 -134 18 -185 50l-52 -68h-57l72 95c-74 63 -116 157 -116 260zM651 332c0 75 -24 153 -69 211l-339 -447c41 -41 95 -68 160 -68
c157 0 248 158 248 304zM144 351c0 -75 24 -156 68 -219l339 444c-42 38 -95 63 -160 63c-156 0 -247 -141 -247 -288zM311 756l177 105h5l33 -52v-25l-202 -61z" />
    <glyph glyph-name="oslashacute" unicode="&#x1ff;" horiz-adv-x="532" 
d="M50 -30l55 73c-44 41 -67 102 -67 172c0 117 65 247 235 247c48 0 89 -11 121 -30l36 48h52l-54 -72c44 -40 66 -99 66 -165c0 -124 -77 -255 -237 -255c-47 0 -86 11 -119 30l-35 -48h-53zM130 238c0 -44 7 -90 24 -128l201 270c-22 29 -53 48 -94 48
c-92 0 -131 -94 -131 -190zM402 215c0 42 -8 87 -24 125l-201 -270c22 -30 53 -48 94 -48c85 0 131 86 131 193zM257 505l-31 17l85 171l87 9v-27z" />
    <glyph glyph-name="Racute" unicode="&#x154;" horiz-adv-x="628" 
d="M54 -3v32c44 5 72 28 72 62v478c0 48 -5 58 -82 73v25h232c180 0 248 -74 248 -161c0 -94 -84 -158 -132 -183v-13l144 -211c43 -62 63 -64 89 -66l11 -1l-4 -32h-145l-4 3s-21 50 -62 110l-124 183h-73l-10 -10v-195c0 -29 -5 -51 -5 -51l90 -9l-4 -28zM214 335h84
c60 0 129 48 129 145c0 76 -43 148 -166 148h-37l-10 -10v-283zM210 756l177 105h5l33 -52v-25l-202 -61z" />
    <glyph glyph-name="Rcaron" unicode="&#x158;" horiz-adv-x="628" 
d="M54 -3v32c44 5 72 28 72 62v478c0 48 -5 58 -82 73v25h232c180 0 248 -74 248 -161c0 -94 -84 -158 -132 -183v-13l144 -211c43 -62 63 -64 89 -66l11 -1l-4 -32h-145l-4 3s-21 50 -62 110l-124 183h-73l-10 -10v-195c0 -29 -5 -51 -5 -51l90 -9l-4 -28zM214 335h84
c60 0 129 48 129 145c0 76 -43 148 -166 148h-37l-10 -10v-283zM139 848l27 23l128 -81h4l128 81l27 -23l-130 -130h-53z" />
    <glyph glyph-name="Rcommaaccent" unicode="&#x156;" horiz-adv-x="628" 
d="M54 -3v32c44 5 72 28 72 62v478c0 48 -5 58 -82 73v25h232c180 0 248 -74 248 -161c0 -94 -84 -158 -132 -183v-13l144 -211c43 -62 63 -64 89 -66l11 -1l-4 -32h-145l-4 3s-21 50 -62 110l-124 183h-73l-10 -10v-195c0 -29 -5 -51 -5 -51l90 -9l-4 -28zM214 335h84
c60 0 129 48 129 145c0 76 -43 148 -166 148h-37l-10 -10v-283zM291 -66l11 23h75s24 -34 24 -72c0 -57 -58 -105 -105 -128l-20 29c38 22 57 42 57 67c0 22 -18 52 -42 81z" />
    <glyph glyph-name="racute" unicode="&#x155;" horiz-adv-x="375" 
d="M38 -3v29c45 5 62 29 62 65v243c0 43 -1 68 -30 68h-45v27c98 20 162 47 162 47l3 -3s-9 -33 -12 -127c30 56 83 116 135 116c24 0 54 -12 54 -46c0 -30 -21 -49 -47 -49c-23 0 -26 17 -49 17c-34 0 -67 -33 -89 -58v-235c0 -30 -5 -54 -5 -54l95 -9l-4 -25zM187 505
l-31 17l85 171l87 9v-27z" />
    <glyph glyph-name="rcaron" unicode="&#x159;" horiz-adv-x="375" 
d="M38 -3v29c45 5 62 29 62 65v243c0 43 -1 68 -30 68h-45v27c98 20 162 47 162 47l3 -3s-9 -33 -12 -127c30 56 83 116 135 116c24 0 54 -12 54 -46c0 -30 -21 -49 -47 -49c-23 0 -26 17 -49 17c-34 0 -67 -33 -89 -58v-235c0 -30 -5 -54 -5 -54l95 -9l-4 -25zM177 523
l-116 166l30 19l105 -108l105 108l30 -19l-115 -166h-39z" />
    <glyph glyph-name="rcommaaccent" unicode="&#x157;" horiz-adv-x="375" 
d="M38 -3v29c45 5 62 29 62 65v243c0 43 -1 68 -30 68h-45v27c98 20 162 47 162 47l3 -3s-9 -33 -12 -127c30 56 83 116 135 116c24 0 54 -12 54 -46c0 -30 -21 -49 -47 -49c-23 0 -26 17 -49 17c-34 0 -67 -33 -89 -58v-235c0 -30 -5 -54 -5 -54l95 -9l-4 -25zM95 -66
l11 23h75s24 -34 24 -72c0 -57 -58 -105 -105 -128l-20 29c38 22 57 42 57 67c0 22 -18 52 -42 81z" />
    <glyph glyph-name="Sacute" unicode="&#x15a;" horiz-adv-x="506" 
d="M44 91c0 15 4 29 23 89h34c0 -122 77 -154 145 -154c65 0 127 28 127 105c0 174 -313 171 -313 374c0 99 75 174 223 174c71 0 143 -16 165 -19l-31 -156h-34c10 75 -28 137 -112 137c-67 0 -124 -31 -124 -104c0 -175 313 -158 313 -373c0 -120 -103 -176 -223 -176
c-87 0 -193 30 -193 103zM177 756l177 105h5l33 -52v-25l-202 -61z" />
    <glyph glyph-name="Scedilla" unicode="&#x15e;" horiz-adv-x="506" 
d="M194 -81c0 21 19 52 30 69c-84 3 -180 33 -180 103c0 15 4 29 23 89h34c0 -122 77 -154 145 -154c65 0 127 28 127 105c0 174 -313 171 -313 374c0 99 75 174 223 174c71 0 143 -16 165 -19l-31 -156h-34c10 75 -28 137 -112 137c-67 0 -124 -31 -124 -104
c0 -175 313 -158 313 -373c0 -113 -90 -168 -200 -175c-4 -10 -8 -25 -8 -34c0 -35 84 -27 84 -94c0 -49 -47 -98 -111 -98c-56 0 -91 36 -91 36l15 32s34 -25 70 -25c31 0 52 15 52 36c0 34 -77 37 -77 77z" />
    <glyph glyph-name="Scircumflex" unicode="&#x15c;" horiz-adv-x="506" 
d="M44 91c0 15 4 29 23 89h34c0 -122 77 -154 145 -154c65 0 127 28 127 105c0 174 -313 171 -313 374c0 99 75 174 223 174c71 0 143 -16 165 -19l-31 -156h-34c10 75 -28 137 -112 137c-67 0 -124 -31 -124 -104c0 -175 313 -158 313 -373c0 -120 -103 -176 -223 -176
c-87 0 -193 30 -193 103zM106 741l131 130h53l130 -130l-27 -23l-128 81h-4l-128 -81z" />
    <glyph glyph-name="Scommaaccent" unicode="&#x218;" horiz-adv-x="506" 
d="M44 91c0 15 4 29 23 89h34c0 -122 77 -154 145 -154c65 0 127 28 127 105c0 174 -313 171 -313 374c0 99 75 174 223 174c71 0 143 -16 165 -19l-31 -156h-34c10 75 -28 137 -112 137c-67 0 -124 -31 -124 -104c0 -175 313 -158 313 -373c0 -120 -103 -176 -223 -176
c-87 0 -193 30 -193 103zM202 -66l11 23h75s24 -34 24 -72c0 -57 -58 -105 -105 -128l-20 29c38 22 57 42 57 67c0 22 -18 52 -42 81z" />
    <glyph glyph-name="sacute" unicode="&#x15b;" horiz-adv-x="386" 
d="M39 56c0 20 13 76 13 76h30c6 -85 65 -110 113 -110c49 0 83 26 83 68c0 107 -229 100 -229 245c0 74 57 127 163 127c60 0 125 -18 125 -18l-20 -103h-31c0 82 -69 87 -90 87c-54 0 -75 -33 -75 -64c0 -106 228 -87 228 -245c0 -83 -65 -131 -160 -131
c-46 0 -150 11 -150 68zM190 505l-31 17l85 171l87 9v-27z" />
    <glyph glyph-name="scedilla" unicode="&#x15f;" horiz-adv-x="386" 
d="M140 -81c0 21 19 53 31 70c-51 2 -132 16 -132 67c0 20 13 76 13 76h30c6 -85 65 -110 113 -110c49 0 83 26 83 68c0 107 -229 100 -229 245c0 74 57 127 163 127c60 0 125 -18 125 -18l-20 -103h-31c0 82 -69 87 -90 87c-54 0 -75 -33 -75 -64c0 -106 228 -87 228 -245
c0 -78 -58 -125 -143 -130c-4 -11 -8 -25 -8 -34c0 -35 84 -27 84 -94c0 -49 -47 -98 -111 -98c-56 0 -91 36 -91 36l15 32s34 -25 70 -25c31 0 52 15 52 36c0 34 -77 37 -77 77z" />
    <glyph glyph-name="scircumflex" unicode="&#x15d;" horiz-adv-x="386" 
d="M39 56c0 20 13 76 13 76h30c6 -85 65 -110 113 -110c49 0 83 26 83 68c0 107 -229 100 -229 245c0 74 57 127 163 127c60 0 125 -18 125 -18l-20 -103h-31c0 82 -69 87 -90 87c-54 0 -75 -33 -75 -64c0 -106 228 -87 228 -245c0 -83 -65 -131 -160 -131
c-46 0 -150 11 -150 68zM64 522l116 176h39l115 -176l-30 -19l-105 116l-105 -116z" />
    <glyph glyph-name="scommaaccent" unicode="&#x219;" horiz-adv-x="386" 
d="M39 56c0 20 13 76 13 76h30c6 -85 65 -110 113 -110c49 0 83 26 83 68c0 107 -229 100 -229 245c0 74 57 127 163 127c60 0 125 -18 125 -18l-20 -103h-31c0 82 -69 87 -90 87c-54 0 -75 -33 -75 -64c0 -106 228 -87 228 -245c0 -83 -65 -131 -160 -131
c-46 0 -150 11 -150 68zM148 -66l11 23h75s24 -34 24 -72c0 -57 -58 -105 -105 -128l-20 29c38 22 57 42 57 67c0 22 -18 52 -42 81z" />
    <glyph glyph-name="Tcommaaccent" unicode="&#x162;" horiz-adv-x="645" 
d="M204 -3v32c45 5 72 29 72 65v534h-99c-69 0 -99 -21 -137 -124h-34l31 169s26 -6 67 -6h468c41 0 72 6 72 6l-31 -169h-34c5 103 -28 124 -106 124h-99l-10 -10v-524c0 -30 -5 -54 -5 -54l100 -9l-4 -28l-129 -3h10s-12 -31 -12 -45c0 -35 84 -27 84 -94
c0 -49 -47 -98 -111 -98c-56 0 -91 36 -91 36l15 32s34 -25 70 -25c31 0 52 15 52 36c0 34 -77 37 -77 77c0 28 35 76 38 81z" />
    <glyph glyph-name="Tcaron" unicode="&#x164;" horiz-adv-x="645" 
d="M204 -3v32c45 5 72 29 72 65v534h-99c-69 0 -99 -21 -137 -124h-34l31 169s26 -6 67 -6h468c41 0 72 6 72 6l-31 -169h-34c5 103 -28 124 -106 124h-99l-10 -10v-524c0 -30 -5 -54 -5 -54l100 -9l-4 -28zM163 848l27 23l128 -81h4l128 81l27 -23l-130 -130h-53z" />
    <glyph glyph-name="uni021A" unicode="&#x21a;" horiz-adv-x="645" 
d="M204 -3v32c45 5 72 29 72 65v534h-99c-69 0 -99 -21 -137 -124h-34l31 169s26 -6 67 -6h468c41 0 72 6 72 6l-31 -169h-34c5 103 -28 124 -106 124h-99l-10 -10v-524c0 -30 -5 -54 -5 -54l100 -9l-4 -28zM274 -66l11 23h75s24 -34 24 -72c0 -57 -58 -105 -105 -128
l-20 29c38 22 57 42 57 67c0 22 -18 52 -42 81z" />
    <glyph glyph-name="Tbar" unicode="&#x166;" horiz-adv-x="645" 
d="M121 324v42h155v262h-99c-69 0 -99 -21 -137 -124h-34l31 169s26 -6 67 -6h468c41 0 72 6 72 6l-31 -169h-34c5 103 -28 124 -106 124h-99l-10 -10v-252h152v-42h-152v-230c0 -30 -5 -54 -5 -54l100 -9l-4 -28l-251 -6v32c45 5 72 29 72 65v230h-155z" />
    <glyph glyph-name="tcommaaccent" unicode="&#x163;" horiz-adv-x="347" 
d="M144 -81c0 21 20 54 31 71c-57 8 -88 48 -88 129v215c0 29 3 65 3 65h-66v30s44 9 68 31l37 109l45 -1l3 -3s-9 -29 -9 -100v-15h156l-7 -48h-138l-10 -10v-254c0 -58 17 -90 70 -90c45 0 90 21 90 21l13 -19s-52 -56 -132 -61c-4 -11 -8 -25 -8 -34c0 -35 84 -27 84 -94
c0 -49 -47 -98 -111 -98c-56 0 -91 36 -91 36l15 32s34 -25 70 -25c31 0 52 15 52 36c0 34 -77 37 -77 77z" />
    <glyph glyph-name="tcaron" unicode="&#x165;" horiz-adv-x="347" 
d="M87 119v215c0 29 3 65 3 65h-66v30s44 9 68 31l37 109l45 -1l3 -3s-9 -29 -9 -100v-15h156l-7 -48h-138l-10 -10v-254c0 -58 17 -90 70 -90c45 0 90 21 90 21l13 -19s-57 -62 -144 -62c-71 0 -111 40 -111 131zM239 549l25 188l82 10v-21l-72 -177h-35z" />
    <glyph glyph-name="uni021B" unicode="&#x21b;" horiz-adv-x="347" 
d="M87 119v215c0 29 3 65 3 65h-66v30s44 9 68 31l37 109l45 -1l3 -3s-9 -29 -9 -100v-15h156l-7 -48h-138l-10 -10v-254c0 -58 17 -90 70 -90c45 0 90 21 90 21l13 -19s-57 -62 -144 -62c-71 0 -111 40 -111 131zM152 -66l11 23h75s24 -34 24 -72c0 -57 -58 -105 -105 -128
l-20 29c38 22 57 42 57 67c0 22 -18 52 -42 81z" />
    <glyph glyph-name="tbar" unicode="&#x167;" horiz-adv-x="347" 
d="M24 246v42h63v46c0 29 3 65 3 65h-66v30s44 9 68 31l37 109l45 -1l3 -3s-9 -29 -9 -100v-15h156l-7 -48h-138l-10 -10v-104h149v-42h-149v-108c0 -58 17 -90 70 -90c45 0 90 21 90 21l13 -19s-57 -62 -144 -62c-71 0 -111 40 -111 131v127h-63z" />
    <glyph glyph-name="Ubreve" unicode="&#x16c;" horiz-adv-x="735" 
d="M99 235v334c0 48 0 58 -74 73v25h78c90 0 112 4 112 4l5 -4s-33 -38 -33 -121v-303c0 -146 99 -210 199 -210s205 68 205 203v328c0 44 -1 67 -81 75v28h194l5 -14s-69 -19 -69 -102v-312c0 -163 -126 -251 -276 -251c-132 0 -265 64 -265 247zM379 720
c-83 0 -141 44 -141 111c0 12 2 24 6 37h35c-8 -66 52 -86 100 -86c46 0 104 17 99 86h36c4 -13 5 -25 5 -37c0 -67 -58 -111 -140 -111z" />
    <glyph glyph-name="Uhungarumlaut" unicode="&#x170;" horiz-adv-x="735" 
d="M99 235v334c0 48 0 58 -74 73v25h78c90 0 112 4 112 4l5 -4s-33 -38 -33 -121v-303c0 -146 99 -210 199 -210s205 68 205 203v328c0 44 -1 67 -81 75v28h194l5 -14s-69 -19 -69 -102v-312c0 -163 -126 -251 -276 -251c-132 0 -265 64 -265 247zM288 718l-30 19l62 128
l97 9v-27zM455 718l-30 19l72 128l97 9v-27z" />
    <glyph glyph-name="Umacron" unicode="&#x16a;" horiz-adv-x="735" 
d="M99 235v334c0 48 0 58 -74 73v25h78c90 0 112 4 112 4l5 -4s-33 -38 -33 -121v-303c0 -146 99 -210 199 -210s205 68 205 203v328c0 44 -1 67 -81 75v28h194l5 -14s-69 -19 -69 -102v-312c0 -163 -126 -251 -276 -251c-132 0 -265 64 -265 247zM250 765v59h258v-59h-258z
" />
    <glyph glyph-name="Uogonek" unicode="&#x172;" horiz-adv-x="737" 
d="M99 235v334c0 48 0 58 -74 73v25h78c90 0 112 4 112 4l5 -4s-33 -38 -33 -121v-303c0 -146 99 -210 199 -210s205 68 205 203v328c0 44 -1 67 -81 75v28h194l5 -14s-69 -19 -69 -102v-312c0 -104 -52 -178 -128 -217h1c-25 -17 -110 -89 -110 -155c0 -48 35 -64 67 -64
c8 0 22 2 22 2l7 -25c-30 -11 -57 -17 -80 -17c-60 0 -97 37 -97 84c0 53 47 93 106 147c-21 -4 -42 -6 -64 -6c-132 0 -265 64 -265 247z" />
    <glyph glyph-name="Uring" unicode="&#x16e;" horiz-adv-x="735" 
d="M99 235v334c0 48 0 58 -74 73v25h78c90 0 112 4 112 4l5 -4s-33 -38 -33 -121v-303c0 -146 99 -210 199 -210s205 68 205 203v328c0 44 -1 67 -81 75v28h194l5 -14s-69 -19 -69 -102v-312c0 -163 -126 -251 -276 -251c-132 0 -265 64 -265 247zM379 686
c-64 0 -94 43 -94 84s30 81 94 81s94 -40 94 -81s-30 -84 -94 -84zM379 720c31 0 48 24 48 49c0 24 -15 48 -48 48c-34 0 -47 -24 -47 -48c0 -25 15 -49 47 -49z" />
    <glyph glyph-name="Utilde" unicode="&#x168;" horiz-adv-x="735" 
d="M99 235v334c0 48 0 58 -74 73v25h78c90 0 112 4 112 4l5 -4s-33 -38 -33 -121v-303c0 -146 99 -210 199 -210s205 68 205 203v328c0 44 -1 67 -81 75v28h194l5 -14s-69 -19 -69 -102v-312c0 -163 -126 -251 -276 -251c-132 0 -265 64 -265 247zM236 733l-34 7
s8 113 98 113c61 0 121 -59 167 -59c45 0 55 59 55 59l35 -3s-6 -117 -107 -117c-69 0 -112 59 -158 59c-42 0 -56 -59 -56 -59z" />
    <glyph glyph-name="ubreve" unicode="&#x16d;" horiz-adv-x="559" 
d="M86 122v212c0 43 -1 68 -30 68h-35v28c97 17 152 37 152 37l4 -3s-9 -28 -9 -105v-214c0 -76 27 -96 68 -96c46 0 102 27 145 71v214c0 43 -1 68 -30 68h-33v28c96 17 150 37 150 37l4 -3s-9 -28 -9 -105v-264c0 -57 23 -57 56 -57h28l-3 -27c-109 -11 -164 -20 -164 -20
l-4 3s9 29 9 54v52c-36 -53 -102 -112 -186 -112c-70 0 -113 38 -113 134zM274 541c-76 0 -130 49 -130 118c0 12 1 24 5 37h35v-9c0 -23 7 -84 90 -84c82 0 90 61 90 84v9h35c3 -13 5 -25 5 -37c0 -69 -54 -118 -130 -118z" />
    <glyph glyph-name="uhungarumlaut" unicode="&#x171;" horiz-adv-x="559" 
d="M86 122v212c0 43 -1 68 -30 68h-35v28c97 17 152 37 152 37l4 -3s-9 -28 -9 -105v-214c0 -76 27 -96 68 -96c46 0 102 27 145 71v214c0 43 -1 68 -30 68h-33v28c96 17 150 37 150 37l4 -3s-9 -28 -9 -105v-264c0 -57 23 -57 56 -57h28l-3 -27c-109 -11 -164 -20 -164 -20
l-4 3s9 29 9 54v52c-36 -53 -102 -112 -186 -112c-70 0 -113 38 -113 134zM204 505l-31 17l78 171l78 9v-27zM346 505l-31 17l78 171l78 9v-27z" />
    <glyph glyph-name="umacron" unicode="&#x16b;" horiz-adv-x="559" 
d="M86 122v212c0 43 -1 68 -30 68h-35v28c97 17 152 37 152 37l4 -3s-9 -28 -9 -105v-214c0 -76 27 -96 68 -96c46 0 102 27 145 71v214c0 43 -1 68 -30 68h-33v28c96 17 150 37 150 37l4 -3s-9 -28 -9 -105v-264c0 -57 23 -57 56 -57h28l-3 -27c-109 -11 -164 -20 -164 -20
l-4 3s9 29 9 54v52c-36 -53 -102 -112 -186 -112c-70 0 -113 38 -113 134zM160 589v59h228v-59h-228z" />
    <glyph glyph-name="uogonek" unicode="&#x173;" horiz-adv-x="559" 
d="M86 122v212c0 43 -1 68 -30 68h-35v28c97 17 152 37 152 37l4 -3s-9 -28 -9 -105v-214c0 -76 27 -96 68 -96c46 0 102 27 145 71v214c0 43 -1 68 -30 68h-33v28c96 17 150 37 150 37l4 -3s-9 -28 -9 -105v-264c0 -57 23 -57 56 -57h28l-3 -27c-42 -4 -75 -8 -101 -11
c-37 -13 -94 -83 -94 -135c0 -44 35 -62 68 -62c10 0 21 2 21 2l7 -25c-30 -11 -57 -17 -80 -17c-60 0 -97 37 -97 84c0 54 48 95 109 150c2 5 8 29 8 51v52c-36 -53 -102 -112 -186 -112c-70 0 -113 38 -113 134z" />
    <glyph glyph-name="uring" unicode="&#x16f;" horiz-adv-x="559" 
d="M86 122v212c0 43 -1 68 -30 68h-35v28c97 17 152 37 152 37l4 -3s-9 -28 -9 -105v-214c0 -76 27 -96 68 -96c46 0 102 27 145 71v214c0 43 -1 68 -30 68h-33v28c96 17 150 37 150 37l4 -3s-9 -28 -9 -105v-264c0 -57 23 -57 56 -57h28l-3 -27c-109 -11 -164 -20 -164 -20
l-4 3s9 29 9 54v52c-36 -53 -102 -112 -186 -112c-70 0 -113 38 -113 134zM274 536c-64 0 -94 43 -94 84s30 81 94 81s94 -40 94 -81s-30 -84 -94 -84zM274 570c31 0 48 24 48 49c0 24 -15 48 -48 48c-34 0 -47 -24 -47 -48c0 -25 15 -49 47 -49z" />
    <glyph glyph-name="utilde" unicode="&#x169;" horiz-adv-x="559" 
d="M86 122v212c0 43 -1 68 -30 68h-35v28c97 17 152 37 152 37l4 -3s-9 -28 -9 -105v-214c0 -76 27 -96 68 -96c46 0 102 27 145 71v214c0 43 -1 68 -30 68h-33v28c96 17 150 37 150 37l4 -3s-9 -28 -9 -105v-264c0 -57 23 -57 56 -57h28l-3 -27c-109 -11 -164 -20 -164 -20
l-4 3s9 29 9 54v52c-36 -53 -102 -112 -186 -112c-70 0 -113 38 -113 134zM129 562c0 0 -8 122 85 122c68 0 81 -73 126 -73c42 0 42 67 42 67h37s7 -126 -87 -126c-68 0 -80 73 -125 73c-41 0 -41 -63 -41 -63h-37z" />
    <glyph glyph-name="Wacute" unicode="&#x1e82;" horiz-adv-x="961" 
d="M660 3l-184 475l-154 -487l-39 12l-230 584c-17 43 -59 55 -59 55v25h61c63 0 103 4 103 4l4 -4c-11 -24 -17 -63 -6 -92l144 -386c7 -19 14 -45 19 -64l132 416l-17 46c-17 43 -59 55 -59 55v25h61c63 0 103 4 103 4l4 -4c-11 -24 -17 -63 -6 -92l141 -388
c6 -18 13 -42 18 -61l136 429c15 47 4 72 -48 87v25h152l4 -14s-35 -18 -65 -107l-176 -555zM390 756l177 105h5l33 -52v-25l-202 -61z" />
    </font>
</defs>
</svg>
